%TF.GenerationSoftware,KiCad,Pcbnew,10.0.5*%
%TF.CreationDate,2026-09-07T15:44:26+01:00*%
%TF.ProjectId,deltavr hmd,64656c74-6176-4722-9068-6d642e6b6963,rev?*%
%TF.SameCoordinates,Original*%
%TF.FileFunction,Copper,L1,Top*%
%TF.FilePolarity,Positive*%
%FSLAX46Y46*%
G04 Gerber Fmt 4.6, Leading zero omitted, Abs format (unit mm)*
G04 Created by KiCad (PCBNEW 10.0.5) date 2026-09-07 15:44:26*
%MOMM*%
%LPD*%
G01*
G04 APERTURE LIST*
G04 Aperture macros list*
%AMRoundRect*
0 Rectangle with rounded corners*
0 $1 Rounding radius*
0 $2 $3 $4 $5 $6 $7 $8 $9 X,Y pos of 4 corners*
0 Add a 4 corners polygon primitive as box body*
4,1,4,$2,$3,$4,$5,$6,$7,$8,$9,$2,$3,0*
0 Add four circle primitives for the rounded corners*
1,1,$1+$1,$2,$3*
1,1,$1+$1,$4,$5*
1,1,$1+$1,$6,$7*
1,1,$1+$1,$8,$9*
0 Add four rect primitives between the rounded corners*
20,1,$1+$1,$2,$3,$4,$5,0*
20,1,$1+$1,$4,$5,$6,$7,0*
20,1,$1+$1,$6,$7,$8,$9,0*
20,1,$1+$1,$8,$9,$2,$3,0*%
G04 Aperture macros list end*
%TA.AperFunction,ComponentPad*%
%ADD10C,5.600000*%
%TD*%
%TA.AperFunction,ComponentPad*%
%ADD11R,1.700000X1.700000*%
%TD*%
%TA.AperFunction,ComponentPad*%
%ADD12C,1.700000*%
%TD*%
%TA.AperFunction,SMDPad,CuDef*%
%ADD13R,0.633400X0.354800*%
%TD*%
%TA.AperFunction,SMDPad,CuDef*%
%ADD14R,0.354800X0.633400*%
%TD*%
%TA.AperFunction,SMDPad,CuDef*%
%ADD15RoundRect,0.237500X-0.237500X0.300000X-0.237500X-0.300000X0.237500X-0.300000X0.237500X0.300000X0*%
%TD*%
%TA.AperFunction,SMDPad,CuDef*%
%ADD16RoundRect,0.237500X0.300000X0.237500X-0.300000X0.237500X-0.300000X-0.237500X0.300000X-0.237500X0*%
%TD*%
%TA.AperFunction,ComponentPad*%
%ADD17C,1.752600*%
%TD*%
%TA.AperFunction,SMDPad,CuDef*%
%ADD18RoundRect,0.237500X-0.300000X-0.237500X0.300000X-0.237500X0.300000X0.237500X-0.300000X0.237500X0*%
%TD*%
%TA.AperFunction,SMDPad,CuDef*%
%ADD19RoundRect,0.237500X-0.250000X-0.237500X0.250000X-0.237500X0.250000X0.237500X-0.250000X0.237500X0*%
%TD*%
%TA.AperFunction,ComponentPad*%
%ADD20R,1.800000X1.800000*%
%TD*%
%TA.AperFunction,ComponentPad*%
%ADD21C,1.800000*%
%TD*%
%TA.AperFunction,ViaPad*%
%ADD22C,0.600000*%
%TD*%
%TA.AperFunction,Conductor*%
%ADD23C,0.200000*%
%TD*%
G04 APERTURE END LIST*
D10*
%TO.P,M3 screw,1*%
%TO.N,N/C*%
X131828400Y-83500000D03*
%TD*%
D11*
%TO.P,U3,1,GND_1*%
%TO.N,/gnd*%
X168960000Y-97460000D03*
D12*
%TO.P,U3,2,VCC_2*%
%TO.N,/3.3v*%
X171500000Y-97460000D03*
%TO.P,U3,3,CE_3*%
%TO.N,Net-(U2-P1.07)*%
X168960000Y-100000000D03*
%TO.P,U3,4,~{CSN}_4*%
%TO.N,Net-(U2-P1.11)*%
X171500000Y-100000000D03*
%TO.P,U3,5,SCK_5*%
%TO.N,/scl*%
X168960000Y-102540000D03*
%TO.P,U3,6,MOSI_6*%
%TO.N,/sda*%
X171500000Y-102540000D03*
%TO.P,U3,7,MISO_7*%
%TO.N,/sdo*%
X168960000Y-105080000D03*
%TO.P,U3,8,IRQ_8*%
%TO.N,Net-(U2-P1.06)*%
X171500000Y-105080000D03*
%TD*%
D13*
%TO.P,U1,1,SDO/SA0_1*%
%TO.N,/sdo*%
X152318901Y-113999999D03*
%TO.P,U1,2,SDX_2*%
%TO.N,/gnd*%
X152318901Y-114500000D03*
%TO.P,U1,3,SCX_3*%
X152318901Y-115000000D03*
%TO.P,U1,4,INT1_4*%
%TO.N,/int1*%
X152318901Y-115500001D03*
D14*
%TO.P,U1,5,VDD_IO_5*%
%TO.N,/3.3v*%
X153000002Y-115677100D03*
%TO.P,U1,6,GND_6*%
%TO.N,/gnd*%
X153500001Y-115677100D03*
%TO.P,U1,7,GND_7*%
X154000000Y-115677100D03*
D13*
%TO.P,U1,8,VDD_8*%
%TO.N,/3.3v*%
X154681101Y-115500001D03*
%TO.P,U1,9,INT2_9*%
%TO.N,/int2*%
X154681101Y-115000000D03*
%TO.P,U1,10,OCS_AUX_10*%
%TO.N,Net-(J1-Pin_10)*%
X154681101Y-114500000D03*
%TO.P,U1,11,SDO_AUX_11*%
%TO.N,Net-(J1-Pin_11)*%
X154681101Y-113999999D03*
D14*
%TO.P,U1,12,CS_12*%
%TO.N,/cs*%
X154000000Y-113822900D03*
%TO.P,U1,13,SCL_13*%
%TO.N,/scl*%
X153500001Y-113822900D03*
%TO.P,U1,14,SDA_14*%
%TO.N,/sda*%
X153000002Y-113822900D03*
%TD*%
D15*
%TO.P,C1,1*%
%TO.N,/gnd*%
X147500001Y-113682900D03*
%TO.P,C1,2*%
%TO.N,/3.3v*%
X147500001Y-115407900D03*
%TD*%
D10*
%TO.P,M3 screw,1*%
%TO.N,N/C*%
X131828400Y-124000000D03*
%TD*%
D16*
%TO.P,C3,1*%
%TO.N,/3.3v*%
X136362500Y-89500000D03*
%TO.P,C3,2*%
%TO.N,/gnd*%
X134637500Y-89500000D03*
%TD*%
D17*
%TO.P,U2,1,TX0/P0.06_1*%
%TO.N,unconnected-(U2-TX0{slash}P0.06-Pad1)*%
X130640000Y-108740000D03*
%TO.P,U2,2,RX1/P0.08_2*%
%TO.N,unconnected-(U2-RX1{slash}P0.08-Pad2)*%
X133180000Y-108740000D03*
%TO.P,U2,3,GND_3*%
%TO.N,unconnected-(U2-GND-Pad3)*%
X135720000Y-108740000D03*
%TO.P,U2,4,GND_4*%
%TO.N,unconnected-(U2-GND-Pad4)*%
X138260000Y-108740000D03*
%TO.P,U2,5,P0.17_5*%
%TO.N,unconnected-(U2-P0.17-Pad5)*%
X140800000Y-108740000D03*
%TO.P,U2,6,P0.20_6*%
%TO.N,unconnected-(U2-P0.20-Pad6)*%
X143340000Y-108740000D03*
%TO.P,U2,7,P0.22_7*%
%TO.N,Net-(U2-P0.22)*%
X145880000Y-108740000D03*
%TO.P,U2,8,P0.24_8*%
%TO.N,Net-(U2-P0.24)*%
X148420000Y-108740000D03*
%TO.P,U2,9,P1.00_9*%
%TO.N,Net-(U2-P1.00)*%
X150960000Y-108740000D03*
%TO.P,U2,10,P0.11_10*%
%TO.N,unconnected-(U2-P0.11-Pad10)*%
X153500000Y-108740000D03*
%TO.P,U2,11,P1.04_11*%
%TO.N,unconnected-(U2-P1.04-Pad11)*%
X156040000Y-108740000D03*
%TO.P,U2,12,P1.06_12*%
%TO.N,Net-(U2-P1.06)*%
X158580000Y-108740000D03*
%TO.P,U2,13,NFC1/P0.09_13*%
%TO.N,unconnected-(U2-NFC1{slash}P0.09-Pad13)*%
X158580000Y-93500000D03*
%TO.P,U2,14,NFC2/P0.10_14*%
%TO.N,unconnected-(U2-NFC2{slash}P0.10-Pad14)*%
X156040000Y-93500000D03*
%TO.P,U2,15,P1.11_15*%
%TO.N,Net-(U2-P1.11)*%
X153500000Y-93500000D03*
%TO.P,U2,16,P1.13_16*%
%TO.N,/sda*%
X150960000Y-93500000D03*
%TO.P,U2,17,P1.15_17*%
%TO.N,/scl*%
X148420000Y-93500000D03*
%TO.P,U2,18,AIN0/P0.02_18*%
%TO.N,/cs*%
X145880000Y-93500000D03*
%TO.P,U2,19,AIN5/P0.29_19*%
%TO.N,/sdo*%
X143340000Y-93500000D03*
%TO.P,U2,20,AIN7/P0.31_20*%
%TO.N,unconnected-(U2-AIN7{slash}P0.31-Pad20)*%
X140800000Y-93500000D03*
%TO.P,U2,21,VCC_21*%
%TO.N,/3.3v*%
X138260000Y-93500000D03*
%TO.P,U2,22,RST_22*%
%TO.N,unconnected-(U2-RST-Pad22)*%
X135720000Y-93500000D03*
%TO.P,U2,23,GND_23*%
%TO.N,/gnd*%
X133180000Y-93500000D03*
%TO.P,U2,24,BATIN/P0.04_24*%
%TO.N,unconnected-(U2-BATIN{slash}P0.04-Pad24)*%
X130640000Y-93500000D03*
%TO.P,U2,31,P1.01_31*%
%TO.N,/int1*%
X153500000Y-106200000D03*
%TO.P,U2,32,P1.02_32*%
%TO.N,/int2*%
X153500000Y-103660000D03*
%TO.P,U2,33,P1.07_33*%
%TO.N,Net-(U2-P1.07)*%
X153500000Y-101120000D03*
%TD*%
D18*
%TO.P,C4,1*%
%TO.N,/gnd*%
X162137500Y-102540000D03*
%TO.P,C4,2*%
%TO.N,/3.3v*%
X163862500Y-102540000D03*
%TD*%
D19*
%TO.P,R2,1*%
%TO.N,Net-(D1-GK)*%
X137587500Y-117341000D03*
%TO.P,R2,2*%
%TO.N,Net-(U2-P0.24)*%
X139412500Y-117341000D03*
%TD*%
%TO.P,R1,1*%
%TO.N,Net-(D1-RK)*%
X137587500Y-112841000D03*
%TO.P,R1,2*%
%TO.N,Net-(U2-P1.00)*%
X139412500Y-112841000D03*
%TD*%
%TO.P,R3,1*%
%TO.N,Net-(D1-BK)*%
X137587500Y-119341000D03*
%TO.P,R3,2*%
%TO.N,Net-(U2-P0.22)*%
X139412500Y-119341000D03*
%TD*%
D16*
%TO.P,C5,1*%
%TO.N,/gnd*%
X163862500Y-100540000D03*
%TO.P,C5,2*%
%TO.N,/3.3v*%
X162137500Y-100540000D03*
%TD*%
D11*
%TO.P,J1,1,Pin_1_1*%
%TO.N,/sdo*%
X160160000Y-83500000D03*
D12*
%TO.P,J1,2,Pin_2_2*%
%TO.N,/gnd*%
X160160000Y-86040000D03*
%TO.P,J1,3,Pin_3_3*%
X157620000Y-83500000D03*
%TO.P,J1,4,Pin_4_4*%
%TO.N,/int1*%
X157620000Y-86040000D03*
%TO.P,J1,5,Pin_5_5*%
%TO.N,/3.3v*%
X155080000Y-83500000D03*
%TO.P,J1,6,Pin_6_6*%
%TO.N,/gnd*%
X155080000Y-86040000D03*
%TO.P,J1,7,Pin_7_7*%
X152540000Y-83500000D03*
%TO.P,J1,8,Pin_8_8*%
%TO.N,/3.3v*%
X152540000Y-86040000D03*
%TO.P,J1,9,Pin_9_9*%
%TO.N,/int2*%
X150000000Y-83500000D03*
%TO.P,J1,10,Pin_10_10*%
%TO.N,Net-(J1-Pin_10)*%
X150000000Y-86040000D03*
%TO.P,J1,11,Pin_11_11*%
%TO.N,Net-(J1-Pin_11)*%
X147460000Y-83500000D03*
%TO.P,J1,12,Pin_12_12*%
%TO.N,/cs*%
X147460000Y-86040000D03*
%TO.P,J1,13,Pin_13_13*%
%TO.N,/scl*%
X144920000Y-83500000D03*
%TO.P,J1,14,Pin_14_14*%
%TO.N,/sda*%
X144920000Y-86040000D03*
%TD*%
D15*
%TO.P,C2,1*%
%TO.N,/3.3v*%
X159500001Y-113682900D03*
%TO.P,C2,2*%
%TO.N,/gnd*%
X159500001Y-115407900D03*
%TD*%
D10*
%TO.P,M3 screw,1*%
%TO.N,N/C*%
X172000000Y-124000000D03*
%TD*%
%TO.P,M3 screw,1*%
%TO.N,N/C*%
X172000000Y-83500000D03*
%TD*%
D20*
%TO.P,D1,1,RK_1*%
%TO.N,Net-(D1-RK)*%
X133500000Y-112682000D03*
D21*
%TO.P,D1,2,A_2*%
%TO.N,/gnd*%
X133500000Y-114841000D03*
%TO.P,D1,3,GK_3*%
%TO.N,Net-(D1-GK)*%
X133500000Y-117000000D03*
%TO.P,D1,4,BK_4*%
%TO.N,Net-(D1-BK)*%
X133500000Y-119159000D03*
%TD*%
D22*
%TO.N,Net-(J1-Pin_10)*%
X155900000Y-112500000D03*
%TO.N,Net-(J1-Pin_11)*%
X165000000Y-111000000D03*
X155900000Y-111000000D03*
X173000000Y-112500000D03*
%TO.N,Net-(U2-P0.22)*%
X144500000Y-116000000D03*
%TO.N,Net-(U2-P0.24)*%
X143500000Y-111500000D03*
X145116300Y-111500000D03*
X146900001Y-111000000D03*
%TO.N,Net-(U2-P1.00)*%
X148500000Y-106500000D03*
X143000000Y-106000000D03*
%TO.N,/3.3v*%
X149500000Y-115500000D03*
X146000000Y-88000000D03*
X153500000Y-88500000D03*
X157500000Y-112500000D03*
X151500000Y-88000000D03*
X166000000Y-103000000D03*
%TO.N,/gnd*%
X151500000Y-84500000D03*
X160500000Y-101500000D03*
X153000000Y-117500000D03*
X159000000Y-81500000D03*
X152500000Y-98100000D03*
X156500000Y-115500000D03*
X163000000Y-82500000D03*
X162500000Y-84500000D03*
X157500000Y-115500000D03*
X153000000Y-81000000D03*
X157000000Y-81000000D03*
X154000000Y-117000000D03*
X161500000Y-89000000D03*
X149000000Y-113000000D03*
X152157109Y-100543700D03*
X165500000Y-101500000D03*
X154500000Y-89500000D03*
X146000000Y-101500000D03*
X158500000Y-104500000D03*
X136500000Y-114000000D03*
%TO.N,/cs*%
X154500000Y-111500000D03*
X150500000Y-99000000D03*
X147000000Y-88500000D03*
X145000000Y-91000000D03*
%TO.N,/int2*%
X159480000Y-98000000D03*
X157500000Y-100500000D03*
X155000000Y-98500000D03*
X159888444Y-96020000D03*
X154980000Y-101000000D03*
X161000000Y-92520000D03*
%TO.N,/sdo*%
X152000000Y-113000000D03*
X168500000Y-94500000D03*
X164500000Y-91000000D03*
%TO.N,/sda*%
X151500000Y-98100000D03*
X174000000Y-102000000D03*
X150000000Y-96000000D03*
X152000000Y-95500000D03*
X151500000Y-101000000D03*
%TO.N,/int1*%
X157500000Y-104000000D03*
X159000000Y-88500000D03*
X160500000Y-96400000D03*
X160000000Y-100543700D03*
X162000000Y-94000000D03*
X151500000Y-115500000D03*
%TO.N,/scl*%
X155500000Y-105000000D03*
X166500000Y-104480000D03*
X164000000Y-104480000D03*
X160000000Y-104000000D03*
X153500000Y-99000000D03*
%TO.N,Net-(U2-P1.07)*%
X153500000Y-101120000D03*
%TD*%
%TO.N,Net-(J1-Pin_10)*%
D23*
X155275200Y-114500000D02*
X155700000Y-114075200D01*
X154681101Y-114500000D02*
X155275200Y-114500000D01*
X155700000Y-114075200D02*
X155700000Y-112700000D01*
X155700000Y-112700000D02*
X155900000Y-112500000D01*
%TO.N,Net-(J1-Pin_11)*%
X171500000Y-111000000D02*
X173000000Y-112500000D01*
X154681101Y-113999999D02*
X154681101Y-112218899D01*
X165000000Y-111000000D02*
X171500000Y-111000000D01*
X154681101Y-112218899D02*
X155900000Y-111000000D01*
%TO.N,Net-(U2-P0.22)*%
X141159000Y-119341000D02*
X144500000Y-116000000D01*
X139412500Y-119341000D02*
X141159000Y-119341000D01*
%TO.N,Net-(U2-P0.24)*%
X143500000Y-115000000D02*
X143500000Y-111500000D01*
X139412500Y-117341000D02*
X141159000Y-117341000D01*
X146400001Y-111500000D02*
X146900001Y-111000000D01*
X145116300Y-111500000D02*
X146400001Y-111500000D01*
X141159000Y-117341000D02*
X143500000Y-115000000D01*
%TO.N,Net-(U2-P1.00)*%
X148720000Y-106500000D02*
X150960000Y-108740000D01*
X142031770Y-106968230D02*
X143000000Y-106000000D01*
X148500000Y-106500000D02*
X148720000Y-106500000D01*
X139412500Y-112841000D02*
X142031770Y-110221730D01*
X142031770Y-110221730D02*
X142031770Y-106968230D01*
%TO.N,Net-(D1-GK)*%
X133841000Y-117341000D02*
X133500000Y-117000000D01*
X137587500Y-117341000D02*
X133841000Y-117341000D01*
%TO.N,Net-(D1-RK)*%
X137587500Y-112841000D02*
X133659000Y-112841000D01*
X133659000Y-112841000D02*
X133500000Y-112682000D01*
%TO.N,Net-(D1-BK)*%
X137587500Y-119341000D02*
X133682000Y-119341000D01*
X133682000Y-119341000D02*
X133500000Y-119159000D01*
%TO.N,/3.3v*%
X151500000Y-88000000D02*
X150400000Y-89100000D01*
X155499999Y-115500001D02*
X156500000Y-114500000D01*
X154681101Y-115500001D02*
X155499999Y-115500001D01*
X162137500Y-100540000D02*
X162137500Y-100815000D01*
X147500001Y-115407900D02*
X144516300Y-112424199D01*
X138260000Y-91260000D02*
X138260000Y-93500000D01*
X136500000Y-89500000D02*
X138260000Y-91260000D01*
X144703700Y-99943700D02*
X138260000Y-93500000D01*
X152657102Y-116020000D02*
X150020000Y-116020000D01*
X146000000Y-88348529D02*
X146000000Y-88000000D01*
X144516300Y-112424199D02*
X144516300Y-100131100D01*
X153500000Y-88500000D02*
X153500000Y-85080000D01*
X162137500Y-100540000D02*
X161541200Y-99943700D01*
X153000002Y-115816400D02*
X153000002Y-115677100D01*
X153000002Y-115677100D02*
X152657102Y-116020000D01*
X153500000Y-85080000D02*
X155080000Y-83500000D01*
X152540000Y-86040000D02*
X151500000Y-87080000D01*
X151500000Y-87080000D02*
X151500000Y-88000000D01*
X165540000Y-102540000D02*
X166000000Y-103000000D01*
X146751471Y-89100000D02*
X146000000Y-88348529D01*
X162137500Y-100815000D02*
X163862500Y-102540000D01*
X150400000Y-89100000D02*
X146751471Y-89100000D01*
X156500000Y-114500000D02*
X156500000Y-114000000D01*
X156500000Y-114000000D02*
X156817100Y-113682900D01*
X136362500Y-89500000D02*
X136500000Y-89500000D01*
X144516300Y-100131100D02*
X144703700Y-99943700D01*
X161541200Y-99943700D02*
X144703700Y-99943700D01*
X149407900Y-115407900D02*
X149500000Y-115500000D01*
X157500000Y-112500000D02*
X158317101Y-112500000D01*
X158317101Y-112500000D02*
X159500001Y-113682900D01*
X156817100Y-113682900D02*
X159500001Y-113682900D01*
X147500001Y-115407900D02*
X149407900Y-115407900D01*
X163862500Y-102540000D02*
X165540000Y-102540000D01*
X150020000Y-116020000D02*
X149500000Y-115500000D01*
%TO.N,/gnd*%
X157620000Y-82000000D02*
X157620000Y-81620000D01*
X148317101Y-114500000D02*
X152318901Y-114500000D01*
X152013409Y-100400000D02*
X147100000Y-100400000D01*
X147500000Y-103000000D02*
X147500000Y-107996460D01*
X153500001Y-115677100D02*
X153500001Y-116999999D01*
X153140000Y-97460000D02*
X152500000Y-98100000D01*
X154000000Y-115677100D02*
X154000000Y-117000000D01*
X147243700Y-109227240D02*
X147500001Y-109483541D01*
X147500000Y-107996460D02*
X147243700Y-108252760D01*
X161540000Y-102540000D02*
X160500000Y-101500000D01*
X158630500Y-116277402D02*
X154083602Y-116277402D01*
X147100000Y-100400000D02*
X146000000Y-101500000D01*
X160160000Y-87660000D02*
X160160000Y-86040000D01*
X159500001Y-115407900D02*
X158703951Y-116203951D01*
X147500001Y-113682900D02*
X148317101Y-114500000D01*
X152540000Y-83500000D02*
X152500000Y-83500000D01*
X154083602Y-116277402D02*
X154000000Y-116193800D01*
X158703951Y-116203951D02*
X158630500Y-116277402D01*
X158120000Y-81500000D02*
X159000000Y-81500000D01*
X162137500Y-102540000D02*
X161540000Y-102540000D01*
X147500001Y-113682900D02*
X148317100Y-113682900D01*
X153500001Y-116999999D02*
X153000000Y-117500000D01*
X146000000Y-101500000D02*
X147500000Y-103000000D01*
X158703951Y-116203951D02*
X158630499Y-116277402D01*
X136500000Y-114000000D02*
X135659000Y-114841000D01*
X161500000Y-89000000D02*
X160160000Y-87660000D01*
X160500000Y-101500000D02*
X158500000Y-103500000D01*
X152157109Y-100543700D02*
X152013409Y-100400000D01*
X147243700Y-108252760D02*
X147243700Y-109227240D01*
X157620000Y-83500000D02*
X157620000Y-82000000D01*
X135659000Y-114841000D02*
X133500000Y-114841000D01*
X154000000Y-116193800D02*
X154000000Y-115677100D01*
X155080000Y-86040000D02*
X155080000Y-88920000D01*
X152540000Y-81460000D02*
X153000000Y-81000000D01*
X148317100Y-113682900D02*
X149000000Y-113000000D01*
X152318901Y-115000000D02*
X152318901Y-114500000D01*
X152540000Y-83500000D02*
X152540000Y-81460000D01*
X152500000Y-83500000D02*
X151500000Y-84500000D01*
X155080000Y-88920000D02*
X154500000Y-89500000D01*
X165500000Y-101500000D02*
X164822500Y-101500000D01*
X164822500Y-101500000D02*
X163862500Y-100540000D01*
X165880000Y-100540000D02*
X168960000Y-97460000D01*
X133180000Y-93500000D02*
X133180000Y-90957500D01*
X163862500Y-100540000D02*
X165880000Y-100540000D01*
X157620000Y-81620000D02*
X157000000Y-81000000D01*
X157620000Y-82000000D02*
X158120000Y-81500000D01*
X154000000Y-115677100D02*
X153500001Y-115677100D01*
X157500000Y-115500000D02*
X157592100Y-115407900D01*
X168960000Y-97460000D02*
X153140000Y-97460000D01*
X157592100Y-115407900D02*
X159500001Y-115407900D01*
X133180000Y-90957500D02*
X134637500Y-89500000D01*
X158500000Y-103500000D02*
X158500000Y-104500000D01*
X147500001Y-109483541D02*
X147500001Y-113682900D01*
%TO.N,/cs*%
X154000000Y-112000000D02*
X154500000Y-111500000D01*
X148000000Y-96500000D02*
X148000000Y-95620000D01*
X150500000Y-99000000D02*
X148000000Y-96500000D01*
X148000000Y-95620000D02*
X145880000Y-93500000D01*
X147460000Y-88040000D02*
X147000000Y-88500000D01*
X145000000Y-91000000D02*
X145000000Y-92620000D01*
X147460000Y-86040000D02*
X147460000Y-88040000D01*
X154000000Y-113822900D02*
X154000000Y-112000000D01*
X145000000Y-92620000D02*
X145880000Y-93500000D01*
%TO.N,/int2*%
X157403700Y-109096300D02*
X157403700Y-106055171D01*
X155000000Y-98500000D02*
X158980000Y-98500000D01*
X156100000Y-114334314D02*
X156100000Y-113834314D01*
X156500000Y-113434314D02*
X156500000Y-110000000D01*
X157403700Y-106055171D02*
X155008529Y-103660000D01*
X155434314Y-115000000D02*
X156100000Y-114334314D01*
X157000000Y-101000000D02*
X157500000Y-100500000D01*
X154980000Y-101000000D02*
X157000000Y-101000000D01*
X159888444Y-96020000D02*
X161000000Y-94908444D01*
X155008529Y-103660000D02*
X153500000Y-103660000D01*
X156100000Y-113834314D02*
X156500000Y-113434314D01*
X161000000Y-94908444D02*
X161000000Y-92520000D01*
X158980000Y-98500000D02*
X159480000Y-98000000D01*
X154681101Y-115000000D02*
X155434314Y-115000000D01*
X156500000Y-110000000D02*
X157403700Y-109096300D01*
%TO.N,/sdo*%
X170110000Y-96110000D02*
X170110000Y-103930000D01*
X152318901Y-113318901D02*
X152000000Y-113000000D01*
X164500000Y-87840000D02*
X164500000Y-91000000D01*
X152318901Y-113999999D02*
X152318901Y-113318901D01*
X160160000Y-83500000D02*
X164500000Y-87840000D01*
X170110000Y-103930000D02*
X168960000Y-105080000D01*
X168500000Y-94500000D02*
X170110000Y-96110000D01*
%TO.N,/sda*%
X144920000Y-86040000D02*
X144920000Y-88420000D01*
X151500000Y-97500000D02*
X150000000Y-96000000D01*
X152323700Y-109227240D02*
X152323700Y-101823700D01*
X153000002Y-113822900D02*
X153000002Y-109903542D01*
X171500000Y-102540000D02*
X173460000Y-102540000D01*
X152000000Y-94540000D02*
X150960000Y-93500000D01*
X149000000Y-91500000D02*
X149000000Y-91540000D01*
X173460000Y-102540000D02*
X174000000Y-102000000D01*
X153000002Y-109903542D02*
X152323700Y-109227240D01*
X151500000Y-98100000D02*
X151500000Y-97500000D01*
X144920000Y-88420000D02*
X148000000Y-91500000D01*
X149000000Y-91540000D02*
X150960000Y-93500000D01*
X152323700Y-101823700D02*
X151500000Y-101000000D01*
X148000000Y-91500000D02*
X149000000Y-91500000D01*
X152000000Y-95500000D02*
X152000000Y-94540000D01*
%TO.N,/int1*%
X160000000Y-100543700D02*
X157500000Y-103043700D01*
X157620000Y-86040000D02*
X157620000Y-87120000D01*
X157620000Y-87120000D02*
X159000000Y-88500000D01*
X157500000Y-103043700D02*
X157500000Y-104000000D01*
X162000000Y-94900000D02*
X160500000Y-96400000D01*
X162000000Y-94000000D02*
X162000000Y-94900000D01*
X152318901Y-115500001D02*
X151500000Y-115500000D01*
%TO.N,/scl*%
X168960000Y-102540000D02*
X167020000Y-104480000D01*
X160480000Y-104480000D02*
X160000000Y-104000000D01*
X154676300Y-109227240D02*
X154676300Y-105823700D01*
X154676300Y-105823700D02*
X155500000Y-105000000D01*
X143770000Y-84650000D02*
X143770000Y-88850000D01*
X153500001Y-110403539D02*
X154676300Y-109227240D01*
X164000000Y-104480000D02*
X160480000Y-104480000D01*
X151551471Y-99000000D02*
X148420000Y-95868529D01*
X153500000Y-99000000D02*
X151551471Y-99000000D01*
X144920000Y-83500000D02*
X143770000Y-84650000D01*
X148420000Y-95868529D02*
X148420000Y-93500000D01*
X143770000Y-88850000D02*
X148420000Y-93500000D01*
X167020000Y-104480000D02*
X166500000Y-104480000D01*
X153500001Y-113822900D02*
X153500001Y-110403539D01*
%TO.N,Net-(U2-P1.11)*%
X172650000Y-98850000D02*
X171500000Y-100000000D01*
X153500000Y-93500000D02*
X155000000Y-92000000D01*
X172650000Y-96983654D02*
X172650000Y-98850000D01*
X155000000Y-92000000D02*
X167666346Y-92000000D01*
X167666346Y-92000000D02*
X172650000Y-96983654D01*
%TO.N,Net-(U2-P1.07)*%
X168960000Y-100000000D02*
X168960000Y-100888529D01*
X163848529Y-106000000D02*
X158380000Y-106000000D01*
X168960000Y-100888529D02*
X163848529Y-106000000D01*
X158380000Y-106000000D02*
X153500000Y-101120000D01*
%TD*%
%TA.AperFunction,Conductor*%
%TO.N,/gnd*%
G36*
X142806756Y-110014638D02*
G01*
X142806993Y-110014067D01*
X142811492Y-110015930D01*
X143017595Y-110082897D01*
X143017596Y-110082897D01*
X143017599Y-110082898D01*
X143231644Y-110116800D01*
X143231645Y-110116800D01*
X143448355Y-110116800D01*
X143448356Y-110116800D01*
X143662401Y-110082898D01*
X143753482Y-110053303D01*
X143823322Y-110051309D01*
X143883155Y-110087389D01*
X143913984Y-110150090D01*
X143915800Y-110171235D01*
X143915800Y-110620196D01*
X143896115Y-110687235D01*
X143843311Y-110732990D01*
X143774153Y-110742934D01*
X143744350Y-110734758D01*
X143733501Y-110730264D01*
X143733489Y-110730261D01*
X143578845Y-110699500D01*
X143578842Y-110699500D01*
X143421158Y-110699500D01*
X143421155Y-110699500D01*
X143266510Y-110730261D01*
X143266498Y-110730264D01*
X143120827Y-110790602D01*
X143120814Y-110790609D01*
X142989711Y-110878210D01*
X142989707Y-110878213D01*
X142878213Y-110989707D01*
X142878210Y-110989711D01*
X142790609Y-111120814D01*
X142790602Y-111120827D01*
X142730264Y-111266498D01*
X142730261Y-111266510D01*
X142699500Y-111421153D01*
X142699500Y-111578846D01*
X142730261Y-111733489D01*
X142730264Y-111733501D01*
X142790602Y-111879172D01*
X142790609Y-111879185D01*
X142878602Y-112010874D01*
X142899480Y-112077551D01*
X142899500Y-112079765D01*
X142899500Y-114699903D01*
X142879815Y-114766942D01*
X142863181Y-114787584D01*
X140946584Y-116704181D01*
X140885261Y-116737666D01*
X140858903Y-116740500D01*
X140374901Y-116740500D01*
X140307862Y-116720815D01*
X140269362Y-116681596D01*
X140245340Y-116642650D01*
X140123351Y-116520661D01*
X140123350Y-116520660D01*
X139988682Y-116437596D01*
X139976518Y-116430093D01*
X139976513Y-116430091D01*
X139975069Y-116429612D01*
X139812753Y-116375826D01*
X139812751Y-116375825D01*
X139711678Y-116365500D01*
X139113330Y-116365500D01*
X139113312Y-116365501D01*
X139012247Y-116375825D01*
X138848484Y-116430092D01*
X138848481Y-116430093D01*
X138701648Y-116520661D01*
X138587681Y-116634629D01*
X138526358Y-116668114D01*
X138456666Y-116663130D01*
X138412319Y-116634629D01*
X138298351Y-116520661D01*
X138298350Y-116520660D01*
X138163682Y-116437596D01*
X138151518Y-116430093D01*
X138151513Y-116430091D01*
X138150069Y-116429612D01*
X137987753Y-116375826D01*
X137987751Y-116375825D01*
X137886678Y-116365500D01*
X137288330Y-116365500D01*
X137288312Y-116365501D01*
X137187247Y-116375825D01*
X137023484Y-116430092D01*
X137023481Y-116430093D01*
X136876648Y-116520661D01*
X136754659Y-116642650D01*
X136730638Y-116681596D01*
X136678690Y-116728321D01*
X136625099Y-116740500D01*
X134978348Y-116740500D01*
X134911309Y-116720815D01*
X134865554Y-116668011D01*
X134860417Y-116654818D01*
X134797896Y-116462396D01*
X134797895Y-116462393D01*
X134748525Y-116365501D01*
X134697815Y-116265978D01*
X134644850Y-116193077D01*
X134568247Y-116087641D01*
X134568243Y-116087636D01*
X134412363Y-115931756D01*
X134412358Y-115931752D01*
X134234025Y-115802187D01*
X134234024Y-115802186D01*
X134234022Y-115802185D01*
X134037606Y-115702105D01*
X134037605Y-115702104D01*
X134037604Y-115702104D01*
X134021394Y-115696837D01*
X133972035Y-115666588D01*
X133588585Y-115283137D01*
X133673694Y-115260333D01*
X133776306Y-115201090D01*
X133860090Y-115117306D01*
X133919333Y-115014694D01*
X133942137Y-114929585D01*
X134651066Y-115638514D01*
X134651066Y-115638513D01*
X134697386Y-115574760D01*
X134797432Y-115378410D01*
X134865526Y-115168835D01*
X134900000Y-114951181D01*
X134900000Y-114730818D01*
X134865526Y-114513164D01*
X134797432Y-114303589D01*
X134699534Y-114111454D01*
X134686638Y-114042785D01*
X134712914Y-113978044D01*
X134735703Y-113955897D01*
X134757546Y-113939546D01*
X134843796Y-113824331D01*
X134894091Y-113689483D01*
X134900500Y-113629873D01*
X134900500Y-113565500D01*
X134920185Y-113498461D01*
X134972989Y-113452706D01*
X135024500Y-113441500D01*
X136625099Y-113441500D01*
X136692138Y-113461185D01*
X136730638Y-113500404D01*
X136736734Y-113510288D01*
X136754660Y-113539350D01*
X136876650Y-113661340D01*
X137023484Y-113751908D01*
X137187247Y-113806174D01*
X137288323Y-113816500D01*
X137886676Y-113816499D01*
X137886684Y-113816498D01*
X137886687Y-113816498D01*
X137942030Y-113810844D01*
X137987753Y-113806174D01*
X138151516Y-113751908D01*
X138298350Y-113661340D01*
X138412319Y-113547371D01*
X138473642Y-113513886D01*
X138543334Y-113518870D01*
X138587681Y-113547371D01*
X138701650Y-113661340D01*
X138848484Y-113751908D01*
X139012247Y-113806174D01*
X139113323Y-113816500D01*
X139711676Y-113816499D01*
X139711684Y-113816498D01*
X139711687Y-113816498D01*
X139767030Y-113810844D01*
X139812753Y-113806174D01*
X139976516Y-113751908D01*
X140123350Y-113661340D01*
X140245340Y-113539350D01*
X140335908Y-113392516D01*
X140390174Y-113228753D01*
X140400500Y-113127677D01*
X140400499Y-112753595D01*
X140420183Y-112686557D01*
X140436813Y-112665920D01*
X142390276Y-110712458D01*
X142390281Y-110712454D01*
X142400484Y-110702250D01*
X142400486Y-110702250D01*
X142512290Y-110590446D01*
X142575756Y-110480519D01*
X142591347Y-110453515D01*
X142632270Y-110300787D01*
X142632270Y-110142673D01*
X142632270Y-110126961D01*
X142651955Y-110059922D01*
X142704759Y-110014167D01*
X142773917Y-110004223D01*
X142806756Y-110014638D01*
G37*
%TD.AperFunction*%
%TA.AperFunction,Conductor*%
G36*
X149776420Y-109456384D02*
G01*
X149790318Y-109472423D01*
X149909836Y-109636925D01*
X150063075Y-109790164D01*
X150238400Y-109917545D01*
X150377096Y-109988214D01*
X150431494Y-110015931D01*
X150637595Y-110082897D01*
X150637596Y-110082897D01*
X150637599Y-110082898D01*
X150851644Y-110116800D01*
X150851645Y-110116800D01*
X151068355Y-110116800D01*
X151068356Y-110116800D01*
X151282401Y-110082898D01*
X151282404Y-110082897D01*
X151282405Y-110082897D01*
X151488505Y-110015931D01*
X151488505Y-110015930D01*
X151488508Y-110015930D01*
X151681600Y-109917545D01*
X151856925Y-109790164D01*
X151859470Y-109787618D01*
X151920789Y-109754130D01*
X151990481Y-109759109D01*
X152034838Y-109787613D01*
X152363183Y-110115958D01*
X152396668Y-110177281D01*
X152399502Y-110203639D01*
X152399502Y-112113445D01*
X152379817Y-112180484D01*
X152327013Y-112226239D01*
X152257855Y-112236183D01*
X152239577Y-112231194D01*
X152239324Y-112232031D01*
X152233500Y-112230264D01*
X152233497Y-112230263D01*
X152233492Y-112230262D01*
X152233489Y-112230261D01*
X152078845Y-112199500D01*
X152078842Y-112199500D01*
X151921158Y-112199500D01*
X151921155Y-112199500D01*
X151766510Y-112230261D01*
X151766498Y-112230264D01*
X151620827Y-112290602D01*
X151620814Y-112290609D01*
X151489711Y-112378210D01*
X151489707Y-112378213D01*
X151378213Y-112489707D01*
X151378210Y-112489711D01*
X151290609Y-112620814D01*
X151290602Y-112620827D01*
X151230264Y-112766498D01*
X151230261Y-112766510D01*
X151199500Y-112921153D01*
X151199500Y-113078846D01*
X151230261Y-113233489D01*
X151230264Y-113233501D01*
X151290602Y-113379172D01*
X151290609Y-113379185D01*
X151378210Y-113510288D01*
X151378213Y-113510292D01*
X151473533Y-113605612D01*
X151507018Y-113666935D01*
X151506665Y-113707159D01*
X151508939Y-113707404D01*
X151501702Y-113774716D01*
X151501701Y-113774735D01*
X151501701Y-114225268D01*
X151501702Y-114225279D01*
X151503187Y-114239091D01*
X151503187Y-114265592D01*
X151502201Y-114274760D01*
X151502201Y-114322600D01*
X151514985Y-114335384D01*
X151543486Y-114379731D01*
X151558404Y-114419729D01*
X151558405Y-114419730D01*
X151602841Y-114479089D01*
X151627259Y-114544552D01*
X151612408Y-114612825D01*
X151563003Y-114662231D01*
X151503575Y-114677400D01*
X151490380Y-114677400D01*
X151455097Y-114696666D01*
X151428739Y-114699500D01*
X151421155Y-114699500D01*
X151266510Y-114730261D01*
X151266498Y-114730264D01*
X151120827Y-114790602D01*
X151120814Y-114790609D01*
X150989711Y-114878210D01*
X150989707Y-114878213D01*
X150878213Y-114989707D01*
X150878210Y-114989711D01*
X150790609Y-115120814D01*
X150790602Y-115120827D01*
X150730263Y-115266501D01*
X150730261Y-115266510D01*
X150719683Y-115319691D01*
X150687299Y-115381602D01*
X150626583Y-115416176D01*
X150598066Y-115419500D01*
X150401934Y-115419500D01*
X150334895Y-115399815D01*
X150289140Y-115347011D01*
X150280317Y-115319691D01*
X150274531Y-115290606D01*
X150269737Y-115266503D01*
X150224753Y-115157900D01*
X150209397Y-115120827D01*
X150209390Y-115120814D01*
X150121789Y-114989711D01*
X150121786Y-114989707D01*
X150010292Y-114878213D01*
X150010288Y-114878210D01*
X149879185Y-114790609D01*
X149879172Y-114790602D01*
X149733501Y-114730264D01*
X149733489Y-114730261D01*
X149578845Y-114699500D01*
X149578842Y-114699500D01*
X149421158Y-114699500D01*
X149421155Y-114699500D01*
X149266510Y-114730261D01*
X149266498Y-114730264D01*
X149120822Y-114790604D01*
X149116790Y-114792760D01*
X149058340Y-114807400D01*
X148488453Y-114807400D01*
X148421414Y-114787715D01*
X148382915Y-114748497D01*
X148320343Y-114647053D01*
X148320340Y-114647049D01*
X148306018Y-114632727D01*
X148272533Y-114571404D01*
X148277517Y-114501712D01*
X148306022Y-114457360D01*
X148319948Y-114443435D01*
X148410449Y-114296711D01*
X148410454Y-114296700D01*
X148464681Y-114133052D01*
X148475000Y-114032054D01*
X148475001Y-114032041D01*
X148475001Y-113932900D01*
X147624001Y-113932900D01*
X147556962Y-113913215D01*
X147511207Y-113860411D01*
X147500001Y-113808900D01*
X147500001Y-113682900D01*
X147374001Y-113682900D01*
X147306962Y-113663215D01*
X147261207Y-113610411D01*
X147250001Y-113558900D01*
X147250001Y-113432900D01*
X147750001Y-113432900D01*
X148475000Y-113432900D01*
X148475000Y-113333760D01*
X148474999Y-113333745D01*
X148464681Y-113232747D01*
X148410454Y-113069099D01*
X148410449Y-113069088D01*
X148319948Y-112922365D01*
X148319945Y-112922361D01*
X148198039Y-112800455D01*
X148198035Y-112800452D01*
X148051312Y-112709951D01*
X148051301Y-112709946D01*
X147887653Y-112655719D01*
X147786655Y-112645400D01*
X147750001Y-112645400D01*
X147750001Y-113432900D01*
X147250001Y-113432900D01*
X147250001Y-112645400D01*
X147213362Y-112645400D01*
X147213344Y-112645401D01*
X147112348Y-112655719D01*
X146948700Y-112709946D01*
X146948689Y-112709951D01*
X146801966Y-112800452D01*
X146801962Y-112800455D01*
X146680056Y-112922361D01*
X146680053Y-112922365D01*
X146589552Y-113069088D01*
X146589547Y-113069099D01*
X146535320Y-113232747D01*
X146528356Y-113300904D01*
X146501959Y-113365596D01*
X146444777Y-113405746D01*
X146374966Y-113408608D01*
X146317317Y-113375981D01*
X145382928Y-112441592D01*
X145349443Y-112380269D01*
X145354427Y-112310577D01*
X145396299Y-112254644D01*
X145423150Y-112239353D01*
X145495479Y-112209394D01*
X145495485Y-112209390D01*
X145627175Y-112121398D01*
X145693853Y-112100520D01*
X145696066Y-112100500D01*
X146313332Y-112100500D01*
X146313348Y-112100501D01*
X146320944Y-112100501D01*
X146479055Y-112100501D01*
X146479058Y-112100501D01*
X146631786Y-112059577D01*
X146681905Y-112030639D01*
X146768717Y-111980520D01*
X146880521Y-111868716D01*
X146880522Y-111868714D01*
X146914663Y-111834572D01*
X146975984Y-111801089D01*
X146978151Y-111800638D01*
X147036086Y-111789113D01*
X147133498Y-111769737D01*
X147279180Y-111709394D01*
X147410290Y-111621789D01*
X147521790Y-111510289D01*
X147609395Y-111379179D01*
X147669738Y-111233497D01*
X147700501Y-111078842D01*
X147700501Y-110921158D01*
X147700501Y-110921155D01*
X147700500Y-110921153D01*
X147681274Y-110824499D01*
X147669738Y-110766503D01*
X147669736Y-110766498D01*
X147609398Y-110620827D01*
X147609391Y-110620814D01*
X147521790Y-110489711D01*
X147521787Y-110489707D01*
X147410293Y-110378213D01*
X147410289Y-110378210D01*
X147279186Y-110290609D01*
X147279173Y-110290602D01*
X147133502Y-110230264D01*
X147133490Y-110230261D01*
X146978846Y-110199500D01*
X146978843Y-110199500D01*
X146821159Y-110199500D01*
X146821156Y-110199500D01*
X146666511Y-110230261D01*
X146666499Y-110230264D01*
X146520828Y-110290602D01*
X146520815Y-110290609D01*
X146389712Y-110378210D01*
X146389708Y-110378213D01*
X146278214Y-110489707D01*
X146278211Y-110489711D01*
X146190610Y-110620814D01*
X146190603Y-110620827D01*
X146130265Y-110766498D01*
X146130262Y-110766510D01*
X146123662Y-110799691D01*
X146091277Y-110861602D01*
X146030562Y-110896176D01*
X146002045Y-110899500D01*
X145696066Y-110899500D01*
X145629027Y-110879815D01*
X145627175Y-110878602D01*
X145495485Y-110790609D01*
X145495472Y-110790602D01*
X145349801Y-110730264D01*
X145349791Y-110730261D01*
X145216608Y-110703769D01*
X145154697Y-110671384D01*
X145120123Y-110610668D01*
X145116800Y-110582152D01*
X145116800Y-110098698D01*
X145136485Y-110031659D01*
X145189289Y-109985904D01*
X145258447Y-109975960D01*
X145297096Y-109988214D01*
X145351492Y-110015930D01*
X145557595Y-110082897D01*
X145557596Y-110082897D01*
X145557599Y-110082898D01*
X145771644Y-110116800D01*
X145771645Y-110116800D01*
X145988355Y-110116800D01*
X145988356Y-110116800D01*
X146202401Y-110082898D01*
X146202404Y-110082897D01*
X146202405Y-110082897D01*
X146408505Y-110015931D01*
X146408505Y-110015930D01*
X146408508Y-110015930D01*
X146601600Y-109917545D01*
X146776925Y-109790164D01*
X146930164Y-109636925D01*
X147049682Y-109472423D01*
X147105012Y-109429757D01*
X147174625Y-109423778D01*
X147236420Y-109456384D01*
X147250318Y-109472423D01*
X147369836Y-109636925D01*
X147523075Y-109790164D01*
X147698400Y-109917545D01*
X147837096Y-109988214D01*
X147891494Y-110015931D01*
X148097595Y-110082897D01*
X148097596Y-110082897D01*
X148097599Y-110082898D01*
X148311644Y-110116800D01*
X148311645Y-110116800D01*
X148528355Y-110116800D01*
X148528356Y-110116800D01*
X148742401Y-110082898D01*
X148742404Y-110082897D01*
X148742405Y-110082897D01*
X148948505Y-110015931D01*
X148948505Y-110015930D01*
X148948508Y-110015930D01*
X149141600Y-109917545D01*
X149316925Y-109790164D01*
X149470164Y-109636925D01*
X149589682Y-109472423D01*
X149645012Y-109429757D01*
X149714625Y-109423778D01*
X149776420Y-109456384D01*
G37*
%TD.AperFunction*%
%TA.AperFunction,Conductor*%
G36*
X150703804Y-100563885D02*
G01*
X150749559Y-100616689D01*
X150759503Y-100685847D01*
X150751326Y-100715650D01*
X150743933Y-100733501D01*
X150730263Y-100766502D01*
X150730261Y-100766510D01*
X150699500Y-100921153D01*
X150699500Y-101078846D01*
X150730261Y-101233489D01*
X150730264Y-101233501D01*
X150790602Y-101379172D01*
X150790609Y-101379185D01*
X150878210Y-101510288D01*
X150878213Y-101510292D01*
X150989707Y-101621786D01*
X150989711Y-101621789D01*
X151120814Y-101709390D01*
X151120827Y-101709397D01*
X151258683Y-101766498D01*
X151266503Y-101769737D01*
X151331147Y-101782595D01*
X151421849Y-101800638D01*
X151483760Y-101833023D01*
X151485339Y-101834574D01*
X151686881Y-102036116D01*
X151720366Y-102097439D01*
X151723200Y-102123797D01*
X151723200Y-107381301D01*
X151703515Y-107448340D01*
X151650711Y-107494095D01*
X151581553Y-107504039D01*
X151542906Y-107491786D01*
X151488508Y-107464069D01*
X151282404Y-107397102D01*
X151121867Y-107371675D01*
X151068356Y-107363200D01*
X150851644Y-107363200D01*
X150808835Y-107369980D01*
X150637595Y-107397102D01*
X150580603Y-107415620D01*
X150510762Y-107417615D01*
X150454605Y-107385370D01*
X149240508Y-106171273D01*
X149213629Y-106131046D01*
X149209394Y-106120821D01*
X149180589Y-106077712D01*
X149121789Y-105989710D01*
X149010292Y-105878213D01*
X149010288Y-105878210D01*
X148879185Y-105790609D01*
X148879172Y-105790602D01*
X148733501Y-105730264D01*
X148733489Y-105730261D01*
X148578845Y-105699500D01*
X148578842Y-105699500D01*
X148421158Y-105699500D01*
X148421155Y-105699500D01*
X148266510Y-105730261D01*
X148266498Y-105730264D01*
X148120827Y-105790602D01*
X148120814Y-105790609D01*
X147989711Y-105878210D01*
X147989707Y-105878213D01*
X147878213Y-105989707D01*
X147878210Y-105989711D01*
X147790609Y-106120814D01*
X147790602Y-106120827D01*
X147730264Y-106266498D01*
X147730261Y-106266510D01*
X147699500Y-106421153D01*
X147699500Y-106578846D01*
X147730261Y-106733489D01*
X147730264Y-106733501D01*
X147790602Y-106879172D01*
X147790609Y-106879185D01*
X147878210Y-107010288D01*
X147878213Y-107010292D01*
X147989707Y-107121786D01*
X147989715Y-107121792D01*
X148089667Y-107188578D01*
X148134473Y-107242190D01*
X148143180Y-107311515D01*
X148113026Y-107374542D01*
X148059096Y-107409611D01*
X147891493Y-107464069D01*
X147698399Y-107562455D01*
X147523072Y-107689838D01*
X147369838Y-107843072D01*
X147369838Y-107843073D01*
X147369836Y-107843075D01*
X147298198Y-107941675D01*
X147250318Y-108007577D01*
X147194988Y-108050242D01*
X147125374Y-108056221D01*
X147063579Y-108023615D01*
X147049682Y-108007577D01*
X147026837Y-107976134D01*
X146930164Y-107843075D01*
X146776925Y-107689836D01*
X146601600Y-107562455D01*
X146467436Y-107494095D01*
X146408505Y-107464068D01*
X146202404Y-107397102D01*
X146041867Y-107371675D01*
X145988356Y-107363200D01*
X145771644Y-107363200D01*
X145700295Y-107374500D01*
X145557597Y-107397102D01*
X145557594Y-107397102D01*
X145351492Y-107464069D01*
X145351491Y-107464069D01*
X145297094Y-107491786D01*
X145228425Y-107504682D01*
X145163685Y-107478405D01*
X145123428Y-107421298D01*
X145116800Y-107381301D01*
X145116800Y-100668200D01*
X145136485Y-100601161D01*
X145189289Y-100555406D01*
X145240800Y-100544200D01*
X150636765Y-100544200D01*
X150703804Y-100563885D01*
G37*
%TD.AperFunction*%
%TA.AperFunction,Conductor*%
G36*
X161042540Y-100563885D02*
G01*
X161088295Y-100616689D01*
X161099501Y-100668200D01*
X161099501Y-100826686D01*
X161109825Y-100927752D01*
X161137176Y-101010289D01*
X161164020Y-101091300D01*
X161164092Y-101091515D01*
X161164093Y-101091518D01*
X161198395Y-101147129D01*
X161254660Y-101238350D01*
X161376650Y-101360340D01*
X161497295Y-101434755D01*
X161544019Y-101486702D01*
X161555242Y-101555665D01*
X161527398Y-101619747D01*
X161497296Y-101645831D01*
X161376962Y-101720054D01*
X161255055Y-101841961D01*
X161255052Y-101841965D01*
X161164551Y-101988688D01*
X161164546Y-101988699D01*
X161110319Y-102152347D01*
X161100000Y-102253345D01*
X161100000Y-102290000D01*
X162013500Y-102290000D01*
X162080539Y-102309685D01*
X162126294Y-102362489D01*
X162137500Y-102414000D01*
X162137500Y-102540000D01*
X162263500Y-102540000D01*
X162330539Y-102559685D01*
X162376294Y-102612489D01*
X162387500Y-102664000D01*
X162387500Y-103514999D01*
X162486640Y-103514999D01*
X162486654Y-103514998D01*
X162587652Y-103504680D01*
X162751300Y-103450453D01*
X162751311Y-103450448D01*
X162898035Y-103359947D01*
X162911960Y-103346021D01*
X162973282Y-103312533D01*
X163042973Y-103317514D01*
X163087327Y-103346017D01*
X163101650Y-103360340D01*
X163248484Y-103450908D01*
X163412247Y-103505174D01*
X163513323Y-103515500D01*
X163613312Y-103515499D01*
X163680349Y-103535183D01*
X163726105Y-103587986D01*
X163736049Y-103657145D01*
X163707025Y-103720701D01*
X163660766Y-103754059D01*
X163620826Y-103770603D01*
X163620814Y-103770609D01*
X163489125Y-103858602D01*
X163422447Y-103879480D01*
X163420234Y-103879500D01*
X160893978Y-103879500D01*
X160826939Y-103859815D01*
X160781184Y-103807011D01*
X160772361Y-103779693D01*
X160769738Y-103766507D01*
X160769735Y-103766498D01*
X160709397Y-103620827D01*
X160709390Y-103620814D01*
X160621789Y-103489711D01*
X160621786Y-103489707D01*
X160510292Y-103378213D01*
X160510288Y-103378210D01*
X160379185Y-103290609D01*
X160379172Y-103290602D01*
X160233501Y-103230264D01*
X160233489Y-103230261D01*
X160078845Y-103199500D01*
X160078842Y-103199500D01*
X159921158Y-103199500D01*
X159921155Y-103199500D01*
X159766510Y-103230261D01*
X159766498Y-103230264D01*
X159620827Y-103290602D01*
X159620814Y-103290609D01*
X159489711Y-103378210D01*
X159489707Y-103378213D01*
X159378213Y-103489707D01*
X159378210Y-103489711D01*
X159290609Y-103620814D01*
X159290602Y-103620827D01*
X159230264Y-103766498D01*
X159230261Y-103766510D01*
X159199500Y-103921153D01*
X159199500Y-104078846D01*
X159230261Y-104233489D01*
X159230264Y-104233501D01*
X159290602Y-104379172D01*
X159290609Y-104379185D01*
X159378210Y-104510288D01*
X159378213Y-104510292D01*
X159489707Y-104621786D01*
X159489711Y-104621789D01*
X159620814Y-104709390D01*
X159620827Y-104709397D01*
X159752066Y-104763757D01*
X159766503Y-104769737D01*
X159921158Y-104800500D01*
X159921847Y-104800637D01*
X159983758Y-104833022D01*
X159985337Y-104834573D01*
X160111284Y-104960520D01*
X160111286Y-104960521D01*
X160111290Y-104960524D01*
X160232064Y-105030252D01*
X160248216Y-105039577D01*
X160400943Y-105080501D01*
X160400945Y-105080501D01*
X160566654Y-105080501D01*
X160566670Y-105080500D01*
X163420234Y-105080500D01*
X163487273Y-105100185D01*
X163489125Y-105101398D01*
X163595384Y-105172398D01*
X163640189Y-105226010D01*
X163648896Y-105295335D01*
X163618742Y-105358362D01*
X163559299Y-105395082D01*
X163526493Y-105399500D01*
X158680097Y-105399500D01*
X158613058Y-105379815D01*
X158592416Y-105363181D01*
X158018338Y-104789103D01*
X157984853Y-104727780D01*
X157989837Y-104658088D01*
X158018338Y-104613741D01*
X158121786Y-104510292D01*
X158121789Y-104510289D01*
X158209394Y-104379179D01*
X158212294Y-104372179D01*
X158269735Y-104233501D01*
X158269737Y-104233497D01*
X158300500Y-104078842D01*
X158300500Y-103921158D01*
X158300500Y-103921155D01*
X158300499Y-103921153D01*
X158286532Y-103850938D01*
X158269737Y-103766503D01*
X158258095Y-103738397D01*
X158209397Y-103620827D01*
X158209390Y-103620814D01*
X158121398Y-103489125D01*
X158100520Y-103422447D01*
X158100500Y-103420234D01*
X158100500Y-103343797D01*
X158120185Y-103276758D01*
X158136819Y-103256116D01*
X158566281Y-102826654D01*
X161100001Y-102826654D01*
X161110319Y-102927652D01*
X161164546Y-103091300D01*
X161164551Y-103091311D01*
X161255052Y-103238034D01*
X161255055Y-103238038D01*
X161376961Y-103359944D01*
X161376965Y-103359947D01*
X161523688Y-103450448D01*
X161523699Y-103450453D01*
X161687347Y-103504680D01*
X161788351Y-103514999D01*
X161887500Y-103514998D01*
X161887500Y-102790000D01*
X161100001Y-102790000D01*
X161100001Y-102826654D01*
X158566281Y-102826654D01*
X158741978Y-102650957D01*
X159356819Y-102036116D01*
X160014662Y-101378272D01*
X160075983Y-101344789D01*
X160078150Y-101344338D01*
X160137601Y-101332512D01*
X160233497Y-101313437D01*
X160379179Y-101253094D01*
X160510289Y-101165489D01*
X160621789Y-101053989D01*
X160709394Y-100922879D01*
X160769737Y-100777197D01*
X160778431Y-100733489D01*
X160796231Y-100644008D01*
X160828616Y-100582097D01*
X160889332Y-100547523D01*
X160917848Y-100544200D01*
X160975501Y-100544200D01*
X161042540Y-100563885D01*
G37*
%TD.AperFunction*%
%TA.AperFunction,Conductor*%
G36*
X160165105Y-92620185D02*
G01*
X160210860Y-92672989D01*
X160219683Y-92700309D01*
X160230261Y-92753489D01*
X160230263Y-92753498D01*
X160290602Y-92899172D01*
X160290609Y-92899185D01*
X160378602Y-93030874D01*
X160399480Y-93097551D01*
X160399500Y-93099765D01*
X160399500Y-94608346D01*
X160379815Y-94675385D01*
X160363181Y-94696027D01*
X159873783Y-95185425D01*
X159812460Y-95218910D01*
X159810294Y-95219361D01*
X159654952Y-95250261D01*
X159654942Y-95250264D01*
X159509271Y-95310602D01*
X159509258Y-95310609D01*
X159378155Y-95398210D01*
X159378151Y-95398213D01*
X159266657Y-95509707D01*
X159266654Y-95509711D01*
X159179053Y-95640814D01*
X159179046Y-95640827D01*
X159118708Y-95786498D01*
X159118705Y-95786510D01*
X159087944Y-95941153D01*
X159087944Y-96098846D01*
X159118705Y-96253489D01*
X159118708Y-96253501D01*
X159179046Y-96399172D01*
X159179053Y-96399185D01*
X159266654Y-96530288D01*
X159266657Y-96530292D01*
X159378151Y-96641786D01*
X159378155Y-96641789D01*
X159509258Y-96729390D01*
X159509271Y-96729397D01*
X159629472Y-96779185D01*
X159654947Y-96789737D01*
X159707020Y-96800095D01*
X159769160Y-96812456D01*
X159831071Y-96844841D01*
X159848071Y-96865182D01*
X159878210Y-96910288D01*
X159878213Y-96910292D01*
X159989707Y-97021786D01*
X159989711Y-97021789D01*
X160120814Y-97109390D01*
X160120827Y-97109397D01*
X160226079Y-97152993D01*
X160266503Y-97169737D01*
X160416131Y-97199500D01*
X160421153Y-97200499D01*
X160421156Y-97200500D01*
X160421158Y-97200500D01*
X160578844Y-97200500D01*
X160578845Y-97200499D01*
X160733497Y-97169737D01*
X160879179Y-97109394D01*
X161010289Y-97021789D01*
X161121789Y-96910289D01*
X161209394Y-96779179D01*
X161269737Y-96633497D01*
X161300500Y-96478842D01*
X161300638Y-96478149D01*
X161333023Y-96416238D01*
X161334518Y-96414716D01*
X162358506Y-95390727D01*
X162358511Y-95390724D01*
X162368714Y-95380520D01*
X162368716Y-95380520D01*
X162480520Y-95268716D01*
X162559577Y-95131784D01*
X162597645Y-94989711D01*
X162597645Y-94989710D01*
X162597647Y-94989710D01*
X162597647Y-94989701D01*
X162600500Y-94979058D01*
X162600500Y-94820943D01*
X162600500Y-94579765D01*
X162620185Y-94512726D01*
X162621398Y-94510874D01*
X162709390Y-94379185D01*
X162709390Y-94379184D01*
X162709394Y-94379179D01*
X162769737Y-94233497D01*
X162800500Y-94078842D01*
X162800500Y-93921158D01*
X162800500Y-93921155D01*
X162800499Y-93921153D01*
X162791957Y-93878210D01*
X162769737Y-93766503D01*
X162769735Y-93766498D01*
X162709397Y-93620827D01*
X162709390Y-93620814D01*
X162621789Y-93489711D01*
X162621786Y-93489707D01*
X162510292Y-93378213D01*
X162510288Y-93378210D01*
X162379185Y-93290609D01*
X162379172Y-93290602D01*
X162233501Y-93230264D01*
X162233489Y-93230261D01*
X162078845Y-93199500D01*
X162078842Y-93199500D01*
X161921158Y-93199500D01*
X161921155Y-93199500D01*
X161766510Y-93230261D01*
X161760676Y-93232031D01*
X161759873Y-93229385D01*
X161702056Y-93235396D01*
X161639687Y-93203902D01*
X161604245Y-93143689D01*
X161600500Y-93113444D01*
X161600500Y-93099765D01*
X161620185Y-93032726D01*
X161621398Y-93030874D01*
X161709390Y-92899185D01*
X161709390Y-92899184D01*
X161709394Y-92899179D01*
X161769737Y-92753497D01*
X161780317Y-92700309D01*
X161812701Y-92638398D01*
X161873417Y-92603824D01*
X161901934Y-92600500D01*
X167366249Y-92600500D01*
X167433288Y-92620185D01*
X167453930Y-92636819D01*
X168336734Y-93519623D01*
X168370219Y-93580946D01*
X168365235Y-93650638D01*
X168323363Y-93706571D01*
X168273250Y-93728920D01*
X168266511Y-93730260D01*
X168266498Y-93730264D01*
X168120827Y-93790602D01*
X168120814Y-93790609D01*
X167989711Y-93878210D01*
X167989707Y-93878213D01*
X167878213Y-93989707D01*
X167878210Y-93989711D01*
X167790609Y-94120814D01*
X167790602Y-94120827D01*
X167730264Y-94266498D01*
X167730261Y-94266510D01*
X167699500Y-94421153D01*
X167699500Y-94578846D01*
X167730261Y-94733489D01*
X167730264Y-94733501D01*
X167790602Y-94879172D01*
X167790609Y-94879185D01*
X167878210Y-95010288D01*
X167878213Y-95010292D01*
X167989707Y-95121786D01*
X167989711Y-95121789D01*
X168120814Y-95209390D01*
X168120827Y-95209397D01*
X168258683Y-95266498D01*
X168266503Y-95269737D01*
X168331147Y-95282595D01*
X168421849Y-95300638D01*
X168483760Y-95333023D01*
X168485339Y-95334574D01*
X169173681Y-96022916D01*
X169207166Y-96084239D01*
X169210000Y-96110597D01*
X169210000Y-97026988D01*
X169152993Y-96994075D01*
X169025826Y-96960000D01*
X168894174Y-96960000D01*
X168767007Y-96994075D01*
X168710000Y-97026988D01*
X168710000Y-96110000D01*
X168062155Y-96110000D01*
X168002627Y-96116401D01*
X168002620Y-96116403D01*
X167867913Y-96166645D01*
X167867906Y-96166649D01*
X167752812Y-96252809D01*
X167752809Y-96252812D01*
X167666649Y-96367906D01*
X167666645Y-96367913D01*
X167616403Y-96502620D01*
X167616401Y-96502627D01*
X167610000Y-96562155D01*
X167610000Y-97210000D01*
X168526988Y-97210000D01*
X168494075Y-97267007D01*
X168460000Y-97394174D01*
X168460000Y-97525826D01*
X168494075Y-97652993D01*
X168526988Y-97710000D01*
X167610000Y-97710000D01*
X167610000Y-98357844D01*
X167616401Y-98417372D01*
X167616403Y-98417379D01*
X167666645Y-98552086D01*
X167666649Y-98552093D01*
X167752809Y-98667187D01*
X167752812Y-98667190D01*
X167867906Y-98753350D01*
X167867913Y-98753354D01*
X167999470Y-98802422D01*
X168055404Y-98844293D01*
X168079821Y-98909758D01*
X168064969Y-98978031D01*
X168043819Y-99006285D01*
X167929889Y-99120215D01*
X167804951Y-99292179D01*
X167708444Y-99481585D01*
X167642753Y-99683760D01*
X167609500Y-99893713D01*
X167609500Y-100106286D01*
X167632788Y-100253324D01*
X167642754Y-100316243D01*
X167691904Y-100467511D01*
X167708444Y-100518414D01*
X167804951Y-100707820D01*
X167929890Y-100879786D01*
X167937017Y-100886913D01*
X167970502Y-100948236D01*
X167965518Y-101017928D01*
X167937017Y-101062275D01*
X166648662Y-102350629D01*
X166587339Y-102384114D01*
X166517647Y-102379130D01*
X166492090Y-102366050D01*
X166379185Y-102290609D01*
X166379172Y-102290602D01*
X166233501Y-102230264D01*
X166233491Y-102230261D01*
X166078151Y-102199362D01*
X166016241Y-102166977D01*
X166014662Y-102165426D01*
X165908717Y-102059481D01*
X165908716Y-102059480D01*
X165821904Y-102009360D01*
X165821904Y-102009359D01*
X165821900Y-102009358D01*
X165771785Y-101980423D01*
X165619057Y-101939499D01*
X165460943Y-101939499D01*
X165453347Y-101939499D01*
X165453331Y-101939500D01*
X164874901Y-101939500D01*
X164807862Y-101919815D01*
X164769362Y-101880596D01*
X164745340Y-101841650D01*
X164623350Y-101719660D01*
X164623346Y-101719657D01*
X164502704Y-101645244D01*
X164455979Y-101593297D01*
X164444758Y-101524334D01*
X164472601Y-101460252D01*
X164502704Y-101434167D01*
X164623039Y-101359943D01*
X164744944Y-101238038D01*
X164744947Y-101238034D01*
X164835448Y-101091311D01*
X164835453Y-101091300D01*
X164889680Y-100927652D01*
X164899999Y-100826654D01*
X164900000Y-100826641D01*
X164900000Y-100790000D01*
X163986500Y-100790000D01*
X163919461Y-100770315D01*
X163873706Y-100717511D01*
X163862500Y-100666000D01*
X163862500Y-100540000D01*
X163736500Y-100540000D01*
X163669461Y-100520315D01*
X163623706Y-100467511D01*
X163612500Y-100416000D01*
X163612500Y-100290000D01*
X164112500Y-100290000D01*
X164899999Y-100290000D01*
X164899999Y-100253360D01*
X164899998Y-100253345D01*
X164889680Y-100152347D01*
X164835453Y-99988699D01*
X164835448Y-99988688D01*
X164744947Y-99841965D01*
X164744944Y-99841961D01*
X164623038Y-99720055D01*
X164623034Y-99720052D01*
X164476311Y-99629551D01*
X164476300Y-99629546D01*
X164312652Y-99575319D01*
X164211654Y-99565000D01*
X164112500Y-99565000D01*
X164112500Y-100290000D01*
X163612500Y-100290000D01*
X163612500Y-99564999D01*
X163513360Y-99565000D01*
X163513344Y-99565001D01*
X163412347Y-99575319D01*
X163248699Y-99629546D01*
X163248688Y-99629551D01*
X163101965Y-99720052D01*
X163088032Y-99733985D01*
X163026708Y-99767468D01*
X162957016Y-99762482D01*
X162912672Y-99733982D01*
X162898351Y-99719661D01*
X162898350Y-99719660D01*
X162771594Y-99641476D01*
X162751518Y-99629093D01*
X162751513Y-99629091D01*
X162750069Y-99628612D01*
X162587753Y-99574826D01*
X162587751Y-99574825D01*
X162486684Y-99564500D01*
X162486677Y-99564500D01*
X162062598Y-99564500D01*
X161995559Y-99544815D01*
X161988946Y-99540257D01*
X161981482Y-99534746D01*
X161909916Y-99463180D01*
X161799618Y-99399500D01*
X161772985Y-99384123D01*
X161772984Y-99384122D01*
X161772983Y-99384122D01*
X161717081Y-99369143D01*
X161620257Y-99343199D01*
X161462143Y-99343199D01*
X161454547Y-99343199D01*
X161454531Y-99343200D01*
X159095164Y-99343200D01*
X159028125Y-99323515D01*
X158982370Y-99270711D01*
X158972426Y-99201553D01*
X159001451Y-99137997D01*
X159060229Y-99100223D01*
X159063015Y-99099440D01*
X159211785Y-99059577D01*
X159261904Y-99030639D01*
X159348716Y-98980520D01*
X159460520Y-98868716D01*
X159460521Y-98868714D01*
X159494662Y-98834572D01*
X159555983Y-98801089D01*
X159558150Y-98800638D01*
X159616085Y-98789113D01*
X159713497Y-98769737D01*
X159859179Y-98709394D01*
X159990289Y-98621789D01*
X160101789Y-98510289D01*
X160189394Y-98379179D01*
X160249737Y-98233497D01*
X160280500Y-98078842D01*
X160280500Y-97921158D01*
X160280500Y-97921155D01*
X160280499Y-97921153D01*
X160268653Y-97861602D01*
X160249737Y-97766503D01*
X160249735Y-97766498D01*
X160189397Y-97620827D01*
X160189390Y-97620814D01*
X160101789Y-97489711D01*
X160101786Y-97489707D01*
X159990292Y-97378213D01*
X159990288Y-97378210D01*
X159859185Y-97290609D01*
X159859172Y-97290602D01*
X159713501Y-97230264D01*
X159713489Y-97230261D01*
X159558845Y-97199500D01*
X159558842Y-97199500D01*
X159401158Y-97199500D01*
X159401155Y-97199500D01*
X159246510Y-97230261D01*
X159246498Y-97230264D01*
X159100827Y-97290602D01*
X159100814Y-97290609D01*
X158969711Y-97378210D01*
X158969707Y-97378213D01*
X158858213Y-97489707D01*
X158858210Y-97489711D01*
X158770609Y-97620814D01*
X158770602Y-97620827D01*
X158710264Y-97766498D01*
X158710261Y-97766510D01*
X158703661Y-97799691D01*
X158671276Y-97861602D01*
X158610561Y-97896176D01*
X158582044Y-97899500D01*
X155579766Y-97899500D01*
X155512727Y-97879815D01*
X155510875Y-97878602D01*
X155379185Y-97790609D01*
X155379172Y-97790602D01*
X155233501Y-97730264D01*
X155233489Y-97730261D01*
X155078845Y-97699500D01*
X155078842Y-97699500D01*
X154921158Y-97699500D01*
X154921155Y-97699500D01*
X154766510Y-97730261D01*
X154766498Y-97730264D01*
X154620827Y-97790602D01*
X154620814Y-97790609D01*
X154489711Y-97878210D01*
X154489707Y-97878213D01*
X154378213Y-97989707D01*
X154378210Y-97989711D01*
X154290609Y-98120814D01*
X154290602Y-98120827D01*
X154230264Y-98266498D01*
X154230261Y-98266507D01*
X154220491Y-98315626D01*
X154188105Y-98377536D01*
X154127389Y-98412110D01*
X154057620Y-98408369D01*
X154015303Y-98381704D01*
X154014999Y-98382076D01*
X154012040Y-98379647D01*
X154011193Y-98379114D01*
X154010292Y-98378213D01*
X154010288Y-98378210D01*
X153879185Y-98290609D01*
X153879172Y-98290602D01*
X153733501Y-98230264D01*
X153733489Y-98230261D01*
X153578845Y-98199500D01*
X153578842Y-98199500D01*
X153421158Y-98199500D01*
X153421155Y-98199500D01*
X153266510Y-98230261D01*
X153266498Y-98230264D01*
X153120827Y-98290602D01*
X153120814Y-98290609D01*
X152989125Y-98378602D01*
X152922447Y-98399480D01*
X152920234Y-98399500D01*
X152407703Y-98399500D01*
X152340664Y-98379815D01*
X152294909Y-98327011D01*
X152284965Y-98257853D01*
X152286086Y-98251309D01*
X152300499Y-98178846D01*
X152300500Y-98178844D01*
X152300500Y-98021155D01*
X152300499Y-98021153D01*
X152281557Y-97925925D01*
X152269737Y-97866503D01*
X152228314Y-97766498D01*
X152209397Y-97720827D01*
X152209390Y-97720814D01*
X152121398Y-97589125D01*
X152100520Y-97522447D01*
X152100500Y-97520234D01*
X152100500Y-97420945D01*
X152100500Y-97420943D01*
X152059577Y-97268216D01*
X152037664Y-97230261D01*
X151980524Y-97131290D01*
X151980521Y-97131286D01*
X151980520Y-97131284D01*
X151868716Y-97019480D01*
X151868715Y-97019479D01*
X151864385Y-97015149D01*
X151864374Y-97015139D01*
X150834574Y-95985339D01*
X150801089Y-95924016D01*
X150800638Y-95921849D01*
X150779839Y-95817291D01*
X150769737Y-95766503D01*
X150717681Y-95640827D01*
X150709397Y-95620827D01*
X150709390Y-95620814D01*
X150621789Y-95489711D01*
X150621786Y-95489707D01*
X150510292Y-95378213D01*
X150510288Y-95378210D01*
X150379185Y-95290609D01*
X150379172Y-95290602D01*
X150233501Y-95230264D01*
X150233489Y-95230261D01*
X150078845Y-95199500D01*
X150078842Y-95199500D01*
X149921158Y-95199500D01*
X149921155Y-95199500D01*
X149766510Y-95230261D01*
X149766498Y-95230264D01*
X149620827Y-95290602D01*
X149620814Y-95290609D01*
X149489711Y-95378210D01*
X149489707Y-95378213D01*
X149378213Y-95489707D01*
X149378210Y-95489711D01*
X149290609Y-95620814D01*
X149290604Y-95620823D01*
X149282811Y-95639638D01*
X149238968Y-95694040D01*
X149172673Y-95716103D01*
X149104975Y-95698822D01*
X149080570Y-95679863D01*
X149056819Y-95656112D01*
X149023334Y-95594789D01*
X149020500Y-95568431D01*
X149020500Y-94815235D01*
X149040185Y-94748196D01*
X149088205Y-94704750D01*
X149141600Y-94677545D01*
X149316925Y-94550164D01*
X149470164Y-94396925D01*
X149564925Y-94266498D01*
X149589682Y-94232423D01*
X149645012Y-94189757D01*
X149714625Y-94183778D01*
X149776420Y-94216384D01*
X149790318Y-94232423D01*
X149896938Y-94379172D01*
X149909836Y-94396925D01*
X150063075Y-94550164D01*
X150238400Y-94677545D01*
X150377061Y-94748196D01*
X150431494Y-94775931D01*
X150637595Y-94842897D01*
X150637596Y-94842897D01*
X150637599Y-94842898D01*
X150851644Y-94876800D01*
X150851645Y-94876800D01*
X151068354Y-94876800D01*
X151068356Y-94876800D01*
X151219262Y-94852898D01*
X151288553Y-94861852D01*
X151342005Y-94906848D01*
X151362645Y-94973600D01*
X151343921Y-95040913D01*
X151341760Y-95044261D01*
X151290612Y-95120809D01*
X151290602Y-95120827D01*
X151230264Y-95266498D01*
X151230261Y-95266510D01*
X151199500Y-95421153D01*
X151199500Y-95578846D01*
X151230261Y-95733489D01*
X151230264Y-95733501D01*
X151290602Y-95879172D01*
X151290609Y-95879185D01*
X151378210Y-96010288D01*
X151378213Y-96010292D01*
X151489707Y-96121786D01*
X151489711Y-96121789D01*
X151620814Y-96209390D01*
X151620827Y-96209397D01*
X151766498Y-96269735D01*
X151766503Y-96269737D01*
X151921153Y-96300499D01*
X151921156Y-96300500D01*
X151921158Y-96300500D01*
X152078844Y-96300500D01*
X152078845Y-96300499D01*
X152233497Y-96269737D01*
X152379179Y-96209394D01*
X152510289Y-96121789D01*
X152621789Y-96010289D01*
X152709394Y-95879179D01*
X152769737Y-95733497D01*
X152800500Y-95578842D01*
X152800500Y-95421158D01*
X152800500Y-95421155D01*
X152800499Y-95421153D01*
X152795936Y-95398213D01*
X152769737Y-95266503D01*
X152763010Y-95250263D01*
X152709397Y-95120827D01*
X152709390Y-95120814D01*
X152621398Y-94989125D01*
X152600520Y-94922447D01*
X152600500Y-94920234D01*
X152600500Y-94789250D01*
X152620185Y-94722211D01*
X152672989Y-94676456D01*
X152742147Y-94666512D01*
X152780793Y-94678764D01*
X152917061Y-94748196D01*
X152971494Y-94775931D01*
X153177595Y-94842897D01*
X153177596Y-94842897D01*
X153177599Y-94842898D01*
X153391644Y-94876800D01*
X153391645Y-94876800D01*
X153608355Y-94876800D01*
X153608356Y-94876800D01*
X153822401Y-94842898D01*
X153822404Y-94842897D01*
X153822405Y-94842897D01*
X154028505Y-94775931D01*
X154028505Y-94775930D01*
X154028508Y-94775930D01*
X154221600Y-94677545D01*
X154396925Y-94550164D01*
X154550164Y-94396925D01*
X154644925Y-94266498D01*
X154669682Y-94232423D01*
X154725012Y-94189757D01*
X154794625Y-94183778D01*
X154856420Y-94216384D01*
X154870318Y-94232423D01*
X154976938Y-94379172D01*
X154989836Y-94396925D01*
X155143075Y-94550164D01*
X155318400Y-94677545D01*
X155457061Y-94748196D01*
X155511494Y-94775931D01*
X155717595Y-94842897D01*
X155717596Y-94842897D01*
X155717599Y-94842898D01*
X155931644Y-94876800D01*
X155931645Y-94876800D01*
X156148355Y-94876800D01*
X156148356Y-94876800D01*
X156362401Y-94842898D01*
X156362404Y-94842897D01*
X156362405Y-94842897D01*
X156568505Y-94775931D01*
X156568505Y-94775930D01*
X156568508Y-94775930D01*
X156761600Y-94677545D01*
X156936925Y-94550164D01*
X157090164Y-94396925D01*
X157184925Y-94266498D01*
X157209682Y-94232423D01*
X157265012Y-94189757D01*
X157334625Y-94183778D01*
X157396420Y-94216384D01*
X157410318Y-94232423D01*
X157516938Y-94379172D01*
X157529836Y-94396925D01*
X157683075Y-94550164D01*
X157858400Y-94677545D01*
X157997061Y-94748196D01*
X158051494Y-94775931D01*
X158257595Y-94842897D01*
X158257596Y-94842897D01*
X158257599Y-94842898D01*
X158471644Y-94876800D01*
X158471645Y-94876800D01*
X158688355Y-94876800D01*
X158688356Y-94876800D01*
X158902401Y-94842898D01*
X158902404Y-94842897D01*
X158902405Y-94842897D01*
X159108505Y-94775931D01*
X159108505Y-94775930D01*
X159108508Y-94775930D01*
X159301600Y-94677545D01*
X159476925Y-94550164D01*
X159630164Y-94396925D01*
X159757545Y-94221600D01*
X159855930Y-94028508D01*
X159904764Y-93878213D01*
X159922897Y-93822405D01*
X159922897Y-93822404D01*
X159922898Y-93822401D01*
X159956800Y-93608356D01*
X159956800Y-93391644D01*
X159922898Y-93177599D01*
X159922897Y-93177595D01*
X159922897Y-93177594D01*
X159855931Y-92971494D01*
X159777032Y-92816646D01*
X159758764Y-92780794D01*
X159755492Y-92763368D01*
X159747418Y-92747586D01*
X159749177Y-92729745D01*
X159745869Y-92712126D01*
X159752536Y-92695698D01*
X159754277Y-92678054D01*
X159765402Y-92663997D01*
X159772145Y-92647385D01*
X159786636Y-92637169D01*
X159797639Y-92623268D01*
X159814598Y-92617457D01*
X159829252Y-92607128D01*
X159859269Y-92602153D01*
X159863738Y-92600623D01*
X159866728Y-92600917D01*
X159869250Y-92600500D01*
X160098066Y-92600500D01*
X160165105Y-92620185D01*
G37*
%TD.AperFunction*%
%TA.AperFunction,Conductor*%
G36*
X161715203Y-85904884D02*
G01*
X161721681Y-85910916D01*
X163863181Y-88052416D01*
X163896666Y-88113739D01*
X163899500Y-88140097D01*
X163899500Y-90420234D01*
X163879815Y-90487273D01*
X163878602Y-90489125D01*
X163790609Y-90620814D01*
X163790602Y-90620827D01*
X163730264Y-90766498D01*
X163730261Y-90766510D01*
X163699500Y-90921153D01*
X163699500Y-91078846D01*
X163730261Y-91233489D01*
X163732031Y-91239324D01*
X163729279Y-91240158D01*
X163735503Y-91297359D01*
X163704309Y-91359878D01*
X163644266Y-91395608D01*
X163613445Y-91399500D01*
X154920940Y-91399500D01*
X154880019Y-91410464D01*
X154880019Y-91410465D01*
X154842751Y-91420451D01*
X154768214Y-91440423D01*
X154768209Y-91440426D01*
X154631290Y-91519475D01*
X154631282Y-91519481D01*
X154519478Y-91631286D01*
X154005393Y-92145370D01*
X153944070Y-92178855D01*
X153879394Y-92175620D01*
X153860122Y-92169358D01*
X153822401Y-92157101D01*
X153637621Y-92127835D01*
X153608356Y-92123200D01*
X153391644Y-92123200D01*
X153320295Y-92134500D01*
X153177597Y-92157102D01*
X153177594Y-92157102D01*
X152971494Y-92224068D01*
X152778399Y-92322455D01*
X152603072Y-92449838D01*
X152449838Y-92603072D01*
X152449838Y-92603073D01*
X152449836Y-92603075D01*
X152379191Y-92700309D01*
X152330318Y-92767577D01*
X152274988Y-92810242D01*
X152205374Y-92816221D01*
X152143579Y-92783615D01*
X152129682Y-92767577D01*
X152102195Y-92729745D01*
X152010164Y-92603075D01*
X151856925Y-92449836D01*
X151681600Y-92322455D01*
X151560499Y-92260751D01*
X151488505Y-92224068D01*
X151282404Y-92157102D01*
X151121867Y-92131675D01*
X151068356Y-92123200D01*
X150851644Y-92123200D01*
X150780295Y-92134500D01*
X150637597Y-92157102D01*
X150580605Y-92175620D01*
X150510764Y-92177615D01*
X150454606Y-92145370D01*
X149546705Y-91237470D01*
X149527000Y-91211790D01*
X149480520Y-91131284D01*
X149368716Y-91019480D01*
X149368714Y-91019479D01*
X149368709Y-91019475D01*
X149231790Y-90940426D01*
X149231786Y-90940424D01*
X149231784Y-90940423D01*
X149079057Y-90899500D01*
X149079056Y-90899500D01*
X148300098Y-90899500D01*
X148233059Y-90879815D01*
X148212417Y-90863181D01*
X147261417Y-89912181D01*
X147227932Y-89850858D01*
X147232916Y-89781166D01*
X147274788Y-89725233D01*
X147340252Y-89700816D01*
X147349098Y-89700500D01*
X150313331Y-89700500D01*
X150313347Y-89700501D01*
X150320943Y-89700501D01*
X150479054Y-89700501D01*
X150479057Y-89700501D01*
X150631785Y-89659577D01*
X150681904Y-89630639D01*
X150768716Y-89580520D01*
X150880520Y-89468716D01*
X150880520Y-89468714D01*
X150890728Y-89458507D01*
X150890729Y-89458504D01*
X151514662Y-88834572D01*
X151575983Y-88801089D01*
X151578150Y-88800638D01*
X151636085Y-88789113D01*
X151733497Y-88769737D01*
X151879179Y-88709394D01*
X152010289Y-88621789D01*
X152121789Y-88510289D01*
X152209394Y-88379179D01*
X152269737Y-88233497D01*
X152300500Y-88078842D01*
X152300500Y-87921158D01*
X152300500Y-87921155D01*
X152300499Y-87921153D01*
X152274531Y-87790606D01*
X152269737Y-87766503D01*
X152267434Y-87760943D01*
X152209397Y-87620827D01*
X152209393Y-87620820D01*
X152200971Y-87608215D01*
X152168231Y-87559216D01*
X152147354Y-87492541D01*
X152165838Y-87425161D01*
X152217816Y-87378471D01*
X152286786Y-87367294D01*
X152290732Y-87367854D01*
X152323892Y-87373106D01*
X152433713Y-87390500D01*
X152433714Y-87390500D01*
X152646285Y-87390500D01*
X152646287Y-87390500D01*
X152756104Y-87373106D01*
X152825395Y-87382060D01*
X152878847Y-87427056D01*
X152899487Y-87493807D01*
X152899500Y-87495579D01*
X152899500Y-87920234D01*
X152879815Y-87987273D01*
X152878602Y-87989125D01*
X152790609Y-88120814D01*
X152790602Y-88120827D01*
X152730264Y-88266498D01*
X152730261Y-88266510D01*
X152699500Y-88421153D01*
X152699500Y-88578846D01*
X152730261Y-88733489D01*
X152730264Y-88733501D01*
X152790602Y-88879172D01*
X152790609Y-88879185D01*
X152878210Y-89010288D01*
X152878213Y-89010292D01*
X152989706Y-89121785D01*
X152989711Y-89121789D01*
X153120814Y-89209390D01*
X153120827Y-89209397D01*
X153218853Y-89250000D01*
X153266503Y-89269737D01*
X153421153Y-89300499D01*
X153421156Y-89300500D01*
X153421158Y-89300500D01*
X153578844Y-89300500D01*
X153578845Y-89300499D01*
X153733497Y-89269737D01*
X153856678Y-89218714D01*
X153879172Y-89209397D01*
X153879172Y-89209396D01*
X153879179Y-89209394D01*
X154010289Y-89121789D01*
X154010291Y-89121787D01*
X154010294Y-89121785D01*
X154121786Y-89010292D01*
X154121789Y-89010289D01*
X154209394Y-88879179D01*
X154269737Y-88733497D01*
X154300500Y-88578842D01*
X154300500Y-88421158D01*
X154300500Y-88421155D01*
X154300499Y-88421153D01*
X154287908Y-88357853D01*
X154269737Y-88266503D01*
X154256062Y-88233489D01*
X154209397Y-88120827D01*
X154209390Y-88120814D01*
X154121398Y-87989125D01*
X154100520Y-87922447D01*
X154100500Y-87920234D01*
X154100500Y-87240407D01*
X154120185Y-87173368D01*
X154172989Y-87127613D01*
X154242147Y-87117669D01*
X154297385Y-87140089D01*
X154372442Y-87194620D01*
X154561782Y-87291095D01*
X154763870Y-87356757D01*
X154973754Y-87390000D01*
X155186246Y-87390000D01*
X155396127Y-87356757D01*
X155396130Y-87356757D01*
X155598217Y-87291095D01*
X155787554Y-87194622D01*
X155841716Y-87155270D01*
X155841717Y-87155270D01*
X155209409Y-86522962D01*
X155272993Y-86505925D01*
X155387007Y-86440099D01*
X155480099Y-86347007D01*
X155545925Y-86232993D01*
X155562962Y-86169409D01*
X156195270Y-86801717D01*
X156195270Y-86801716D01*
X156234622Y-86747555D01*
X156239232Y-86738507D01*
X156287205Y-86687709D01*
X156355025Y-86670912D01*
X156421161Y-86693447D01*
X156460204Y-86738504D01*
X156464949Y-86747817D01*
X156589890Y-86919786D01*
X156589896Y-86919792D01*
X156740208Y-87070104D01*
X156912184Y-87195051D01*
X156986034Y-87232678D01*
X157036828Y-87280650D01*
X157049512Y-87311066D01*
X157060423Y-87351785D01*
X157063574Y-87357242D01*
X157063575Y-87357246D01*
X157063576Y-87357246D01*
X157139477Y-87488712D01*
X157139481Y-87488717D01*
X157258349Y-87607585D01*
X157258355Y-87607590D01*
X158165425Y-88514660D01*
X158198910Y-88575983D01*
X158199361Y-88578149D01*
X158230261Y-88733491D01*
X158230264Y-88733501D01*
X158290602Y-88879172D01*
X158290609Y-88879185D01*
X158378210Y-89010288D01*
X158378213Y-89010292D01*
X158489706Y-89121785D01*
X158489711Y-89121789D01*
X158620814Y-89209390D01*
X158620827Y-89209397D01*
X158718853Y-89250000D01*
X158766503Y-89269737D01*
X158921153Y-89300499D01*
X158921156Y-89300500D01*
X158921158Y-89300500D01*
X159078844Y-89300500D01*
X159078845Y-89300499D01*
X159233497Y-89269737D01*
X159356678Y-89218714D01*
X159379172Y-89209397D01*
X159379172Y-89209396D01*
X159379179Y-89209394D01*
X159510289Y-89121789D01*
X159510291Y-89121787D01*
X159510294Y-89121785D01*
X159621786Y-89010292D01*
X159621789Y-89010289D01*
X159709394Y-88879179D01*
X159769737Y-88733497D01*
X159800500Y-88578842D01*
X159800500Y-88421158D01*
X159800500Y-88421155D01*
X159800499Y-88421153D01*
X159787908Y-88357853D01*
X159769737Y-88266503D01*
X159756062Y-88233489D01*
X159709397Y-88120827D01*
X159709390Y-88120814D01*
X159621789Y-87989711D01*
X159621786Y-87989707D01*
X159510292Y-87878213D01*
X159510288Y-87878210D01*
X159379185Y-87790609D01*
X159379172Y-87790602D01*
X159233501Y-87730264D01*
X159233491Y-87730261D01*
X159078151Y-87699362D01*
X159016241Y-87666977D01*
X159014662Y-87665426D01*
X158547247Y-87198011D01*
X158542908Y-87190065D01*
X158535661Y-87184640D01*
X158527682Y-87163249D01*
X158524453Y-87159522D01*
X158523817Y-87155103D01*
X158513762Y-87136688D01*
X158514407Y-87127658D01*
X158511244Y-87119176D01*
X158515703Y-87098674D01*
X158514509Y-87090364D01*
X158517551Y-87083702D01*
X158518746Y-87066996D01*
X158524564Y-87057942D01*
X158526096Y-87050903D01*
X158542596Y-87028861D01*
X158543534Y-87026808D01*
X158546592Y-87023523D01*
X158547247Y-87022649D01*
X158549566Y-87020330D01*
X158582077Y-86987819D01*
X158650104Y-86919792D01*
X158650106Y-86919788D01*
X158650109Y-86919786D01*
X158735890Y-86801717D01*
X158775051Y-86747816D01*
X158779793Y-86738508D01*
X158827763Y-86687711D01*
X158895583Y-86670911D01*
X158961719Y-86693445D01*
X159000763Y-86738500D01*
X159005373Y-86747547D01*
X159044728Y-86801716D01*
X159677037Y-86169408D01*
X159694075Y-86232993D01*
X159759901Y-86347007D01*
X159852993Y-86440099D01*
X159967007Y-86505925D01*
X160030590Y-86522962D01*
X159398282Y-87155269D01*
X159398282Y-87155270D01*
X159452449Y-87194624D01*
X159641782Y-87291095D01*
X159843870Y-87356757D01*
X160053754Y-87390000D01*
X160266246Y-87390000D01*
X160476127Y-87356757D01*
X160476130Y-87356757D01*
X160678217Y-87291095D01*
X160867554Y-87194622D01*
X160921716Y-87155270D01*
X160921717Y-87155270D01*
X160289408Y-86522962D01*
X160352993Y-86505925D01*
X160467007Y-86440099D01*
X160560099Y-86347007D01*
X160625925Y-86232993D01*
X160642962Y-86169408D01*
X161275270Y-86801717D01*
X161275270Y-86801716D01*
X161314622Y-86747554D01*
X161411095Y-86558217D01*
X161476757Y-86356130D01*
X161476757Y-86356127D01*
X161510000Y-86146246D01*
X161510000Y-85998597D01*
X161529685Y-85931558D01*
X161582489Y-85885803D01*
X161651647Y-85875859D01*
X161715203Y-85904884D01*
G37*
%TD.AperFunction*%
%TA.AperFunction,Conductor*%
G36*
X158773181Y-84299628D02*
G01*
X158806666Y-84360951D01*
X158809500Y-84387300D01*
X158809500Y-84397865D01*
X158809501Y-84397876D01*
X158815908Y-84457483D01*
X158866202Y-84592328D01*
X158866206Y-84592335D01*
X158952452Y-84707544D01*
X158952455Y-84707547D01*
X159067664Y-84793793D01*
X159067671Y-84793797D01*
X159112618Y-84810561D01*
X159202517Y-84844091D01*
X159262127Y-84850500D01*
X159272685Y-84850499D01*
X159339723Y-84870179D01*
X159360372Y-84886818D01*
X160030591Y-85557037D01*
X159967007Y-85574075D01*
X159852993Y-85639901D01*
X159759901Y-85732993D01*
X159694075Y-85847007D01*
X159677037Y-85910591D01*
X159044728Y-85278282D01*
X159044727Y-85278282D01*
X159005380Y-85332440D01*
X159005376Y-85332446D01*
X159000760Y-85341505D01*
X158952781Y-85392297D01*
X158884959Y-85409087D01*
X158818826Y-85386543D01*
X158779794Y-85341493D01*
X158775051Y-85332184D01*
X158775049Y-85332181D01*
X158775048Y-85332179D01*
X158650109Y-85160213D01*
X158499786Y-85009890D01*
X158327817Y-84884949D01*
X158318504Y-84880204D01*
X158267707Y-84832230D01*
X158250912Y-84764409D01*
X158273449Y-84698274D01*
X158318507Y-84659232D01*
X158327555Y-84654622D01*
X158381716Y-84615270D01*
X158381717Y-84615270D01*
X157749408Y-83982962D01*
X157812993Y-83965925D01*
X157927007Y-83900099D01*
X158020099Y-83807007D01*
X158085925Y-83692993D01*
X158102962Y-83629408D01*
X158773181Y-84299628D01*
G37*
%TD.AperFunction*%
%TA.AperFunction,Conductor*%
G36*
X157154075Y-83692993D02*
G01*
X157219901Y-83807007D01*
X157312993Y-83900099D01*
X157427007Y-83965925D01*
X157490590Y-83982962D01*
X156858282Y-84615269D01*
X156858282Y-84615270D01*
X156912452Y-84654626D01*
X156912451Y-84654626D01*
X156921495Y-84659234D01*
X156972292Y-84707208D01*
X156989087Y-84775029D01*
X156966550Y-84841164D01*
X156921499Y-84880202D01*
X156912182Y-84884949D01*
X156740213Y-85009890D01*
X156589890Y-85160213D01*
X156464949Y-85332182D01*
X156460202Y-85341499D01*
X156412227Y-85392293D01*
X156344405Y-85409087D01*
X156278271Y-85386548D01*
X156239234Y-85341495D01*
X156234626Y-85332452D01*
X156195270Y-85278282D01*
X156195269Y-85278282D01*
X155562962Y-85910590D01*
X155545925Y-85847007D01*
X155480099Y-85732993D01*
X155387007Y-85639901D01*
X155272993Y-85574075D01*
X155209407Y-85557036D01*
X155841716Y-84924728D01*
X155787547Y-84885373D01*
X155787547Y-84885372D01*
X155778500Y-84880763D01*
X155727706Y-84832788D01*
X155710912Y-84764966D01*
X155733451Y-84698832D01*
X155778508Y-84659793D01*
X155787816Y-84655051D01*
X155903582Y-84570943D01*
X155959786Y-84530109D01*
X155959788Y-84530106D01*
X155959792Y-84530104D01*
X156110104Y-84379792D01*
X156110106Y-84379788D01*
X156110109Y-84379786D01*
X156181675Y-84281282D01*
X156235051Y-84207816D01*
X156239793Y-84198508D01*
X156287763Y-84147711D01*
X156355583Y-84130911D01*
X156421719Y-84153445D01*
X156460763Y-84198500D01*
X156465373Y-84207547D01*
X156504728Y-84261716D01*
X157137037Y-83629408D01*
X157154075Y-83692993D01*
G37*
%TD.AperFunction*%
%TA.AperFunction,Conductor*%
G36*
X152074075Y-83692993D02*
G01*
X152139901Y-83807007D01*
X152232993Y-83900099D01*
X152347007Y-83965925D01*
X152410590Y-83982962D01*
X151778282Y-84615269D01*
X151778282Y-84615270D01*
X151832452Y-84654626D01*
X151832451Y-84654626D01*
X151841495Y-84659234D01*
X151892292Y-84707208D01*
X151909087Y-84775029D01*
X151886550Y-84841164D01*
X151841499Y-84880202D01*
X151832182Y-84884949D01*
X151660213Y-85009890D01*
X151509890Y-85160213D01*
X151384949Y-85332182D01*
X151380484Y-85340946D01*
X151332509Y-85391742D01*
X151264688Y-85408536D01*
X151198553Y-85385998D01*
X151159516Y-85340946D01*
X151155050Y-85332182D01*
X151030109Y-85160213D01*
X150879786Y-85009890D01*
X150707820Y-84884951D01*
X150699600Y-84880763D01*
X150699054Y-84880485D01*
X150648259Y-84832512D01*
X150631463Y-84764692D01*
X150653999Y-84698556D01*
X150699054Y-84659515D01*
X150707816Y-84655051D01*
X150765356Y-84613246D01*
X150879786Y-84530109D01*
X150879788Y-84530106D01*
X150879792Y-84530104D01*
X151030104Y-84379792D01*
X151030106Y-84379788D01*
X151030109Y-84379786D01*
X151101675Y-84281282D01*
X151155051Y-84207816D01*
X151159793Y-84198508D01*
X151207763Y-84147711D01*
X151275583Y-84130911D01*
X151341719Y-84153445D01*
X151380763Y-84198500D01*
X151385373Y-84207547D01*
X151424728Y-84261716D01*
X152057037Y-83629408D01*
X152074075Y-83692993D01*
G37*
%TD.AperFunction*%
%TA.AperFunction,Conductor*%
G36*
X171483417Y-80020185D02*
G01*
X171529172Y-80072989D01*
X171539116Y-80142147D01*
X171510091Y-80205703D01*
X171451313Y-80243477D01*
X171440569Y-80246117D01*
X171197097Y-80294545D01*
X171197086Y-80294548D01*
X170886752Y-80388686D01*
X170587150Y-80512786D01*
X170587145Y-80512788D01*
X170301169Y-80665646D01*
X170301151Y-80665657D01*
X170031532Y-80845811D01*
X170031518Y-80845821D01*
X169780841Y-81051546D01*
X169551546Y-81280841D01*
X169345821Y-81531518D01*
X169345811Y-81531532D01*
X169165657Y-81801151D01*
X169165646Y-81801169D01*
X169012788Y-82087145D01*
X169012786Y-82087150D01*
X168888686Y-82386752D01*
X168794548Y-82697086D01*
X168794545Y-82697097D01*
X168731287Y-83015125D01*
X168731284Y-83015142D01*
X168714677Y-83183760D01*
X168699500Y-83337857D01*
X168699500Y-83662143D01*
X168709054Y-83759152D01*
X168731284Y-83984857D01*
X168731287Y-83984874D01*
X168794545Y-84302902D01*
X168794548Y-84302913D01*
X168888686Y-84613247D01*
X168951794Y-84765603D01*
X169002003Y-84886818D01*
X169012786Y-84912849D01*
X169012788Y-84912854D01*
X169165646Y-85198830D01*
X169165650Y-85198837D01*
X169165653Y-85198842D01*
X169254924Y-85332446D01*
X169345811Y-85468467D01*
X169345821Y-85468481D01*
X169551546Y-85719158D01*
X169780841Y-85948453D01*
X169780846Y-85948457D01*
X169780847Y-85948458D01*
X170031524Y-86154183D01*
X170301158Y-86334347D01*
X170301167Y-86334352D01*
X170301169Y-86334353D01*
X170587145Y-86487211D01*
X170587147Y-86487211D01*
X170587153Y-86487215D01*
X170886754Y-86611314D01*
X171197077Y-86705449D01*
X171197083Y-86705450D01*
X171197086Y-86705451D01*
X171197097Y-86705454D01*
X171396528Y-86745122D01*
X171515132Y-86768714D01*
X171837857Y-86800500D01*
X171837860Y-86800500D01*
X172162140Y-86800500D01*
X172162143Y-86800500D01*
X172484868Y-86768714D01*
X172642295Y-86737399D01*
X172802902Y-86705454D01*
X172802913Y-86705451D01*
X172802913Y-86705450D01*
X172802923Y-86705449D01*
X173113246Y-86611314D01*
X173412847Y-86487215D01*
X173698842Y-86334347D01*
X173968476Y-86154183D01*
X174219153Y-85948458D01*
X174448458Y-85719153D01*
X174654183Y-85468476D01*
X174834347Y-85198842D01*
X174987215Y-84912847D01*
X175111314Y-84613246D01*
X175205449Y-84302923D01*
X175205451Y-84302913D01*
X175205454Y-84302902D01*
X175253883Y-84059430D01*
X175286267Y-83997519D01*
X175346983Y-83962945D01*
X175416753Y-83966684D01*
X175473425Y-84007550D01*
X175499006Y-84072568D01*
X175499500Y-84083621D01*
X175499500Y-123416378D01*
X175479815Y-123483417D01*
X175427011Y-123529172D01*
X175357853Y-123539116D01*
X175294297Y-123510091D01*
X175256523Y-123451313D01*
X175253883Y-123440569D01*
X175205454Y-123197097D01*
X175205451Y-123197086D01*
X175205450Y-123197083D01*
X175205449Y-123197077D01*
X175111314Y-122886754D01*
X174987215Y-122587153D01*
X174834347Y-122301158D01*
X174654183Y-122031524D01*
X174448458Y-121780847D01*
X174448457Y-121780846D01*
X174448453Y-121780841D01*
X174219158Y-121551546D01*
X173968481Y-121345821D01*
X173968480Y-121345820D01*
X173968476Y-121345817D01*
X173698842Y-121165653D01*
X173698837Y-121165650D01*
X173698830Y-121165646D01*
X173412854Y-121012788D01*
X173412849Y-121012786D01*
X173113247Y-120888686D01*
X172802913Y-120794548D01*
X172802902Y-120794545D01*
X172484874Y-120731287D01*
X172484857Y-120731284D01*
X172240812Y-120707248D01*
X172162143Y-120699500D01*
X171837857Y-120699500D01*
X171765099Y-120706666D01*
X171515142Y-120731284D01*
X171515125Y-120731287D01*
X171197097Y-120794545D01*
X171197086Y-120794548D01*
X170886752Y-120888686D01*
X170587150Y-121012786D01*
X170587145Y-121012788D01*
X170301169Y-121165646D01*
X170301151Y-121165657D01*
X170031532Y-121345811D01*
X170031518Y-121345821D01*
X169780841Y-121551546D01*
X169551546Y-121780841D01*
X169345821Y-122031518D01*
X169345811Y-122031532D01*
X169165657Y-122301151D01*
X169165646Y-122301169D01*
X169012788Y-122587145D01*
X169012786Y-122587150D01*
X168888686Y-122886752D01*
X168794548Y-123197086D01*
X168794545Y-123197097D01*
X168731287Y-123515125D01*
X168731284Y-123515142D01*
X168699500Y-123837860D01*
X168699500Y-124162139D01*
X168731284Y-124484857D01*
X168731287Y-124484874D01*
X168794545Y-124802902D01*
X168794548Y-124802913D01*
X168888686Y-125113247D01*
X169012786Y-125412849D01*
X169012788Y-125412854D01*
X169165646Y-125698830D01*
X169165657Y-125698848D01*
X169345811Y-125968467D01*
X169345821Y-125968481D01*
X169551546Y-126219158D01*
X169780841Y-126448453D01*
X169780846Y-126448457D01*
X169780847Y-126448458D01*
X170031524Y-126654183D01*
X170301158Y-126834347D01*
X170301167Y-126834352D01*
X170301169Y-126834353D01*
X170587145Y-126987211D01*
X170587147Y-126987211D01*
X170587153Y-126987215D01*
X170886754Y-127111314D01*
X171197077Y-127205449D01*
X171197083Y-127205450D01*
X171197086Y-127205451D01*
X171197097Y-127205454D01*
X171440569Y-127253883D01*
X171502480Y-127286268D01*
X171537054Y-127346983D01*
X171533315Y-127416753D01*
X171492449Y-127473425D01*
X171427431Y-127499006D01*
X171416378Y-127499500D01*
X132412022Y-127499500D01*
X132344983Y-127479815D01*
X132299228Y-127427011D01*
X132289284Y-127357853D01*
X132318309Y-127294297D01*
X132377087Y-127256523D01*
X132387831Y-127253883D01*
X132631302Y-127205454D01*
X132631313Y-127205451D01*
X132631313Y-127205450D01*
X132631323Y-127205449D01*
X132941646Y-127111314D01*
X133241247Y-126987215D01*
X133527242Y-126834347D01*
X133796876Y-126654183D01*
X134047553Y-126448458D01*
X134276858Y-126219153D01*
X134482583Y-125968476D01*
X134662747Y-125698842D01*
X134815615Y-125412847D01*
X134939714Y-125113246D01*
X135033849Y-124802923D01*
X135033851Y-124802913D01*
X135033854Y-124802902D01*
X135076601Y-124587993D01*
X135097114Y-124484868D01*
X135128900Y-124162143D01*
X135128900Y-123837857D01*
X135097114Y-123515132D01*
X135073522Y-123396528D01*
X135033854Y-123197097D01*
X135033851Y-123197086D01*
X135033850Y-123197083D01*
X135033849Y-123197077D01*
X134939714Y-122886754D01*
X134815615Y-122587153D01*
X134662747Y-122301158D01*
X134482583Y-122031524D01*
X134276858Y-121780847D01*
X134276857Y-121780846D01*
X134276853Y-121780841D01*
X134047558Y-121551546D01*
X133796881Y-121345821D01*
X133796880Y-121345820D01*
X133796876Y-121345817D01*
X133527242Y-121165653D01*
X133527237Y-121165650D01*
X133527230Y-121165646D01*
X133241254Y-121012788D01*
X133241249Y-121012786D01*
X132941647Y-120888686D01*
X132631313Y-120794548D01*
X132631302Y-120794545D01*
X132313274Y-120731287D01*
X132313257Y-120731284D01*
X132069212Y-120707248D01*
X131990543Y-120699500D01*
X131666257Y-120699500D01*
X131593499Y-120706666D01*
X131343542Y-120731284D01*
X131343525Y-120731287D01*
X131025497Y-120794545D01*
X131025486Y-120794548D01*
X130715152Y-120888686D01*
X130415550Y-121012786D01*
X130415545Y-121012788D01*
X130129569Y-121165646D01*
X130129551Y-121165657D01*
X129859932Y-121345811D01*
X129859918Y-121345821D01*
X129609241Y-121551546D01*
X129379946Y-121780841D01*
X129174221Y-122031518D01*
X129174211Y-122031532D01*
X128994057Y-122301151D01*
X128994046Y-122301169D01*
X128841188Y-122587145D01*
X128841186Y-122587150D01*
X128717086Y-122886752D01*
X128622948Y-123197086D01*
X128622945Y-123197097D01*
X128574544Y-123440433D01*
X128542159Y-123502344D01*
X128481444Y-123536918D01*
X128411674Y-123533179D01*
X128355002Y-123492313D01*
X128329421Y-123427295D01*
X128328927Y-123416242D01*
X128328927Y-93391644D01*
X129263200Y-93391644D01*
X129263200Y-93608355D01*
X129297102Y-93822402D01*
X129297102Y-93822405D01*
X129364068Y-94028505D01*
X129442967Y-94183352D01*
X129462455Y-94221600D01*
X129589836Y-94396925D01*
X129743075Y-94550164D01*
X129918400Y-94677545D01*
X130057061Y-94748196D01*
X130111494Y-94775931D01*
X130317595Y-94842897D01*
X130317596Y-94842897D01*
X130317599Y-94842898D01*
X130531644Y-94876800D01*
X130531645Y-94876800D01*
X130748355Y-94876800D01*
X130748356Y-94876800D01*
X130962401Y-94842898D01*
X130962404Y-94842897D01*
X130962405Y-94842897D01*
X131168505Y-94775931D01*
X131168505Y-94775930D01*
X131168508Y-94775930D01*
X131361600Y-94677545D01*
X131536925Y-94550164D01*
X131690164Y-94396925D01*
X131809991Y-94231996D01*
X131865321Y-94189331D01*
X131934934Y-94183352D01*
X131996729Y-94215958D01*
X132010628Y-94231998D01*
X132045899Y-94280545D01*
X132659396Y-93667049D01*
X132671116Y-93710787D01*
X132743011Y-93835313D01*
X132844687Y-93936989D01*
X132969213Y-94008884D01*
X133012950Y-94020603D01*
X132399452Y-94634099D01*
X132399453Y-94634100D01*
X132458657Y-94677114D01*
X132651679Y-94775465D01*
X132857715Y-94842411D01*
X133071678Y-94876300D01*
X133288322Y-94876300D01*
X133502284Y-94842411D01*
X133708320Y-94775465D01*
X133901331Y-94677120D01*
X133901344Y-94677112D01*
X133960545Y-94634100D01*
X133960546Y-94634099D01*
X133347049Y-94020603D01*
X133390787Y-94008884D01*
X133515313Y-93936989D01*
X133616989Y-93835313D01*
X133688884Y-93710787D01*
X133700603Y-93667049D01*
X134314099Y-94280546D01*
X134314099Y-94280545D01*
X134349373Y-94231997D01*
X134404703Y-94189332D01*
X134474317Y-94183353D01*
X134536112Y-94215959D01*
X134550008Y-94231995D01*
X134669836Y-94396925D01*
X134823075Y-94550164D01*
X134998400Y-94677545D01*
X135137061Y-94748196D01*
X135191494Y-94775931D01*
X135397595Y-94842897D01*
X135397596Y-94842897D01*
X135397599Y-94842898D01*
X135611644Y-94876800D01*
X135611645Y-94876800D01*
X135828355Y-94876800D01*
X135828356Y-94876800D01*
X136042401Y-94842898D01*
X136042404Y-94842897D01*
X136042405Y-94842897D01*
X136248505Y-94775931D01*
X136248505Y-94775930D01*
X136248508Y-94775930D01*
X136441600Y-94677545D01*
X136616925Y-94550164D01*
X136770164Y-94396925D01*
X136864925Y-94266498D01*
X136889682Y-94232423D01*
X136945012Y-94189757D01*
X137014625Y-94183778D01*
X137076420Y-94216384D01*
X137090318Y-94232423D01*
X137196938Y-94379172D01*
X137209836Y-94396925D01*
X137363075Y-94550164D01*
X137538400Y-94677545D01*
X137677061Y-94748196D01*
X137731494Y-94775931D01*
X137937595Y-94842897D01*
X137937596Y-94842897D01*
X137937599Y-94842898D01*
X138151644Y-94876800D01*
X138151645Y-94876800D01*
X138368355Y-94876800D01*
X138368356Y-94876800D01*
X138582401Y-94842898D01*
X138639396Y-94824378D01*
X138709236Y-94822384D01*
X138765394Y-94854629D01*
X143879480Y-99968715D01*
X143912965Y-100030038D01*
X143915799Y-100056396D01*
X143915799Y-100220146D01*
X143915800Y-100220159D01*
X143915800Y-105520955D01*
X143896115Y-105587994D01*
X143843311Y-105633749D01*
X143774153Y-105643693D01*
X143710597Y-105614668D01*
X143688698Y-105589846D01*
X143621789Y-105489711D01*
X143621786Y-105489707D01*
X143510292Y-105378213D01*
X143510288Y-105378210D01*
X143379185Y-105290609D01*
X143379172Y-105290602D01*
X143233501Y-105230264D01*
X143233489Y-105230261D01*
X143078845Y-105199500D01*
X143078842Y-105199500D01*
X142921158Y-105199500D01*
X142921155Y-105199500D01*
X142766510Y-105230261D01*
X142766498Y-105230264D01*
X142620827Y-105290602D01*
X142620814Y-105290609D01*
X142489711Y-105378210D01*
X142489707Y-105378213D01*
X142378213Y-105489707D01*
X142378210Y-105489711D01*
X142290609Y-105620814D01*
X142290602Y-105620827D01*
X142230264Y-105766498D01*
X142230261Y-105766508D01*
X142199361Y-105921850D01*
X142166976Y-105983761D01*
X142165425Y-105985339D01*
X141551251Y-106599512D01*
X141551249Y-106599515D01*
X141550680Y-106600501D01*
X141518828Y-106655671D01*
X141472193Y-106736445D01*
X141431269Y-106889173D01*
X141431269Y-106889175D01*
X141431269Y-107057276D01*
X141431270Y-107057289D01*
X141431270Y-107326787D01*
X141411585Y-107393826D01*
X141358781Y-107439581D01*
X141289623Y-107449525D01*
X141268952Y-107444718D01*
X141122404Y-107397102D01*
X140961867Y-107371675D01*
X140908356Y-107363200D01*
X140691644Y-107363200D01*
X140620295Y-107374500D01*
X140477597Y-107397102D01*
X140477594Y-107397102D01*
X140271494Y-107464068D01*
X140078399Y-107562455D01*
X139903072Y-107689838D01*
X139749838Y-107843072D01*
X139749838Y-107843073D01*
X139749836Y-107843075D01*
X139678198Y-107941675D01*
X139630318Y-108007577D01*
X139574988Y-108050242D01*
X139505374Y-108056221D01*
X139443579Y-108023615D01*
X139429682Y-108007577D01*
X139406837Y-107976134D01*
X139310164Y-107843075D01*
X139156925Y-107689836D01*
X138981600Y-107562455D01*
X138847436Y-107494095D01*
X138788505Y-107464068D01*
X138582404Y-107397102D01*
X138421867Y-107371675D01*
X138368356Y-107363200D01*
X138151644Y-107363200D01*
X138080295Y-107374500D01*
X137937597Y-107397102D01*
X137937594Y-107397102D01*
X137731494Y-107464068D01*
X137538399Y-107562455D01*
X137363072Y-107689838D01*
X137209838Y-107843072D01*
X137209838Y-107843073D01*
X137209836Y-107843075D01*
X137138198Y-107941675D01*
X137090318Y-108007577D01*
X137034988Y-108050242D01*
X136965374Y-108056221D01*
X136903579Y-108023615D01*
X136889682Y-108007577D01*
X136866837Y-107976134D01*
X136770164Y-107843075D01*
X136616925Y-107689836D01*
X136441600Y-107562455D01*
X136307436Y-107494095D01*
X136248505Y-107464068D01*
X136042404Y-107397102D01*
X135881867Y-107371675D01*
X135828356Y-107363200D01*
X135611644Y-107363200D01*
X135540295Y-107374500D01*
X135397597Y-107397102D01*
X135397594Y-107397102D01*
X135191494Y-107464068D01*
X134998399Y-107562455D01*
X134823072Y-107689838D01*
X134669838Y-107843072D01*
X134669838Y-107843073D01*
X134669836Y-107843075D01*
X134598198Y-107941675D01*
X134550318Y-108007577D01*
X134494988Y-108050242D01*
X134425374Y-108056221D01*
X134363579Y-108023615D01*
X134349682Y-108007577D01*
X134326837Y-107976134D01*
X134230164Y-107843075D01*
X134076925Y-107689836D01*
X133901600Y-107562455D01*
X133767436Y-107494095D01*
X133708505Y-107464068D01*
X133502404Y-107397102D01*
X133341867Y-107371675D01*
X133288356Y-107363200D01*
X133071644Y-107363200D01*
X133000295Y-107374500D01*
X132857597Y-107397102D01*
X132857594Y-107397102D01*
X132651494Y-107464068D01*
X132458399Y-107562455D01*
X132283072Y-107689838D01*
X132129838Y-107843072D01*
X132129838Y-107843073D01*
X132129836Y-107843075D01*
X132058198Y-107941675D01*
X132010318Y-108007577D01*
X131954988Y-108050242D01*
X131885374Y-108056221D01*
X131823579Y-108023615D01*
X131809682Y-108007577D01*
X131786837Y-107976134D01*
X131690164Y-107843075D01*
X131536925Y-107689836D01*
X131361600Y-107562455D01*
X131227436Y-107494095D01*
X131168505Y-107464068D01*
X130962404Y-107397102D01*
X130801867Y-107371675D01*
X130748356Y-107363200D01*
X130531644Y-107363200D01*
X130460295Y-107374500D01*
X130317597Y-107397102D01*
X130317594Y-107397102D01*
X130111494Y-107464068D01*
X129918399Y-107562455D01*
X129743072Y-107689838D01*
X129589838Y-107843072D01*
X129462455Y-108018399D01*
X129364068Y-108211494D01*
X129297102Y-108417594D01*
X129297102Y-108417597D01*
X129263200Y-108631644D01*
X129263200Y-108848355D01*
X129297102Y-109062402D01*
X129297102Y-109062405D01*
X129364068Y-109268505D01*
X129443184Y-109423778D01*
X129462455Y-109461600D01*
X129589836Y-109636925D01*
X129743075Y-109790164D01*
X129918400Y-109917545D01*
X130057096Y-109988214D01*
X130111494Y-110015931D01*
X130317595Y-110082897D01*
X130317596Y-110082897D01*
X130317599Y-110082898D01*
X130531644Y-110116800D01*
X130531645Y-110116800D01*
X130748355Y-110116800D01*
X130748356Y-110116800D01*
X130962401Y-110082898D01*
X130962404Y-110082897D01*
X130962405Y-110082897D01*
X131168505Y-110015931D01*
X131168505Y-110015930D01*
X131168508Y-110015930D01*
X131361600Y-109917545D01*
X131536925Y-109790164D01*
X131690164Y-109636925D01*
X131809682Y-109472423D01*
X131865012Y-109429757D01*
X131934625Y-109423778D01*
X131996420Y-109456384D01*
X132010318Y-109472423D01*
X132129836Y-109636925D01*
X132283075Y-109790164D01*
X132458400Y-109917545D01*
X132597096Y-109988214D01*
X132651494Y-110015931D01*
X132857595Y-110082897D01*
X132857596Y-110082897D01*
X132857599Y-110082898D01*
X133071644Y-110116800D01*
X133071645Y-110116800D01*
X133288355Y-110116800D01*
X133288356Y-110116800D01*
X133502401Y-110082898D01*
X133502404Y-110082897D01*
X133502405Y-110082897D01*
X133708505Y-110015931D01*
X133708505Y-110015930D01*
X133708508Y-110015930D01*
X133901600Y-109917545D01*
X134076925Y-109790164D01*
X134230164Y-109636925D01*
X134349682Y-109472423D01*
X134405012Y-109429757D01*
X134474625Y-109423778D01*
X134536420Y-109456384D01*
X134550318Y-109472423D01*
X134669836Y-109636925D01*
X134823075Y-109790164D01*
X134998400Y-109917545D01*
X135137096Y-109988214D01*
X135191494Y-110015931D01*
X135397595Y-110082897D01*
X135397596Y-110082897D01*
X135397599Y-110082898D01*
X135611644Y-110116800D01*
X135611645Y-110116800D01*
X135828355Y-110116800D01*
X135828356Y-110116800D01*
X136042401Y-110082898D01*
X136042404Y-110082897D01*
X136042405Y-110082897D01*
X136248505Y-110015931D01*
X136248505Y-110015930D01*
X136248508Y-110015930D01*
X136441600Y-109917545D01*
X136616925Y-109790164D01*
X136770164Y-109636925D01*
X136889682Y-109472423D01*
X136945012Y-109429757D01*
X137014625Y-109423778D01*
X137076420Y-109456384D01*
X137090318Y-109472423D01*
X137209836Y-109636925D01*
X137363075Y-109790164D01*
X137538400Y-109917545D01*
X137677096Y-109988214D01*
X137731494Y-110015931D01*
X137937595Y-110082897D01*
X137937596Y-110082897D01*
X137937599Y-110082898D01*
X138151644Y-110116800D01*
X138151645Y-110116800D01*
X138368355Y-110116800D01*
X138368356Y-110116800D01*
X138582401Y-110082898D01*
X138582404Y-110082897D01*
X138582405Y-110082897D01*
X138788505Y-110015931D01*
X138788505Y-110015930D01*
X138788508Y-110015930D01*
X138981600Y-109917545D01*
X139156925Y-109790164D01*
X139310164Y-109636925D01*
X139429682Y-109472423D01*
X139485012Y-109429757D01*
X139554625Y-109423778D01*
X139616420Y-109456384D01*
X139630318Y-109472423D01*
X139749836Y-109636925D01*
X139903075Y-109790164D01*
X140078400Y-109917545D01*
X140217096Y-109988214D01*
X140271494Y-110015931D01*
X140477595Y-110082897D01*
X140477596Y-110082897D01*
X140477599Y-110082898D01*
X140691644Y-110116800D01*
X140691645Y-110116800D01*
X140908354Y-110116800D01*
X140908356Y-110116800D01*
X140981876Y-110105155D01*
X141051169Y-110114109D01*
X141104621Y-110159105D01*
X141125261Y-110225857D01*
X141106536Y-110293170D01*
X141088955Y-110315309D01*
X139575082Y-111829181D01*
X139513759Y-111862666D01*
X139487401Y-111865500D01*
X139113330Y-111865500D01*
X139113312Y-111865501D01*
X139012247Y-111875825D01*
X138848484Y-111930092D01*
X138848481Y-111930093D01*
X138701648Y-112020661D01*
X138587681Y-112134629D01*
X138526358Y-112168114D01*
X138456666Y-112163130D01*
X138412319Y-112134629D01*
X138298351Y-112020661D01*
X138298350Y-112020660D01*
X138173580Y-111943701D01*
X138151518Y-111930093D01*
X138151513Y-111930091D01*
X138150069Y-111929612D01*
X137987753Y-111875826D01*
X137987751Y-111875825D01*
X137886678Y-111865500D01*
X137288330Y-111865500D01*
X137288312Y-111865501D01*
X137187247Y-111875825D01*
X137023484Y-111930092D01*
X137023481Y-111930093D01*
X136876648Y-112020661D01*
X136754659Y-112142650D01*
X136730638Y-112181596D01*
X136678690Y-112228321D01*
X136625099Y-112240500D01*
X135024499Y-112240500D01*
X134957460Y-112220815D01*
X134911705Y-112168011D01*
X134900499Y-112116500D01*
X134900499Y-111734129D01*
X134900498Y-111734123D01*
X134900497Y-111734116D01*
X134894091Y-111674517D01*
X134891278Y-111666976D01*
X134843797Y-111539671D01*
X134843793Y-111539664D01*
X134757547Y-111424455D01*
X134757544Y-111424452D01*
X134642335Y-111338206D01*
X134642328Y-111338202D01*
X134507482Y-111287908D01*
X134507483Y-111287908D01*
X134447883Y-111281501D01*
X134447881Y-111281500D01*
X134447873Y-111281500D01*
X134447864Y-111281500D01*
X132552129Y-111281500D01*
X132552123Y-111281501D01*
X132492516Y-111287908D01*
X132357671Y-111338202D01*
X132357664Y-111338206D01*
X132242455Y-111424452D01*
X132242452Y-111424455D01*
X132156206Y-111539664D01*
X132156202Y-111539671D01*
X132105908Y-111674517D01*
X132099568Y-111733497D01*
X132099501Y-111734123D01*
X132099500Y-111734135D01*
X132099500Y-113629870D01*
X132099501Y-113629876D01*
X132105908Y-113689483D01*
X132156202Y-113824328D01*
X132156206Y-113824335D01*
X132242452Y-113939544D01*
X132242453Y-113939544D01*
X132242454Y-113939546D01*
X132261841Y-113954059D01*
X132264292Y-113955894D01*
X132306163Y-114011828D01*
X132311146Y-114081520D01*
X132300465Y-114111455D01*
X132202567Y-114303589D01*
X132134473Y-114513164D01*
X132100000Y-114730818D01*
X132100000Y-114951181D01*
X132134473Y-115168835D01*
X132202567Y-115378410D01*
X132302611Y-115574756D01*
X132348932Y-115638513D01*
X133057861Y-114929584D01*
X133080667Y-115014694D01*
X133139910Y-115117306D01*
X133223694Y-115201090D01*
X133326306Y-115260333D01*
X133411414Y-115283137D01*
X133027962Y-115666589D01*
X132978603Y-115696838D01*
X132962395Y-115702104D01*
X132765974Y-115802187D01*
X132587641Y-115931752D01*
X132587636Y-115931756D01*
X132431756Y-116087636D01*
X132431752Y-116087641D01*
X132302187Y-116265974D01*
X132202104Y-116462393D01*
X132202103Y-116462396D01*
X132133985Y-116672047D01*
X132099500Y-116889778D01*
X132099500Y-117110221D01*
X132133985Y-117327952D01*
X132202103Y-117537603D01*
X132202104Y-117537606D01*
X132270122Y-117671096D01*
X132289800Y-117709716D01*
X132302187Y-117734025D01*
X132431752Y-117912358D01*
X132431756Y-117912363D01*
X132511212Y-117991819D01*
X132544697Y-118053142D01*
X132539713Y-118122834D01*
X132511212Y-118167181D01*
X132431756Y-118246636D01*
X132431752Y-118246641D01*
X132302187Y-118424974D01*
X132202104Y-118621393D01*
X132202103Y-118621396D01*
X132133985Y-118831047D01*
X132099500Y-119048778D01*
X132099500Y-119269221D01*
X132133985Y-119486952D01*
X132202103Y-119696603D01*
X132202104Y-119696606D01*
X132270122Y-119830096D01*
X132291291Y-119871642D01*
X132302187Y-119893025D01*
X132431752Y-120071358D01*
X132431756Y-120071363D01*
X132587636Y-120227243D01*
X132587641Y-120227247D01*
X132696275Y-120306173D01*
X132765978Y-120356815D01*
X132894375Y-120422237D01*
X132962393Y-120456895D01*
X132962396Y-120456896D01*
X133067221Y-120490955D01*
X133172049Y-120525015D01*
X133389778Y-120559500D01*
X133389779Y-120559500D01*
X133610221Y-120559500D01*
X133610222Y-120559500D01*
X133827951Y-120525015D01*
X134037606Y-120456895D01*
X134234022Y-120356815D01*
X134412365Y-120227242D01*
X134568242Y-120071365D01*
X134625456Y-119992615D01*
X134680786Y-119949949D01*
X134725775Y-119941500D01*
X136625099Y-119941500D01*
X136692138Y-119961185D01*
X136730638Y-120000404D01*
X136754660Y-120039350D01*
X136876650Y-120161340D01*
X137023484Y-120251908D01*
X137187247Y-120306174D01*
X137288323Y-120316500D01*
X137886676Y-120316499D01*
X137886684Y-120316498D01*
X137886687Y-120316498D01*
X137942030Y-120310844D01*
X137987753Y-120306174D01*
X138151516Y-120251908D01*
X138298350Y-120161340D01*
X138412319Y-120047371D01*
X138473642Y-120013886D01*
X138543334Y-120018870D01*
X138587681Y-120047371D01*
X138701650Y-120161340D01*
X138848484Y-120251908D01*
X139012247Y-120306174D01*
X139113323Y-120316500D01*
X139711676Y-120316499D01*
X139711684Y-120316498D01*
X139711687Y-120316498D01*
X139767030Y-120310844D01*
X139812753Y-120306174D01*
X139976516Y-120251908D01*
X140123350Y-120161340D01*
X140245340Y-120039350D01*
X140269362Y-120000404D01*
X140321310Y-119953679D01*
X140374901Y-119941500D01*
X141072331Y-119941500D01*
X141072347Y-119941501D01*
X141079943Y-119941501D01*
X141238054Y-119941501D01*
X141238057Y-119941501D01*
X141390785Y-119900577D01*
X141440904Y-119871639D01*
X141527716Y-119821520D01*
X141639520Y-119709716D01*
X141639520Y-119709714D01*
X141649728Y-119699507D01*
X141649729Y-119699504D01*
X144514664Y-116834571D01*
X144575985Y-116801088D01*
X144578152Y-116800637D01*
X144578841Y-116800500D01*
X144578842Y-116800500D01*
X144733497Y-116769737D01*
X144879179Y-116709394D01*
X145010289Y-116621789D01*
X145121789Y-116510289D01*
X145209394Y-116379179D01*
X145269737Y-116233497D01*
X145300500Y-116078842D01*
X145300500Y-115921158D01*
X145300500Y-115921155D01*
X145300499Y-115921153D01*
X145269738Y-115766507D01*
X145269735Y-115766498D01*
X145209397Y-115620827D01*
X145209390Y-115620814D01*
X145121789Y-115489711D01*
X145121786Y-115489707D01*
X145010292Y-115378213D01*
X145010288Y-115378210D01*
X144879185Y-115290609D01*
X144879172Y-115290602D01*
X144733501Y-115230264D01*
X144733489Y-115230261D01*
X144578845Y-115199500D01*
X144578842Y-115199500D01*
X144421158Y-115199500D01*
X144421155Y-115199500D01*
X144266510Y-115230261D01*
X144260676Y-115232031D01*
X144260340Y-115230926D01*
X144197026Y-115237726D01*
X144134550Y-115206445D01*
X144098904Y-115146352D01*
X144099282Y-115083602D01*
X144100501Y-115079057D01*
X144100501Y-114920943D01*
X144100501Y-114913348D01*
X144100500Y-114913330D01*
X144100500Y-113156996D01*
X144120185Y-113089957D01*
X144172989Y-113044202D01*
X144242147Y-113034258D01*
X144305703Y-113063283D01*
X144312181Y-113069315D01*
X146488182Y-115245316D01*
X146521667Y-115306639D01*
X146524501Y-115332997D01*
X146524501Y-115757069D01*
X146524502Y-115757087D01*
X146534826Y-115858152D01*
X146555232Y-115919732D01*
X146589093Y-116021916D01*
X146679661Y-116168750D01*
X146801651Y-116290740D01*
X146948485Y-116381308D01*
X147112248Y-116435574D01*
X147213324Y-116445900D01*
X147786677Y-116445899D01*
X147786685Y-116445898D01*
X147786688Y-116445898D01*
X147842031Y-116440244D01*
X147887754Y-116435574D01*
X148051517Y-116381308D01*
X148198351Y-116290740D01*
X148320341Y-116168750D01*
X148349307Y-116121789D01*
X148382915Y-116067303D01*
X148434863Y-116020578D01*
X148488453Y-116008400D01*
X148824960Y-116008400D01*
X148891999Y-116028085D01*
X148912636Y-116044714D01*
X148955557Y-116087635D01*
X148989712Y-116121790D01*
X149120814Y-116209390D01*
X149120827Y-116209397D01*
X149185370Y-116236131D01*
X149266503Y-116269737D01*
X149331147Y-116282595D01*
X149421849Y-116300638D01*
X149483760Y-116333023D01*
X149485339Y-116334574D01*
X149535139Y-116384374D01*
X149535149Y-116384385D01*
X149539479Y-116388715D01*
X149539480Y-116388716D01*
X149651284Y-116500520D01*
X149736587Y-116549769D01*
X149788211Y-116579575D01*
X149788215Y-116579577D01*
X149940943Y-116620500D01*
X152570433Y-116620500D01*
X152570449Y-116620501D01*
X152578045Y-116620501D01*
X152736156Y-116620501D01*
X152736159Y-116620501D01*
X152888887Y-116579577D01*
X152901926Y-116572048D01*
X152940480Y-116549790D01*
X152940491Y-116549782D01*
X152940515Y-116549769D01*
X153007822Y-116510909D01*
X153069819Y-116494299D01*
X153225265Y-116494299D01*
X153225274Y-116494299D01*
X153239098Y-116492813D01*
X153265607Y-116492813D01*
X153274781Y-116493800D01*
X153322600Y-116493800D01*
X153335384Y-116481016D01*
X153379730Y-116452516D01*
X153419733Y-116437596D01*
X153479091Y-116393159D01*
X153544553Y-116368743D01*
X153612826Y-116383594D01*
X153619331Y-116387407D01*
X153788803Y-116493800D01*
X153822600Y-116493800D01*
X153822600Y-116144735D01*
X153842285Y-116077696D01*
X153895089Y-116031941D01*
X153964247Y-116021997D01*
X154020910Y-116045468D01*
X154077237Y-116087635D01*
X154127711Y-116125420D01*
X154169582Y-116181354D01*
X154177400Y-116224686D01*
X154177400Y-116493800D01*
X154225228Y-116493800D01*
X154225244Y-116493799D01*
X154284772Y-116487398D01*
X154284779Y-116487396D01*
X154419486Y-116437154D01*
X154419493Y-116437150D01*
X154534587Y-116350990D01*
X154534590Y-116350987D01*
X154626069Y-116228789D01*
X154628801Y-116230834D01*
X154666546Y-116193077D01*
X154725988Y-116177900D01*
X155045673Y-116177900D01*
X155105284Y-116171492D01*
X155240132Y-116121197D01*
X155240137Y-116121192D01*
X155247910Y-116116949D01*
X155249439Y-116119749D01*
X155300207Y-116100817D01*
X155309049Y-116100501D01*
X155413330Y-116100501D01*
X155413346Y-116100502D01*
X155420942Y-116100502D01*
X155579053Y-116100502D01*
X155579056Y-116100502D01*
X155731784Y-116059578D01*
X155797016Y-116021916D01*
X155868715Y-115980521D01*
X155980519Y-115868717D01*
X155980519Y-115868715D01*
X155990723Y-115858512D01*
X155990727Y-115858507D01*
X156092180Y-115757054D01*
X158525002Y-115757054D01*
X158535320Y-115858052D01*
X158589547Y-116021700D01*
X158589552Y-116021711D01*
X158680053Y-116168434D01*
X158680056Y-116168438D01*
X158801962Y-116290344D01*
X158801966Y-116290347D01*
X158948689Y-116380848D01*
X158948700Y-116380853D01*
X159112348Y-116435080D01*
X159213353Y-116445399D01*
X159250001Y-116445399D01*
X159750001Y-116445399D01*
X159786641Y-116445399D01*
X159786655Y-116445398D01*
X159887653Y-116435080D01*
X160051301Y-116380853D01*
X160051312Y-116380848D01*
X160198035Y-116290347D01*
X160198039Y-116290344D01*
X160319945Y-116168438D01*
X160319948Y-116168434D01*
X160410449Y-116021711D01*
X160410454Y-116021700D01*
X160464681Y-115858052D01*
X160475000Y-115757054D01*
X160475001Y-115757041D01*
X160475001Y-115657900D01*
X159750001Y-115657900D01*
X159750001Y-116445399D01*
X159250001Y-116445399D01*
X159250001Y-115657900D01*
X158525002Y-115657900D01*
X158525002Y-115757054D01*
X156092180Y-115757054D01*
X156868713Y-114980521D01*
X156868716Y-114980520D01*
X156980520Y-114868716D01*
X157030639Y-114781904D01*
X157059577Y-114731785D01*
X157100501Y-114579057D01*
X157100501Y-114420943D01*
X157100501Y-114413348D01*
X157100500Y-114413330D01*
X157100500Y-114407400D01*
X157120185Y-114340361D01*
X157172989Y-114294606D01*
X157224500Y-114283400D01*
X158511549Y-114283400D01*
X158578588Y-114303085D01*
X158617087Y-114342303D01*
X158679658Y-114443746D01*
X158679661Y-114443750D01*
X158693983Y-114458072D01*
X158727468Y-114519395D01*
X158722484Y-114589087D01*
X158693986Y-114633432D01*
X158680053Y-114647365D01*
X158589552Y-114794088D01*
X158589547Y-114794099D01*
X158535320Y-114957747D01*
X158525001Y-115058745D01*
X158525001Y-115157900D01*
X160475000Y-115157900D01*
X160475000Y-115058760D01*
X160474999Y-115058745D01*
X160464681Y-114957747D01*
X160410454Y-114794099D01*
X160410449Y-114794088D01*
X160319948Y-114647365D01*
X160319945Y-114647361D01*
X160306018Y-114633434D01*
X160272533Y-114572111D01*
X160277517Y-114502419D01*
X160306018Y-114458072D01*
X160320341Y-114443750D01*
X160410909Y-114296916D01*
X160465175Y-114133153D01*
X160475501Y-114032077D01*
X160475500Y-113333724D01*
X160472147Y-113300904D01*
X160465175Y-113232647D01*
X160457468Y-113209390D01*
X160410909Y-113068884D01*
X160320341Y-112922050D01*
X160198351Y-112800060D01*
X160090422Y-112733489D01*
X160051519Y-112709493D01*
X160051514Y-112709491D01*
X160029617Y-112702235D01*
X159887754Y-112655226D01*
X159887752Y-112655225D01*
X159786685Y-112644900D01*
X159786678Y-112644900D01*
X159362598Y-112644900D01*
X159295559Y-112625215D01*
X159274917Y-112608581D01*
X158804691Y-112138355D01*
X158804689Y-112138352D01*
X158685818Y-112019481D01*
X158685817Y-112019480D01*
X158554558Y-111943698D01*
X158548886Y-111940423D01*
X158396158Y-111899499D01*
X158238044Y-111899499D01*
X158230448Y-111899499D01*
X158230432Y-111899500D01*
X158079766Y-111899500D01*
X158012727Y-111879815D01*
X158010875Y-111878602D01*
X157879185Y-111790609D01*
X157879172Y-111790602D01*
X157733501Y-111730264D01*
X157733489Y-111730261D01*
X157578845Y-111699500D01*
X157578842Y-111699500D01*
X157421158Y-111699500D01*
X157421155Y-111699500D01*
X157266510Y-111730261D01*
X157260676Y-111732031D01*
X157259873Y-111729385D01*
X157202056Y-111735396D01*
X157139687Y-111703902D01*
X157104245Y-111643689D01*
X157100500Y-111613444D01*
X157100500Y-110921153D01*
X164199500Y-110921153D01*
X164199500Y-111078846D01*
X164230261Y-111233489D01*
X164230264Y-111233501D01*
X164290602Y-111379172D01*
X164290609Y-111379185D01*
X164378210Y-111510288D01*
X164378213Y-111510292D01*
X164489707Y-111621786D01*
X164489711Y-111621789D01*
X164620814Y-111709390D01*
X164620827Y-111709397D01*
X164766498Y-111769735D01*
X164766503Y-111769737D01*
X164921153Y-111800499D01*
X164921156Y-111800500D01*
X164921158Y-111800500D01*
X165078844Y-111800500D01*
X165078845Y-111800499D01*
X165233497Y-111769737D01*
X165379179Y-111709394D01*
X165387398Y-111703902D01*
X165510875Y-111621398D01*
X165577553Y-111600520D01*
X165579766Y-111600500D01*
X171199903Y-111600500D01*
X171266942Y-111620185D01*
X171287584Y-111636819D01*
X172165425Y-112514660D01*
X172198910Y-112575983D01*
X172199361Y-112578149D01*
X172230261Y-112733491D01*
X172230264Y-112733501D01*
X172290602Y-112879172D01*
X172290609Y-112879185D01*
X172378210Y-113010288D01*
X172378213Y-113010292D01*
X172489707Y-113121786D01*
X172489711Y-113121789D01*
X172620814Y-113209390D01*
X172620827Y-113209397D01*
X172766498Y-113269735D01*
X172766503Y-113269737D01*
X172921153Y-113300499D01*
X172921156Y-113300500D01*
X172921158Y-113300500D01*
X173078844Y-113300500D01*
X173078845Y-113300499D01*
X173233497Y-113269737D01*
X173379179Y-113209394D01*
X173510289Y-113121789D01*
X173621789Y-113010289D01*
X173709394Y-112879179D01*
X173769737Y-112733497D01*
X173800500Y-112578842D01*
X173800500Y-112421158D01*
X173800500Y-112421155D01*
X173800499Y-112421153D01*
X173774531Y-112290606D01*
X173769737Y-112266503D01*
X173757178Y-112236183D01*
X173709397Y-112120827D01*
X173709390Y-112120814D01*
X173621789Y-111989711D01*
X173621786Y-111989707D01*
X173510292Y-111878213D01*
X173510288Y-111878210D01*
X173379185Y-111790609D01*
X173379172Y-111790602D01*
X173233501Y-111730264D01*
X173233491Y-111730261D01*
X173078149Y-111699361D01*
X173016238Y-111666976D01*
X173014660Y-111665425D01*
X171987590Y-110638355D01*
X171987588Y-110638352D01*
X171868717Y-110519481D01*
X171868716Y-110519480D01*
X171771093Y-110463118D01*
X171771092Y-110463117D01*
X171731783Y-110440422D01*
X171675881Y-110425443D01*
X171579057Y-110399499D01*
X171420943Y-110399499D01*
X171413347Y-110399499D01*
X171413331Y-110399500D01*
X165579766Y-110399500D01*
X165512727Y-110379815D01*
X165510875Y-110378602D01*
X165379185Y-110290609D01*
X165379172Y-110290602D01*
X165233501Y-110230264D01*
X165233489Y-110230261D01*
X165078845Y-110199500D01*
X165078842Y-110199500D01*
X164921158Y-110199500D01*
X164921155Y-110199500D01*
X164766510Y-110230261D01*
X164766498Y-110230264D01*
X164620827Y-110290602D01*
X164620814Y-110290609D01*
X164489711Y-110378210D01*
X164489707Y-110378213D01*
X164378213Y-110489707D01*
X164378210Y-110489711D01*
X164290609Y-110620814D01*
X164290602Y-110620827D01*
X164230264Y-110766498D01*
X164230261Y-110766510D01*
X164199500Y-110921153D01*
X157100500Y-110921153D01*
X157100500Y-110300097D01*
X157120185Y-110233058D01*
X157136819Y-110212416D01*
X157335168Y-110014067D01*
X157536368Y-109812866D01*
X157597689Y-109779383D01*
X157667380Y-109784367D01*
X157696925Y-109800226D01*
X157858400Y-109917545D01*
X157997096Y-109988214D01*
X158051494Y-110015931D01*
X158257595Y-110082897D01*
X158257596Y-110082897D01*
X158257599Y-110082898D01*
X158471644Y-110116800D01*
X158471645Y-110116800D01*
X158688355Y-110116800D01*
X158688356Y-110116800D01*
X158902401Y-110082898D01*
X158902404Y-110082897D01*
X158902405Y-110082897D01*
X159108505Y-110015931D01*
X159108505Y-110015930D01*
X159108508Y-110015930D01*
X159301600Y-109917545D01*
X159476925Y-109790164D01*
X159630164Y-109636925D01*
X159757545Y-109461600D01*
X159855930Y-109268508D01*
X159922898Y-109062401D01*
X159956800Y-108848356D01*
X159956800Y-108631644D01*
X159922898Y-108417599D01*
X159922897Y-108417595D01*
X159922897Y-108417594D01*
X159855931Y-108211494D01*
X159850000Y-108199853D01*
X159757545Y-108018400D01*
X159630164Y-107843075D01*
X159476925Y-107689836D01*
X159301600Y-107562455D01*
X159167436Y-107494095D01*
X159108505Y-107464068D01*
X158902404Y-107397102D01*
X158741867Y-107371675D01*
X158688356Y-107363200D01*
X158471644Y-107363200D01*
X158400295Y-107374500D01*
X158257597Y-107397102D01*
X158257594Y-107397102D01*
X158166518Y-107426695D01*
X158096677Y-107428690D01*
X158036844Y-107392609D01*
X158006016Y-107329908D01*
X158004200Y-107308764D01*
X158004200Y-106682587D01*
X158023885Y-106615548D01*
X158076689Y-106569793D01*
X158145847Y-106559849D01*
X158160269Y-106562807D01*
X158300943Y-106600500D01*
X163761860Y-106600500D01*
X163761876Y-106600501D01*
X163769472Y-106600501D01*
X163927583Y-106600501D01*
X163927586Y-106600501D01*
X164080314Y-106559577D01*
X164144704Y-106522401D01*
X164217245Y-106480520D01*
X164329049Y-106368716D01*
X164329049Y-106368714D01*
X164339253Y-106358511D01*
X164339257Y-106358506D01*
X165705161Y-104992602D01*
X165766484Y-104959117D01*
X165836176Y-104964101D01*
X165880523Y-104992602D01*
X165989707Y-105101786D01*
X165989711Y-105101789D01*
X166120814Y-105189390D01*
X166120827Y-105189397D01*
X166266498Y-105249735D01*
X166266503Y-105249737D01*
X166421153Y-105280499D01*
X166421156Y-105280500D01*
X166421158Y-105280500D01*
X166578844Y-105280500D01*
X166578845Y-105280499D01*
X166733497Y-105249737D01*
X166879179Y-105189394D01*
X166942304Y-105147215D01*
X167010873Y-105101399D01*
X167077550Y-105080521D01*
X167079764Y-105080501D01*
X167099054Y-105080501D01*
X167099057Y-105080501D01*
X167251785Y-105039577D01*
X167315314Y-105002898D01*
X167388716Y-104960520D01*
X167397819Y-104951417D01*
X167459142Y-104917932D01*
X167528834Y-104922916D01*
X167584767Y-104964788D01*
X167609184Y-105030252D01*
X167609500Y-105039098D01*
X167609500Y-105186287D01*
X167642754Y-105396243D01*
X167673122Y-105489707D01*
X167708444Y-105598414D01*
X167804951Y-105787820D01*
X167929890Y-105959786D01*
X168080213Y-106110109D01*
X168252179Y-106235048D01*
X168252181Y-106235049D01*
X168252184Y-106235051D01*
X168441588Y-106331557D01*
X168643757Y-106397246D01*
X168853713Y-106430500D01*
X168853714Y-106430500D01*
X169066286Y-106430500D01*
X169066287Y-106430500D01*
X169276243Y-106397246D01*
X169478412Y-106331557D01*
X169667816Y-106235051D01*
X169755600Y-106171273D01*
X169839786Y-106110109D01*
X169839788Y-106110106D01*
X169839792Y-106110104D01*
X169990104Y-105959792D01*
X169990106Y-105959788D01*
X169990109Y-105959786D01*
X170115048Y-105787820D01*
X170115047Y-105787820D01*
X170115051Y-105787816D01*
X170119514Y-105779054D01*
X170167488Y-105728259D01*
X170235308Y-105711463D01*
X170301444Y-105733999D01*
X170340486Y-105779056D01*
X170344951Y-105787820D01*
X170469890Y-105959786D01*
X170620213Y-106110109D01*
X170792179Y-106235048D01*
X170792181Y-106235049D01*
X170792184Y-106235051D01*
X170981588Y-106331557D01*
X171183757Y-106397246D01*
X171393713Y-106430500D01*
X171393714Y-106430500D01*
X171606286Y-106430500D01*
X171606287Y-106430500D01*
X171816243Y-106397246D01*
X172018412Y-106331557D01*
X172207816Y-106235051D01*
X172295600Y-106171273D01*
X172379786Y-106110109D01*
X172379788Y-106110106D01*
X172379792Y-106110104D01*
X172530104Y-105959792D01*
X172530106Y-105959788D01*
X172530109Y-105959786D01*
X172655048Y-105787820D01*
X172655047Y-105787820D01*
X172655051Y-105787816D01*
X172751557Y-105598412D01*
X172817246Y-105396243D01*
X172850500Y-105186287D01*
X172850500Y-104973713D01*
X172817246Y-104763757D01*
X172751557Y-104561588D01*
X172655051Y-104372184D01*
X172655049Y-104372181D01*
X172655048Y-104372179D01*
X172530109Y-104200213D01*
X172379786Y-104049890D01*
X172207820Y-103924951D01*
X172207115Y-103924591D01*
X172199054Y-103920485D01*
X172148259Y-103872512D01*
X172131463Y-103804692D01*
X172153999Y-103738556D01*
X172199054Y-103699515D01*
X172207816Y-103695051D01*
X172229789Y-103679086D01*
X172379786Y-103570109D01*
X172379788Y-103570106D01*
X172379792Y-103570104D01*
X172530104Y-103419792D01*
X172530106Y-103419788D01*
X172530109Y-103419786D01*
X172604413Y-103317514D01*
X172655051Y-103247816D01*
X172662347Y-103233497D01*
X172675235Y-103208205D01*
X172723209Y-103157409D01*
X172785719Y-103140500D01*
X173373331Y-103140500D01*
X173373347Y-103140501D01*
X173380943Y-103140501D01*
X173539054Y-103140501D01*
X173539057Y-103140501D01*
X173691785Y-103099577D01*
X173761200Y-103059500D01*
X173828716Y-103020520D01*
X173940520Y-102908716D01*
X173940520Y-102908714D01*
X173950726Y-102898509D01*
X173950730Y-102898504D01*
X174014662Y-102834572D01*
X174075984Y-102801088D01*
X174078151Y-102800637D01*
X174078840Y-102800500D01*
X174078842Y-102800500D01*
X174233497Y-102769737D01*
X174379179Y-102709394D01*
X174510289Y-102621789D01*
X174621789Y-102510289D01*
X174709394Y-102379179D01*
X174769737Y-102233497D01*
X174800500Y-102078842D01*
X174800500Y-101921158D01*
X174800500Y-101921155D01*
X174800499Y-101921153D01*
X174784747Y-101841965D01*
X174769737Y-101766503D01*
X174767686Y-101761552D01*
X174709397Y-101620827D01*
X174709390Y-101620814D01*
X174621789Y-101489711D01*
X174621786Y-101489707D01*
X174510292Y-101378213D01*
X174510288Y-101378210D01*
X174379185Y-101290609D01*
X174379172Y-101290602D01*
X174233501Y-101230264D01*
X174233489Y-101230261D01*
X174078845Y-101199500D01*
X174078842Y-101199500D01*
X173921158Y-101199500D01*
X173921155Y-101199500D01*
X173766510Y-101230261D01*
X173766498Y-101230264D01*
X173620827Y-101290602D01*
X173620814Y-101290609D01*
X173489711Y-101378210D01*
X173489707Y-101378213D01*
X173378213Y-101489707D01*
X173378210Y-101489711D01*
X173290609Y-101620814D01*
X173290602Y-101620827D01*
X173230264Y-101766498D01*
X173230261Y-101766508D01*
X173215704Y-101839692D01*
X173183319Y-101901603D01*
X173122603Y-101936177D01*
X173094087Y-101939500D01*
X172785719Y-101939500D01*
X172718680Y-101919815D01*
X172675235Y-101871795D01*
X172655052Y-101832185D01*
X172655051Y-101832184D01*
X172530109Y-101660213D01*
X172379786Y-101509890D01*
X172207820Y-101384951D01*
X172207115Y-101384591D01*
X172199054Y-101380485D01*
X172148259Y-101332512D01*
X172131463Y-101264692D01*
X172153999Y-101198556D01*
X172199054Y-101159515D01*
X172207816Y-101155051D01*
X172289501Y-101095704D01*
X172379786Y-101030109D01*
X172379788Y-101030106D01*
X172379792Y-101030104D01*
X172530104Y-100879792D01*
X172530106Y-100879788D01*
X172530109Y-100879786D01*
X172655048Y-100707820D01*
X172655047Y-100707820D01*
X172655051Y-100707816D01*
X172751557Y-100518412D01*
X172817246Y-100316243D01*
X172850500Y-100106287D01*
X172850500Y-99893713D01*
X172817246Y-99683757D01*
X172803506Y-99641473D01*
X172801512Y-99571635D01*
X172833753Y-99515480D01*
X173130520Y-99218716D01*
X173209577Y-99081784D01*
X173250501Y-98929057D01*
X173250501Y-98770942D01*
X173250501Y-98763347D01*
X173250500Y-98763329D01*
X173250500Y-96904599D01*
X173250500Y-96904597D01*
X173226404Y-96814669D01*
X173209577Y-96751869D01*
X173162598Y-96670500D01*
X173130520Y-96614938D01*
X173018716Y-96503134D01*
X173018715Y-96503133D01*
X173014385Y-96498803D01*
X173014374Y-96498793D01*
X168153936Y-91638355D01*
X168153934Y-91638352D01*
X168035063Y-91519481D01*
X168035062Y-91519480D01*
X167933672Y-91460943D01*
X167933671Y-91460942D01*
X167898129Y-91440422D01*
X167842227Y-91425443D01*
X167745403Y-91399499D01*
X167587289Y-91399499D01*
X167579693Y-91399499D01*
X167579677Y-91399500D01*
X165386555Y-91399500D01*
X165319516Y-91379815D01*
X165273761Y-91327011D01*
X165263817Y-91257853D01*
X165268840Y-91239588D01*
X165267969Y-91239324D01*
X165269731Y-91233509D01*
X165269737Y-91233497D01*
X165300500Y-91078842D01*
X165300500Y-90921158D01*
X165300500Y-90921155D01*
X165300499Y-90921153D01*
X165292276Y-90879815D01*
X165269737Y-90766503D01*
X165269735Y-90766498D01*
X165209397Y-90620827D01*
X165209390Y-90620814D01*
X165121398Y-90489125D01*
X165100520Y-90422447D01*
X165100500Y-90420234D01*
X165100500Y-87929059D01*
X165100501Y-87929046D01*
X165100501Y-87760945D01*
X165100501Y-87760943D01*
X165059577Y-87608215D01*
X165008346Y-87519481D01*
X164980520Y-87471284D01*
X164868716Y-87359480D01*
X164868715Y-87359479D01*
X164864385Y-87355149D01*
X164864374Y-87355139D01*
X161546818Y-84037583D01*
X161513333Y-83976260D01*
X161510499Y-83949902D01*
X161510499Y-82602129D01*
X161510498Y-82602123D01*
X161510497Y-82602116D01*
X161504091Y-82542517D01*
X161453796Y-82407669D01*
X161453795Y-82407668D01*
X161453793Y-82407664D01*
X161367547Y-82292455D01*
X161367544Y-82292452D01*
X161252335Y-82206206D01*
X161252328Y-82206202D01*
X161117482Y-82155908D01*
X161117483Y-82155908D01*
X161057883Y-82149501D01*
X161057881Y-82149500D01*
X161057873Y-82149500D01*
X161057864Y-82149500D01*
X159262129Y-82149500D01*
X159262123Y-82149501D01*
X159202516Y-82155908D01*
X159067671Y-82206202D01*
X159067664Y-82206206D01*
X158952455Y-82292452D01*
X158952452Y-82292455D01*
X158866206Y-82407664D01*
X158866202Y-82407671D01*
X158815908Y-82542517D01*
X158809501Y-82602116D01*
X158809501Y-82602123D01*
X158809500Y-82602135D01*
X158809500Y-82612690D01*
X158789815Y-82679729D01*
X158773181Y-82700371D01*
X158102962Y-83370590D01*
X158085925Y-83307007D01*
X158020099Y-83192993D01*
X157927007Y-83099901D01*
X157812993Y-83034075D01*
X157749409Y-83017037D01*
X158381716Y-82384728D01*
X158327550Y-82345375D01*
X158138217Y-82248904D01*
X157936129Y-82183242D01*
X157726246Y-82150000D01*
X157513754Y-82150000D01*
X157303872Y-82183242D01*
X157303869Y-82183242D01*
X157101782Y-82248904D01*
X156912439Y-82345380D01*
X156858282Y-82384727D01*
X156858282Y-82384728D01*
X157490591Y-83017037D01*
X157427007Y-83034075D01*
X157312993Y-83099901D01*
X157219901Y-83192993D01*
X157154075Y-83307007D01*
X157137037Y-83370591D01*
X156504728Y-82738282D01*
X156504727Y-82738282D01*
X156465380Y-82792440D01*
X156465376Y-82792446D01*
X156460760Y-82801505D01*
X156412781Y-82852297D01*
X156344959Y-82869087D01*
X156278826Y-82846543D01*
X156239794Y-82801493D01*
X156235051Y-82792184D01*
X156235049Y-82792181D01*
X156235048Y-82792179D01*
X156110109Y-82620213D01*
X155959786Y-82469890D01*
X155787820Y-82344951D01*
X155598414Y-82248444D01*
X155598413Y-82248443D01*
X155598412Y-82248443D01*
X155396243Y-82182754D01*
X155396241Y-82182753D01*
X155396240Y-82182753D01*
X155234957Y-82157208D01*
X155186287Y-82149500D01*
X154973713Y-82149500D01*
X154925042Y-82157208D01*
X154763760Y-82182753D01*
X154561585Y-82248444D01*
X154372179Y-82344951D01*
X154200213Y-82469890D01*
X154049890Y-82620213D01*
X153924949Y-82792182D01*
X153920202Y-82801499D01*
X153872227Y-82852293D01*
X153804405Y-82869087D01*
X153738271Y-82846548D01*
X153699234Y-82801495D01*
X153694626Y-82792452D01*
X153655270Y-82738282D01*
X153655269Y-82738282D01*
X153022962Y-83370590D01*
X153005925Y-83307007D01*
X152940099Y-83192993D01*
X152847007Y-83099901D01*
X152732993Y-83034075D01*
X152669409Y-83017037D01*
X153301716Y-82384728D01*
X153247550Y-82345375D01*
X153058217Y-82248904D01*
X152856129Y-82183242D01*
X152646246Y-82150000D01*
X152433754Y-82150000D01*
X152223872Y-82183242D01*
X152223869Y-82183242D01*
X152021782Y-82248904D01*
X151832439Y-82345380D01*
X151778282Y-82384727D01*
X151778282Y-82384728D01*
X152410591Y-83017037D01*
X152347007Y-83034075D01*
X152232993Y-83099901D01*
X152139901Y-83192993D01*
X152074075Y-83307007D01*
X152057037Y-83370591D01*
X151424728Y-82738282D01*
X151424727Y-82738282D01*
X151385380Y-82792440D01*
X151385376Y-82792446D01*
X151380760Y-82801505D01*
X151332781Y-82852297D01*
X151264959Y-82869087D01*
X151198826Y-82846543D01*
X151159794Y-82801493D01*
X151155051Y-82792184D01*
X151155049Y-82792181D01*
X151155048Y-82792179D01*
X151030109Y-82620213D01*
X150879786Y-82469890D01*
X150707820Y-82344951D01*
X150518414Y-82248444D01*
X150518413Y-82248443D01*
X150518412Y-82248443D01*
X150316243Y-82182754D01*
X150316241Y-82182753D01*
X150316240Y-82182753D01*
X150154957Y-82157208D01*
X150106287Y-82149500D01*
X149893713Y-82149500D01*
X149845042Y-82157208D01*
X149683760Y-82182753D01*
X149481585Y-82248444D01*
X149292179Y-82344951D01*
X149120213Y-82469890D01*
X148969890Y-82620213D01*
X148844949Y-82792182D01*
X148840484Y-82800946D01*
X148792509Y-82851742D01*
X148724688Y-82868536D01*
X148658553Y-82845998D01*
X148619516Y-82800946D01*
X148615050Y-82792182D01*
X148490109Y-82620213D01*
X148339786Y-82469890D01*
X148167820Y-82344951D01*
X147978414Y-82248444D01*
X147978413Y-82248443D01*
X147978412Y-82248443D01*
X147776243Y-82182754D01*
X147776241Y-82182753D01*
X147776240Y-82182753D01*
X147614957Y-82157208D01*
X147566287Y-82149500D01*
X147353713Y-82149500D01*
X147305042Y-82157208D01*
X147143760Y-82182753D01*
X146941585Y-82248444D01*
X146752179Y-82344951D01*
X146580213Y-82469890D01*
X146429890Y-82620213D01*
X146304949Y-82792182D01*
X146300484Y-82800946D01*
X146252509Y-82851742D01*
X146184688Y-82868536D01*
X146118553Y-82845998D01*
X146079516Y-82800946D01*
X146075050Y-82792182D01*
X145950109Y-82620213D01*
X145799786Y-82469890D01*
X145627820Y-82344951D01*
X145438414Y-82248444D01*
X145438413Y-82248443D01*
X145438412Y-82248443D01*
X145236243Y-82182754D01*
X145236241Y-82182753D01*
X145236240Y-82182753D01*
X145074957Y-82157208D01*
X145026287Y-82149500D01*
X144813713Y-82149500D01*
X144765042Y-82157208D01*
X144603760Y-82182753D01*
X144401585Y-82248444D01*
X144212179Y-82344951D01*
X144040213Y-82469890D01*
X143889890Y-82620213D01*
X143764951Y-82792179D01*
X143668444Y-82981585D01*
X143602753Y-83183760D01*
X143569500Y-83393713D01*
X143569500Y-83606286D01*
X143602754Y-83816244D01*
X143602754Y-83816247D01*
X143616491Y-83858523D01*
X143618486Y-83928364D01*
X143586241Y-83984522D01*
X143401286Y-84169478D01*
X143289481Y-84281282D01*
X143289479Y-84281285D01*
X143239361Y-84368094D01*
X143239359Y-84368096D01*
X143210425Y-84418209D01*
X143210424Y-84418210D01*
X143210423Y-84418215D01*
X143169499Y-84570943D01*
X143169499Y-84570945D01*
X143169499Y-84739046D01*
X143169500Y-84739059D01*
X143169500Y-88763330D01*
X143169499Y-88763348D01*
X143169499Y-88929054D01*
X143169498Y-88929054D01*
X143174759Y-88948688D01*
X143210423Y-89081785D01*
X143228068Y-89112347D01*
X143233518Y-89121785D01*
X143233519Y-89121789D01*
X143233520Y-89121789D01*
X143286370Y-89213330D01*
X143289479Y-89218714D01*
X143289481Y-89218717D01*
X143408349Y-89337585D01*
X143408355Y-89337590D01*
X144381662Y-90310897D01*
X144415147Y-90372220D01*
X144410163Y-90441912D01*
X144381668Y-90486254D01*
X144378208Y-90489714D01*
X144290609Y-90620814D01*
X144290602Y-90620827D01*
X144230264Y-90766498D01*
X144230261Y-90766510D01*
X144199500Y-90921153D01*
X144199500Y-91078846D01*
X144230261Y-91233489D01*
X144230264Y-91233501D01*
X144290602Y-91379172D01*
X144290609Y-91379185D01*
X144378602Y-91510874D01*
X144399480Y-91577551D01*
X144399500Y-91579765D01*
X144399500Y-92324590D01*
X144379815Y-92391629D01*
X144327011Y-92437384D01*
X144257853Y-92447328D01*
X144202615Y-92424908D01*
X144061600Y-92322455D01*
X143940499Y-92260751D01*
X143868505Y-92224068D01*
X143662404Y-92157102D01*
X143501867Y-92131675D01*
X143448356Y-92123200D01*
X143231644Y-92123200D01*
X143160295Y-92134500D01*
X143017597Y-92157102D01*
X143017594Y-92157102D01*
X142811494Y-92224068D01*
X142618399Y-92322455D01*
X142443072Y-92449838D01*
X142289838Y-92603072D01*
X142289838Y-92603073D01*
X142289836Y-92603075D01*
X142219191Y-92700309D01*
X142170318Y-92767577D01*
X142114988Y-92810242D01*
X142045374Y-92816221D01*
X141983579Y-92783615D01*
X141969682Y-92767577D01*
X141942195Y-92729745D01*
X141850164Y-92603075D01*
X141696925Y-92449836D01*
X141521600Y-92322455D01*
X141400499Y-92260751D01*
X141328505Y-92224068D01*
X141122404Y-92157102D01*
X140961867Y-92131675D01*
X140908356Y-92123200D01*
X140691644Y-92123200D01*
X140620295Y-92134500D01*
X140477597Y-92157102D01*
X140477594Y-92157102D01*
X140271494Y-92224068D01*
X140078399Y-92322455D01*
X139903072Y-92449838D01*
X139749838Y-92603072D01*
X139749838Y-92603073D01*
X139749836Y-92603075D01*
X139679191Y-92700309D01*
X139630318Y-92767577D01*
X139574988Y-92810242D01*
X139505374Y-92816221D01*
X139443579Y-92783615D01*
X139429682Y-92767577D01*
X139402195Y-92729745D01*
X139310164Y-92603075D01*
X139156925Y-92449836D01*
X138981600Y-92322455D01*
X138981599Y-92322454D01*
X138981597Y-92322453D01*
X138928204Y-92295247D01*
X138877408Y-92247272D01*
X138860500Y-92184763D01*
X138860500Y-91349059D01*
X138860501Y-91349046D01*
X138860501Y-91180945D01*
X138860501Y-91180943D01*
X138819577Y-91028215D01*
X138768890Y-90940423D01*
X138740520Y-90891284D01*
X138628716Y-90779480D01*
X138628715Y-90779479D01*
X138624385Y-90775149D01*
X138624374Y-90775139D01*
X137436818Y-89587583D01*
X137403333Y-89526260D01*
X137400499Y-89499902D01*
X137400499Y-89213330D01*
X137400498Y-89213313D01*
X137390174Y-89112247D01*
X137356388Y-89010289D01*
X137335908Y-88948484D01*
X137245340Y-88801650D01*
X137123350Y-88679660D01*
X137029521Y-88621786D01*
X136976518Y-88589093D01*
X136976513Y-88589091D01*
X136975069Y-88588612D01*
X136812753Y-88534826D01*
X136812751Y-88534825D01*
X136711678Y-88524500D01*
X136013330Y-88524500D01*
X136013312Y-88524501D01*
X135912247Y-88534825D01*
X135748484Y-88589092D01*
X135748481Y-88589093D01*
X135601648Y-88679661D01*
X135587325Y-88693984D01*
X135526001Y-88727468D01*
X135456309Y-88722482D01*
X135411965Y-88693982D01*
X135398038Y-88680055D01*
X135398034Y-88680052D01*
X135251311Y-88589551D01*
X135251300Y-88589546D01*
X135087652Y-88535319D01*
X134986654Y-88525000D01*
X134887500Y-88525000D01*
X134887500Y-90474999D01*
X134986640Y-90474999D01*
X134986654Y-90474998D01*
X135087652Y-90464680D01*
X135251300Y-90410453D01*
X135251311Y-90410448D01*
X135398035Y-90319947D01*
X135411960Y-90306021D01*
X135473282Y-90272533D01*
X135542973Y-90277514D01*
X135587327Y-90306017D01*
X135601650Y-90320340D01*
X135748484Y-90410908D01*
X135912247Y-90465174D01*
X136013323Y-90475500D01*
X136574902Y-90475499D01*
X136641941Y-90495183D01*
X136662583Y-90511818D01*
X137623181Y-91472416D01*
X137656666Y-91533739D01*
X137659500Y-91560097D01*
X137659500Y-92184763D01*
X137639815Y-92251802D01*
X137591796Y-92295247D01*
X137538402Y-92322453D01*
X137363072Y-92449838D01*
X137209838Y-92603072D01*
X137209838Y-92603073D01*
X137209836Y-92603075D01*
X137139191Y-92700309D01*
X137090318Y-92767577D01*
X137034988Y-92810242D01*
X136965374Y-92816221D01*
X136903579Y-92783615D01*
X136889682Y-92767577D01*
X136862195Y-92729745D01*
X136770164Y-92603075D01*
X136616925Y-92449836D01*
X136441600Y-92322455D01*
X136320499Y-92260751D01*
X136248505Y-92224068D01*
X136042404Y-92157102D01*
X135881867Y-92131675D01*
X135828356Y-92123200D01*
X135611644Y-92123200D01*
X135540295Y-92134500D01*
X135397597Y-92157102D01*
X135397594Y-92157102D01*
X135191494Y-92224068D01*
X134998399Y-92322455D01*
X134823072Y-92449838D01*
X134669838Y-92603072D01*
X134669838Y-92603073D01*
X134669836Y-92603075D01*
X134637643Y-92647385D01*
X134550009Y-92768002D01*
X134494679Y-92810667D01*
X134425065Y-92816646D01*
X134363270Y-92784040D01*
X134349373Y-92768001D01*
X134314101Y-92719453D01*
X134314099Y-92719452D01*
X133700603Y-93332949D01*
X133688884Y-93289213D01*
X133616989Y-93164687D01*
X133515313Y-93063011D01*
X133390787Y-92991116D01*
X133347049Y-92979396D01*
X133960545Y-92365899D01*
X133960545Y-92365898D01*
X133901342Y-92322885D01*
X133708320Y-92224534D01*
X133502284Y-92157588D01*
X133288322Y-92123700D01*
X133071678Y-92123700D01*
X132857715Y-92157588D01*
X132651679Y-92224534D01*
X132458659Y-92322884D01*
X132399453Y-92365898D01*
X132399453Y-92365899D01*
X133012950Y-92979396D01*
X132969213Y-92991116D01*
X132844687Y-93063011D01*
X132743011Y-93164687D01*
X132671116Y-93289213D01*
X132659396Y-93332950D01*
X132045899Y-92719453D01*
X132045897Y-92719453D01*
X132010626Y-92768001D01*
X131955297Y-92810667D01*
X131885683Y-92816646D01*
X131823888Y-92784041D01*
X131809990Y-92768001D01*
X131700613Y-92617457D01*
X131690164Y-92603075D01*
X131536925Y-92449836D01*
X131361600Y-92322455D01*
X131240499Y-92260751D01*
X131168505Y-92224068D01*
X130962404Y-92157102D01*
X130801867Y-92131675D01*
X130748356Y-92123200D01*
X130531644Y-92123200D01*
X130460295Y-92134500D01*
X130317597Y-92157102D01*
X130317594Y-92157102D01*
X130111494Y-92224068D01*
X129918399Y-92322455D01*
X129743072Y-92449838D01*
X129589838Y-92603072D01*
X129462455Y-92778399D01*
X129364068Y-92971494D01*
X129297102Y-93177594D01*
X129297102Y-93177597D01*
X129263200Y-93391644D01*
X128328927Y-93391644D01*
X128328927Y-89786654D01*
X133600001Y-89786654D01*
X133610319Y-89887652D01*
X133664546Y-90051300D01*
X133664551Y-90051311D01*
X133755052Y-90198034D01*
X133755055Y-90198038D01*
X133876961Y-90319944D01*
X133876965Y-90319947D01*
X134023688Y-90410448D01*
X134023699Y-90410453D01*
X134187347Y-90464680D01*
X134288351Y-90474999D01*
X134387500Y-90474998D01*
X134387500Y-89750000D01*
X133600001Y-89750000D01*
X133600001Y-89786654D01*
X128328927Y-89786654D01*
X128328927Y-89213345D01*
X133600000Y-89213345D01*
X133600000Y-89250000D01*
X134387500Y-89250000D01*
X134387500Y-88524999D01*
X134288360Y-88525000D01*
X134288344Y-88525001D01*
X134187347Y-88535319D01*
X134023699Y-88589546D01*
X134023688Y-88589551D01*
X133876965Y-88680052D01*
X133876961Y-88680055D01*
X133755055Y-88801961D01*
X133755052Y-88801965D01*
X133664551Y-88948688D01*
X133664546Y-88948699D01*
X133610319Y-89112347D01*
X133600000Y-89213345D01*
X128328927Y-89213345D01*
X128328927Y-84083757D01*
X128348612Y-84016718D01*
X128401416Y-83970963D01*
X128470574Y-83961019D01*
X128534130Y-83990044D01*
X128571904Y-84048822D01*
X128574544Y-84059566D01*
X128622945Y-84302902D01*
X128622948Y-84302913D01*
X128717086Y-84613247D01*
X128780194Y-84765603D01*
X128830403Y-84886818D01*
X128841186Y-84912849D01*
X128841188Y-84912854D01*
X128994046Y-85198830D01*
X128994050Y-85198837D01*
X128994053Y-85198842D01*
X129083324Y-85332446D01*
X129174211Y-85468467D01*
X129174221Y-85468481D01*
X129379946Y-85719158D01*
X129609241Y-85948453D01*
X129609246Y-85948457D01*
X129609247Y-85948458D01*
X129859924Y-86154183D01*
X130129558Y-86334347D01*
X130129567Y-86334352D01*
X130129569Y-86334353D01*
X130415545Y-86487211D01*
X130415547Y-86487211D01*
X130415553Y-86487215D01*
X130715154Y-86611314D01*
X131025477Y-86705449D01*
X131025483Y-86705450D01*
X131025486Y-86705451D01*
X131025497Y-86705454D01*
X131224928Y-86745122D01*
X131343532Y-86768714D01*
X131666257Y-86800500D01*
X131666260Y-86800500D01*
X131990540Y-86800500D01*
X131990543Y-86800500D01*
X132313268Y-86768714D01*
X132470695Y-86737399D01*
X132631302Y-86705454D01*
X132631313Y-86705451D01*
X132631313Y-86705450D01*
X132631323Y-86705449D01*
X132941646Y-86611314D01*
X133241247Y-86487215D01*
X133527242Y-86334347D01*
X133796876Y-86154183D01*
X134047553Y-85948458D01*
X134276858Y-85719153D01*
X134482583Y-85468476D01*
X134662747Y-85198842D01*
X134815615Y-84912847D01*
X134939714Y-84613246D01*
X135033849Y-84302923D01*
X135033851Y-84302913D01*
X135033854Y-84302902D01*
X135068064Y-84130911D01*
X135097114Y-83984868D01*
X135128900Y-83662143D01*
X135128900Y-83337857D01*
X135097114Y-83015132D01*
X135064724Y-82852297D01*
X135033854Y-82697097D01*
X135033851Y-82697086D01*
X135033850Y-82697083D01*
X135033849Y-82697077D01*
X134939714Y-82386754D01*
X134815615Y-82087153D01*
X134662747Y-81801158D01*
X134482583Y-81531524D01*
X134276858Y-81280847D01*
X134276857Y-81280846D01*
X134276853Y-81280841D01*
X134047558Y-81051546D01*
X133796881Y-80845821D01*
X133796880Y-80845820D01*
X133796876Y-80845817D01*
X133527242Y-80665653D01*
X133527237Y-80665650D01*
X133527230Y-80665646D01*
X133241254Y-80512788D01*
X133241249Y-80512786D01*
X132941647Y-80388686D01*
X132631313Y-80294548D01*
X132631302Y-80294545D01*
X132387831Y-80246117D01*
X132325920Y-80213732D01*
X132291346Y-80153017D01*
X132295085Y-80083247D01*
X132335951Y-80026575D01*
X132400969Y-80000994D01*
X132412022Y-80000500D01*
X171416378Y-80000500D01*
X171483417Y-80020185D01*
G37*
%TD.AperFunction*%
%TD*%
M02*
