%TF.GenerationSoftware,KiCad,Pcbnew,10.0.5*%
%TF.CreationDate,2026-09-07T15:44:26+01:00*%
%TF.ProjectId,deltavr hmd,64656c74-6176-4722-9068-6d642e6b6963,rev?*%
%TF.SameCoordinates,Original*%
%TF.FileFunction,Legend,Bot*%
%TF.FilePolarity,Positive*%
%FSLAX46Y46*%
G04 Gerber Fmt 4.6, Leading zero omitted, Abs format (unit mm)*
G04 Created by KiCad (PCBNEW 10.0.5) date 2026-09-07 15:44:26*
%MOMM*%
%LPD*%
G01*
G04 APERTURE LIST*
%ADD10C,0.150000*%
%ADD11C,1.752600*%
G04 APERTURE END LIST*
D10*
G36*
X130972000Y-94555399D02*
G01*
X130611692Y-94555399D01*
X130611692Y-94678351D01*
X130615551Y-94737360D01*
X130623851Y-94761395D01*
X130637143Y-94785720D01*
X130656521Y-94809135D01*
X130691413Y-94839551D01*
X130803179Y-94916048D01*
X130972000Y-95022098D01*
X130972000Y-95155406D01*
X130751351Y-95016090D01*
X130690683Y-94972201D01*
X130643493Y-94928065D01*
X130624691Y-94903098D01*
X130603144Y-94864171D01*
X130591526Y-94922066D01*
X130574933Y-94968564D01*
X130554060Y-95005577D01*
X130529187Y-95034652D01*
X130498465Y-95058767D01*
X130464818Y-95075853D01*
X130427641Y-95086264D01*
X130386110Y-95089851D01*
X130343190Y-95086086D01*
X130303366Y-95074988D01*
X130265942Y-95056488D01*
X130232890Y-95031379D01*
X130207865Y-95001874D01*
X130190032Y-94967437D01*
X130179086Y-94929447D01*
X130171450Y-94876476D01*
X130168716Y-94808972D01*
X130258420Y-94808972D01*
X130263231Y-94867406D01*
X130275921Y-94909482D01*
X130294812Y-94939251D01*
X130321369Y-94962225D01*
X130351885Y-94975838D01*
X130387673Y-94980528D01*
X130424726Y-94975225D01*
X130459090Y-94959230D01*
X130478759Y-94943108D01*
X130494648Y-94922586D01*
X130506912Y-94896948D01*
X130517565Y-94851852D01*
X130521811Y-94783278D01*
X130521811Y-94555399D01*
X130258420Y-94555399D01*
X130258420Y-94808972D01*
X130168716Y-94808972D01*
X130168538Y-94804576D01*
X130168538Y-94449349D01*
X130972000Y-94449349D01*
X130972000Y-94555399D01*
G37*
G36*
X130972000Y-95280458D02*
G01*
X130728147Y-95368435D01*
X130728147Y-95703438D01*
X130972000Y-95796885D01*
X130972000Y-95917688D01*
X130168538Y-95589767D01*
X130168538Y-95530221D01*
X130252704Y-95530221D01*
X130321992Y-95552089D01*
X130418789Y-95587032D01*
X130640611Y-95670661D01*
X130640611Y-95399063D01*
X130405698Y-95487039D01*
X130329196Y-95511858D01*
X130252704Y-95530221D01*
X130168538Y-95530221D01*
X130168538Y-95475560D01*
X130972000Y-95167862D01*
X130972000Y-95280458D01*
G37*
G36*
X130972000Y-96100772D02*
G01*
X130168538Y-95888183D01*
X130168538Y-95996920D01*
X130695468Y-96118797D01*
X130859990Y-96152650D01*
X130711392Y-96188749D01*
X130168538Y-96341205D01*
X130168538Y-96469091D01*
X130575398Y-96583836D01*
X130725137Y-96621648D01*
X130859990Y-96646167D01*
X130685063Y-96686027D01*
X130168538Y-96811763D01*
X130168538Y-96918302D01*
X130972000Y-96698630D01*
X130972000Y-96596439D01*
X130359585Y-96427569D01*
X130265258Y-96402412D01*
X130359585Y-96378916D01*
X130972000Y-96208972D01*
X130972000Y-96100772D01*
G37*
G36*
X130671055Y-105774497D02*
G01*
X130748946Y-105785620D01*
X130811699Y-105802466D01*
X130861782Y-105824024D01*
X130901316Y-105849674D01*
X130937583Y-105885691D01*
X130963228Y-105927206D01*
X130978989Y-105975311D01*
X130984505Y-106031684D01*
X130978898Y-106088647D01*
X130962967Y-106136569D01*
X130937170Y-106177301D01*
X130902498Y-106211535D01*
X130858382Y-106240451D01*
X130803130Y-106263910D01*
X130744503Y-106279011D01*
X130669629Y-106289139D01*
X130575251Y-106292877D01*
X130462097Y-106287765D01*
X130385670Y-106274852D01*
X130319006Y-106252706D01*
X130266382Y-106225124D01*
X130235957Y-106201817D01*
X130211125Y-106175121D01*
X130191399Y-106144768D01*
X130177239Y-106111457D01*
X130168465Y-106074023D01*
X130165412Y-106031684D01*
X130165523Y-106030560D01*
X130247478Y-106030560D01*
X130251421Y-106063122D01*
X130263088Y-106092626D01*
X130282962Y-106119959D01*
X130312446Y-106145599D01*
X130344897Y-106162706D01*
X130395153Y-106177295D01*
X130469418Y-106187744D01*
X130574958Y-106191809D01*
X130679800Y-106187760D01*
X130753854Y-106177334D01*
X130804211Y-106162746D01*
X130836933Y-106145599D01*
X130866773Y-106119916D01*
X130886796Y-106092747D01*
X130898497Y-106063626D01*
X130902439Y-106031684D01*
X130898509Y-105999699D01*
X130886849Y-105970555D01*
X130866912Y-105943384D01*
X130837226Y-105917720D01*
X130804643Y-105900612D01*
X130754335Y-105886039D01*
X130680167Y-105875612D01*
X130574958Y-105871558D01*
X130470717Y-105875865D01*
X130394879Y-105887102D01*
X130341321Y-105903116D01*
X130304777Y-105922361D01*
X130279246Y-105944802D01*
X130261670Y-105969885D01*
X130251115Y-105998152D01*
X130247478Y-106030560D01*
X130165523Y-106030560D01*
X130170980Y-105975065D01*
X130186823Y-105927290D01*
X130212502Y-105886555D01*
X130246991Y-105852310D01*
X130291003Y-105823296D01*
X130346249Y-105799653D01*
X130404866Y-105784443D01*
X130480073Y-105774221D01*
X130575251Y-105770441D01*
X130671055Y-105774497D01*
G37*
G36*
X130671055Y-106396632D02*
G01*
X130748946Y-106407755D01*
X130811699Y-106424601D01*
X130861782Y-106446159D01*
X130901316Y-106471809D01*
X130937583Y-106507827D01*
X130963228Y-106549342D01*
X130978989Y-106597447D01*
X130984505Y-106653819D01*
X130978898Y-106710782D01*
X130962967Y-106758705D01*
X130937170Y-106799437D01*
X130902498Y-106833670D01*
X130858382Y-106862586D01*
X130803130Y-106886045D01*
X130744503Y-106901146D01*
X130669629Y-106911274D01*
X130575251Y-106915012D01*
X130462097Y-106909901D01*
X130385670Y-106896987D01*
X130319006Y-106874841D01*
X130266382Y-106847259D01*
X130235957Y-106823953D01*
X130211125Y-106797257D01*
X130191399Y-106766903D01*
X130177239Y-106733593D01*
X130168465Y-106696159D01*
X130165412Y-106653819D01*
X130165522Y-106652696D01*
X130247478Y-106652696D01*
X130251421Y-106685257D01*
X130263088Y-106714761D01*
X130282962Y-106742094D01*
X130312446Y-106767734D01*
X130344897Y-106784841D01*
X130395153Y-106799430D01*
X130469418Y-106809879D01*
X130574958Y-106813945D01*
X130679800Y-106809895D01*
X130753854Y-106799470D01*
X130804211Y-106784881D01*
X130836933Y-106767734D01*
X130866773Y-106742051D01*
X130886796Y-106714882D01*
X130898497Y-106685761D01*
X130902439Y-106653819D01*
X130898509Y-106621834D01*
X130886849Y-106592690D01*
X130866912Y-106565519D01*
X130837226Y-106539855D01*
X130804643Y-106522748D01*
X130754335Y-106508174D01*
X130680167Y-106497747D01*
X130574958Y-106493693D01*
X130470717Y-106498000D01*
X130394879Y-106509237D01*
X130341321Y-106525251D01*
X130304777Y-106544496D01*
X130279246Y-106566938D01*
X130261670Y-106592020D01*
X130251115Y-106620287D01*
X130247478Y-106652696D01*
X130165522Y-106652696D01*
X130170980Y-106597200D01*
X130186823Y-106549426D01*
X130212502Y-106508690D01*
X130246991Y-106474445D01*
X130291003Y-106445431D01*
X130346249Y-106421788D01*
X130404866Y-106406578D01*
X130480073Y-106396357D01*
X130575251Y-106392577D01*
X130671055Y-106396632D01*
G37*
G36*
X130683384Y-107014274D02*
G01*
X130754724Y-107025129D01*
X130812112Y-107041584D01*
X130857866Y-107062697D01*
X130893939Y-107087936D01*
X130933761Y-107129841D01*
X130961683Y-107176490D01*
X130978642Y-107228878D01*
X130984505Y-107288508D01*
X130980547Y-107335631D01*
X130969010Y-107378339D01*
X130950018Y-107417469D01*
X130923964Y-107452293D01*
X130891115Y-107481981D01*
X130850611Y-107506813D01*
X130806355Y-107524819D01*
X130759707Y-107535669D01*
X130710073Y-107539346D01*
X130653350Y-107534712D01*
X130603991Y-107521444D01*
X130560698Y-107500013D01*
X130522495Y-107470225D01*
X130490359Y-107433304D01*
X130467966Y-107393587D01*
X130454504Y-107350391D01*
X130449906Y-107302723D01*
X130451454Y-107283037D01*
X130536661Y-107283037D01*
X130542105Y-107325759D01*
X130557914Y-107362417D01*
X130584533Y-107394510D01*
X130618879Y-107418368D01*
X130661728Y-107433372D01*
X130715447Y-107438767D01*
X130771417Y-107433300D01*
X130816192Y-107418095D01*
X130852174Y-107393973D01*
X130880546Y-107361482D01*
X130896929Y-107326200D01*
X130902439Y-107286848D01*
X130896467Y-107245562D01*
X130878113Y-107205417D01*
X130859766Y-107181816D01*
X130836407Y-107161742D01*
X130807331Y-107145040D01*
X130759691Y-107128836D01*
X130709976Y-107123449D01*
X130660110Y-107128944D01*
X130618934Y-107144523D01*
X130584533Y-107169904D01*
X130557809Y-107203336D01*
X130542043Y-107240596D01*
X130536661Y-107283037D01*
X130451454Y-107283037D01*
X130452809Y-107265794D01*
X130461496Y-107230029D01*
X130476138Y-107195012D01*
X130496296Y-107163053D01*
X130522784Y-107134178D01*
X130556347Y-107108160D01*
X130476254Y-107112376D01*
X130416154Y-107122170D01*
X130372041Y-107136003D01*
X130331020Y-107156875D01*
X130298610Y-107181305D01*
X130273563Y-107209276D01*
X130259153Y-107234041D01*
X130250460Y-107261314D01*
X130247478Y-107291781D01*
X130252162Y-107329009D01*
X130265829Y-107361395D01*
X130288901Y-107390162D01*
X130319785Y-107410211D01*
X130371748Y-107427336D01*
X130364128Y-107525131D01*
X130318504Y-107515633D01*
X130279628Y-107500288D01*
X130246452Y-107479374D01*
X130218217Y-107452737D01*
X130195580Y-107421217D01*
X130179177Y-107385447D01*
X130168979Y-107344642D01*
X130165412Y-107297790D01*
X130169313Y-107247767D01*
X130180554Y-107203444D01*
X130198797Y-107163851D01*
X130224188Y-107128243D01*
X130257345Y-107096143D01*
X130299288Y-107068129D01*
X130351842Y-107044747D01*
X130417062Y-107026585D01*
X130497366Y-107014651D01*
X130595475Y-107010316D01*
X130683384Y-107014274D01*
G37*
G36*
X133141055Y-105774497D02*
G01*
X133218946Y-105785620D01*
X133281699Y-105802466D01*
X133331782Y-105824024D01*
X133371316Y-105849674D01*
X133407583Y-105885691D01*
X133433228Y-105927206D01*
X133448989Y-105975311D01*
X133454505Y-106031684D01*
X133448898Y-106088647D01*
X133432967Y-106136569D01*
X133407170Y-106177301D01*
X133372498Y-106211535D01*
X133328382Y-106240451D01*
X133273130Y-106263910D01*
X133214503Y-106279011D01*
X133139629Y-106289139D01*
X133045251Y-106292877D01*
X132932097Y-106287765D01*
X132855670Y-106274852D01*
X132789006Y-106252706D01*
X132736382Y-106225124D01*
X132705957Y-106201817D01*
X132681125Y-106175121D01*
X132661399Y-106144768D01*
X132647239Y-106111457D01*
X132638465Y-106074023D01*
X132635412Y-106031684D01*
X132635523Y-106030560D01*
X132717478Y-106030560D01*
X132721421Y-106063122D01*
X132733088Y-106092626D01*
X132752962Y-106119959D01*
X132782446Y-106145599D01*
X132814897Y-106162706D01*
X132865153Y-106177295D01*
X132939418Y-106187744D01*
X133044958Y-106191809D01*
X133149800Y-106187760D01*
X133223854Y-106177334D01*
X133274211Y-106162746D01*
X133306933Y-106145599D01*
X133336773Y-106119916D01*
X133356796Y-106092747D01*
X133368497Y-106063626D01*
X133372439Y-106031684D01*
X133368509Y-105999699D01*
X133356849Y-105970555D01*
X133336912Y-105943384D01*
X133307226Y-105917720D01*
X133274643Y-105900612D01*
X133224335Y-105886039D01*
X133150167Y-105875612D01*
X133044958Y-105871558D01*
X132940717Y-105875865D01*
X132864879Y-105887102D01*
X132811321Y-105903116D01*
X132774777Y-105922361D01*
X132749246Y-105944802D01*
X132731670Y-105969885D01*
X132721115Y-105998152D01*
X132717478Y-106030560D01*
X132635523Y-106030560D01*
X132640980Y-105975065D01*
X132656823Y-105927290D01*
X132682502Y-105886555D01*
X132716991Y-105852310D01*
X132761003Y-105823296D01*
X132816249Y-105799653D01*
X132874866Y-105784443D01*
X132950073Y-105774221D01*
X133045251Y-105770441D01*
X133141055Y-105774497D01*
G37*
G36*
X133141055Y-106396632D02*
G01*
X133218946Y-106407755D01*
X133281699Y-106424601D01*
X133331782Y-106446159D01*
X133371316Y-106471809D01*
X133407583Y-106507827D01*
X133433228Y-106549342D01*
X133448989Y-106597447D01*
X133454505Y-106653819D01*
X133448898Y-106710782D01*
X133432967Y-106758705D01*
X133407170Y-106799437D01*
X133372498Y-106833670D01*
X133328382Y-106862586D01*
X133273130Y-106886045D01*
X133214503Y-106901146D01*
X133139629Y-106911274D01*
X133045251Y-106915012D01*
X132932097Y-106909901D01*
X132855670Y-106896987D01*
X132789006Y-106874841D01*
X132736382Y-106847259D01*
X132705957Y-106823953D01*
X132681125Y-106797257D01*
X132661399Y-106766903D01*
X132647239Y-106733593D01*
X132638465Y-106696159D01*
X132635412Y-106653819D01*
X132635522Y-106652696D01*
X132717478Y-106652696D01*
X132721421Y-106685257D01*
X132733088Y-106714761D01*
X132752962Y-106742094D01*
X132782446Y-106767734D01*
X132814897Y-106784841D01*
X132865153Y-106799430D01*
X132939418Y-106809879D01*
X133044958Y-106813945D01*
X133149800Y-106809895D01*
X133223854Y-106799470D01*
X133274211Y-106784881D01*
X133306933Y-106767734D01*
X133336773Y-106742051D01*
X133356796Y-106714882D01*
X133368497Y-106685761D01*
X133372439Y-106653819D01*
X133368509Y-106621834D01*
X133356849Y-106592690D01*
X133336912Y-106565519D01*
X133307226Y-106539855D01*
X133274643Y-106522748D01*
X133224335Y-106508174D01*
X133150167Y-106497747D01*
X133044958Y-106493693D01*
X132940717Y-106498000D01*
X132864879Y-106509237D01*
X132811321Y-106525251D01*
X132774777Y-106544496D01*
X132749246Y-106566938D01*
X132731670Y-106592020D01*
X132721115Y-106620287D01*
X132717478Y-106652696D01*
X132635522Y-106652696D01*
X132640980Y-106597200D01*
X132656823Y-106549426D01*
X132682502Y-106508690D01*
X132716991Y-106474445D01*
X132761003Y-106445431D01*
X132816249Y-106421788D01*
X132874866Y-106406578D01*
X132950073Y-106396357D01*
X133045251Y-106392577D01*
X133141055Y-106396632D01*
G37*
G36*
X133259813Y-107018339D02*
G01*
X133305471Y-107031981D01*
X133346643Y-107054426D01*
X133384114Y-107086275D01*
X133414346Y-107124595D01*
X133436176Y-107168479D01*
X133449746Y-107218995D01*
X133454505Y-107277566D01*
X133449763Y-107336155D01*
X133436243Y-107386678D01*
X133414502Y-107430556D01*
X133384407Y-107468857D01*
X133347030Y-107500833D01*
X133306269Y-107523282D01*
X133261378Y-107536875D01*
X133211288Y-107541544D01*
X133162874Y-107537057D01*
X133120545Y-107524131D01*
X133083109Y-107503003D01*
X133051292Y-107474175D01*
X133025386Y-107437230D01*
X133005342Y-107390700D01*
X132987488Y-107428421D01*
X132966251Y-107457547D01*
X132941692Y-107479458D01*
X132912957Y-107495548D01*
X132880896Y-107505338D01*
X132844679Y-107508718D01*
X132802305Y-107504655D01*
X132764009Y-107492776D01*
X132728904Y-107473045D01*
X132696375Y-107444775D01*
X132670256Y-107411154D01*
X132651341Y-107372502D01*
X132639553Y-107327858D01*
X132635498Y-107277029D01*
X132717478Y-107277029D01*
X132721677Y-107312692D01*
X132733823Y-107343354D01*
X132754065Y-107370183D01*
X132780402Y-107391028D01*
X132810105Y-107403403D01*
X132844288Y-107407650D01*
X132877090Y-107403546D01*
X132905738Y-107391557D01*
X132931288Y-107371307D01*
X132950800Y-107345192D01*
X132962656Y-107314560D01*
X132966801Y-107278104D01*
X132966495Y-107275368D01*
X133048866Y-107275368D01*
X133054198Y-107320856D01*
X133069586Y-107359786D01*
X133095175Y-107393679D01*
X133128562Y-107419831D01*
X133167068Y-107435526D01*
X133212265Y-107440965D01*
X133256842Y-107435662D01*
X133294648Y-107420399D01*
X133327254Y-107395047D01*
X133352158Y-107362089D01*
X133367204Y-107323825D01*
X133372439Y-107278690D01*
X133367050Y-107234751D01*
X133350946Y-107193938D01*
X133334504Y-107169734D01*
X133314368Y-107150108D01*
X133290178Y-107134635D01*
X133250040Y-107119629D01*
X133209041Y-107114705D01*
X133165143Y-107119941D01*
X133127499Y-107135080D01*
X133094637Y-107160330D01*
X133069337Y-107193187D01*
X133054135Y-107231027D01*
X133048866Y-107275368D01*
X132966495Y-107275368D01*
X132962598Y-107240580D01*
X132950633Y-107209342D01*
X132931043Y-107182996D01*
X132905191Y-107162843D01*
X132874905Y-107150659D01*
X132838866Y-107146408D01*
X132807210Y-107150539D01*
X132779009Y-107162732D01*
X132753284Y-107183582D01*
X132733540Y-107210216D01*
X132721619Y-107240962D01*
X132717478Y-107277029D01*
X132635498Y-107277029D01*
X132635412Y-107275954D01*
X132639481Y-107224237D01*
X132651040Y-107179930D01*
X132669537Y-107141744D01*
X132695007Y-107108697D01*
X132726804Y-107081013D01*
X132761423Y-107061622D01*
X132799497Y-107049900D01*
X132841944Y-107045878D01*
X132879620Y-107049323D01*
X132912460Y-107059229D01*
X132941399Y-107075382D01*
X132966051Y-107097549D01*
X132987395Y-107127283D01*
X133005342Y-107166094D01*
X133022411Y-107119894D01*
X133046397Y-107082766D01*
X133077394Y-107053254D01*
X133114441Y-107031686D01*
X133157662Y-107018331D01*
X133208552Y-107013638D01*
X133259813Y-107018339D01*
G37*
G36*
X133195461Y-94883072D02*
G01*
X133102453Y-94883072D01*
X133101916Y-95222472D01*
X133399452Y-95222472D01*
X133438216Y-95168742D01*
X133469241Y-95115068D01*
X133493095Y-95061222D01*
X133510595Y-95005168D01*
X133521024Y-94948471D01*
X133524505Y-94890741D01*
X133518714Y-94813296D01*
X133501784Y-94742147D01*
X133473946Y-94676198D01*
X133445601Y-94630594D01*
X133412013Y-94591465D01*
X133372918Y-94558232D01*
X133327792Y-94530580D01*
X133262447Y-94503543D01*
X133191578Y-94487047D01*
X133114079Y-94481390D01*
X133037248Y-94486911D01*
X132964765Y-94503218D01*
X132895775Y-94530287D01*
X132847443Y-94558056D01*
X132806723Y-94590632D01*
X132772816Y-94628148D01*
X132745224Y-94671020D01*
X132718351Y-94733940D01*
X132701778Y-94803988D01*
X132696033Y-94882534D01*
X132699297Y-94939936D01*
X132708745Y-94992075D01*
X132724023Y-95039631D01*
X132745851Y-95084302D01*
X132771860Y-95120632D01*
X132802034Y-95149736D01*
X132837017Y-95173256D01*
X132880023Y-95193614D01*
X132932411Y-95210455D01*
X132958643Y-95114809D01*
X132901849Y-95093491D01*
X132862753Y-95069966D01*
X132841693Y-95050300D01*
X132823070Y-95025105D01*
X132806919Y-94993469D01*
X132791318Y-94941800D01*
X132785914Y-94883072D01*
X132788587Y-94834974D01*
X132796153Y-94793382D01*
X132808092Y-94757384D01*
X132834370Y-94708612D01*
X132866417Y-94671850D01*
X132904470Y-94642860D01*
X132945747Y-94621292D01*
X132996212Y-94604456D01*
X133049860Y-94594206D01*
X133107240Y-94590713D01*
X133178075Y-94595231D01*
X133237314Y-94607861D01*
X133286856Y-94627594D01*
X133331234Y-94656195D01*
X133366684Y-94691757D01*
X133394128Y-94734963D01*
X133413600Y-94782999D01*
X133425238Y-94832730D01*
X133429152Y-94884733D01*
X133426233Y-94930120D01*
X133417473Y-94974799D01*
X133402725Y-95019115D01*
X133373733Y-95079712D01*
X133346305Y-95118619D01*
X133195461Y-95118619D01*
X133195461Y-94883072D01*
G37*
G36*
X133512000Y-95377761D02*
G01*
X132708538Y-95377761D01*
X132708538Y-95486547D01*
X133339369Y-95907328D01*
X132708538Y-95907328D01*
X132708538Y-96008982D01*
X133512000Y-96008982D01*
X133512000Y-95900245D01*
X132880632Y-95479415D01*
X133512000Y-95479415D01*
X133512000Y-95377761D01*
G37*
G36*
X133512000Y-96476121D02*
G01*
X133508369Y-96546582D01*
X133498322Y-96604788D01*
X133480898Y-96657860D01*
X133458022Y-96700434D01*
X133427332Y-96737653D01*
X133385140Y-96773365D01*
X133334679Y-96802798D01*
X133268147Y-96828026D01*
X133220534Y-96839542D01*
X133166706Y-96846820D01*
X133105872Y-96849373D01*
X133034773Y-96845649D01*
X132971430Y-96834973D01*
X132914875Y-96817915D01*
X132861778Y-96793025D01*
X132816316Y-96761500D01*
X132777610Y-96723148D01*
X132753008Y-96688985D01*
X132733816Y-96650046D01*
X132720066Y-96605619D01*
X132711891Y-96550905D01*
X132708538Y-96462981D01*
X132708538Y-96461369D01*
X132801546Y-96461369D01*
X132803885Y-96525094D01*
X132809855Y-96569250D01*
X132818106Y-96598536D01*
X132837656Y-96634665D01*
X132867442Y-96667960D01*
X132909355Y-96698773D01*
X132943475Y-96715464D01*
X132986137Y-96728418D01*
X133039062Y-96736944D01*
X133104212Y-96740050D01*
X133165134Y-96737452D01*
X133216616Y-96730201D01*
X133259941Y-96718996D01*
X133301383Y-96702400D01*
X133335109Y-96682764D01*
X133362230Y-96660280D01*
X133385622Y-96629939D01*
X133404142Y-96588424D01*
X133414759Y-96538972D01*
X133418992Y-96464104D01*
X133418992Y-96293037D01*
X132801546Y-96293037D01*
X132801546Y-96461369D01*
X132708538Y-96461369D01*
X132708538Y-96187035D01*
X133512000Y-96187035D01*
X133512000Y-96476121D01*
G37*
G36*
X136052000Y-94606808D02*
G01*
X135691692Y-94606808D01*
X135691692Y-94729760D01*
X135695551Y-94788769D01*
X135703851Y-94812804D01*
X135717143Y-94837129D01*
X135736521Y-94860544D01*
X135771413Y-94890960D01*
X135883179Y-94967457D01*
X136052000Y-95073507D01*
X136052000Y-95206815D01*
X135831351Y-95067499D01*
X135770683Y-95023610D01*
X135723493Y-94979474D01*
X135704691Y-94954507D01*
X135683144Y-94915580D01*
X135671526Y-94973475D01*
X135654933Y-95019973D01*
X135634060Y-95056986D01*
X135609187Y-95086061D01*
X135578465Y-95110176D01*
X135544818Y-95127262D01*
X135507641Y-95137673D01*
X135466110Y-95141260D01*
X135423190Y-95137495D01*
X135383366Y-95126397D01*
X135345942Y-95107897D01*
X135312890Y-95082788D01*
X135287865Y-95053283D01*
X135270032Y-95018846D01*
X135259086Y-94980856D01*
X135251450Y-94927885D01*
X135248716Y-94860381D01*
X135338420Y-94860381D01*
X135343231Y-94918815D01*
X135355921Y-94960891D01*
X135374812Y-94990660D01*
X135401369Y-95013634D01*
X135431885Y-95027247D01*
X135467673Y-95031937D01*
X135504726Y-95026634D01*
X135539090Y-95010639D01*
X135558759Y-94994517D01*
X135574648Y-94973995D01*
X135586912Y-94948357D01*
X135597565Y-94903261D01*
X135601811Y-94834687D01*
X135601811Y-94606808D01*
X135338420Y-94606808D01*
X135338420Y-94860381D01*
X135248716Y-94860381D01*
X135248538Y-94855985D01*
X135248538Y-94500758D01*
X136052000Y-94500758D01*
X136052000Y-94606808D01*
G37*
G36*
X135791930Y-95271197D02*
G01*
X135783137Y-95371239D01*
X135823296Y-95378493D01*
X135856452Y-95389646D01*
X135883716Y-95404261D01*
X135907376Y-95423885D01*
X135928564Y-95450331D01*
X135947268Y-95484861D01*
X135960508Y-95522016D01*
X135968676Y-95562817D01*
X135971497Y-95607862D01*
X135966750Y-95666299D01*
X135953423Y-95714938D01*
X135939190Y-95744435D01*
X135922641Y-95767105D01*
X135903842Y-95784059D01*
X135870675Y-95801154D01*
X135835014Y-95806773D01*
X135799371Y-95801222D01*
X135769020Y-95784889D01*
X135744331Y-95757872D01*
X135721588Y-95712788D01*
X135708196Y-95670718D01*
X135682411Y-95570151D01*
X135654017Y-95468530D01*
X135632244Y-95415496D01*
X135609668Y-95379304D01*
X135584758Y-95351166D01*
X135557457Y-95329962D01*
X135526663Y-95314393D01*
X135493542Y-95305019D01*
X135457464Y-95301825D01*
X135417887Y-95305625D01*
X135380199Y-95316974D01*
X135343744Y-95336215D01*
X135311834Y-95362166D01*
X135285125Y-95395322D01*
X135263437Y-95436794D01*
X135248441Y-95481644D01*
X135239210Y-95530450D01*
X135236033Y-95583828D01*
X135239438Y-95642657D01*
X135249182Y-95694717D01*
X135264756Y-95740925D01*
X135287388Y-95783568D01*
X135315446Y-95818104D01*
X135349166Y-95845559D01*
X135387667Y-95866104D01*
X135429470Y-95879228D01*
X135475342Y-95884931D01*
X135483011Y-95783277D01*
X135434498Y-95772824D01*
X135396908Y-95754205D01*
X135367973Y-95727785D01*
X135347534Y-95694065D01*
X135334058Y-95648682D01*
X135329041Y-95588176D01*
X135333778Y-95524681D01*
X135346165Y-95479466D01*
X135364309Y-95447980D01*
X135390224Y-95422984D01*
X135418210Y-95408763D01*
X135449355Y-95404017D01*
X135476753Y-95407564D01*
X135500111Y-95417853D01*
X135520429Y-95435182D01*
X135535469Y-95458642D01*
X135554381Y-95507363D01*
X135577582Y-95595015D01*
X135607843Y-95713709D01*
X135628678Y-95772335D01*
X135653295Y-95816676D01*
X135680562Y-95850548D01*
X135710450Y-95875601D01*
X135744756Y-95893991D01*
X135782473Y-95905136D01*
X135824463Y-95908964D01*
X135866072Y-95904940D01*
X135906047Y-95892871D01*
X135945070Y-95872328D01*
X135979480Y-95844881D01*
X136008753Y-95810164D01*
X136033095Y-95767157D01*
X136050270Y-95720488D01*
X136060853Y-95669274D01*
X136064505Y-95612747D01*
X136060570Y-95540656D01*
X136049616Y-95480521D01*
X136032655Y-95430493D01*
X136007517Y-95384578D01*
X135975696Y-95346441D01*
X135936766Y-95315210D01*
X135892505Y-95291857D01*
X135844526Y-95277187D01*
X135791930Y-95271197D01*
G37*
G36*
X136052000Y-96257548D02*
G01*
X135341546Y-96257548D01*
X135341546Y-95993570D01*
X135248538Y-95993570D01*
X135248538Y-96628601D01*
X135341546Y-96628601D01*
X135341546Y-96363549D01*
X136052000Y-96363549D01*
X136052000Y-96257548D01*
G37*
G36*
X135735461Y-105798739D02*
G01*
X135642453Y-105798739D01*
X135641916Y-106138139D01*
X135939452Y-106138139D01*
X135978216Y-106084409D01*
X136009241Y-106030735D01*
X136033095Y-105976889D01*
X136050595Y-105920835D01*
X136061024Y-105864138D01*
X136064505Y-105806408D01*
X136058714Y-105728963D01*
X136041784Y-105657814D01*
X136013946Y-105591865D01*
X135985601Y-105546261D01*
X135952013Y-105507132D01*
X135912918Y-105473899D01*
X135867792Y-105446247D01*
X135802447Y-105419210D01*
X135731578Y-105402714D01*
X135654079Y-105397057D01*
X135577248Y-105402578D01*
X135504765Y-105418885D01*
X135435775Y-105445954D01*
X135387443Y-105473723D01*
X135346723Y-105506299D01*
X135312816Y-105543815D01*
X135285224Y-105586687D01*
X135258351Y-105649607D01*
X135241778Y-105719655D01*
X135236033Y-105798201D01*
X135239297Y-105855603D01*
X135248745Y-105907742D01*
X135264023Y-105955298D01*
X135285851Y-105999969D01*
X135311860Y-106036299D01*
X135342034Y-106065403D01*
X135377017Y-106088923D01*
X135420023Y-106109281D01*
X135472411Y-106126122D01*
X135498643Y-106030476D01*
X135441849Y-106009158D01*
X135402753Y-105985633D01*
X135381693Y-105965967D01*
X135363070Y-105940772D01*
X135346919Y-105909136D01*
X135331318Y-105857467D01*
X135325914Y-105798739D01*
X135328587Y-105750641D01*
X135336153Y-105709049D01*
X135348092Y-105673051D01*
X135374370Y-105624279D01*
X135406417Y-105587517D01*
X135444470Y-105558527D01*
X135485747Y-105536959D01*
X135536212Y-105520123D01*
X135589860Y-105509873D01*
X135647240Y-105506380D01*
X135718075Y-105510898D01*
X135777314Y-105523528D01*
X135826856Y-105543261D01*
X135871234Y-105571862D01*
X135906684Y-105607424D01*
X135934128Y-105650630D01*
X135953600Y-105698666D01*
X135965238Y-105748397D01*
X135969152Y-105800400D01*
X135966233Y-105845787D01*
X135957473Y-105890466D01*
X135942725Y-105934782D01*
X135913733Y-105995379D01*
X135886305Y-106034286D01*
X135735461Y-106034286D01*
X135735461Y-105798739D01*
G37*
G36*
X136052000Y-106293428D02*
G01*
X135248538Y-106293428D01*
X135248538Y-106402214D01*
X135879369Y-106822995D01*
X135248538Y-106822995D01*
X135248538Y-106924649D01*
X136052000Y-106924649D01*
X136052000Y-106815912D01*
X135420632Y-106395082D01*
X136052000Y-106395082D01*
X136052000Y-106293428D01*
G37*
G36*
X136052000Y-107391788D02*
G01*
X136048369Y-107462249D01*
X136038322Y-107520455D01*
X136020898Y-107573527D01*
X135998022Y-107616101D01*
X135967332Y-107653320D01*
X135925140Y-107689032D01*
X135874679Y-107718465D01*
X135808147Y-107743693D01*
X135760534Y-107755209D01*
X135706706Y-107762487D01*
X135645872Y-107765040D01*
X135574773Y-107761316D01*
X135511430Y-107750640D01*
X135454875Y-107733582D01*
X135401778Y-107708692D01*
X135356316Y-107677167D01*
X135317610Y-107638815D01*
X135293008Y-107604652D01*
X135273816Y-107565713D01*
X135260066Y-107521286D01*
X135251891Y-107466572D01*
X135248538Y-107378648D01*
X135248538Y-107377036D01*
X135341546Y-107377036D01*
X135343885Y-107440761D01*
X135349855Y-107484917D01*
X135358106Y-107514203D01*
X135377656Y-107550332D01*
X135407442Y-107583627D01*
X135449355Y-107614440D01*
X135483475Y-107631131D01*
X135526137Y-107644085D01*
X135579062Y-107652611D01*
X135644212Y-107655717D01*
X135705134Y-107653119D01*
X135756616Y-107645868D01*
X135799941Y-107634663D01*
X135841383Y-107618067D01*
X135875109Y-107598431D01*
X135902230Y-107575947D01*
X135925622Y-107545606D01*
X135944142Y-107504091D01*
X135954759Y-107454639D01*
X135958992Y-107379771D01*
X135958992Y-107208704D01*
X135341546Y-107208704D01*
X135341546Y-107377036D01*
X135248538Y-107377036D01*
X135248538Y-107102702D01*
X136052000Y-107102702D01*
X136052000Y-107391788D01*
G37*
G36*
X138592000Y-94716773D02*
G01*
X137788538Y-94406389D01*
X137788538Y-94521134D01*
X138372425Y-94729376D01*
X138504023Y-94771435D01*
X138372425Y-94814617D01*
X137788538Y-95031016D01*
X137788538Y-95139215D01*
X138592000Y-94825559D01*
X138592000Y-94716773D01*
G37*
G36*
X138310632Y-95805852D02*
G01*
X138337401Y-95911853D01*
X138401210Y-95890822D01*
X138454709Y-95863686D01*
X138499322Y-95830743D01*
X138536117Y-95791881D01*
X138565603Y-95746978D01*
X138586858Y-95697325D01*
X138599963Y-95642065D01*
X138604505Y-95580123D01*
X138600793Y-95514795D01*
X138590321Y-95458768D01*
X138573847Y-95410698D01*
X138551797Y-95369439D01*
X138522986Y-95331870D01*
X138488331Y-95298891D01*
X138447281Y-95270255D01*
X138399048Y-95245950D01*
X138331239Y-95222561D01*
X138259878Y-95208401D01*
X138184260Y-95203598D01*
X138101952Y-95209256D01*
X138029702Y-95225444D01*
X137965956Y-95251421D01*
X137921630Y-95278233D01*
X137883612Y-95309694D01*
X137851316Y-95345984D01*
X137824393Y-95387513D01*
X137797660Y-95447939D01*
X137781523Y-95512369D01*
X137776033Y-95581783D01*
X137780124Y-95641567D01*
X137791875Y-95694533D01*
X137810806Y-95741718D01*
X137836849Y-95783968D01*
X137869748Y-95821299D01*
X137908696Y-95852652D01*
X137954378Y-95878303D01*
X138007771Y-95898176D01*
X138032390Y-95793835D01*
X137976814Y-95771005D01*
X137935455Y-95743932D01*
X137905628Y-95712942D01*
X137884079Y-95675763D01*
X137870657Y-95631854D01*
X137865914Y-95579585D01*
X137871209Y-95519406D01*
X137886220Y-95468525D01*
X137910318Y-95425175D01*
X137943189Y-95388014D01*
X137982581Y-95359126D01*
X138029459Y-95338029D01*
X138079825Y-95324082D01*
X138131133Y-95315722D01*
X138183674Y-95312921D01*
X138251548Y-95316490D01*
X138310813Y-95326629D01*
X138362607Y-95342670D01*
X138410216Y-95366827D01*
X138447821Y-95397590D01*
X138476815Y-95435287D01*
X138497869Y-95478480D01*
X138510403Y-95523605D01*
X138514623Y-95571379D01*
X138511235Y-95615335D01*
X138501436Y-95654632D01*
X138485483Y-95690057D01*
X138463235Y-95722223D01*
X138435731Y-95749523D01*
X138401841Y-95772628D01*
X138360570Y-95791523D01*
X138310632Y-95805852D01*
G37*
G36*
X138310632Y-96614003D02*
G01*
X138337401Y-96720004D01*
X138401210Y-96698973D01*
X138454709Y-96671836D01*
X138499322Y-96638894D01*
X138536117Y-96600032D01*
X138565603Y-96555129D01*
X138586858Y-96505476D01*
X138599963Y-96450216D01*
X138604505Y-96388273D01*
X138600793Y-96322946D01*
X138590321Y-96266918D01*
X138573847Y-96218849D01*
X138551797Y-96177589D01*
X138522986Y-96140021D01*
X138488331Y-96107041D01*
X138447281Y-96078405D01*
X138399048Y-96054100D01*
X138331239Y-96030712D01*
X138259878Y-96016552D01*
X138184260Y-96011749D01*
X138101952Y-96017407D01*
X138029702Y-96033595D01*
X137965956Y-96059571D01*
X137921630Y-96086384D01*
X137883612Y-96117845D01*
X137851316Y-96154135D01*
X137824393Y-96195663D01*
X137797660Y-96256090D01*
X137781523Y-96320519D01*
X137776033Y-96389934D01*
X137780124Y-96449718D01*
X137791875Y-96502683D01*
X137810806Y-96549868D01*
X137836849Y-96592118D01*
X137869748Y-96629449D01*
X137908696Y-96660803D01*
X137954378Y-96686454D01*
X138007771Y-96706326D01*
X138032390Y-96601986D01*
X137976814Y-96579155D01*
X137935455Y-96552083D01*
X137905628Y-96521093D01*
X137884079Y-96483914D01*
X137870657Y-96440005D01*
X137865914Y-96387736D01*
X137871209Y-96327557D01*
X137886220Y-96276676D01*
X137910318Y-96233326D01*
X137943189Y-96196165D01*
X137982581Y-96167277D01*
X138029459Y-96146180D01*
X138079825Y-96132233D01*
X138131133Y-96123873D01*
X138183674Y-96121072D01*
X138251548Y-96124641D01*
X138310813Y-96134780D01*
X138362607Y-96150820D01*
X138410216Y-96174977D01*
X138447821Y-96205741D01*
X138476815Y-96243437D01*
X138497869Y-96286631D01*
X138510403Y-96331755D01*
X138514623Y-96379529D01*
X138511235Y-96423486D01*
X138501436Y-96462783D01*
X138485483Y-96498208D01*
X138463235Y-96530374D01*
X138435731Y-96557673D01*
X138401841Y-96580779D01*
X138360570Y-96599674D01*
X138310632Y-96614003D01*
G37*
G36*
X138275461Y-105798739D02*
G01*
X138182453Y-105798739D01*
X138181916Y-106138139D01*
X138479452Y-106138139D01*
X138518216Y-106084409D01*
X138549241Y-106030735D01*
X138573095Y-105976889D01*
X138590595Y-105920835D01*
X138601024Y-105864138D01*
X138604505Y-105806408D01*
X138598714Y-105728963D01*
X138581784Y-105657814D01*
X138553946Y-105591865D01*
X138525601Y-105546261D01*
X138492013Y-105507132D01*
X138452918Y-105473899D01*
X138407792Y-105446247D01*
X138342447Y-105419210D01*
X138271578Y-105402714D01*
X138194079Y-105397057D01*
X138117248Y-105402578D01*
X138044765Y-105418885D01*
X137975775Y-105445954D01*
X137927443Y-105473723D01*
X137886723Y-105506299D01*
X137852816Y-105543815D01*
X137825224Y-105586687D01*
X137798351Y-105649607D01*
X137781778Y-105719655D01*
X137776033Y-105798201D01*
X137779297Y-105855603D01*
X137788745Y-105907742D01*
X137804023Y-105955298D01*
X137825851Y-105999969D01*
X137851860Y-106036299D01*
X137882034Y-106065403D01*
X137917017Y-106088923D01*
X137960023Y-106109281D01*
X138012411Y-106126122D01*
X138038643Y-106030476D01*
X137981849Y-106009158D01*
X137942753Y-105985633D01*
X137921693Y-105965967D01*
X137903070Y-105940772D01*
X137886919Y-105909136D01*
X137871318Y-105857467D01*
X137865914Y-105798739D01*
X137868587Y-105750641D01*
X137876153Y-105709049D01*
X137888092Y-105673051D01*
X137914370Y-105624279D01*
X137946417Y-105587517D01*
X137984470Y-105558527D01*
X138025747Y-105536959D01*
X138076212Y-105520123D01*
X138129860Y-105509873D01*
X138187240Y-105506380D01*
X138258075Y-105510898D01*
X138317314Y-105523528D01*
X138366856Y-105543261D01*
X138411234Y-105571862D01*
X138446684Y-105607424D01*
X138474128Y-105650630D01*
X138493600Y-105698666D01*
X138505238Y-105748397D01*
X138509152Y-105800400D01*
X138506233Y-105845787D01*
X138497473Y-105890466D01*
X138482725Y-105934782D01*
X138453733Y-105995379D01*
X138426305Y-106034286D01*
X138275461Y-106034286D01*
X138275461Y-105798739D01*
G37*
G36*
X138592000Y-106293428D02*
G01*
X137788538Y-106293428D01*
X137788538Y-106402214D01*
X138419369Y-106822995D01*
X137788538Y-106822995D01*
X137788538Y-106924649D01*
X138592000Y-106924649D01*
X138592000Y-106815912D01*
X137960632Y-106395082D01*
X138592000Y-106395082D01*
X138592000Y-106293428D01*
G37*
G36*
X138592000Y-107391788D02*
G01*
X138588369Y-107462249D01*
X138578322Y-107520455D01*
X138560898Y-107573527D01*
X138538022Y-107616101D01*
X138507332Y-107653320D01*
X138465140Y-107689032D01*
X138414679Y-107718465D01*
X138348147Y-107743693D01*
X138300534Y-107755209D01*
X138246706Y-107762487D01*
X138185872Y-107765040D01*
X138114773Y-107761316D01*
X138051430Y-107750640D01*
X137994875Y-107733582D01*
X137941778Y-107708692D01*
X137896316Y-107677167D01*
X137857610Y-107638815D01*
X137833008Y-107604652D01*
X137813816Y-107565713D01*
X137800066Y-107521286D01*
X137791891Y-107466572D01*
X137788538Y-107378648D01*
X137788538Y-107377036D01*
X137881546Y-107377036D01*
X137883885Y-107440761D01*
X137889855Y-107484917D01*
X137898106Y-107514203D01*
X137917656Y-107550332D01*
X137947442Y-107583627D01*
X137989355Y-107614440D01*
X138023475Y-107631131D01*
X138066137Y-107644085D01*
X138119062Y-107652611D01*
X138184212Y-107655717D01*
X138245134Y-107653119D01*
X138296616Y-107645868D01*
X138339941Y-107634663D01*
X138381383Y-107618067D01*
X138415109Y-107598431D01*
X138442230Y-107575947D01*
X138465622Y-107545606D01*
X138484142Y-107504091D01*
X138494759Y-107454639D01*
X138498992Y-107379771D01*
X138498992Y-107208704D01*
X137881546Y-107208704D01*
X137881546Y-107377036D01*
X137788538Y-107377036D01*
X137788538Y-107102702D01*
X138592000Y-107102702D01*
X138592000Y-107391788D01*
G37*
G36*
X140831055Y-94700116D02*
G01*
X140908946Y-94711239D01*
X140971699Y-94728085D01*
X141021782Y-94749643D01*
X141061316Y-94775293D01*
X141097583Y-94811310D01*
X141123228Y-94852825D01*
X141138989Y-94900930D01*
X141144505Y-94957303D01*
X141138898Y-95014266D01*
X141122967Y-95062188D01*
X141097170Y-95102920D01*
X141062498Y-95137154D01*
X141018382Y-95166070D01*
X140963130Y-95189529D01*
X140904503Y-95204630D01*
X140829629Y-95214758D01*
X140735251Y-95218496D01*
X140622097Y-95213384D01*
X140545670Y-95200471D01*
X140479006Y-95178325D01*
X140426382Y-95150743D01*
X140395957Y-95127436D01*
X140371125Y-95100740D01*
X140351399Y-95070387D01*
X140337239Y-95037076D01*
X140328465Y-94999642D01*
X140325412Y-94957303D01*
X140325523Y-94956179D01*
X140407478Y-94956179D01*
X140411421Y-94988741D01*
X140423088Y-95018245D01*
X140442962Y-95045578D01*
X140472446Y-95071218D01*
X140504897Y-95088325D01*
X140555153Y-95102914D01*
X140629418Y-95113363D01*
X140734958Y-95117428D01*
X140839800Y-95113379D01*
X140913854Y-95102953D01*
X140964211Y-95088365D01*
X140996933Y-95071218D01*
X141026773Y-95045535D01*
X141046796Y-95018366D01*
X141058497Y-94989245D01*
X141062439Y-94957303D01*
X141058509Y-94925318D01*
X141046849Y-94896174D01*
X141026912Y-94869003D01*
X140997226Y-94843339D01*
X140964643Y-94826231D01*
X140914335Y-94811658D01*
X140840167Y-94801231D01*
X140734958Y-94797177D01*
X140630717Y-94801484D01*
X140554879Y-94812721D01*
X140501321Y-94828735D01*
X140464777Y-94847980D01*
X140439246Y-94870421D01*
X140421670Y-94895504D01*
X140411115Y-94923771D01*
X140407478Y-94956179D01*
X140325523Y-94956179D01*
X140330980Y-94900684D01*
X140346823Y-94852909D01*
X140372502Y-94812174D01*
X140406991Y-94777929D01*
X140451003Y-94748915D01*
X140506249Y-94725272D01*
X140564866Y-94710062D01*
X140640073Y-94699840D01*
X140735251Y-94696060D01*
X140831055Y-94700116D01*
G37*
G36*
X140919997Y-95318733D02*
G01*
X140906905Y-95417114D01*
X140960415Y-95432400D01*
X140999017Y-95451857D01*
X141025998Y-95474756D01*
X141046137Y-95503683D01*
X141058256Y-95536383D01*
X141062439Y-95573967D01*
X141057006Y-95618259D01*
X141041171Y-95656850D01*
X141014519Y-95691155D01*
X140980071Y-95717682D01*
X140940963Y-95733521D01*
X140895719Y-95738977D01*
X140852530Y-95733864D01*
X140815894Y-95719149D01*
X140784295Y-95694721D01*
X140760121Y-95662895D01*
X140745514Y-95625890D01*
X140740429Y-95582174D01*
X140742862Y-95552840D01*
X140751371Y-95512760D01*
X140665056Y-95523653D01*
X140666180Y-95539529D01*
X140662465Y-95580430D01*
X140651566Y-95617876D01*
X140633451Y-95652613D01*
X140615048Y-95674445D01*
X140592689Y-95689910D01*
X140565597Y-95699515D01*
X140532481Y-95702927D01*
X140497985Y-95698724D01*
X140468538Y-95686577D01*
X140442942Y-95666291D01*
X140423500Y-95640007D01*
X140411638Y-95608953D01*
X140407478Y-95571769D01*
X140411619Y-95534920D01*
X140423536Y-95503440D01*
X140443235Y-95476123D01*
X140469412Y-95454672D01*
X140504419Y-95438079D01*
X140550506Y-95426933D01*
X140533018Y-95328601D01*
X140484535Y-95341105D01*
X140443514Y-95359056D01*
X140408865Y-95382176D01*
X140379780Y-95410569D01*
X140356320Y-95443914D01*
X140339439Y-95481029D01*
X140329027Y-95522614D01*
X140325412Y-95569571D01*
X140328620Y-95612616D01*
X140338051Y-95652700D01*
X140353646Y-95690373D01*
X140375124Y-95724818D01*
X140400689Y-95752712D01*
X140430583Y-95774783D01*
X140464050Y-95791154D01*
X140498379Y-95800816D01*
X140534093Y-95804044D01*
X140567946Y-95800906D01*
X140599337Y-95791645D01*
X140628859Y-95776151D01*
X140654765Y-95755218D01*
X140677373Y-95728043D01*
X140696759Y-95693646D01*
X140712041Y-95738443D01*
X140734657Y-95774761D01*
X140764756Y-95803995D01*
X140800979Y-95825408D01*
X140843500Y-95838689D01*
X140893863Y-95843367D01*
X140944706Y-95838502D01*
X140990623Y-95824283D01*
X141032683Y-95800678D01*
X141071623Y-95766870D01*
X141103225Y-95726542D01*
X141125805Y-95681523D01*
X141139686Y-95630897D01*
X141144505Y-95573430D01*
X141140349Y-95521406D01*
X141128390Y-95475538D01*
X141108993Y-95434759D01*
X141081979Y-95398259D01*
X141048549Y-95367274D01*
X141010899Y-95343883D01*
X140968366Y-95327667D01*
X140919997Y-95318733D01*
G37*
G36*
X141132000Y-96310848D02*
G01*
X141132000Y-96212467D01*
X140503514Y-96212467D01*
X140536085Y-96173319D01*
X140571462Y-96119312D01*
X140602215Y-96062477D01*
X140622411Y-96015753D01*
X140528622Y-96015753D01*
X140500157Y-96069259D01*
X140468497Y-96117198D01*
X140433660Y-96160003D01*
X140394523Y-96199275D01*
X140358594Y-96227837D01*
X140325412Y-96247442D01*
X140325412Y-96310848D01*
X141132000Y-96310848D01*
G37*
G36*
X140831055Y-105774497D02*
G01*
X140908946Y-105785620D01*
X140971699Y-105802466D01*
X141021782Y-105824024D01*
X141061316Y-105849674D01*
X141097583Y-105885691D01*
X141123228Y-105927206D01*
X141138989Y-105975311D01*
X141144505Y-106031684D01*
X141138898Y-106088647D01*
X141122967Y-106136569D01*
X141097170Y-106177301D01*
X141062498Y-106211535D01*
X141018382Y-106240451D01*
X140963130Y-106263910D01*
X140904503Y-106279011D01*
X140829629Y-106289139D01*
X140735251Y-106292877D01*
X140622097Y-106287765D01*
X140545670Y-106274852D01*
X140479006Y-106252706D01*
X140426382Y-106225124D01*
X140395957Y-106201817D01*
X140371125Y-106175121D01*
X140351399Y-106144768D01*
X140337239Y-106111457D01*
X140328465Y-106074023D01*
X140325412Y-106031684D01*
X140325523Y-106030560D01*
X140407478Y-106030560D01*
X140411421Y-106063122D01*
X140423088Y-106092626D01*
X140442962Y-106119959D01*
X140472446Y-106145599D01*
X140504897Y-106162706D01*
X140555153Y-106177295D01*
X140629418Y-106187744D01*
X140734958Y-106191809D01*
X140839800Y-106187760D01*
X140913854Y-106177334D01*
X140964211Y-106162746D01*
X140996933Y-106145599D01*
X141026773Y-106119916D01*
X141046796Y-106092747D01*
X141058497Y-106063626D01*
X141062439Y-106031684D01*
X141058509Y-105999699D01*
X141046849Y-105970555D01*
X141026912Y-105943384D01*
X140997226Y-105917720D01*
X140964643Y-105900612D01*
X140914335Y-105886039D01*
X140840167Y-105875612D01*
X140734958Y-105871558D01*
X140630717Y-105875865D01*
X140554879Y-105887102D01*
X140501321Y-105903116D01*
X140464777Y-105922361D01*
X140439246Y-105944802D01*
X140421670Y-105969885D01*
X140411115Y-105998152D01*
X140407478Y-106030560D01*
X140325523Y-106030560D01*
X140330980Y-105975065D01*
X140346823Y-105927290D01*
X140372502Y-105886555D01*
X140406991Y-105852310D01*
X140451003Y-105823296D01*
X140506249Y-105799653D01*
X140564866Y-105784443D01*
X140640073Y-105774221D01*
X140735251Y-105770441D01*
X140831055Y-105774497D01*
G37*
G36*
X141132000Y-106763093D02*
G01*
X141132000Y-106664712D01*
X140503514Y-106664712D01*
X140536085Y-106625564D01*
X140571462Y-106571558D01*
X140602215Y-106514722D01*
X140622411Y-106467999D01*
X140528622Y-106467999D01*
X140500157Y-106521505D01*
X140468497Y-106569443D01*
X140433660Y-106612249D01*
X140394523Y-106651520D01*
X140358594Y-106680082D01*
X140325412Y-106699688D01*
X140325412Y-106763093D01*
X141132000Y-106763093D01*
G37*
G36*
X140430925Y-107021258D02*
G01*
X140337917Y-107021258D01*
X140337917Y-107539883D01*
X140414414Y-107539883D01*
X140471181Y-107491911D01*
X140542880Y-107441399D01*
X140631839Y-107388208D01*
X140723719Y-107341628D01*
X140816603Y-107303007D01*
X140910715Y-107272095D01*
X140978625Y-107255126D01*
X141052222Y-107242460D01*
X141132000Y-107234384D01*
X141132000Y-107133317D01*
X141068924Y-107137601D01*
X140992928Y-107149456D01*
X140901972Y-107170441D01*
X140813345Y-107197510D01*
X140726747Y-107231443D01*
X140641951Y-107272388D01*
X140559982Y-107319372D01*
X140490050Y-107366482D01*
X140430925Y-107413659D01*
X140430925Y-107021258D01*
G37*
G36*
X143371055Y-94700116D02*
G01*
X143448946Y-94711239D01*
X143511699Y-94728085D01*
X143561782Y-94749643D01*
X143601316Y-94775293D01*
X143637583Y-94811310D01*
X143663228Y-94852825D01*
X143678989Y-94900930D01*
X143684505Y-94957303D01*
X143678898Y-95014266D01*
X143662967Y-95062188D01*
X143637170Y-95102920D01*
X143602498Y-95137154D01*
X143558382Y-95166070D01*
X143503130Y-95189529D01*
X143444503Y-95204630D01*
X143369629Y-95214758D01*
X143275251Y-95218496D01*
X143162097Y-95213384D01*
X143085670Y-95200471D01*
X143019006Y-95178325D01*
X142966382Y-95150743D01*
X142935957Y-95127436D01*
X142911125Y-95100740D01*
X142891399Y-95070387D01*
X142877239Y-95037076D01*
X142868465Y-94999642D01*
X142865412Y-94957303D01*
X142865523Y-94956179D01*
X142947478Y-94956179D01*
X142951421Y-94988741D01*
X142963088Y-95018245D01*
X142982962Y-95045578D01*
X143012446Y-95071218D01*
X143044897Y-95088325D01*
X143095153Y-95102914D01*
X143169418Y-95113363D01*
X143274958Y-95117428D01*
X143379800Y-95113379D01*
X143453854Y-95102953D01*
X143504211Y-95088365D01*
X143536933Y-95071218D01*
X143566773Y-95045535D01*
X143586796Y-95018366D01*
X143598497Y-94989245D01*
X143602439Y-94957303D01*
X143598509Y-94925318D01*
X143586849Y-94896174D01*
X143566912Y-94869003D01*
X143537226Y-94843339D01*
X143504643Y-94826231D01*
X143454335Y-94811658D01*
X143380167Y-94801231D01*
X143274958Y-94797177D01*
X143170717Y-94801484D01*
X143094879Y-94812721D01*
X143041321Y-94828735D01*
X143004777Y-94847980D01*
X142979246Y-94870421D01*
X142961670Y-94895504D01*
X142951115Y-94923771D01*
X142947478Y-94956179D01*
X142865523Y-94956179D01*
X142870980Y-94900684D01*
X142886823Y-94852909D01*
X142912502Y-94812174D01*
X142946991Y-94777929D01*
X142991003Y-94748915D01*
X143046249Y-94725272D01*
X143104866Y-94710062D01*
X143180073Y-94699840D01*
X143275251Y-94696060D01*
X143371055Y-94700116D01*
G37*
G36*
X143578992Y-95835160D02*
G01*
X143672000Y-95835160D01*
X143672000Y-95305642D01*
X143637171Y-95307958D01*
X143603807Y-95317121D01*
X143551408Y-95342701D01*
X143497464Y-95381846D01*
X143444561Y-95432541D01*
X143376368Y-95510562D01*
X143301586Y-95597005D01*
X143246111Y-95653322D01*
X143205886Y-95687051D01*
X143162249Y-95713785D01*
X143122993Y-95728395D01*
X143086940Y-95732969D01*
X143049563Y-95728250D01*
X143016946Y-95714463D01*
X142987875Y-95691155D01*
X142965784Y-95661135D01*
X142952245Y-95625351D01*
X142947478Y-95582174D01*
X142952575Y-95536571D01*
X142966982Y-95499283D01*
X142990415Y-95468454D01*
X143021468Y-95445381D01*
X143060344Y-95430802D01*
X143109264Y-95425321D01*
X143098810Y-95324204D01*
X143042461Y-95333684D01*
X142995748Y-95350165D01*
X142957049Y-95373057D01*
X142925154Y-95402362D01*
X142899849Y-95437680D01*
X142881269Y-95478975D01*
X142869557Y-95527378D01*
X142865412Y-95584323D01*
X142869850Y-95641607D01*
X142882395Y-95690169D01*
X142902357Y-95731535D01*
X142929697Y-95766870D01*
X142963957Y-95796430D01*
X143001403Y-95817187D01*
X143042731Y-95829762D01*
X143088943Y-95834086D01*
X143136575Y-95829221D01*
X143183953Y-95814400D01*
X143229907Y-95789534D01*
X143282286Y-95749089D01*
X143337457Y-95694795D01*
X143423946Y-95597463D01*
X143493445Y-95517241D01*
X143525405Y-95483744D01*
X143552621Y-95460429D01*
X143578992Y-95442271D01*
X143578992Y-95835160D01*
G37*
G36*
X143193455Y-95944998D02*
G01*
X143243584Y-95958292D01*
X143287053Y-95979645D01*
X143324930Y-96009159D01*
X143356694Y-96045912D01*
X143378903Y-96085697D01*
X143392297Y-96129218D01*
X143396884Y-96177491D01*
X143393615Y-96216448D01*
X143383927Y-96253163D01*
X143367722Y-96288182D01*
X143345997Y-96320196D01*
X143320684Y-96346899D01*
X143291567Y-96368782D01*
X143311302Y-96369319D01*
X143372207Y-96365626D01*
X143431958Y-96354567D01*
X143487509Y-96337070D01*
X143525991Y-96317931D01*
X143557379Y-96292929D01*
X143581630Y-96261950D01*
X143597071Y-96225624D01*
X143602439Y-96182425D01*
X143598871Y-96148238D01*
X143588732Y-96119669D01*
X143572251Y-96095523D01*
X143549881Y-96076568D01*
X143518334Y-96061055D01*
X143475042Y-96049606D01*
X143483884Y-95955084D01*
X143530779Y-95964603D01*
X143570366Y-95979865D01*
X143603788Y-96000519D01*
X143631895Y-96026647D01*
X143654440Y-96057782D01*
X143670780Y-96093191D01*
X143680946Y-96133664D01*
X143684505Y-96180227D01*
X143679026Y-96237716D01*
X143663129Y-96288744D01*
X143636926Y-96334637D01*
X143601438Y-96373947D01*
X143555785Y-96406997D01*
X143498196Y-96433799D01*
X143436440Y-96451123D01*
X143356166Y-96462818D01*
X143253367Y-96467163D01*
X143154411Y-96462647D01*
X143080934Y-96450751D01*
X143027638Y-96433555D01*
X142978819Y-96407133D01*
X142939173Y-96374439D01*
X142907568Y-96335174D01*
X142884126Y-96290451D01*
X142870142Y-96243101D01*
X142866534Y-96204309D01*
X142947478Y-96204309D01*
X142952942Y-96244400D01*
X142969119Y-96280117D01*
X142996961Y-96312753D01*
X143032414Y-96337104D01*
X143076230Y-96352370D01*
X143130709Y-96357840D01*
X143185239Y-96352440D01*
X143228351Y-96337485D01*
X143262551Y-96313827D01*
X143288925Y-96281911D01*
X143304678Y-96245019D01*
X143310129Y-96201573D01*
X143304738Y-96158379D01*
X143289028Y-96120864D01*
X143262551Y-96087610D01*
X143228352Y-96062339D01*
X143187732Y-96046882D01*
X143138866Y-96041448D01*
X143084210Y-96047209D01*
X143038842Y-96063541D01*
X143000771Y-96090052D01*
X142970621Y-96125205D01*
X142953281Y-96162858D01*
X142947478Y-96204309D01*
X142866534Y-96204309D01*
X142865412Y-96192243D01*
X142870225Y-96139469D01*
X142884175Y-96092585D01*
X142907093Y-96050431D01*
X142939564Y-96012187D01*
X142978630Y-95981351D01*
X143023468Y-95959065D01*
X143075183Y-95945198D01*
X143135251Y-95940331D01*
X143193455Y-95944998D01*
G37*
G36*
X143441055Y-105774497D02*
G01*
X143518946Y-105785620D01*
X143581699Y-105802466D01*
X143631782Y-105824024D01*
X143671316Y-105849674D01*
X143707583Y-105885691D01*
X143733228Y-105927206D01*
X143748989Y-105975311D01*
X143754505Y-106031684D01*
X143748898Y-106088647D01*
X143732967Y-106136569D01*
X143707170Y-106177301D01*
X143672498Y-106211535D01*
X143628382Y-106240451D01*
X143573130Y-106263910D01*
X143514503Y-106279011D01*
X143439629Y-106289139D01*
X143345251Y-106292877D01*
X143232097Y-106287765D01*
X143155670Y-106274852D01*
X143089006Y-106252706D01*
X143036382Y-106225124D01*
X143005957Y-106201817D01*
X142981125Y-106175121D01*
X142961399Y-106144768D01*
X142947239Y-106111457D01*
X142938465Y-106074023D01*
X142935412Y-106031684D01*
X142935523Y-106030560D01*
X143017478Y-106030560D01*
X143021421Y-106063122D01*
X143033088Y-106092626D01*
X143052962Y-106119959D01*
X143082446Y-106145599D01*
X143114897Y-106162706D01*
X143165153Y-106177295D01*
X143239418Y-106187744D01*
X143344958Y-106191809D01*
X143449800Y-106187760D01*
X143523854Y-106177334D01*
X143574211Y-106162746D01*
X143606933Y-106145599D01*
X143636773Y-106119916D01*
X143656796Y-106092747D01*
X143668497Y-106063626D01*
X143672439Y-106031684D01*
X143668509Y-105999699D01*
X143656849Y-105970555D01*
X143636912Y-105943384D01*
X143607226Y-105917720D01*
X143574643Y-105900612D01*
X143524335Y-105886039D01*
X143450167Y-105875612D01*
X143344958Y-105871558D01*
X143240717Y-105875865D01*
X143164879Y-105887102D01*
X143111321Y-105903116D01*
X143074777Y-105922361D01*
X143049246Y-105944802D01*
X143031670Y-105969885D01*
X143021115Y-105998152D01*
X143017478Y-106030560D01*
X142935523Y-106030560D01*
X142940980Y-105975065D01*
X142956823Y-105927290D01*
X142982502Y-105886555D01*
X143016991Y-105852310D01*
X143061003Y-105823296D01*
X143116249Y-105799653D01*
X143174866Y-105784443D01*
X143250073Y-105774221D01*
X143345251Y-105770441D01*
X143441055Y-105774497D01*
G37*
G36*
X143648992Y-106909541D02*
G01*
X143742000Y-106909541D01*
X143742000Y-106380023D01*
X143707171Y-106382339D01*
X143673807Y-106391502D01*
X143621408Y-106417082D01*
X143567464Y-106456227D01*
X143514561Y-106506922D01*
X143446368Y-106584943D01*
X143371586Y-106671386D01*
X143316111Y-106727703D01*
X143275886Y-106761432D01*
X143232249Y-106788166D01*
X143192993Y-106802776D01*
X143156940Y-106807350D01*
X143119563Y-106802631D01*
X143086946Y-106788844D01*
X143057875Y-106765536D01*
X143035784Y-106735516D01*
X143022245Y-106699732D01*
X143017478Y-106656555D01*
X143022575Y-106610952D01*
X143036982Y-106573664D01*
X143060415Y-106542835D01*
X143091468Y-106519762D01*
X143130344Y-106505183D01*
X143179264Y-106499702D01*
X143168810Y-106398585D01*
X143112461Y-106408065D01*
X143065748Y-106424546D01*
X143027049Y-106447438D01*
X142995154Y-106476743D01*
X142969849Y-106512061D01*
X142951269Y-106553356D01*
X142939557Y-106601759D01*
X142935412Y-106658704D01*
X142939850Y-106715988D01*
X142952395Y-106764550D01*
X142972357Y-106805916D01*
X142999697Y-106841251D01*
X143033957Y-106870811D01*
X143071403Y-106891568D01*
X143112731Y-106904143D01*
X143158943Y-106908467D01*
X143206575Y-106903602D01*
X143253953Y-106888781D01*
X143299907Y-106863915D01*
X143352286Y-106823470D01*
X143407457Y-106769176D01*
X143493946Y-106671844D01*
X143563445Y-106591622D01*
X143595405Y-106558125D01*
X143622621Y-106534810D01*
X143648992Y-106516652D01*
X143648992Y-106909541D01*
G37*
G36*
X143441055Y-107018768D02*
G01*
X143518946Y-107029891D01*
X143581699Y-107046737D01*
X143631782Y-107068295D01*
X143671316Y-107093945D01*
X143707583Y-107129962D01*
X143733228Y-107171477D01*
X143748989Y-107219582D01*
X143754505Y-107275954D01*
X143748898Y-107332917D01*
X143732967Y-107380840D01*
X143707170Y-107421572D01*
X143672498Y-107455806D01*
X143628382Y-107484721D01*
X143573130Y-107508180D01*
X143514503Y-107523282D01*
X143439629Y-107533409D01*
X143345251Y-107537148D01*
X143232097Y-107532036D01*
X143155670Y-107519123D01*
X143089006Y-107496977D01*
X143036382Y-107469395D01*
X143005957Y-107446088D01*
X142981125Y-107419392D01*
X142961399Y-107389039D01*
X142947239Y-107355728D01*
X142938465Y-107318294D01*
X142935412Y-107275954D01*
X142935522Y-107274831D01*
X143017478Y-107274831D01*
X143021421Y-107307392D01*
X143033088Y-107336897D01*
X143052962Y-107364229D01*
X143082446Y-107389869D01*
X143114897Y-107406976D01*
X143165153Y-107421566D01*
X143239418Y-107432015D01*
X143344958Y-107436080D01*
X143449800Y-107432031D01*
X143523854Y-107421605D01*
X143574211Y-107407017D01*
X143606933Y-107389869D01*
X143636773Y-107364187D01*
X143656796Y-107337017D01*
X143668497Y-107307896D01*
X143672439Y-107275954D01*
X143668509Y-107243970D01*
X143656849Y-107214826D01*
X143636912Y-107187655D01*
X143607226Y-107161991D01*
X143574643Y-107144883D01*
X143524335Y-107130309D01*
X143450167Y-107119882D01*
X143344958Y-107115829D01*
X143240717Y-107120135D01*
X143164879Y-107131372D01*
X143111321Y-107147387D01*
X143074777Y-107166631D01*
X143049246Y-107189073D01*
X143031670Y-107214156D01*
X143021115Y-107242422D01*
X143017478Y-107274831D01*
X142935522Y-107274831D01*
X142940980Y-107219335D01*
X142956823Y-107171561D01*
X142982502Y-107130825D01*
X143016991Y-107096581D01*
X143061003Y-107067567D01*
X143116249Y-107043924D01*
X143174866Y-107028714D01*
X143250073Y-107018492D01*
X143345251Y-107014712D01*
X143441055Y-107018768D01*
G37*
G36*
X145911055Y-94700116D02*
G01*
X145988946Y-94711239D01*
X146051699Y-94728085D01*
X146101782Y-94749643D01*
X146141316Y-94775293D01*
X146177583Y-94811310D01*
X146203228Y-94852825D01*
X146218989Y-94900930D01*
X146224505Y-94957303D01*
X146218898Y-95014266D01*
X146202967Y-95062188D01*
X146177170Y-95102920D01*
X146142498Y-95137154D01*
X146098382Y-95166070D01*
X146043130Y-95189529D01*
X145984503Y-95204630D01*
X145909629Y-95214758D01*
X145815251Y-95218496D01*
X145702097Y-95213384D01*
X145625670Y-95200471D01*
X145559006Y-95178325D01*
X145506382Y-95150743D01*
X145475957Y-95127436D01*
X145451125Y-95100740D01*
X145431399Y-95070387D01*
X145417239Y-95037076D01*
X145408465Y-94999642D01*
X145405412Y-94957303D01*
X145405523Y-94956179D01*
X145487478Y-94956179D01*
X145491421Y-94988741D01*
X145503088Y-95018245D01*
X145522962Y-95045578D01*
X145552446Y-95071218D01*
X145584897Y-95088325D01*
X145635153Y-95102914D01*
X145709418Y-95113363D01*
X145814958Y-95117428D01*
X145919800Y-95113379D01*
X145993854Y-95102953D01*
X146044211Y-95088365D01*
X146076933Y-95071218D01*
X146106773Y-95045535D01*
X146126796Y-95018366D01*
X146138497Y-94989245D01*
X146142439Y-94957303D01*
X146138509Y-94925318D01*
X146126849Y-94896174D01*
X146106912Y-94869003D01*
X146077226Y-94843339D01*
X146044643Y-94826231D01*
X145994335Y-94811658D01*
X145920167Y-94801231D01*
X145814958Y-94797177D01*
X145710717Y-94801484D01*
X145634879Y-94812721D01*
X145581321Y-94828735D01*
X145544777Y-94847980D01*
X145519246Y-94870421D01*
X145501670Y-94895504D01*
X145491115Y-94923771D01*
X145487478Y-94956179D01*
X145405523Y-94956179D01*
X145410980Y-94900684D01*
X145426823Y-94852909D01*
X145452502Y-94812174D01*
X145486991Y-94777929D01*
X145531003Y-94748915D01*
X145586249Y-94725272D01*
X145644866Y-94710062D01*
X145720073Y-94699840D01*
X145815251Y-94696060D01*
X145911055Y-94700116D01*
G37*
G36*
X145911055Y-95322251D02*
G01*
X145988946Y-95333374D01*
X146051699Y-95350220D01*
X146101782Y-95371778D01*
X146141316Y-95397428D01*
X146177583Y-95433446D01*
X146203228Y-95474961D01*
X146218989Y-95523066D01*
X146224505Y-95579438D01*
X146218898Y-95636401D01*
X146202967Y-95684324D01*
X146177170Y-95725056D01*
X146142498Y-95759289D01*
X146098382Y-95788205D01*
X146043130Y-95811664D01*
X145984503Y-95826765D01*
X145909629Y-95836893D01*
X145815251Y-95840631D01*
X145702097Y-95835520D01*
X145625670Y-95822606D01*
X145559006Y-95800460D01*
X145506382Y-95772878D01*
X145475957Y-95749572D01*
X145451125Y-95722876D01*
X145431399Y-95692522D01*
X145417239Y-95659212D01*
X145408465Y-95621778D01*
X145405412Y-95579438D01*
X145405522Y-95578315D01*
X145487478Y-95578315D01*
X145491421Y-95610876D01*
X145503088Y-95640380D01*
X145522962Y-95667713D01*
X145552446Y-95693353D01*
X145584897Y-95710460D01*
X145635153Y-95725049D01*
X145709418Y-95735498D01*
X145814958Y-95739564D01*
X145919800Y-95735514D01*
X145993854Y-95725089D01*
X146044211Y-95710500D01*
X146076933Y-95693353D01*
X146106773Y-95667670D01*
X146126796Y-95640501D01*
X146138497Y-95611380D01*
X146142439Y-95579438D01*
X146138509Y-95547453D01*
X146126849Y-95518309D01*
X146106912Y-95491138D01*
X146077226Y-95465474D01*
X146044643Y-95448367D01*
X145994335Y-95433793D01*
X145920167Y-95423366D01*
X145814958Y-95419312D01*
X145710717Y-95423619D01*
X145634879Y-95434856D01*
X145581321Y-95450870D01*
X145544777Y-95470115D01*
X145519246Y-95492557D01*
X145501670Y-95517639D01*
X145491115Y-95545906D01*
X145487478Y-95578315D01*
X145405522Y-95578315D01*
X145410980Y-95522819D01*
X145426823Y-95475045D01*
X145452502Y-95434309D01*
X145486991Y-95400064D01*
X145531003Y-95371050D01*
X145586249Y-95347407D01*
X145644866Y-95332197D01*
X145720073Y-95321976D01*
X145815251Y-95318196D01*
X145911055Y-95322251D01*
G37*
G36*
X146118992Y-96457296D02*
G01*
X146212000Y-96457296D01*
X146212000Y-95927777D01*
X146177171Y-95930093D01*
X146143807Y-95939257D01*
X146091408Y-95964837D01*
X146037464Y-96003981D01*
X145984561Y-96054677D01*
X145916368Y-96132697D01*
X145841586Y-96219140D01*
X145786111Y-96275457D01*
X145745886Y-96309187D01*
X145702249Y-96335921D01*
X145662993Y-96350531D01*
X145626940Y-96355104D01*
X145589563Y-96350386D01*
X145556946Y-96336599D01*
X145527875Y-96313290D01*
X145505784Y-96283270D01*
X145492245Y-96247486D01*
X145487478Y-96204309D01*
X145492575Y-96158707D01*
X145506982Y-96121418D01*
X145530415Y-96090589D01*
X145561468Y-96067517D01*
X145600344Y-96052937D01*
X145649264Y-96047456D01*
X145638810Y-95946340D01*
X145582461Y-95955820D01*
X145535748Y-95972301D01*
X145497049Y-95995192D01*
X145465154Y-96024497D01*
X145439849Y-96059815D01*
X145421269Y-96101111D01*
X145409557Y-96149514D01*
X145405412Y-96206458D01*
X145409850Y-96263742D01*
X145422395Y-96312305D01*
X145442357Y-96353670D01*
X145469697Y-96389005D01*
X145503957Y-96418565D01*
X145541403Y-96439323D01*
X145582731Y-96451898D01*
X145628943Y-96456221D01*
X145676575Y-96451357D01*
X145723953Y-96436535D01*
X145769907Y-96411670D01*
X145822286Y-96371224D01*
X145877457Y-96316930D01*
X145963946Y-96219599D01*
X146033445Y-96139377D01*
X146065405Y-96105879D01*
X146092621Y-96082564D01*
X146118992Y-96064407D01*
X146118992Y-96457296D01*
G37*
G36*
X145941055Y-105774497D02*
G01*
X146018946Y-105785620D01*
X146081699Y-105802466D01*
X146131782Y-105824024D01*
X146171316Y-105849674D01*
X146207583Y-105885691D01*
X146233228Y-105927206D01*
X146248989Y-105975311D01*
X146254505Y-106031684D01*
X146248898Y-106088647D01*
X146232967Y-106136569D01*
X146207170Y-106177301D01*
X146172498Y-106211535D01*
X146128382Y-106240451D01*
X146073130Y-106263910D01*
X146014503Y-106279011D01*
X145939629Y-106289139D01*
X145845251Y-106292877D01*
X145732097Y-106287765D01*
X145655670Y-106274852D01*
X145589006Y-106252706D01*
X145536382Y-106225124D01*
X145505957Y-106201817D01*
X145481125Y-106175121D01*
X145461399Y-106144768D01*
X145447239Y-106111457D01*
X145438465Y-106074023D01*
X145435412Y-106031684D01*
X145435523Y-106030560D01*
X145517478Y-106030560D01*
X145521421Y-106063122D01*
X145533088Y-106092626D01*
X145552962Y-106119959D01*
X145582446Y-106145599D01*
X145614897Y-106162706D01*
X145665153Y-106177295D01*
X145739418Y-106187744D01*
X145844958Y-106191809D01*
X145949800Y-106187760D01*
X146023854Y-106177334D01*
X146074211Y-106162746D01*
X146106933Y-106145599D01*
X146136773Y-106119916D01*
X146156796Y-106092747D01*
X146168497Y-106063626D01*
X146172439Y-106031684D01*
X146168509Y-105999699D01*
X146156849Y-105970555D01*
X146136912Y-105943384D01*
X146107226Y-105917720D01*
X146074643Y-105900612D01*
X146024335Y-105886039D01*
X145950167Y-105875612D01*
X145844958Y-105871558D01*
X145740717Y-105875865D01*
X145664879Y-105887102D01*
X145611321Y-105903116D01*
X145574777Y-105922361D01*
X145549246Y-105944802D01*
X145531670Y-105969885D01*
X145521115Y-105998152D01*
X145517478Y-106030560D01*
X145435523Y-106030560D01*
X145440980Y-105975065D01*
X145456823Y-105927290D01*
X145482502Y-105886555D01*
X145516991Y-105852310D01*
X145561003Y-105823296D01*
X145616249Y-105799653D01*
X145674866Y-105784443D01*
X145750073Y-105774221D01*
X145845251Y-105770441D01*
X145941055Y-105774497D01*
G37*
G36*
X146148992Y-106909541D02*
G01*
X146242000Y-106909541D01*
X146242000Y-106380023D01*
X146207171Y-106382339D01*
X146173807Y-106391502D01*
X146121408Y-106417082D01*
X146067464Y-106456227D01*
X146014561Y-106506922D01*
X145946368Y-106584943D01*
X145871586Y-106671386D01*
X145816111Y-106727703D01*
X145775886Y-106761432D01*
X145732249Y-106788166D01*
X145692993Y-106802776D01*
X145656940Y-106807350D01*
X145619563Y-106802631D01*
X145586946Y-106788844D01*
X145557875Y-106765536D01*
X145535784Y-106735516D01*
X145522245Y-106699732D01*
X145517478Y-106656555D01*
X145522575Y-106610952D01*
X145536982Y-106573664D01*
X145560415Y-106542835D01*
X145591468Y-106519762D01*
X145630344Y-106505183D01*
X145679264Y-106499702D01*
X145668810Y-106398585D01*
X145612461Y-106408065D01*
X145565748Y-106424546D01*
X145527049Y-106447438D01*
X145495154Y-106476743D01*
X145469849Y-106512061D01*
X145451269Y-106553356D01*
X145439557Y-106601759D01*
X145435412Y-106658704D01*
X145439850Y-106715988D01*
X145452395Y-106764550D01*
X145472357Y-106805916D01*
X145499697Y-106841251D01*
X145533957Y-106870811D01*
X145571403Y-106891568D01*
X145612731Y-106904143D01*
X145658943Y-106908467D01*
X145706575Y-106903602D01*
X145753953Y-106888781D01*
X145799907Y-106863915D01*
X145852286Y-106823470D01*
X145907457Y-106769176D01*
X145993946Y-106671844D01*
X146063445Y-106591622D01*
X146095405Y-106558125D01*
X146122621Y-106534810D01*
X146148992Y-106516652D01*
X146148992Y-106909541D01*
G37*
G36*
X146148992Y-107531677D02*
G01*
X146242000Y-107531677D01*
X146242000Y-107002158D01*
X146207171Y-107004474D01*
X146173807Y-107013638D01*
X146121408Y-107039218D01*
X146067464Y-107078362D01*
X146014561Y-107129058D01*
X145946368Y-107207078D01*
X145871586Y-107293521D01*
X145816111Y-107349838D01*
X145775886Y-107383568D01*
X145732249Y-107410302D01*
X145692993Y-107424912D01*
X145656940Y-107429485D01*
X145619563Y-107424767D01*
X145586946Y-107410980D01*
X145557875Y-107387671D01*
X145535784Y-107357651D01*
X145522245Y-107321867D01*
X145517478Y-107278690D01*
X145522575Y-107233088D01*
X145536982Y-107195799D01*
X145560415Y-107164970D01*
X145591468Y-107141898D01*
X145630344Y-107127318D01*
X145679264Y-107121837D01*
X145668810Y-107020721D01*
X145612461Y-107030201D01*
X145565748Y-107046682D01*
X145527049Y-107069573D01*
X145495154Y-107098878D01*
X145469849Y-107134196D01*
X145451269Y-107175492D01*
X145439557Y-107223895D01*
X145435412Y-107280839D01*
X145439850Y-107338123D01*
X145452395Y-107386686D01*
X145472357Y-107428051D01*
X145499697Y-107463386D01*
X145533957Y-107492946D01*
X145571403Y-107513704D01*
X145612731Y-107526279D01*
X145658943Y-107530602D01*
X145706575Y-107525738D01*
X145753953Y-107510916D01*
X145799907Y-107486051D01*
X145852286Y-107445605D01*
X145907457Y-107391311D01*
X145993946Y-107293980D01*
X146063445Y-107213758D01*
X146095405Y-107180260D01*
X146122621Y-107156945D01*
X146148992Y-107138788D01*
X146148992Y-107531677D01*
G37*
G36*
X148441055Y-105774497D02*
G01*
X148518946Y-105785620D01*
X148581699Y-105802466D01*
X148631782Y-105824024D01*
X148671316Y-105849674D01*
X148707583Y-105885691D01*
X148733228Y-105927206D01*
X148748989Y-105975311D01*
X148754505Y-106031684D01*
X148748898Y-106088647D01*
X148732967Y-106136569D01*
X148707170Y-106177301D01*
X148672498Y-106211535D01*
X148628382Y-106240451D01*
X148573130Y-106263910D01*
X148514503Y-106279011D01*
X148439629Y-106289139D01*
X148345251Y-106292877D01*
X148232097Y-106287765D01*
X148155670Y-106274852D01*
X148089006Y-106252706D01*
X148036382Y-106225124D01*
X148005957Y-106201817D01*
X147981125Y-106175121D01*
X147961399Y-106144768D01*
X147947239Y-106111457D01*
X147938465Y-106074023D01*
X147935412Y-106031684D01*
X147935523Y-106030560D01*
X148017478Y-106030560D01*
X148021421Y-106063122D01*
X148033088Y-106092626D01*
X148052962Y-106119959D01*
X148082446Y-106145599D01*
X148114897Y-106162706D01*
X148165153Y-106177295D01*
X148239418Y-106187744D01*
X148344958Y-106191809D01*
X148449800Y-106187760D01*
X148523854Y-106177334D01*
X148574211Y-106162746D01*
X148606933Y-106145599D01*
X148636773Y-106119916D01*
X148656796Y-106092747D01*
X148668497Y-106063626D01*
X148672439Y-106031684D01*
X148668509Y-105999699D01*
X148656849Y-105970555D01*
X148636912Y-105943384D01*
X148607226Y-105917720D01*
X148574643Y-105900612D01*
X148524335Y-105886039D01*
X148450167Y-105875612D01*
X148344958Y-105871558D01*
X148240717Y-105875865D01*
X148164879Y-105887102D01*
X148111321Y-105903116D01*
X148074777Y-105922361D01*
X148049246Y-105944802D01*
X148031670Y-105969885D01*
X148021115Y-105998152D01*
X148017478Y-106030560D01*
X147935523Y-106030560D01*
X147940980Y-105975065D01*
X147956823Y-105927290D01*
X147982502Y-105886555D01*
X148016991Y-105852310D01*
X148061003Y-105823296D01*
X148116249Y-105799653D01*
X148174866Y-105784443D01*
X148250073Y-105774221D01*
X148345251Y-105770441D01*
X148441055Y-105774497D01*
G37*
G36*
X148648992Y-106909541D02*
G01*
X148742000Y-106909541D01*
X148742000Y-106380023D01*
X148707171Y-106382339D01*
X148673807Y-106391502D01*
X148621408Y-106417082D01*
X148567464Y-106456227D01*
X148514561Y-106506922D01*
X148446368Y-106584943D01*
X148371586Y-106671386D01*
X148316111Y-106727703D01*
X148275886Y-106761432D01*
X148232249Y-106788166D01*
X148192993Y-106802776D01*
X148156940Y-106807350D01*
X148119563Y-106802631D01*
X148086946Y-106788844D01*
X148057875Y-106765536D01*
X148035784Y-106735516D01*
X148022245Y-106699732D01*
X148017478Y-106656555D01*
X148022575Y-106610952D01*
X148036982Y-106573664D01*
X148060415Y-106542835D01*
X148091468Y-106519762D01*
X148130344Y-106505183D01*
X148179264Y-106499702D01*
X148168810Y-106398585D01*
X148112461Y-106408065D01*
X148065748Y-106424546D01*
X148027049Y-106447438D01*
X147995154Y-106476743D01*
X147969849Y-106512061D01*
X147951269Y-106553356D01*
X147939557Y-106601759D01*
X147935412Y-106658704D01*
X147939850Y-106715988D01*
X147952395Y-106764550D01*
X147972357Y-106805916D01*
X147999697Y-106841251D01*
X148033957Y-106870811D01*
X148071403Y-106891568D01*
X148112731Y-106904143D01*
X148158943Y-106908467D01*
X148206575Y-106903602D01*
X148253953Y-106888781D01*
X148299907Y-106863915D01*
X148352286Y-106823470D01*
X148407457Y-106769176D01*
X148493946Y-106671844D01*
X148563445Y-106591622D01*
X148595405Y-106558125D01*
X148622621Y-106534810D01*
X148648992Y-106516652D01*
X148648992Y-106909541D01*
G37*
G36*
X148550513Y-107330030D02*
G01*
X148742000Y-107330030D01*
X148742000Y-107428411D01*
X148550513Y-107428411D01*
X148550513Y-107536610D01*
X148460632Y-107536610D01*
X148460632Y-107428411D01*
X147941665Y-107428411D01*
X147941665Y-107348055D01*
X147967253Y-107330030D01*
X148099543Y-107330030D01*
X148460632Y-107330030D01*
X148460632Y-107079192D01*
X148099543Y-107330030D01*
X147967253Y-107330030D01*
X148460632Y-106982472D01*
X148550513Y-106982472D01*
X148550513Y-107330030D01*
G37*
G36*
X148752000Y-95108001D02*
G01*
X148752000Y-95009620D01*
X148123514Y-95009620D01*
X148156085Y-94970472D01*
X148191462Y-94916466D01*
X148222215Y-94859630D01*
X148242411Y-94812907D01*
X148148622Y-94812907D01*
X148120157Y-94866413D01*
X148088497Y-94914351D01*
X148053660Y-94957157D01*
X148014523Y-94996428D01*
X147978594Y-95024990D01*
X147945412Y-95044595D01*
X147945412Y-95108001D01*
X148752000Y-95108001D01*
G37*
G36*
X148752000Y-95647289D02*
G01*
X148752000Y-95548908D01*
X148123514Y-95548908D01*
X148156085Y-95509760D01*
X148191462Y-95455754D01*
X148222215Y-95398918D01*
X148242411Y-95352195D01*
X148148622Y-95352195D01*
X148120157Y-95405701D01*
X148088497Y-95453639D01*
X148053660Y-95496445D01*
X148014523Y-95535716D01*
X147978594Y-95564278D01*
X147945412Y-95583884D01*
X147945412Y-95647289D01*
X148752000Y-95647289D01*
G37*
G36*
X148539411Y-95898908D02*
G01*
X148530667Y-96002174D01*
X148579280Y-96014024D01*
X148616416Y-96031978D01*
X148644386Y-96055468D01*
X148665489Y-96085184D01*
X148678106Y-96118425D01*
X148682439Y-96156291D01*
X148679039Y-96190660D01*
X148669090Y-96221693D01*
X148652527Y-96250140D01*
X148628706Y-96276508D01*
X148600565Y-96297482D01*
X148568024Y-96312762D01*
X148530250Y-96322328D01*
X148486166Y-96325698D01*
X148444246Y-96322430D01*
X148408784Y-96313200D01*
X148378643Y-96298519D01*
X148352956Y-96278413D01*
X148326160Y-96244221D01*
X148309870Y-96203606D01*
X148304156Y-96154679D01*
X148309754Y-96109033D01*
X148326138Y-96068852D01*
X148351575Y-96034463D01*
X148383095Y-96008769D01*
X148371078Y-95916396D01*
X147957917Y-95994016D01*
X147957917Y-96392376D01*
X148050925Y-96392376D01*
X148050925Y-96072711D01*
X148268887Y-96029529D01*
X148239776Y-96079524D01*
X148222949Y-96129657D01*
X148217401Y-96180911D01*
X148222092Y-96232007D01*
X148235752Y-96277889D01*
X148258302Y-96319616D01*
X148290381Y-96357938D01*
X148328984Y-96389182D01*
X148372442Y-96411528D01*
X148421702Y-96425294D01*
X148478057Y-96430087D01*
X148531855Y-96425961D01*
X148580707Y-96413949D01*
X148625468Y-96394269D01*
X148666808Y-96366682D01*
X148702045Y-96333541D01*
X148729012Y-96296587D01*
X148748394Y-96255312D01*
X148760349Y-96208901D01*
X148764505Y-96156291D01*
X148760337Y-96102179D01*
X148748432Y-96055154D01*
X148729288Y-96014019D01*
X148702858Y-95977847D01*
X148669892Y-95947272D01*
X148632211Y-95924057D01*
X148589070Y-95907868D01*
X148539411Y-95898908D01*
G37*
G36*
X151292000Y-95108001D02*
G01*
X151292000Y-95009620D01*
X150663514Y-95009620D01*
X150696085Y-94970472D01*
X150731462Y-94916466D01*
X150762215Y-94859630D01*
X150782411Y-94812907D01*
X150688622Y-94812907D01*
X150660157Y-94866413D01*
X150628497Y-94914351D01*
X150593660Y-94957157D01*
X150554523Y-94996428D01*
X150518594Y-95024990D01*
X150485412Y-95044595D01*
X150485412Y-95108001D01*
X151292000Y-95108001D01*
G37*
G36*
X151292000Y-95647289D02*
G01*
X151292000Y-95548908D01*
X150663514Y-95548908D01*
X150696085Y-95509760D01*
X150731462Y-95455754D01*
X150762215Y-95398918D01*
X150782411Y-95352195D01*
X150688622Y-95352195D01*
X150660157Y-95405701D01*
X150628497Y-95453639D01*
X150593660Y-95496445D01*
X150554523Y-95535716D01*
X150518594Y-95564278D01*
X150485412Y-95583884D01*
X150485412Y-95647289D01*
X151292000Y-95647289D01*
G37*
G36*
X151079997Y-95899445D02*
G01*
X151066905Y-95997826D01*
X151120415Y-96013112D01*
X151159017Y-96032570D01*
X151185998Y-96055468D01*
X151206137Y-96084395D01*
X151218256Y-96117095D01*
X151222439Y-96154679D01*
X151217006Y-96198971D01*
X151201171Y-96237562D01*
X151174519Y-96271867D01*
X151140071Y-96298394D01*
X151100963Y-96314233D01*
X151055719Y-96319690D01*
X151012530Y-96314576D01*
X150975894Y-96299861D01*
X150944295Y-96275433D01*
X150920121Y-96243607D01*
X150905514Y-96206602D01*
X150900429Y-96162886D01*
X150902862Y-96133552D01*
X150911371Y-96093472D01*
X150825056Y-96104365D01*
X150826180Y-96120241D01*
X150822465Y-96161143D01*
X150811566Y-96198588D01*
X150793451Y-96233325D01*
X150775048Y-96255157D01*
X150752689Y-96270622D01*
X150725597Y-96280227D01*
X150692481Y-96283639D01*
X150657985Y-96279436D01*
X150628538Y-96267290D01*
X150602942Y-96247003D01*
X150583500Y-96220719D01*
X150571638Y-96189665D01*
X150567478Y-96152481D01*
X150571619Y-96115633D01*
X150583536Y-96084152D01*
X150603235Y-96056836D01*
X150629412Y-96035384D01*
X150664419Y-96018792D01*
X150710506Y-96007645D01*
X150693018Y-95909313D01*
X150644535Y-95921817D01*
X150603514Y-95939768D01*
X150568865Y-95962889D01*
X150539780Y-95991281D01*
X150516320Y-96024626D01*
X150499439Y-96061742D01*
X150489027Y-96103326D01*
X150485412Y-96150283D01*
X150488620Y-96193328D01*
X150498051Y-96233412D01*
X150513646Y-96271085D01*
X150535124Y-96305530D01*
X150560689Y-96333424D01*
X150590583Y-96355496D01*
X150624050Y-96371866D01*
X150658379Y-96381528D01*
X150694093Y-96384756D01*
X150727946Y-96381618D01*
X150759337Y-96372358D01*
X150788859Y-96356863D01*
X150814765Y-96335930D01*
X150837373Y-96308755D01*
X150856759Y-96274358D01*
X150872041Y-96319156D01*
X150894657Y-96355473D01*
X150924756Y-96384707D01*
X150960979Y-96406120D01*
X151003500Y-96419401D01*
X151053863Y-96424079D01*
X151104706Y-96419214D01*
X151150623Y-96404995D01*
X151192683Y-96381390D01*
X151231623Y-96347582D01*
X151263225Y-96307255D01*
X151285805Y-96262235D01*
X151299686Y-96211610D01*
X151304505Y-96154142D01*
X151300349Y-96102118D01*
X151288390Y-96056250D01*
X151268993Y-96015472D01*
X151241979Y-95978971D01*
X151208549Y-95947987D01*
X151170899Y-95924595D01*
X151128366Y-95908379D01*
X151079997Y-95899445D01*
G37*
G36*
X151292000Y-106140958D02*
G01*
X151292000Y-106042577D01*
X150663514Y-106042577D01*
X150696085Y-106003429D01*
X150731462Y-105949423D01*
X150762215Y-105892587D01*
X150782411Y-105845864D01*
X150688622Y-105845864D01*
X150660157Y-105899370D01*
X150628497Y-105947308D01*
X150593660Y-105990114D01*
X150554523Y-106029385D01*
X150518594Y-106057947D01*
X150485412Y-106077552D01*
X150485412Y-106140958D01*
X151292000Y-106140958D01*
G37*
G36*
X150991055Y-106396632D02*
G01*
X151068946Y-106407755D01*
X151131699Y-106424601D01*
X151181782Y-106446159D01*
X151221316Y-106471809D01*
X151257583Y-106507827D01*
X151283228Y-106549342D01*
X151298989Y-106597447D01*
X151304505Y-106653819D01*
X151298898Y-106710782D01*
X151282967Y-106758705D01*
X151257170Y-106799437D01*
X151222498Y-106833670D01*
X151178382Y-106862586D01*
X151123130Y-106886045D01*
X151064503Y-106901146D01*
X150989629Y-106911274D01*
X150895251Y-106915012D01*
X150782097Y-106909901D01*
X150705670Y-106896987D01*
X150639006Y-106874841D01*
X150586382Y-106847259D01*
X150555957Y-106823953D01*
X150531125Y-106797257D01*
X150511399Y-106766903D01*
X150497239Y-106733593D01*
X150488465Y-106696159D01*
X150485412Y-106653819D01*
X150485522Y-106652696D01*
X150567478Y-106652696D01*
X150571421Y-106685257D01*
X150583088Y-106714761D01*
X150602962Y-106742094D01*
X150632446Y-106767734D01*
X150664897Y-106784841D01*
X150715153Y-106799430D01*
X150789418Y-106809879D01*
X150894958Y-106813945D01*
X150999800Y-106809895D01*
X151073854Y-106799470D01*
X151124211Y-106784881D01*
X151156933Y-106767734D01*
X151186773Y-106742051D01*
X151206796Y-106714882D01*
X151218497Y-106685761D01*
X151222439Y-106653819D01*
X151218509Y-106621834D01*
X151206849Y-106592690D01*
X151186912Y-106565519D01*
X151157226Y-106539855D01*
X151124643Y-106522748D01*
X151074335Y-106508174D01*
X151000167Y-106497747D01*
X150894958Y-106493693D01*
X150790717Y-106498000D01*
X150714879Y-106509237D01*
X150661321Y-106525251D01*
X150624777Y-106544496D01*
X150599246Y-106566938D01*
X150581670Y-106592020D01*
X150571115Y-106620287D01*
X150567478Y-106652696D01*
X150485522Y-106652696D01*
X150490980Y-106597200D01*
X150506823Y-106549426D01*
X150532502Y-106508690D01*
X150566991Y-106474445D01*
X150611003Y-106445431D01*
X150666249Y-106421788D01*
X150724866Y-106406578D01*
X150800073Y-106396357D01*
X150895251Y-106392577D01*
X150991055Y-106396632D01*
G37*
G36*
X150991055Y-107018768D02*
G01*
X151068946Y-107029891D01*
X151131699Y-107046737D01*
X151181782Y-107068295D01*
X151221316Y-107093945D01*
X151257583Y-107129962D01*
X151283228Y-107171477D01*
X151298989Y-107219582D01*
X151304505Y-107275954D01*
X151298898Y-107332917D01*
X151282967Y-107380840D01*
X151257170Y-107421572D01*
X151222498Y-107455806D01*
X151178382Y-107484721D01*
X151123130Y-107508180D01*
X151064503Y-107523282D01*
X150989629Y-107533409D01*
X150895251Y-107537148D01*
X150782097Y-107532036D01*
X150705670Y-107519123D01*
X150639006Y-107496977D01*
X150586382Y-107469395D01*
X150555957Y-107446088D01*
X150531125Y-107419392D01*
X150511399Y-107389039D01*
X150497239Y-107355728D01*
X150488465Y-107318294D01*
X150485412Y-107275954D01*
X150485522Y-107274831D01*
X150567478Y-107274831D01*
X150571421Y-107307392D01*
X150583088Y-107336897D01*
X150602962Y-107364229D01*
X150632446Y-107389869D01*
X150664897Y-107406976D01*
X150715153Y-107421566D01*
X150789418Y-107432015D01*
X150894958Y-107436080D01*
X150999800Y-107432031D01*
X151073854Y-107421605D01*
X151124211Y-107407017D01*
X151156933Y-107389869D01*
X151186773Y-107364187D01*
X151206796Y-107337017D01*
X151218497Y-107307896D01*
X151222439Y-107275954D01*
X151218509Y-107243970D01*
X151206849Y-107214826D01*
X151186912Y-107187655D01*
X151157226Y-107161991D01*
X151124643Y-107144883D01*
X151074335Y-107130309D01*
X151000167Y-107119882D01*
X150894958Y-107115829D01*
X150790717Y-107120135D01*
X150714879Y-107131372D01*
X150661321Y-107147387D01*
X150624777Y-107166631D01*
X150599246Y-107189073D01*
X150581670Y-107214156D01*
X150571115Y-107242422D01*
X150567478Y-107274831D01*
X150485522Y-107274831D01*
X150490980Y-107219335D01*
X150506823Y-107171561D01*
X150532502Y-107130825D01*
X150566991Y-107096581D01*
X150611003Y-107067567D01*
X150666249Y-107043924D01*
X150724866Y-107028714D01*
X150800073Y-107018492D01*
X150895251Y-107014712D01*
X150991055Y-107018768D01*
G37*
G36*
X153832000Y-95149425D02*
G01*
X153832000Y-95051044D01*
X153203514Y-95051044D01*
X153236085Y-95011896D01*
X153271462Y-94957890D01*
X153302215Y-94901054D01*
X153322411Y-94854331D01*
X153228622Y-94854331D01*
X153200157Y-94907837D01*
X153168497Y-94955775D01*
X153133660Y-94998581D01*
X153094523Y-95037852D01*
X153058594Y-95066414D01*
X153025412Y-95086019D01*
X153025412Y-95149425D01*
X153832000Y-95149425D01*
G37*
G36*
X153832000Y-95688713D02*
G01*
X153832000Y-95590332D01*
X153203514Y-95590332D01*
X153236085Y-95551184D01*
X153271462Y-95497178D01*
X153302215Y-95440342D01*
X153322411Y-95393619D01*
X153228622Y-95393619D01*
X153200157Y-95447125D01*
X153168497Y-95495063D01*
X153133660Y-95537869D01*
X153094523Y-95577140D01*
X153058594Y-95605702D01*
X153025412Y-95625308D01*
X153025412Y-95688713D01*
X153832000Y-95688713D01*
G37*
G36*
X153832000Y-96228001D02*
G01*
X153832000Y-96129620D01*
X153203514Y-96129620D01*
X153236085Y-96090472D01*
X153271462Y-96036466D01*
X153302215Y-95979630D01*
X153322411Y-95932907D01*
X153228622Y-95932907D01*
X153200157Y-95986413D01*
X153168497Y-96034351D01*
X153133660Y-96077157D01*
X153094523Y-96116428D01*
X153058594Y-96144990D01*
X153025412Y-96164596D01*
X153025412Y-96228001D01*
X153832000Y-96228001D01*
G37*
G36*
X156071055Y-94700116D02*
G01*
X156148946Y-94711239D01*
X156211699Y-94728085D01*
X156261782Y-94749643D01*
X156301316Y-94775293D01*
X156337583Y-94811310D01*
X156363228Y-94852825D01*
X156378989Y-94900930D01*
X156384505Y-94957303D01*
X156378898Y-95014266D01*
X156362967Y-95062188D01*
X156337170Y-95102920D01*
X156302498Y-95137154D01*
X156258382Y-95166070D01*
X156203130Y-95189529D01*
X156144503Y-95204630D01*
X156069629Y-95214758D01*
X155975251Y-95218496D01*
X155862097Y-95213384D01*
X155785670Y-95200471D01*
X155719006Y-95178325D01*
X155666382Y-95150743D01*
X155635957Y-95127436D01*
X155611125Y-95100740D01*
X155591399Y-95070387D01*
X155577239Y-95037076D01*
X155568465Y-94999642D01*
X155565412Y-94957303D01*
X155565523Y-94956179D01*
X155647478Y-94956179D01*
X155651421Y-94988741D01*
X155663088Y-95018245D01*
X155682962Y-95045578D01*
X155712446Y-95071218D01*
X155744897Y-95088325D01*
X155795153Y-95102914D01*
X155869418Y-95113363D01*
X155974958Y-95117428D01*
X156079800Y-95113379D01*
X156153854Y-95102953D01*
X156204211Y-95088365D01*
X156236933Y-95071218D01*
X156266773Y-95045535D01*
X156286796Y-95018366D01*
X156298497Y-94989245D01*
X156302439Y-94957303D01*
X156298509Y-94925318D01*
X156286849Y-94896174D01*
X156266912Y-94869003D01*
X156237226Y-94843339D01*
X156204643Y-94826231D01*
X156154335Y-94811658D01*
X156080167Y-94801231D01*
X155974958Y-94797177D01*
X155870717Y-94801484D01*
X155794879Y-94812721D01*
X155741321Y-94828735D01*
X155704777Y-94847980D01*
X155679246Y-94870421D01*
X155661670Y-94895504D01*
X155651115Y-94923771D01*
X155647478Y-94956179D01*
X155565523Y-94956179D01*
X155570980Y-94900684D01*
X155586823Y-94852909D01*
X155612502Y-94812174D01*
X155646991Y-94777929D01*
X155691003Y-94748915D01*
X155746249Y-94725272D01*
X155804866Y-94710062D01*
X155880073Y-94699840D01*
X155975251Y-94696060D01*
X156071055Y-94700116D01*
G37*
G36*
X156372000Y-95688712D02*
G01*
X156372000Y-95590331D01*
X155743514Y-95590331D01*
X155776085Y-95551183D01*
X155811462Y-95497177D01*
X155842215Y-95440341D01*
X155862411Y-95393618D01*
X155768622Y-95393618D01*
X155740157Y-95447124D01*
X155708497Y-95495062D01*
X155673660Y-95537868D01*
X155634523Y-95577139D01*
X155598594Y-95605701D01*
X155565412Y-95625307D01*
X155565412Y-95688712D01*
X156372000Y-95688712D01*
G37*
G36*
X156071055Y-95944387D02*
G01*
X156148946Y-95955510D01*
X156211699Y-95972356D01*
X156261782Y-95993914D01*
X156301316Y-96019564D01*
X156337583Y-96055581D01*
X156363228Y-96097096D01*
X156378989Y-96145201D01*
X156384505Y-96201573D01*
X156378898Y-96258536D01*
X156362967Y-96306459D01*
X156337170Y-96347191D01*
X156302498Y-96381425D01*
X156258382Y-96410340D01*
X156203130Y-96433799D01*
X156144503Y-96448901D01*
X156069629Y-96459028D01*
X155975251Y-96462767D01*
X155862097Y-96457655D01*
X155785670Y-96444742D01*
X155719006Y-96422596D01*
X155666382Y-96395014D01*
X155635957Y-96371707D01*
X155611125Y-96345011D01*
X155591399Y-96314658D01*
X155577239Y-96281347D01*
X155568465Y-96243913D01*
X155565412Y-96201573D01*
X155565522Y-96200450D01*
X155647478Y-96200450D01*
X155651421Y-96233011D01*
X155663088Y-96262516D01*
X155682962Y-96289848D01*
X155712446Y-96315488D01*
X155744897Y-96332595D01*
X155795153Y-96347185D01*
X155869418Y-96357634D01*
X155974958Y-96361699D01*
X156079800Y-96357650D01*
X156153854Y-96347224D01*
X156204211Y-96332636D01*
X156236933Y-96315488D01*
X156266773Y-96289806D01*
X156286796Y-96262636D01*
X156298497Y-96233515D01*
X156302439Y-96201573D01*
X156298509Y-96169589D01*
X156286849Y-96140445D01*
X156266912Y-96113274D01*
X156237226Y-96087610D01*
X156204643Y-96070502D01*
X156154335Y-96055928D01*
X156080167Y-96045501D01*
X155974958Y-96041448D01*
X155870717Y-96045754D01*
X155794879Y-96056991D01*
X155741321Y-96073006D01*
X155704777Y-96092250D01*
X155679246Y-96114692D01*
X155661670Y-96139775D01*
X155651115Y-96168041D01*
X155647478Y-96200450D01*
X155565522Y-96200450D01*
X155570980Y-96144954D01*
X155586823Y-96097180D01*
X155612502Y-96056444D01*
X155646991Y-96022200D01*
X155691003Y-95993186D01*
X155746249Y-95969543D01*
X155804866Y-95954333D01*
X155880073Y-95944111D01*
X155975251Y-95940331D01*
X156071055Y-95944387D01*
G37*
G36*
X156372000Y-106140958D02*
G01*
X156372000Y-106042577D01*
X155743514Y-106042577D01*
X155776085Y-106003429D01*
X155811462Y-105949423D01*
X155842215Y-105892587D01*
X155862411Y-105845864D01*
X155768622Y-105845864D01*
X155740157Y-105899370D01*
X155708497Y-105947308D01*
X155673660Y-105990114D01*
X155634523Y-106029385D01*
X155598594Y-106057947D01*
X155565412Y-106077552D01*
X155565412Y-106140958D01*
X156372000Y-106140958D01*
G37*
G36*
X156071055Y-106396632D02*
G01*
X156148946Y-106407755D01*
X156211699Y-106424601D01*
X156261782Y-106446159D01*
X156301316Y-106471809D01*
X156337583Y-106507827D01*
X156363228Y-106549342D01*
X156378989Y-106597447D01*
X156384505Y-106653819D01*
X156378898Y-106710782D01*
X156362967Y-106758705D01*
X156337170Y-106799437D01*
X156302498Y-106833670D01*
X156258382Y-106862586D01*
X156203130Y-106886045D01*
X156144503Y-106901146D01*
X156069629Y-106911274D01*
X155975251Y-106915012D01*
X155862097Y-106909901D01*
X155785670Y-106896987D01*
X155719006Y-106874841D01*
X155666382Y-106847259D01*
X155635957Y-106823953D01*
X155611125Y-106797257D01*
X155591399Y-106766903D01*
X155577239Y-106733593D01*
X155568465Y-106696159D01*
X155565412Y-106653819D01*
X155565522Y-106652696D01*
X155647478Y-106652696D01*
X155651421Y-106685257D01*
X155663088Y-106714761D01*
X155682962Y-106742094D01*
X155712446Y-106767734D01*
X155744897Y-106784841D01*
X155795153Y-106799430D01*
X155869418Y-106809879D01*
X155974958Y-106813945D01*
X156079800Y-106809895D01*
X156153854Y-106799470D01*
X156204211Y-106784881D01*
X156236933Y-106767734D01*
X156266773Y-106742051D01*
X156286796Y-106714882D01*
X156298497Y-106685761D01*
X156302439Y-106653819D01*
X156298509Y-106621834D01*
X156286849Y-106592690D01*
X156266912Y-106565519D01*
X156237226Y-106539855D01*
X156204643Y-106522748D01*
X156154335Y-106508174D01*
X156080167Y-106497747D01*
X155974958Y-106493693D01*
X155870717Y-106498000D01*
X155794879Y-106509237D01*
X155741321Y-106525251D01*
X155704777Y-106544496D01*
X155679246Y-106566938D01*
X155661670Y-106592020D01*
X155651115Y-106620287D01*
X155647478Y-106652696D01*
X155565522Y-106652696D01*
X155570980Y-106597200D01*
X155586823Y-106549426D01*
X155612502Y-106508690D01*
X155646991Y-106474445D01*
X155691003Y-106445431D01*
X155746249Y-106421788D01*
X155804866Y-106406578D01*
X155880073Y-106396357D01*
X155975251Y-106392577D01*
X156071055Y-106396632D01*
G37*
G36*
X156180513Y-107330030D02*
G01*
X156372000Y-107330030D01*
X156372000Y-107428411D01*
X156180513Y-107428411D01*
X156180513Y-107536610D01*
X156090632Y-107536610D01*
X156090632Y-107428411D01*
X155571665Y-107428411D01*
X155571665Y-107348055D01*
X155597253Y-107330030D01*
X155729543Y-107330030D01*
X156090632Y-107330030D01*
X156090632Y-107079192D01*
X155729543Y-107330030D01*
X155597253Y-107330030D01*
X156090632Y-106982472D01*
X156180513Y-106982472D01*
X156180513Y-107330030D01*
G37*
D11*
%TO.C,U2*%
X130640000Y-108740000D03*
X133180000Y-108740000D03*
X135720000Y-108740000D03*
X138260000Y-108740000D03*
X140800000Y-108740000D03*
X143340000Y-108740000D03*
X145880000Y-108740000D03*
X148420000Y-108740000D03*
X150960000Y-108740000D03*
X153500000Y-108740000D03*
X156040000Y-108740000D03*
X158580000Y-108740000D03*
X158580000Y-93500000D03*
X156040000Y-93500000D03*
X153500000Y-93500000D03*
X150960000Y-93500000D03*
X148420000Y-93500000D03*
X145880000Y-93500000D03*
X143340000Y-93500000D03*
X140800000Y-93500000D03*
X138260000Y-93500000D03*
X135720000Y-93500000D03*
X133180000Y-93500000D03*
X130640000Y-93500000D03*
X153500000Y-106200000D03*
X153500000Y-103660000D03*
X153500000Y-101120000D03*
%TD*%
M02*
