%TF.GenerationSoftware,KiCad,Pcbnew,10.0.5*%
%TF.CreationDate,2026-09-07T15:44:26+01:00*%
%TF.ProjectId,deltavr hmd,64656c74-6176-4722-9068-6d642e6b6963,rev?*%
%TF.SameCoordinates,Original*%
%TF.FileFunction,Soldermask,Bot*%
%TF.FilePolarity,Negative*%
%FSLAX46Y46*%
G04 Gerber Fmt 4.6, Leading zero omitted, Abs format (unit mm)*
G04 Created by KiCad (PCBNEW 10.0.5) date 2026-09-07 15:44:26*
%MOMM*%
%LPD*%
G01*
G04 APERTURE LIST*
%ADD10C,5.600000*%
%ADD11R,1.700000X1.700000*%
%ADD12C,1.700000*%
%ADD13C,1.752600*%
%ADD14R,1.800000X1.800000*%
%ADD15C,1.800000*%
G04 APERTURE END LIST*
D10*
%TO.C,M3 screw*%
X131828400Y-83500000D03*
%TD*%
D11*
%TO.C,U3*%
X168960000Y-97460000D03*
D12*
X171500000Y-97460000D03*
X168960000Y-100000000D03*
X171500000Y-100000000D03*
X168960000Y-102540000D03*
X171500000Y-102540000D03*
X168960000Y-105080000D03*
X171500000Y-105080000D03*
%TD*%
D10*
%TO.C,M3 screw*%
X131828400Y-124000000D03*
%TD*%
D13*
%TO.C,U2*%
X130640000Y-108740000D03*
X133180000Y-108740000D03*
X135720000Y-108740000D03*
X138260000Y-108740000D03*
X140800000Y-108740000D03*
X143340000Y-108740000D03*
X145880000Y-108740000D03*
X148420000Y-108740000D03*
X150960000Y-108740000D03*
X153500000Y-108740000D03*
X156040000Y-108740000D03*
X158580000Y-108740000D03*
X158580000Y-93500000D03*
X156040000Y-93500000D03*
X153500000Y-93500000D03*
X150960000Y-93500000D03*
X148420000Y-93500000D03*
X145880000Y-93500000D03*
X143340000Y-93500000D03*
X140800000Y-93500000D03*
X138260000Y-93500000D03*
X135720000Y-93500000D03*
X133180000Y-93500000D03*
X130640000Y-93500000D03*
X153500000Y-106200000D03*
X153500000Y-103660000D03*
X153500000Y-101120000D03*
%TD*%
D11*
%TO.C,J1*%
X160160000Y-83500000D03*
D12*
X160160000Y-86040000D03*
X157620000Y-83500000D03*
X157620000Y-86040000D03*
X155080000Y-83500000D03*
X155080000Y-86040000D03*
X152540000Y-83500000D03*
X152540000Y-86040000D03*
X150000000Y-83500000D03*
X150000000Y-86040000D03*
X147460000Y-83500000D03*
X147460000Y-86040000D03*
X144920000Y-83500000D03*
X144920000Y-86040000D03*
%TD*%
D10*
%TO.C,M3 screw*%
X172000000Y-124000000D03*
%TD*%
%TO.C,M3 screw*%
X172000000Y-83500000D03*
%TD*%
D14*
%TO.C,D1*%
X133500000Y-112682000D03*
D15*
X133500000Y-114841000D03*
X133500000Y-117000000D03*
X133500000Y-119159000D03*
%TD*%
M02*
