M48
; DRILL file KiCad 10.0.5 date 2026-09-07T15:44:43
; FORMAT={-:-/ absolute / metric / decimal}
; #@! TF.CreationDate,2026-09-07T15:44:43+01:00
; #@! TF.GenerationSoftware,Kicad,Pcbnew,10.0.5
; #@! TF.FileFunction,MixedPlating,1,2
FMAT,2
METRIC
; #@! TA.AperFunction,Plated,PTH,ViaDrill
T1C0.300
; #@! TA.AperFunction,Plated,PTH,ComponentDrill
T2C0.900
; #@! TA.AperFunction,Plated,PTH,ComponentDrill
T3C1.000
; #@! TA.AperFunction,Plated,PTH,ComponentDrill
T4C1.092
; #@! TA.AperFunction,Plated,PTH,ComponentDrill
T5C3.200
%
G90
G05
T1
X136.5Y-114.0
X143.0Y-106.0
X143.5Y-111.5
X144.5Y-116.0
X145.0Y-91.0
X145.116Y-111.5
X146.0Y-88.0
X146.0Y-101.5
X146.9Y-111.0
X147.0Y-88.5
X148.5Y-106.5
X149.0Y-113.0
X149.5Y-115.5
X150.0Y-96.0
X150.5Y-99.0
X151.5Y-84.5
X151.5Y-88.0
X151.5Y-98.1
X151.5Y-101.0
X151.5Y-115.5
X152.0Y-95.5
X152.0Y-113.0
X152.157Y-100.544
X152.5Y-98.1
X153.0Y-81.0
X153.0Y-117.5
X153.5Y-88.5
X153.5Y-99.0
X153.5Y-101.12
X154.0Y-117.0
X154.5Y-89.5
X154.5Y-111.5
X154.98Y-101.0
X155.0Y-98.5
X155.5Y-105.0
X155.9Y-111.0
X155.9Y-112.5
X156.5Y-115.5
X157.0Y-81.0
X157.5Y-100.5
X157.5Y-104.0
X157.5Y-112.5
X157.5Y-115.5
X158.5Y-104.5
X159.0Y-81.5
X159.0Y-88.5
X159.48Y-98.0
X159.888Y-96.02
X160.0Y-100.544
X160.0Y-104.0
X160.5Y-96.4
X160.5Y-101.5
X161.0Y-92.52
X161.5Y-89.0
X162.0Y-94.0
X162.5Y-84.5
X163.0Y-82.5
X164.0Y-104.48
X164.5Y-91.0
X165.0Y-111.0
X165.5Y-101.5
X166.0Y-103.0
X166.5Y-104.48
X168.5Y-94.5
X173.0Y-112.5
X174.0Y-102.0
T2
X133.5Y-112.682
X133.5Y-114.841
X133.5Y-117.0
X133.5Y-119.159
T3
X144.92Y-83.5
X144.92Y-86.04
X147.46Y-83.5
X147.46Y-86.04
X150.0Y-83.5
X150.0Y-86.04
X152.54Y-83.5
X152.54Y-86.04
X155.08Y-83.5
X155.08Y-86.04
X157.62Y-83.5
X157.62Y-86.04
X160.16Y-83.5
X160.16Y-86.04
X168.96Y-97.46
X168.96Y-100.0
X168.96Y-102.54
X168.96Y-105.08
X171.5Y-97.46
X171.5Y-100.0
X171.5Y-102.54
X171.5Y-105.08
T4
X130.64Y-93.5
X130.64Y-108.74
X133.18Y-93.5
X133.18Y-108.74
X135.72Y-93.5
X135.72Y-108.74
X138.26Y-93.5
X138.26Y-108.74
X140.8Y-93.5
X140.8Y-108.74
X143.34Y-93.5
X143.34Y-108.74
X145.88Y-93.5
X145.88Y-108.74
X148.42Y-93.5
X148.42Y-108.74
X150.96Y-93.5
X150.96Y-108.74
X153.5Y-93.5
X153.5Y-101.12
X153.5Y-103.66
X153.5Y-106.2
X153.5Y-108.74
X156.04Y-93.5
X156.04Y-108.74
X158.58Y-93.5
X158.58Y-108.74
T5
X131.828Y-83.5
X131.828Y-124.0
X172.0Y-83.5
X172.0Y-124.0
M30
