%TF.GenerationSoftware,KiCad,Pcbnew,10.0.5*%
%TF.CreationDate,2026-09-07T15:44:26+01:00*%
%TF.ProjectId,deltavr hmd,64656c74-6176-4722-9068-6d642e6b6963,rev?*%
%TF.SameCoordinates,Original*%
%TF.FileFunction,Copper,L2,Bot*%
%TF.FilePolarity,Positive*%
%FSLAX46Y46*%
G04 Gerber Fmt 4.6, Leading zero omitted, Abs format (unit mm)*
G04 Created by KiCad (PCBNEW 10.0.5) date 2026-09-07 15:44:26*
%MOMM*%
%LPD*%
G01*
G04 APERTURE LIST*
%TA.AperFunction,ComponentPad*%
%ADD10C,5.600000*%
%TD*%
%TA.AperFunction,ComponentPad*%
%ADD11R,1.700000X1.700000*%
%TD*%
%TA.AperFunction,ComponentPad*%
%ADD12C,1.700000*%
%TD*%
%TA.AperFunction,ComponentPad*%
%ADD13C,1.752600*%
%TD*%
%TA.AperFunction,ComponentPad*%
%ADD14R,1.800000X1.800000*%
%TD*%
%TA.AperFunction,ComponentPad*%
%ADD15C,1.800000*%
%TD*%
%TA.AperFunction,ViaPad*%
%ADD16C,0.600000*%
%TD*%
%TA.AperFunction,Conductor*%
%ADD17C,0.200000*%
%TD*%
G04 APERTURE END LIST*
D10*
%TO.P,M3 screw,1*%
%TO.N,N/C*%
X131828400Y-83500000D03*
%TD*%
D11*
%TO.P,U3,1,GND_1*%
%TO.N,/gnd*%
X168960000Y-97460000D03*
D12*
%TO.P,U3,2,VCC_2*%
%TO.N,/3.3v*%
X171500000Y-97460000D03*
%TO.P,U3,3,CE_3*%
%TO.N,Net-(U2-P1.07)*%
X168960000Y-100000000D03*
%TO.P,U3,4,~{CSN}_4*%
%TO.N,Net-(U2-P1.11)*%
X171500000Y-100000000D03*
%TO.P,U3,5,SCK_5*%
%TO.N,/scl*%
X168960000Y-102540000D03*
%TO.P,U3,6,MOSI_6*%
%TO.N,/sda*%
X171500000Y-102540000D03*
%TO.P,U3,7,MISO_7*%
%TO.N,/sdo*%
X168960000Y-105080000D03*
%TO.P,U3,8,IRQ_8*%
%TO.N,Net-(U2-P1.06)*%
X171500000Y-105080000D03*
%TD*%
D10*
%TO.P,M3 screw,1*%
%TO.N,N/C*%
X131828400Y-124000000D03*
%TD*%
D13*
%TO.P,U2,1,TX0/P0.06_1*%
%TO.N,unconnected-(U2-TX0{slash}P0.06-Pad1)*%
X130640000Y-108740000D03*
%TO.P,U2,2,RX1/P0.08_2*%
%TO.N,unconnected-(U2-RX1{slash}P0.08-Pad2)*%
X133180000Y-108740000D03*
%TO.P,U2,3,GND_3*%
%TO.N,unconnected-(U2-GND-Pad3)*%
X135720000Y-108740000D03*
%TO.P,U2,4,GND_4*%
%TO.N,unconnected-(U2-GND-Pad4)*%
X138260000Y-108740000D03*
%TO.P,U2,5,P0.17_5*%
%TO.N,unconnected-(U2-P0.17-Pad5)*%
X140800000Y-108740000D03*
%TO.P,U2,6,P0.20_6*%
%TO.N,unconnected-(U2-P0.20-Pad6)*%
X143340000Y-108740000D03*
%TO.P,U2,7,P0.22_7*%
%TO.N,Net-(U2-P0.22)*%
X145880000Y-108740000D03*
%TO.P,U2,8,P0.24_8*%
%TO.N,Net-(U2-P0.24)*%
X148420000Y-108740000D03*
%TO.P,U2,9,P1.00_9*%
%TO.N,Net-(U2-P1.00)*%
X150960000Y-108740000D03*
%TO.P,U2,10,P0.11_10*%
%TO.N,unconnected-(U2-P0.11-Pad10)*%
X153500000Y-108740000D03*
%TO.P,U2,11,P1.04_11*%
%TO.N,unconnected-(U2-P1.04-Pad11)*%
X156040000Y-108740000D03*
%TO.P,U2,12,P1.06_12*%
%TO.N,Net-(U2-P1.06)*%
X158580000Y-108740000D03*
%TO.P,U2,13,NFC1/P0.09_13*%
%TO.N,unconnected-(U2-NFC1{slash}P0.09-Pad13)*%
X158580000Y-93500000D03*
%TO.P,U2,14,NFC2/P0.10_14*%
%TO.N,unconnected-(U2-NFC2{slash}P0.10-Pad14)*%
X156040000Y-93500000D03*
%TO.P,U2,15,P1.11_15*%
%TO.N,Net-(U2-P1.11)*%
X153500000Y-93500000D03*
%TO.P,U2,16,P1.13_16*%
%TO.N,/sda*%
X150960000Y-93500000D03*
%TO.P,U2,17,P1.15_17*%
%TO.N,/scl*%
X148420000Y-93500000D03*
%TO.P,U2,18,AIN0/P0.02_18*%
%TO.N,/cs*%
X145880000Y-93500000D03*
%TO.P,U2,19,AIN5/P0.29_19*%
%TO.N,/sdo*%
X143340000Y-93500000D03*
%TO.P,U2,20,AIN7/P0.31_20*%
%TO.N,unconnected-(U2-AIN7{slash}P0.31-Pad20)*%
X140800000Y-93500000D03*
%TO.P,U2,21,VCC_21*%
%TO.N,/3.3v*%
X138260000Y-93500000D03*
%TO.P,U2,22,RST_22*%
%TO.N,unconnected-(U2-RST-Pad22)*%
X135720000Y-93500000D03*
%TO.P,U2,23,GND_23*%
%TO.N,/gnd*%
X133180000Y-93500000D03*
%TO.P,U2,24,BATIN/P0.04_24*%
%TO.N,unconnected-(U2-BATIN{slash}P0.04-Pad24)*%
X130640000Y-93500000D03*
%TO.P,U2,31,P1.01_31*%
%TO.N,/int1*%
X153500000Y-106200000D03*
%TO.P,U2,32,P1.02_32*%
%TO.N,/int2*%
X153500000Y-103660000D03*
%TO.P,U2,33,P1.07_33*%
%TO.N,Net-(U2-P1.07)*%
X153500000Y-101120000D03*
%TD*%
D11*
%TO.P,J1,1,Pin_1_1*%
%TO.N,/sdo*%
X160160000Y-83500000D03*
D12*
%TO.P,J1,2,Pin_2_2*%
%TO.N,/gnd*%
X160160000Y-86040000D03*
%TO.P,J1,3,Pin_3_3*%
X157620000Y-83500000D03*
%TO.P,J1,4,Pin_4_4*%
%TO.N,/int1*%
X157620000Y-86040000D03*
%TO.P,J1,5,Pin_5_5*%
%TO.N,/3.3v*%
X155080000Y-83500000D03*
%TO.P,J1,6,Pin_6_6*%
%TO.N,/gnd*%
X155080000Y-86040000D03*
%TO.P,J1,7,Pin_7_7*%
X152540000Y-83500000D03*
%TO.P,J1,8,Pin_8_8*%
%TO.N,/3.3v*%
X152540000Y-86040000D03*
%TO.P,J1,9,Pin_9_9*%
%TO.N,/int2*%
X150000000Y-83500000D03*
%TO.P,J1,10,Pin_10_10*%
%TO.N,Net-(J1-Pin_10)*%
X150000000Y-86040000D03*
%TO.P,J1,11,Pin_11_11*%
%TO.N,Net-(J1-Pin_11)*%
X147460000Y-83500000D03*
%TO.P,J1,12,Pin_12_12*%
%TO.N,/cs*%
X147460000Y-86040000D03*
%TO.P,J1,13,Pin_13_13*%
%TO.N,/scl*%
X144920000Y-83500000D03*
%TO.P,J1,14,Pin_14_14*%
%TO.N,/sda*%
X144920000Y-86040000D03*
%TD*%
D10*
%TO.P,M3 screw,1*%
%TO.N,N/C*%
X172000000Y-124000000D03*
%TD*%
%TO.P,M3 screw,1*%
%TO.N,N/C*%
X172000000Y-83500000D03*
%TD*%
D14*
%TO.P,D1,1,RK_1*%
%TO.N,Net-(D1-RK)*%
X133500000Y-112682000D03*
D15*
%TO.P,D1,2,A_2*%
%TO.N,/gnd*%
X133500000Y-114841000D03*
%TO.P,D1,3,GK_3*%
%TO.N,Net-(D1-GK)*%
X133500000Y-117000000D03*
%TO.P,D1,4,BK_4*%
%TO.N,Net-(D1-BK)*%
X133500000Y-119159000D03*
%TD*%
D16*
%TO.N,Net-(J1-Pin_10)*%
X155900000Y-112500000D03*
%TO.N,Net-(J1-Pin_11)*%
X165000000Y-111000000D03*
X155900000Y-111000000D03*
X173000000Y-112500000D03*
%TO.N,Net-(U2-P0.22)*%
X144500000Y-116000000D03*
%TO.N,Net-(U2-P0.24)*%
X143500000Y-111500000D03*
X145116300Y-111500000D03*
X146900001Y-111000000D03*
%TO.N,Net-(U2-P1.00)*%
X148500000Y-106500000D03*
X143000000Y-106000000D03*
%TO.N,/3.3v*%
X149500000Y-115500000D03*
X146000000Y-88000000D03*
X153500000Y-88500000D03*
X157500000Y-112500000D03*
X151500000Y-88000000D03*
X166000000Y-103000000D03*
%TO.N,/gnd*%
X151500000Y-84500000D03*
X160500000Y-101500000D03*
X153000000Y-117500000D03*
X159000000Y-81500000D03*
X152500000Y-98100000D03*
X156500000Y-115500000D03*
X163000000Y-82500000D03*
X162500000Y-84500000D03*
X157500000Y-115500000D03*
X153000000Y-81000000D03*
X157000000Y-81000000D03*
X154000000Y-117000000D03*
X161500000Y-89000000D03*
X149000000Y-113000000D03*
X152157109Y-100543700D03*
X165500000Y-101500000D03*
X154500000Y-89500000D03*
X146000000Y-101500000D03*
X158500000Y-104500000D03*
X136500000Y-114000000D03*
%TO.N,/cs*%
X154500000Y-111500000D03*
X150500000Y-99000000D03*
X147000000Y-88500000D03*
X145000000Y-91000000D03*
%TO.N,/int2*%
X159480000Y-98000000D03*
X157500000Y-100500000D03*
X155000000Y-98500000D03*
X159888444Y-96020000D03*
X154980000Y-101000000D03*
X161000000Y-92520000D03*
%TO.N,/sdo*%
X152000000Y-113000000D03*
X168500000Y-94500000D03*
X164500000Y-91000000D03*
%TO.N,/sda*%
X151500000Y-98100000D03*
X174000000Y-102000000D03*
X150000000Y-96000000D03*
X152000000Y-95500000D03*
X151500000Y-101000000D03*
%TO.N,/int1*%
X157500000Y-104000000D03*
X159000000Y-88500000D03*
X160500000Y-96400000D03*
X160000000Y-100543700D03*
X162000000Y-94000000D03*
X151500000Y-115500000D03*
%TO.N,/scl*%
X155500000Y-105000000D03*
X166500000Y-104480000D03*
X164000000Y-104480000D03*
X160000000Y-104000000D03*
X153500000Y-99000000D03*
%TO.N,Net-(U2-P1.07)*%
X153500000Y-101120000D03*
%TD*%
%TO.N,Net-(J1-Pin_10)*%
D17*
X163422032Y-87190000D02*
X151150000Y-87190000D01*
X174600000Y-98367968D02*
X163422032Y-87190000D01*
X174600000Y-103606346D02*
X174600000Y-98367968D01*
X156500000Y-111900000D02*
X166306346Y-111900000D01*
X155900000Y-112500000D02*
X156500000Y-111900000D01*
X151150000Y-87190000D02*
X150000000Y-86040000D01*
X166306346Y-111900000D02*
X174600000Y-103606346D01*
%TO.N,Net-(J1-Pin_11)*%
X148610000Y-82350000D02*
X147460000Y-83500000D01*
X175000000Y-96040000D02*
X161310000Y-82350000D01*
X161310000Y-82350000D02*
X148610000Y-82350000D01*
X173000000Y-112500000D02*
X175000000Y-110500000D01*
X155900000Y-111000000D02*
X165000000Y-111000000D01*
X175000000Y-110500000D02*
X175000000Y-96040000D01*
%TO.N,Net-(U2-P0.22)*%
X144500000Y-116000000D02*
X145880000Y-114620000D01*
X145880000Y-114620000D02*
X145880000Y-108740000D01*
%TO.N,Net-(U2-P0.24)*%
X143500000Y-111500000D02*
X145116300Y-111500000D01*
X146900001Y-110259999D02*
X148420000Y-108740000D01*
X146900001Y-111000000D02*
X146900001Y-110259999D01*
%TO.N,Net-(U2-P1.00)*%
X148000000Y-106000000D02*
X148500000Y-106500000D01*
X143000000Y-106000000D02*
X148000000Y-106000000D01*
%TO.N,/3.3v*%
X168723654Y-98610000D02*
X170350000Y-98610000D01*
X146000000Y-88000000D02*
X143760000Y-88000000D01*
X150500000Y-119000000D02*
X149500000Y-118000000D01*
X157692100Y-114500000D02*
X158100000Y-114907900D01*
X143760000Y-88000000D02*
X138260000Y-93500000D01*
X154848529Y-119000000D02*
X150500000Y-119000000D01*
X158100000Y-115748529D02*
X154848529Y-119000000D01*
X157500000Y-112500000D02*
X157692100Y-112692100D01*
X153000000Y-88000000D02*
X153500000Y-88500000D01*
X158100000Y-114907900D02*
X158100000Y-115748529D01*
X151500000Y-88000000D02*
X153000000Y-88000000D01*
X166000000Y-103000000D02*
X166100000Y-102900000D01*
X149500000Y-118000000D02*
X149500000Y-115500000D01*
X170350000Y-98610000D02*
X171500000Y-97460000D01*
X166100000Y-101233654D02*
X168723654Y-98610000D01*
X166100000Y-102900000D02*
X166100000Y-101233654D01*
X157692100Y-112692100D02*
X157692100Y-114500000D01*
%TO.N,/gnd*%
X136816300Y-103683700D02*
X140090000Y-100410000D01*
X156100000Y-87900000D02*
X160400000Y-87900000D01*
X152500000Y-98100000D02*
X152157109Y-98442891D01*
X156500000Y-116500000D02*
X154000000Y-116500000D01*
X141180000Y-101500000D02*
X140090000Y-100410000D01*
X160400000Y-87900000D02*
X161500000Y-89000000D01*
X152157109Y-98442891D02*
X152157109Y-100543700D01*
X146000000Y-101500000D02*
X141180000Y-101500000D01*
X136500000Y-114000000D02*
X136816300Y-113683700D01*
X159000000Y-81500000D02*
X162000000Y-81500000D01*
X149500000Y-114348529D02*
X149500000Y-113500000D01*
X157500000Y-115500000D02*
X156500000Y-116500000D01*
X149500000Y-113500000D02*
X149000000Y-113000000D01*
X162000000Y-81500000D02*
X163000000Y-82500000D01*
X153000000Y-81000000D02*
X157000000Y-81000000D01*
X154000000Y-116500000D02*
X151651471Y-116500000D01*
X136816300Y-113683700D02*
X136816300Y-103683700D01*
X160500000Y-101500000D02*
X165500000Y-101500000D01*
X140090000Y-100410000D02*
X133180000Y-93500000D01*
X151651471Y-116500000D02*
X149500000Y-114348529D01*
X154500000Y-89500000D02*
X156100000Y-87900000D01*
%TO.N,/cs*%
X150500000Y-100848529D02*
X150500000Y-99000000D01*
X147000000Y-88500000D02*
X145000000Y-90500000D01*
X145000000Y-90500000D02*
X145000000Y-91000000D01*
X154500000Y-111500000D02*
X152136300Y-109136300D01*
X152136300Y-102484829D02*
X150500000Y-100848529D01*
X152136300Y-109136300D02*
X152136300Y-102484829D01*
%TO.N,/int2*%
X153500000Y-103660000D02*
X154980000Y-102180000D01*
X148930000Y-86483209D02*
X148930000Y-84570000D01*
X159480000Y-98000000D02*
X159480000Y-96428444D01*
X148930000Y-84570000D02*
X150000000Y-83500000D01*
X159480000Y-96428444D02*
X159888444Y-96020000D01*
X153446791Y-91000000D02*
X148930000Y-86483209D01*
X159480000Y-91000000D02*
X153446791Y-91000000D01*
X157500000Y-100500000D02*
X155500000Y-98500000D01*
X155500000Y-98500000D02*
X155000000Y-98500000D01*
X154980000Y-102180000D02*
X154980000Y-101000000D01*
X161000000Y-92520000D02*
X159480000Y-91000000D01*
%TO.N,/sdo*%
X149596300Y-99756300D02*
X148840000Y-99000000D01*
X168000000Y-94500000D02*
X168500000Y-94500000D01*
X164500000Y-91000000D02*
X168000000Y-94500000D01*
X152000000Y-113000000D02*
X149596300Y-110596300D01*
X168960000Y-105080000D02*
X163080000Y-105080000D01*
X148840000Y-99000000D02*
X143340000Y-93500000D01*
X163080000Y-105080000D02*
X155500000Y-97500000D01*
X149596300Y-110596300D02*
X149596300Y-99756300D01*
X150340000Y-97500000D02*
X148840000Y-99000000D01*
X155500000Y-97500000D02*
X150340000Y-97500000D01*
%TO.N,/sda*%
X152000000Y-95500000D02*
X171166346Y-95500000D01*
X150960000Y-95040000D02*
X150960000Y-93500000D01*
X150000000Y-96000000D02*
X150960000Y-95040000D01*
X171166346Y-95500000D02*
X174000000Y-98333654D01*
X151500000Y-101000000D02*
X151500000Y-98100000D01*
X174000000Y-98333654D02*
X174000000Y-102000000D01*
%TO.N,/int1*%
X157500000Y-104000000D02*
X155000000Y-106500000D01*
X151500000Y-115500000D02*
X155100000Y-111900000D01*
X160500000Y-96400000D02*
X160000000Y-96900000D01*
X159000000Y-88500000D02*
X162000000Y-91500000D01*
X153800000Y-106500000D02*
X153500000Y-106200000D01*
X154676300Y-107376300D02*
X153500000Y-106200000D01*
X155000000Y-106500000D02*
X153800000Y-106500000D01*
X155100000Y-111900000D02*
X155100000Y-111251471D01*
X160000000Y-96900000D02*
X160000000Y-100543700D01*
X155100000Y-111251471D02*
X154676300Y-110827771D01*
X154676300Y-110827771D02*
X154676300Y-107376300D01*
X162000000Y-91500000D02*
X162000000Y-94000000D01*
%TO.N,/scl*%
X156500000Y-100500000D02*
X155500000Y-100500000D01*
X153500000Y-99000000D02*
X154000000Y-99000000D01*
X160000000Y-104000000D02*
X156500000Y-100500000D01*
X154000000Y-99000000D02*
X155500000Y-100500000D01*
X155500000Y-100500000D02*
X155500000Y-105000000D01*
X166500000Y-104480000D02*
X164000000Y-104480000D01*
%TO.N,Net-(U2-P1.06)*%
X171500000Y-105080000D02*
X167840000Y-108740000D01*
X167840000Y-108740000D02*
X158580000Y-108740000D01*
%TO.N,Net-(U2-P1.07)*%
X168960000Y-100000000D02*
X168960000Y-100888529D01*
%TD*%
%TA.AperFunction,Conductor*%
%TO.N,/gnd*%
G36*
X171483417Y-80020185D02*
G01*
X171529172Y-80072989D01*
X171539116Y-80142147D01*
X171510091Y-80205703D01*
X171451313Y-80243477D01*
X171440569Y-80246117D01*
X171197097Y-80294545D01*
X171197086Y-80294548D01*
X170886752Y-80388686D01*
X170587150Y-80512786D01*
X170587145Y-80512788D01*
X170301169Y-80665646D01*
X170301151Y-80665657D01*
X170031532Y-80845811D01*
X170031518Y-80845821D01*
X169780841Y-81051546D01*
X169551546Y-81280841D01*
X169345821Y-81531518D01*
X169345811Y-81531532D01*
X169165657Y-81801151D01*
X169165646Y-81801169D01*
X169012788Y-82087145D01*
X169012786Y-82087150D01*
X168888686Y-82386752D01*
X168794548Y-82697086D01*
X168794545Y-82697097D01*
X168731287Y-83015125D01*
X168731284Y-83015142D01*
X168714677Y-83183760D01*
X168699500Y-83337857D01*
X168699500Y-83662143D01*
X168703140Y-83699096D01*
X168731284Y-83984857D01*
X168731287Y-83984874D01*
X168794545Y-84302902D01*
X168794548Y-84302913D01*
X168888686Y-84613247D01*
X168953616Y-84770000D01*
X169002003Y-84886818D01*
X169012786Y-84912849D01*
X169012788Y-84912854D01*
X169165646Y-85198830D01*
X169165650Y-85198837D01*
X169165653Y-85198842D01*
X169254924Y-85332446D01*
X169345811Y-85468467D01*
X169345821Y-85468481D01*
X169551546Y-85719158D01*
X169780841Y-85948453D01*
X169780846Y-85948457D01*
X169780847Y-85948458D01*
X170031524Y-86154183D01*
X170301158Y-86334347D01*
X170301167Y-86334352D01*
X170301169Y-86334353D01*
X170587145Y-86487211D01*
X170587147Y-86487211D01*
X170587153Y-86487215D01*
X170886754Y-86611314D01*
X171197077Y-86705449D01*
X171197083Y-86705450D01*
X171197086Y-86705451D01*
X171197097Y-86705454D01*
X171396528Y-86745122D01*
X171515132Y-86768714D01*
X171837857Y-86800500D01*
X171837860Y-86800500D01*
X172162140Y-86800500D01*
X172162143Y-86800500D01*
X172484868Y-86768714D01*
X172642295Y-86737399D01*
X172802902Y-86705454D01*
X172802913Y-86705451D01*
X172802913Y-86705450D01*
X172802923Y-86705449D01*
X173113246Y-86611314D01*
X173412847Y-86487215D01*
X173698842Y-86334347D01*
X173968476Y-86154183D01*
X174219153Y-85948458D01*
X174448458Y-85719153D01*
X174654183Y-85468476D01*
X174834347Y-85198842D01*
X174987215Y-84912847D01*
X175111314Y-84613246D01*
X175205449Y-84302923D01*
X175205451Y-84302913D01*
X175205454Y-84302902D01*
X175253883Y-84059430D01*
X175286267Y-83997519D01*
X175346983Y-83962945D01*
X175416753Y-83966684D01*
X175473425Y-84007550D01*
X175499006Y-84072568D01*
X175499500Y-84083621D01*
X175499500Y-95390902D01*
X175479815Y-95457941D01*
X175427011Y-95503696D01*
X175357853Y-95513640D01*
X175294297Y-95484615D01*
X175287819Y-95478583D01*
X161797590Y-81988355D01*
X161797588Y-81988352D01*
X161678717Y-81869481D01*
X161678709Y-81869475D01*
X161560379Y-81801158D01*
X161560379Y-81801157D01*
X161560374Y-81801156D01*
X161553887Y-81797410D01*
X161541786Y-81790423D01*
X161503603Y-81780192D01*
X161389057Y-81749499D01*
X161230943Y-81749499D01*
X161223347Y-81749499D01*
X161223331Y-81749500D01*
X148696670Y-81749500D01*
X148696654Y-81749499D01*
X148689058Y-81749499D01*
X148530943Y-81749499D01*
X148454579Y-81769961D01*
X148378214Y-81790423D01*
X148378209Y-81790426D01*
X148241290Y-81869475D01*
X148241282Y-81869481D01*
X147944522Y-82166241D01*
X147883199Y-82199726D01*
X147818523Y-82196491D01*
X147776245Y-82182754D01*
X147636272Y-82160584D01*
X147566287Y-82149500D01*
X147353713Y-82149500D01*
X147305042Y-82157208D01*
X147143760Y-82182753D01*
X146941585Y-82248444D01*
X146752179Y-82344951D01*
X146580213Y-82469890D01*
X146429890Y-82620213D01*
X146304949Y-82792182D01*
X146300484Y-82800946D01*
X146252509Y-82851742D01*
X146184688Y-82868536D01*
X146118553Y-82845998D01*
X146079516Y-82800946D01*
X146075050Y-82792182D01*
X145950109Y-82620213D01*
X145799786Y-82469890D01*
X145627820Y-82344951D01*
X145438414Y-82248444D01*
X145438413Y-82248443D01*
X145438412Y-82248443D01*
X145236243Y-82182754D01*
X145236241Y-82182753D01*
X145236240Y-82182753D01*
X145074957Y-82157208D01*
X145026287Y-82149500D01*
X144813713Y-82149500D01*
X144765042Y-82157208D01*
X144603760Y-82182753D01*
X144401585Y-82248444D01*
X144212179Y-82344951D01*
X144040213Y-82469890D01*
X143889890Y-82620213D01*
X143764951Y-82792179D01*
X143668444Y-82981585D01*
X143602753Y-83183760D01*
X143601291Y-83192993D01*
X143569500Y-83393713D01*
X143569500Y-83606287D01*
X143602754Y-83816243D01*
X143661654Y-83997519D01*
X143668444Y-84018414D01*
X143764951Y-84207820D01*
X143889890Y-84379786D01*
X144040213Y-84530109D01*
X144212182Y-84655050D01*
X144220946Y-84659516D01*
X144271742Y-84707491D01*
X144288536Y-84775312D01*
X144265998Y-84841447D01*
X144220946Y-84880484D01*
X144212182Y-84884949D01*
X144040213Y-85009890D01*
X143889890Y-85160213D01*
X143764951Y-85332179D01*
X143668444Y-85521585D01*
X143602753Y-85723760D01*
X143601291Y-85732993D01*
X143569500Y-85933713D01*
X143569500Y-86146287D01*
X143571291Y-86157596D01*
X143602735Y-86356127D01*
X143602754Y-86356243D01*
X143645308Y-86487211D01*
X143668444Y-86558414D01*
X143764951Y-86747820D01*
X143889890Y-86919786D01*
X144040209Y-87070105D01*
X144040214Y-87070109D01*
X144184835Y-87175182D01*
X144227501Y-87230511D01*
X144233480Y-87300125D01*
X144200875Y-87361920D01*
X144140036Y-87396277D01*
X144111950Y-87399500D01*
X143846670Y-87399500D01*
X143846654Y-87399499D01*
X143839058Y-87399499D01*
X143680943Y-87399499D01*
X143604579Y-87419961D01*
X143528214Y-87440423D01*
X143528209Y-87440426D01*
X143391290Y-87519475D01*
X143391282Y-87519481D01*
X138765393Y-92145370D01*
X138704070Y-92178855D01*
X138639394Y-92175620D01*
X138620122Y-92169358D01*
X138582401Y-92157101D01*
X138397621Y-92127835D01*
X138368356Y-92123200D01*
X138151644Y-92123200D01*
X138080295Y-92134500D01*
X137937597Y-92157102D01*
X137937594Y-92157102D01*
X137731494Y-92224068D01*
X137538399Y-92322455D01*
X137363072Y-92449838D01*
X137209838Y-92603072D01*
X137209838Y-92603073D01*
X137209836Y-92603075D01*
X137209834Y-92603078D01*
X137090318Y-92767577D01*
X137034988Y-92810242D01*
X136965374Y-92816221D01*
X136903579Y-92783615D01*
X136889682Y-92767577D01*
X136866837Y-92736134D01*
X136770164Y-92603075D01*
X136616925Y-92449836D01*
X136441600Y-92322455D01*
X136248505Y-92224068D01*
X136042404Y-92157102D01*
X135881867Y-92131675D01*
X135828356Y-92123200D01*
X135611644Y-92123200D01*
X135540295Y-92134500D01*
X135397597Y-92157102D01*
X135397594Y-92157102D01*
X135191494Y-92224068D01*
X134998399Y-92322455D01*
X134823072Y-92449838D01*
X134669838Y-92603072D01*
X134669838Y-92603073D01*
X134669836Y-92603075D01*
X134669834Y-92603078D01*
X134550009Y-92768002D01*
X134494679Y-92810667D01*
X134425065Y-92816646D01*
X134363270Y-92784040D01*
X134349373Y-92768001D01*
X134314101Y-92719453D01*
X134314099Y-92719452D01*
X133700603Y-93332949D01*
X133688884Y-93289213D01*
X133616989Y-93164687D01*
X133515313Y-93063011D01*
X133390787Y-92991116D01*
X133347049Y-92979396D01*
X133960545Y-92365899D01*
X133960545Y-92365898D01*
X133901342Y-92322885D01*
X133708320Y-92224534D01*
X133502284Y-92157588D01*
X133288322Y-92123700D01*
X133071678Y-92123700D01*
X132857715Y-92157588D01*
X132651679Y-92224534D01*
X132458659Y-92322884D01*
X132399453Y-92365898D01*
X132399453Y-92365899D01*
X133012950Y-92979396D01*
X132969213Y-92991116D01*
X132844687Y-93063011D01*
X132743011Y-93164687D01*
X132671116Y-93289213D01*
X132659396Y-93332950D01*
X132045899Y-92719453D01*
X132045897Y-92719453D01*
X132010626Y-92768001D01*
X131955297Y-92810667D01*
X131885683Y-92816646D01*
X131823888Y-92784041D01*
X131809990Y-92768001D01*
X131690166Y-92603078D01*
X131690161Y-92603072D01*
X131536927Y-92449838D01*
X131536925Y-92449836D01*
X131361600Y-92322455D01*
X131168505Y-92224068D01*
X130962404Y-92157102D01*
X130801867Y-92131675D01*
X130748356Y-92123200D01*
X130531644Y-92123200D01*
X130460295Y-92134500D01*
X130317597Y-92157102D01*
X130317594Y-92157102D01*
X130111494Y-92224068D01*
X129918399Y-92322455D01*
X129743072Y-92449838D01*
X129589838Y-92603072D01*
X129462455Y-92778399D01*
X129364068Y-92971494D01*
X129297102Y-93177594D01*
X129297102Y-93177597D01*
X129279185Y-93290720D01*
X129263200Y-93391644D01*
X129263200Y-93608356D01*
X129265173Y-93620814D01*
X129297102Y-93822402D01*
X129297102Y-93822405D01*
X129364068Y-94028505D01*
X129442967Y-94183352D01*
X129462455Y-94221600D01*
X129589836Y-94396925D01*
X129743075Y-94550164D01*
X129918400Y-94677545D01*
X130076014Y-94757853D01*
X130111494Y-94775931D01*
X130317595Y-94842897D01*
X130317596Y-94842897D01*
X130317599Y-94842898D01*
X130531644Y-94876800D01*
X130531645Y-94876800D01*
X130748355Y-94876800D01*
X130748356Y-94876800D01*
X130962401Y-94842898D01*
X130962404Y-94842897D01*
X130962405Y-94842897D01*
X131168505Y-94775931D01*
X131168505Y-94775930D01*
X131168508Y-94775930D01*
X131361600Y-94677545D01*
X131536925Y-94550164D01*
X131690164Y-94396925D01*
X131809991Y-94231996D01*
X131865321Y-94189331D01*
X131934934Y-94183352D01*
X131996729Y-94215958D01*
X132010628Y-94231998D01*
X132045899Y-94280545D01*
X132659396Y-93667049D01*
X132671116Y-93710787D01*
X132743011Y-93835313D01*
X132844687Y-93936989D01*
X132969213Y-94008884D01*
X133012950Y-94020603D01*
X132399452Y-94634099D01*
X132399453Y-94634100D01*
X132458657Y-94677114D01*
X132651679Y-94775465D01*
X132857715Y-94842411D01*
X133071678Y-94876300D01*
X133288322Y-94876300D01*
X133502284Y-94842411D01*
X133708320Y-94775465D01*
X133901331Y-94677120D01*
X133901344Y-94677112D01*
X133960545Y-94634100D01*
X133960546Y-94634099D01*
X133347049Y-94020603D01*
X133390787Y-94008884D01*
X133515313Y-93936989D01*
X133616989Y-93835313D01*
X133688884Y-93710787D01*
X133700603Y-93667049D01*
X134314099Y-94280546D01*
X134314099Y-94280545D01*
X134349373Y-94231997D01*
X134404703Y-94189332D01*
X134474317Y-94183353D01*
X134536112Y-94215959D01*
X134550008Y-94231995D01*
X134669836Y-94396925D01*
X134823075Y-94550164D01*
X134998400Y-94677545D01*
X135156014Y-94757853D01*
X135191494Y-94775931D01*
X135397595Y-94842897D01*
X135397596Y-94842897D01*
X135397599Y-94842898D01*
X135611644Y-94876800D01*
X135611645Y-94876800D01*
X135828355Y-94876800D01*
X135828356Y-94876800D01*
X136042401Y-94842898D01*
X136042404Y-94842897D01*
X136042405Y-94842897D01*
X136248505Y-94775931D01*
X136248505Y-94775930D01*
X136248508Y-94775930D01*
X136441600Y-94677545D01*
X136616925Y-94550164D01*
X136770164Y-94396925D01*
X136864922Y-94266502D01*
X136889682Y-94232423D01*
X136945012Y-94189757D01*
X137014625Y-94183778D01*
X137076420Y-94216384D01*
X137090318Y-94232423D01*
X137196938Y-94379172D01*
X137209836Y-94396925D01*
X137363075Y-94550164D01*
X137538400Y-94677545D01*
X137696014Y-94757853D01*
X137731494Y-94775931D01*
X137937595Y-94842897D01*
X137937596Y-94842897D01*
X137937599Y-94842898D01*
X138151644Y-94876800D01*
X138151645Y-94876800D01*
X138368355Y-94876800D01*
X138368356Y-94876800D01*
X138582401Y-94842898D01*
X138582404Y-94842897D01*
X138582405Y-94842897D01*
X138788505Y-94775931D01*
X138788505Y-94775930D01*
X138788508Y-94775930D01*
X138981600Y-94677545D01*
X139156925Y-94550164D01*
X139310164Y-94396925D01*
X139404922Y-94266502D01*
X139429682Y-94232423D01*
X139485012Y-94189757D01*
X139554625Y-94183778D01*
X139616420Y-94216384D01*
X139630318Y-94232423D01*
X139736938Y-94379172D01*
X139749836Y-94396925D01*
X139903075Y-94550164D01*
X140078400Y-94677545D01*
X140236014Y-94757853D01*
X140271494Y-94775931D01*
X140477595Y-94842897D01*
X140477596Y-94842897D01*
X140477599Y-94842898D01*
X140691644Y-94876800D01*
X140691645Y-94876800D01*
X140908355Y-94876800D01*
X140908356Y-94876800D01*
X141122401Y-94842898D01*
X141122404Y-94842897D01*
X141122405Y-94842897D01*
X141328505Y-94775931D01*
X141328505Y-94775930D01*
X141328508Y-94775930D01*
X141521600Y-94677545D01*
X141696925Y-94550164D01*
X141850164Y-94396925D01*
X141944922Y-94266502D01*
X141969682Y-94232423D01*
X142025012Y-94189757D01*
X142094625Y-94183778D01*
X142156420Y-94216384D01*
X142170318Y-94232423D01*
X142276938Y-94379172D01*
X142289836Y-94396925D01*
X142443075Y-94550164D01*
X142618400Y-94677545D01*
X142776014Y-94757853D01*
X142811494Y-94775931D01*
X143017595Y-94842897D01*
X143017596Y-94842897D01*
X143017599Y-94842898D01*
X143231644Y-94876800D01*
X143231645Y-94876800D01*
X143448355Y-94876800D01*
X143448356Y-94876800D01*
X143662401Y-94842898D01*
X143719396Y-94824378D01*
X143789236Y-94822384D01*
X143845393Y-94854628D01*
X146167101Y-97176337D01*
X148478349Y-99487585D01*
X148478355Y-99487590D01*
X148959481Y-99968716D01*
X148992966Y-100030039D01*
X148995800Y-100056397D01*
X148995800Y-105653333D01*
X148976115Y-105720372D01*
X148923311Y-105766127D01*
X148854153Y-105776071D01*
X148824348Y-105767894D01*
X148733501Y-105730264D01*
X148733491Y-105730261D01*
X148578151Y-105699362D01*
X148516241Y-105666977D01*
X148514660Y-105665425D01*
X148502568Y-105653333D01*
X148480521Y-105631285D01*
X148480520Y-105631284D01*
X148368716Y-105519480D01*
X148281904Y-105469360D01*
X148281904Y-105469359D01*
X148281900Y-105469358D01*
X148231785Y-105440423D01*
X148079057Y-105399499D01*
X147920943Y-105399499D01*
X147913347Y-105399499D01*
X147913331Y-105399500D01*
X143579766Y-105399500D01*
X143512727Y-105379815D01*
X143510875Y-105378602D01*
X143379185Y-105290609D01*
X143379172Y-105290602D01*
X143233501Y-105230264D01*
X143233489Y-105230261D01*
X143078845Y-105199500D01*
X143078842Y-105199500D01*
X142921158Y-105199500D01*
X142921155Y-105199500D01*
X142766510Y-105230261D01*
X142766498Y-105230264D01*
X142620827Y-105290602D01*
X142620814Y-105290609D01*
X142489711Y-105378210D01*
X142489707Y-105378213D01*
X142378213Y-105489707D01*
X142378210Y-105489711D01*
X142290609Y-105620814D01*
X142290602Y-105620827D01*
X142230264Y-105766498D01*
X142230261Y-105766510D01*
X142199500Y-105921153D01*
X142199500Y-106078846D01*
X142230261Y-106233489D01*
X142230264Y-106233501D01*
X142290602Y-106379172D01*
X142290609Y-106379185D01*
X142378210Y-106510288D01*
X142378213Y-106510292D01*
X142489707Y-106621786D01*
X142489711Y-106621789D01*
X142620814Y-106709390D01*
X142620827Y-106709397D01*
X142766498Y-106769735D01*
X142766503Y-106769737D01*
X142921153Y-106800499D01*
X142921156Y-106800500D01*
X142921158Y-106800500D01*
X143078844Y-106800500D01*
X143078845Y-106800499D01*
X143233497Y-106769737D01*
X143379179Y-106709394D01*
X143433663Y-106672989D01*
X143510875Y-106621398D01*
X143577553Y-106600520D01*
X143579766Y-106600500D01*
X147602044Y-106600500D01*
X147669083Y-106620185D01*
X147714838Y-106672989D01*
X147723661Y-106700309D01*
X147730261Y-106733489D01*
X147730264Y-106733501D01*
X147790602Y-106879172D01*
X147790609Y-106879185D01*
X147878210Y-107010288D01*
X147878213Y-107010292D01*
X147989707Y-107121786D01*
X147989715Y-107121792D01*
X148089667Y-107188578D01*
X148134473Y-107242190D01*
X148143180Y-107311515D01*
X148113026Y-107374542D01*
X148059096Y-107409611D01*
X147891493Y-107464069D01*
X147698399Y-107562455D01*
X147523072Y-107689838D01*
X147369838Y-107843072D01*
X147369838Y-107843073D01*
X147369836Y-107843075D01*
X147298198Y-107941675D01*
X147250318Y-108007577D01*
X147194988Y-108050242D01*
X147125374Y-108056221D01*
X147063579Y-108023615D01*
X147049682Y-108007577D01*
X147026837Y-107976134D01*
X146930164Y-107843075D01*
X146776925Y-107689836D01*
X146601600Y-107562455D01*
X146488214Y-107504682D01*
X146408505Y-107464068D01*
X146202404Y-107397102D01*
X146041867Y-107371675D01*
X145988356Y-107363200D01*
X145771644Y-107363200D01*
X145700295Y-107374500D01*
X145557597Y-107397102D01*
X145557594Y-107397102D01*
X145351494Y-107464068D01*
X145158399Y-107562455D01*
X144983072Y-107689838D01*
X144829838Y-107843072D01*
X144829838Y-107843073D01*
X144829836Y-107843075D01*
X144758198Y-107941675D01*
X144710318Y-108007577D01*
X144654988Y-108050242D01*
X144585374Y-108056221D01*
X144523579Y-108023615D01*
X144509682Y-108007577D01*
X144486837Y-107976134D01*
X144390164Y-107843075D01*
X144236925Y-107689836D01*
X144061600Y-107562455D01*
X143948214Y-107504682D01*
X143868505Y-107464068D01*
X143662404Y-107397102D01*
X143501867Y-107371675D01*
X143448356Y-107363200D01*
X143231644Y-107363200D01*
X143160295Y-107374500D01*
X143017597Y-107397102D01*
X143017594Y-107397102D01*
X142811494Y-107464068D01*
X142618399Y-107562455D01*
X142443072Y-107689838D01*
X142289838Y-107843072D01*
X142289838Y-107843073D01*
X142289836Y-107843075D01*
X142218198Y-107941675D01*
X142170318Y-108007577D01*
X142114988Y-108050242D01*
X142045374Y-108056221D01*
X141983579Y-108023615D01*
X141969682Y-108007577D01*
X141946837Y-107976134D01*
X141850164Y-107843075D01*
X141696925Y-107689836D01*
X141521600Y-107562455D01*
X141408214Y-107504682D01*
X141328505Y-107464068D01*
X141122404Y-107397102D01*
X140961867Y-107371675D01*
X140908356Y-107363200D01*
X140691644Y-107363200D01*
X140620295Y-107374500D01*
X140477597Y-107397102D01*
X140477594Y-107397102D01*
X140271494Y-107464068D01*
X140078399Y-107562455D01*
X139903072Y-107689838D01*
X139749838Y-107843072D01*
X139749838Y-107843073D01*
X139749836Y-107843075D01*
X139678198Y-107941675D01*
X139630318Y-108007577D01*
X139574988Y-108050242D01*
X139505374Y-108056221D01*
X139443579Y-108023615D01*
X139429682Y-108007577D01*
X139406837Y-107976134D01*
X139310164Y-107843075D01*
X139156925Y-107689836D01*
X138981600Y-107562455D01*
X138868214Y-107504682D01*
X138788505Y-107464068D01*
X138582404Y-107397102D01*
X138421867Y-107371675D01*
X138368356Y-107363200D01*
X138151644Y-107363200D01*
X138080295Y-107374500D01*
X137937597Y-107397102D01*
X137937594Y-107397102D01*
X137731494Y-107464068D01*
X137538399Y-107562455D01*
X137363072Y-107689838D01*
X137209838Y-107843072D01*
X137209838Y-107843073D01*
X137209836Y-107843075D01*
X137138198Y-107941675D01*
X137090318Y-108007577D01*
X137034988Y-108050242D01*
X136965374Y-108056221D01*
X136903579Y-108023615D01*
X136889682Y-108007577D01*
X136866837Y-107976134D01*
X136770164Y-107843075D01*
X136616925Y-107689836D01*
X136441600Y-107562455D01*
X136328214Y-107504682D01*
X136248505Y-107464068D01*
X136042404Y-107397102D01*
X135881867Y-107371675D01*
X135828356Y-107363200D01*
X135611644Y-107363200D01*
X135540295Y-107374500D01*
X135397597Y-107397102D01*
X135397594Y-107397102D01*
X135191494Y-107464068D01*
X134998399Y-107562455D01*
X134823072Y-107689838D01*
X134669838Y-107843072D01*
X134669838Y-107843073D01*
X134669836Y-107843075D01*
X134598198Y-107941675D01*
X134550318Y-108007577D01*
X134494988Y-108050242D01*
X134425374Y-108056221D01*
X134363579Y-108023615D01*
X134349682Y-108007577D01*
X134326837Y-107976134D01*
X134230164Y-107843075D01*
X134076925Y-107689836D01*
X133901600Y-107562455D01*
X133788214Y-107504682D01*
X133708505Y-107464068D01*
X133502404Y-107397102D01*
X133341867Y-107371675D01*
X133288356Y-107363200D01*
X133071644Y-107363200D01*
X133000295Y-107374500D01*
X132857597Y-107397102D01*
X132857594Y-107397102D01*
X132651494Y-107464068D01*
X132458399Y-107562455D01*
X132283072Y-107689838D01*
X132129838Y-107843072D01*
X132129838Y-107843073D01*
X132129836Y-107843075D01*
X132058198Y-107941675D01*
X132010318Y-108007577D01*
X131954988Y-108050242D01*
X131885374Y-108056221D01*
X131823579Y-108023615D01*
X131809682Y-108007577D01*
X131786837Y-107976134D01*
X131690164Y-107843075D01*
X131536925Y-107689836D01*
X131361600Y-107562455D01*
X131248214Y-107504682D01*
X131168505Y-107464068D01*
X130962404Y-107397102D01*
X130801867Y-107371675D01*
X130748356Y-107363200D01*
X130531644Y-107363200D01*
X130460295Y-107374500D01*
X130317597Y-107397102D01*
X130317594Y-107397102D01*
X130111494Y-107464068D01*
X129918399Y-107562455D01*
X129743072Y-107689838D01*
X129589838Y-107843072D01*
X129462455Y-108018399D01*
X129364068Y-108211494D01*
X129297102Y-108417594D01*
X129297102Y-108417597D01*
X129263200Y-108631644D01*
X129263200Y-108848355D01*
X129297102Y-109062402D01*
X129297102Y-109062405D01*
X129364068Y-109268505D01*
X129443184Y-109423778D01*
X129462455Y-109461600D01*
X129589836Y-109636925D01*
X129743075Y-109790164D01*
X129918400Y-109917545D01*
X130057096Y-109988214D01*
X130111494Y-110015931D01*
X130317595Y-110082897D01*
X130317596Y-110082897D01*
X130317599Y-110082898D01*
X130531644Y-110116800D01*
X130531645Y-110116800D01*
X130748355Y-110116800D01*
X130748356Y-110116800D01*
X130962401Y-110082898D01*
X130962404Y-110082897D01*
X130962405Y-110082897D01*
X131168505Y-110015931D01*
X131168505Y-110015930D01*
X131168508Y-110015930D01*
X131361600Y-109917545D01*
X131536925Y-109790164D01*
X131690164Y-109636925D01*
X131809682Y-109472423D01*
X131865012Y-109429757D01*
X131934625Y-109423778D01*
X131996420Y-109456384D01*
X132010318Y-109472423D01*
X132129836Y-109636925D01*
X132283075Y-109790164D01*
X132458400Y-109917545D01*
X132597096Y-109988214D01*
X132651494Y-110015931D01*
X132857595Y-110082897D01*
X132857596Y-110082897D01*
X132857599Y-110082898D01*
X133071644Y-110116800D01*
X133071645Y-110116800D01*
X133288355Y-110116800D01*
X133288356Y-110116800D01*
X133502401Y-110082898D01*
X133502404Y-110082897D01*
X133502405Y-110082897D01*
X133708505Y-110015931D01*
X133708505Y-110015930D01*
X133708508Y-110015930D01*
X133901600Y-109917545D01*
X134076925Y-109790164D01*
X134230164Y-109636925D01*
X134349682Y-109472423D01*
X134405012Y-109429757D01*
X134474625Y-109423778D01*
X134536420Y-109456384D01*
X134550318Y-109472423D01*
X134669836Y-109636925D01*
X134823075Y-109790164D01*
X134998400Y-109917545D01*
X135137096Y-109988214D01*
X135191494Y-110015931D01*
X135397595Y-110082897D01*
X135397596Y-110082897D01*
X135397599Y-110082898D01*
X135611644Y-110116800D01*
X135611645Y-110116800D01*
X135828355Y-110116800D01*
X135828356Y-110116800D01*
X136042401Y-110082898D01*
X136042404Y-110082897D01*
X136042405Y-110082897D01*
X136248505Y-110015931D01*
X136248505Y-110015930D01*
X136248508Y-110015930D01*
X136441600Y-109917545D01*
X136616925Y-109790164D01*
X136770164Y-109636925D01*
X136889682Y-109472423D01*
X136945012Y-109429757D01*
X137014625Y-109423778D01*
X137076420Y-109456384D01*
X137090318Y-109472423D01*
X137209836Y-109636925D01*
X137363075Y-109790164D01*
X137538400Y-109917545D01*
X137677096Y-109988214D01*
X137731494Y-110015931D01*
X137937595Y-110082897D01*
X137937596Y-110082897D01*
X137937599Y-110082898D01*
X138151644Y-110116800D01*
X138151645Y-110116800D01*
X138368355Y-110116800D01*
X138368356Y-110116800D01*
X138582401Y-110082898D01*
X138582404Y-110082897D01*
X138582405Y-110082897D01*
X138788505Y-110015931D01*
X138788505Y-110015930D01*
X138788508Y-110015930D01*
X138981600Y-109917545D01*
X139156925Y-109790164D01*
X139310164Y-109636925D01*
X139429682Y-109472423D01*
X139485012Y-109429757D01*
X139554625Y-109423778D01*
X139616420Y-109456384D01*
X139630318Y-109472423D01*
X139749836Y-109636925D01*
X139903075Y-109790164D01*
X140078400Y-109917545D01*
X140217096Y-109988214D01*
X140271494Y-110015931D01*
X140477595Y-110082897D01*
X140477596Y-110082897D01*
X140477599Y-110082898D01*
X140691644Y-110116800D01*
X140691645Y-110116800D01*
X140908355Y-110116800D01*
X140908356Y-110116800D01*
X141122401Y-110082898D01*
X141122404Y-110082897D01*
X141122405Y-110082897D01*
X141328505Y-110015931D01*
X141328505Y-110015930D01*
X141328508Y-110015930D01*
X141521600Y-109917545D01*
X141696925Y-109790164D01*
X141850164Y-109636925D01*
X141969682Y-109472423D01*
X142025012Y-109429757D01*
X142094625Y-109423778D01*
X142156420Y-109456384D01*
X142170318Y-109472423D01*
X142289836Y-109636925D01*
X142443075Y-109790164D01*
X142618400Y-109917545D01*
X142757096Y-109988214D01*
X142811494Y-110015931D01*
X143017595Y-110082897D01*
X143017596Y-110082897D01*
X143017599Y-110082898D01*
X143231644Y-110116800D01*
X143231645Y-110116800D01*
X143448355Y-110116800D01*
X143448356Y-110116800D01*
X143662401Y-110082898D01*
X143662404Y-110082897D01*
X143662405Y-110082897D01*
X143868505Y-110015931D01*
X143868505Y-110015930D01*
X143868508Y-110015930D01*
X144061600Y-109917545D01*
X144236925Y-109790164D01*
X144390164Y-109636925D01*
X144509682Y-109472423D01*
X144565012Y-109429757D01*
X144634625Y-109423778D01*
X144696420Y-109456384D01*
X144710318Y-109472423D01*
X144829836Y-109636925D01*
X144983075Y-109790164D01*
X145158400Y-109917545D01*
X145211794Y-109944750D01*
X145262590Y-109992724D01*
X145279500Y-110055235D01*
X145279500Y-110575500D01*
X145259815Y-110642539D01*
X145207011Y-110688294D01*
X145155500Y-110699500D01*
X145037455Y-110699500D01*
X144882810Y-110730261D01*
X144882798Y-110730264D01*
X144737127Y-110790602D01*
X144737114Y-110790609D01*
X144605425Y-110878602D01*
X144538747Y-110899480D01*
X144536534Y-110899500D01*
X144079766Y-110899500D01*
X144012727Y-110879815D01*
X144010875Y-110878602D01*
X143879185Y-110790609D01*
X143879172Y-110790602D01*
X143733501Y-110730264D01*
X143733489Y-110730261D01*
X143578845Y-110699500D01*
X143578842Y-110699500D01*
X143421158Y-110699500D01*
X143421155Y-110699500D01*
X143266510Y-110730261D01*
X143266498Y-110730264D01*
X143120827Y-110790602D01*
X143120814Y-110790609D01*
X142989711Y-110878210D01*
X142989707Y-110878213D01*
X142878213Y-110989707D01*
X142878210Y-110989711D01*
X142790609Y-111120814D01*
X142790602Y-111120827D01*
X142730264Y-111266498D01*
X142730261Y-111266510D01*
X142699500Y-111421153D01*
X142699500Y-111578846D01*
X142730261Y-111733489D01*
X142730264Y-111733501D01*
X142790602Y-111879172D01*
X142790609Y-111879185D01*
X142878210Y-112010288D01*
X142878213Y-112010292D01*
X142989707Y-112121786D01*
X142989711Y-112121789D01*
X143120814Y-112209390D01*
X143120827Y-112209397D01*
X143258683Y-112266498D01*
X143266503Y-112269737D01*
X143421153Y-112300499D01*
X143421156Y-112300500D01*
X143421158Y-112300500D01*
X143578844Y-112300500D01*
X143578845Y-112300499D01*
X143733497Y-112269737D01*
X143879179Y-112209394D01*
X143879185Y-112209390D01*
X144010875Y-112121398D01*
X144077553Y-112100520D01*
X144079766Y-112100500D01*
X144536534Y-112100500D01*
X144603573Y-112120185D01*
X144605425Y-112121398D01*
X144737114Y-112209390D01*
X144737127Y-112209397D01*
X144874983Y-112266498D01*
X144882803Y-112269737D01*
X145037453Y-112300499D01*
X145037456Y-112300500D01*
X145155500Y-112300500D01*
X145222539Y-112320185D01*
X145268294Y-112372989D01*
X145279500Y-112424500D01*
X145279500Y-114319902D01*
X145259815Y-114386941D01*
X145243181Y-114407583D01*
X144485339Y-115165425D01*
X144424016Y-115198910D01*
X144421850Y-115199361D01*
X144266508Y-115230261D01*
X144266498Y-115230264D01*
X144120827Y-115290602D01*
X144120814Y-115290609D01*
X143989711Y-115378210D01*
X143989707Y-115378213D01*
X143878213Y-115489707D01*
X143878210Y-115489711D01*
X143790609Y-115620814D01*
X143790602Y-115620827D01*
X143730264Y-115766498D01*
X143730261Y-115766510D01*
X143699500Y-115921153D01*
X143699500Y-116078846D01*
X143730261Y-116233489D01*
X143730264Y-116233501D01*
X143790602Y-116379172D01*
X143790609Y-116379185D01*
X143878210Y-116510288D01*
X143878213Y-116510292D01*
X143989707Y-116621786D01*
X143989711Y-116621789D01*
X144120814Y-116709390D01*
X144120827Y-116709397D01*
X144266498Y-116769735D01*
X144266503Y-116769737D01*
X144421153Y-116800499D01*
X144421156Y-116800500D01*
X144421158Y-116800500D01*
X144578844Y-116800500D01*
X144578845Y-116800499D01*
X144733497Y-116769737D01*
X144879179Y-116709394D01*
X145010289Y-116621789D01*
X145121789Y-116510289D01*
X145209394Y-116379179D01*
X145269737Y-116233497D01*
X145298751Y-116087635D01*
X145300638Y-116078150D01*
X145333023Y-116016239D01*
X145334516Y-116014718D01*
X146360520Y-114988716D01*
X146439577Y-114851784D01*
X146480501Y-114699057D01*
X146480501Y-114540942D01*
X146480501Y-114533347D01*
X146480500Y-114533329D01*
X146480500Y-111878270D01*
X146500185Y-111811231D01*
X146552989Y-111765476D01*
X146622147Y-111755532D01*
X146651948Y-111763707D01*
X146666504Y-111769737D01*
X146821154Y-111800499D01*
X146821157Y-111800500D01*
X146821159Y-111800500D01*
X146978845Y-111800500D01*
X146978846Y-111800499D01*
X147133498Y-111769737D01*
X147279180Y-111709394D01*
X147410290Y-111621789D01*
X147521790Y-111510289D01*
X147609395Y-111379179D01*
X147669738Y-111233497D01*
X147700501Y-111078842D01*
X147700501Y-110921158D01*
X147700501Y-110921155D01*
X147700500Y-110921153D01*
X147691958Y-110878210D01*
X147669738Y-110766503D01*
X147669736Y-110766498D01*
X147609398Y-110620827D01*
X147609390Y-110620812D01*
X147577420Y-110572967D01*
X147556541Y-110506290D01*
X147575025Y-110438910D01*
X147592836Y-110416398D01*
X147914606Y-110094627D01*
X147975927Y-110061144D01*
X148040603Y-110064378D01*
X148065028Y-110072315D01*
X148097598Y-110082898D01*
X148204621Y-110099849D01*
X148311644Y-110116800D01*
X148311645Y-110116800D01*
X148528355Y-110116800D01*
X148528356Y-110116800D01*
X148742401Y-110082898D01*
X148833482Y-110053303D01*
X148903322Y-110051309D01*
X148963155Y-110087389D01*
X148993984Y-110150090D01*
X148995800Y-110171235D01*
X148995800Y-110509630D01*
X148995799Y-110509648D01*
X148995799Y-110675354D01*
X148995798Y-110675354D01*
X149002268Y-110699500D01*
X149026680Y-110790606D01*
X149036724Y-110828087D01*
X149049086Y-110849498D01*
X149049087Y-110849500D01*
X149115777Y-110965012D01*
X149115781Y-110965017D01*
X149234649Y-111083885D01*
X149234655Y-111083890D01*
X151165425Y-113014660D01*
X151198910Y-113075983D01*
X151199361Y-113078149D01*
X151230261Y-113233491D01*
X151230264Y-113233501D01*
X151290602Y-113379172D01*
X151290609Y-113379185D01*
X151378210Y-113510288D01*
X151378213Y-113510292D01*
X151489707Y-113621786D01*
X151489711Y-113621789D01*
X151620814Y-113709390D01*
X151620827Y-113709397D01*
X151766498Y-113769735D01*
X151766503Y-113769737D01*
X151921153Y-113800499D01*
X151921156Y-113800500D01*
X152050903Y-113800500D01*
X152117942Y-113820185D01*
X152163697Y-113872989D01*
X152173641Y-113942147D01*
X152144616Y-114005703D01*
X152138584Y-114012181D01*
X151485339Y-114665425D01*
X151424016Y-114698910D01*
X151421850Y-114699361D01*
X151266508Y-114730261D01*
X151266498Y-114730264D01*
X151120827Y-114790602D01*
X151120814Y-114790609D01*
X150989711Y-114878210D01*
X150989707Y-114878213D01*
X150878213Y-114989707D01*
X150878210Y-114989711D01*
X150790609Y-115120814D01*
X150790602Y-115120827D01*
X150730264Y-115266498D01*
X150730261Y-115266510D01*
X150699500Y-115421153D01*
X150699500Y-115578846D01*
X150730261Y-115733489D01*
X150730264Y-115733501D01*
X150790602Y-115879172D01*
X150790609Y-115879185D01*
X150878210Y-116010288D01*
X150878213Y-116010292D01*
X150989707Y-116121786D01*
X150989711Y-116121789D01*
X151120814Y-116209390D01*
X151120827Y-116209397D01*
X151257418Y-116265974D01*
X151266503Y-116269737D01*
X151421153Y-116300499D01*
X151421156Y-116300500D01*
X151421158Y-116300500D01*
X151578844Y-116300500D01*
X151578845Y-116300499D01*
X151733497Y-116269737D01*
X151879179Y-116209394D01*
X152010289Y-116121789D01*
X152121789Y-116010289D01*
X152209394Y-115879179D01*
X152269737Y-115733497D01*
X152296391Y-115599500D01*
X152300638Y-115578150D01*
X152333023Y-115516239D01*
X152334519Y-115514715D01*
X154995559Y-112853674D01*
X155056880Y-112820191D01*
X155126572Y-112825175D01*
X155182505Y-112867047D01*
X155187067Y-112874216D01*
X155187221Y-112874114D01*
X155278210Y-113010288D01*
X155278213Y-113010292D01*
X155389707Y-113121786D01*
X155389711Y-113121789D01*
X155520814Y-113209390D01*
X155520827Y-113209397D01*
X155633696Y-113256148D01*
X155666503Y-113269737D01*
X155821153Y-113300499D01*
X155821156Y-113300500D01*
X155821158Y-113300500D01*
X155978844Y-113300500D01*
X155978845Y-113300499D01*
X156133497Y-113269737D01*
X156279179Y-113209394D01*
X156410289Y-113121789D01*
X156521789Y-113010289D01*
X156574112Y-112931981D01*
X156596898Y-112897881D01*
X156650510Y-112853076D01*
X156719835Y-112844369D01*
X156782863Y-112874523D01*
X156803102Y-112897881D01*
X156878210Y-113010288D01*
X156878213Y-113010292D01*
X156989708Y-113121787D01*
X156989711Y-113121789D01*
X157036491Y-113153046D01*
X157081295Y-113206657D01*
X157091600Y-113256148D01*
X157091600Y-114413330D01*
X157091599Y-114413348D01*
X157091599Y-114579054D01*
X157091598Y-114579054D01*
X157132523Y-114731785D01*
X157161458Y-114781900D01*
X157161459Y-114781904D01*
X157161460Y-114781904D01*
X157211580Y-114868716D01*
X157323384Y-114980520D01*
X157323385Y-114980521D01*
X157463182Y-115120317D01*
X157496666Y-115181638D01*
X157499500Y-115207997D01*
X157499500Y-115448432D01*
X157479815Y-115515471D01*
X157463181Y-115536113D01*
X154636113Y-118363181D01*
X154574790Y-118396666D01*
X154548432Y-118399500D01*
X150800098Y-118399500D01*
X150733059Y-118379815D01*
X150712417Y-118363181D01*
X150136819Y-117787583D01*
X150103334Y-117726260D01*
X150100500Y-117699902D01*
X150100500Y-116079765D01*
X150120185Y-116012726D01*
X150121398Y-116010874D01*
X150209390Y-115879185D01*
X150209390Y-115879184D01*
X150209394Y-115879179D01*
X150269737Y-115733497D01*
X150300500Y-115578842D01*
X150300500Y-115421158D01*
X150300500Y-115421155D01*
X150300499Y-115421153D01*
X150291957Y-115378210D01*
X150269737Y-115266503D01*
X150267181Y-115260333D01*
X150209397Y-115120827D01*
X150209390Y-115120814D01*
X150121789Y-114989711D01*
X150121786Y-114989707D01*
X150010292Y-114878213D01*
X150010288Y-114878210D01*
X149879185Y-114790609D01*
X149879172Y-114790602D01*
X149733501Y-114730264D01*
X149733489Y-114730261D01*
X149578845Y-114699500D01*
X149578842Y-114699500D01*
X149421158Y-114699500D01*
X149421155Y-114699500D01*
X149266510Y-114730261D01*
X149266498Y-114730264D01*
X149120827Y-114790602D01*
X149120814Y-114790609D01*
X148989711Y-114878210D01*
X148989707Y-114878213D01*
X148878213Y-114989707D01*
X148878210Y-114989711D01*
X148790609Y-115120814D01*
X148790602Y-115120827D01*
X148730264Y-115266498D01*
X148730261Y-115266510D01*
X148699500Y-115421153D01*
X148699500Y-115578846D01*
X148730261Y-115733489D01*
X148730264Y-115733501D01*
X148790602Y-115879172D01*
X148790609Y-115879185D01*
X148878602Y-116010874D01*
X148899480Y-116077551D01*
X148899500Y-116079765D01*
X148899500Y-117913330D01*
X148899499Y-117913348D01*
X148899499Y-118079054D01*
X148899498Y-118079054D01*
X148899499Y-118079057D01*
X148940423Y-118231785D01*
X148940424Y-118231787D01*
X148940423Y-118231787D01*
X148948997Y-118246636D01*
X148948998Y-118246637D01*
X149019477Y-118368712D01*
X149019481Y-118368717D01*
X149138349Y-118487585D01*
X149138354Y-118487589D01*
X150131284Y-119480520D01*
X150131286Y-119480521D01*
X150131290Y-119480524D01*
X150268209Y-119559573D01*
X150268216Y-119559577D01*
X150420943Y-119600501D01*
X150420945Y-119600501D01*
X150586654Y-119600501D01*
X150586670Y-119600500D01*
X154761860Y-119600500D01*
X154761876Y-119600501D01*
X154769472Y-119600501D01*
X154927583Y-119600501D01*
X154927586Y-119600501D01*
X155080314Y-119559577D01*
X155130433Y-119530639D01*
X155217245Y-119480520D01*
X155329049Y-119368716D01*
X155329049Y-119368714D01*
X155339257Y-119358507D01*
X155339259Y-119358504D01*
X158458506Y-116239257D01*
X158458511Y-116239253D01*
X158468714Y-116229049D01*
X158468716Y-116229049D01*
X158580520Y-116117245D01*
X158659577Y-115980313D01*
X158700500Y-115827586D01*
X158700500Y-114996960D01*
X158700501Y-114996947D01*
X158700501Y-114828844D01*
X158687922Y-114781900D01*
X158659577Y-114676116D01*
X158653405Y-114665425D01*
X158580524Y-114539190D01*
X158580518Y-114539182D01*
X158328919Y-114287583D01*
X158295434Y-114226260D01*
X158292600Y-114199902D01*
X158292600Y-112630769D01*
X158294983Y-112606577D01*
X158296230Y-112600308D01*
X158328615Y-112538397D01*
X158389331Y-112503823D01*
X158417847Y-112500500D01*
X166219677Y-112500500D01*
X166219693Y-112500501D01*
X166227289Y-112500501D01*
X166385400Y-112500501D01*
X166385403Y-112500501D01*
X166538131Y-112459577D01*
X166604674Y-112421158D01*
X166675062Y-112380520D01*
X166786866Y-112268716D01*
X166786866Y-112268714D01*
X166797070Y-112258511D01*
X166797073Y-112258506D01*
X174187821Y-104867759D01*
X174249142Y-104834276D01*
X174318834Y-104839260D01*
X174374767Y-104881132D01*
X174399184Y-104946596D01*
X174399500Y-104955442D01*
X174399500Y-110199903D01*
X174379815Y-110266942D01*
X174363181Y-110287584D01*
X172985339Y-111665425D01*
X172924016Y-111698910D01*
X172921850Y-111699361D01*
X172766508Y-111730261D01*
X172766498Y-111730264D01*
X172620827Y-111790602D01*
X172620814Y-111790609D01*
X172489711Y-111878210D01*
X172489707Y-111878213D01*
X172378213Y-111989707D01*
X172378210Y-111989711D01*
X172290609Y-112120814D01*
X172290602Y-112120827D01*
X172230264Y-112266498D01*
X172230261Y-112266510D01*
X172199500Y-112421153D01*
X172199500Y-112578846D01*
X172230261Y-112733489D01*
X172230264Y-112733501D01*
X172290602Y-112879172D01*
X172290609Y-112879185D01*
X172378210Y-113010288D01*
X172378213Y-113010292D01*
X172489707Y-113121786D01*
X172489711Y-113121789D01*
X172620814Y-113209390D01*
X172620827Y-113209397D01*
X172733696Y-113256148D01*
X172766503Y-113269737D01*
X172921153Y-113300499D01*
X172921156Y-113300500D01*
X172921158Y-113300500D01*
X173078844Y-113300500D01*
X173078845Y-113300499D01*
X173233497Y-113269737D01*
X173379179Y-113209394D01*
X173510289Y-113121789D01*
X173621789Y-113010289D01*
X173709394Y-112879179D01*
X173769737Y-112733497D01*
X173800000Y-112581355D01*
X173800638Y-112578150D01*
X173833023Y-112516239D01*
X173834519Y-112514715D01*
X175287819Y-111061414D01*
X175349142Y-111027930D01*
X175418834Y-111032914D01*
X175474767Y-111074786D01*
X175499184Y-111140250D01*
X175499500Y-111149096D01*
X175499500Y-123416378D01*
X175479815Y-123483417D01*
X175427011Y-123529172D01*
X175357853Y-123539116D01*
X175294297Y-123510091D01*
X175256523Y-123451313D01*
X175253883Y-123440569D01*
X175205454Y-123197097D01*
X175205451Y-123197086D01*
X175205450Y-123197083D01*
X175205449Y-123197077D01*
X175111314Y-122886754D01*
X174987215Y-122587153D01*
X174834347Y-122301158D01*
X174654183Y-122031524D01*
X174448458Y-121780847D01*
X174448457Y-121780846D01*
X174448453Y-121780841D01*
X174219158Y-121551546D01*
X173968481Y-121345821D01*
X173968480Y-121345820D01*
X173968476Y-121345817D01*
X173698842Y-121165653D01*
X173698837Y-121165650D01*
X173698830Y-121165646D01*
X173412854Y-121012788D01*
X173412849Y-121012786D01*
X173113247Y-120888686D01*
X172802913Y-120794548D01*
X172802902Y-120794545D01*
X172484874Y-120731287D01*
X172484857Y-120731284D01*
X172240812Y-120707248D01*
X172162143Y-120699500D01*
X171837857Y-120699500D01*
X171765099Y-120706666D01*
X171515142Y-120731284D01*
X171515125Y-120731287D01*
X171197097Y-120794545D01*
X171197086Y-120794548D01*
X170886752Y-120888686D01*
X170587150Y-121012786D01*
X170587145Y-121012788D01*
X170301169Y-121165646D01*
X170301151Y-121165657D01*
X170031532Y-121345811D01*
X170031518Y-121345821D01*
X169780841Y-121551546D01*
X169551546Y-121780841D01*
X169345821Y-122031518D01*
X169345811Y-122031532D01*
X169165657Y-122301151D01*
X169165646Y-122301169D01*
X169012788Y-122587145D01*
X169012786Y-122587150D01*
X168888686Y-122886752D01*
X168794548Y-123197086D01*
X168794545Y-123197097D01*
X168731287Y-123515125D01*
X168731284Y-123515142D01*
X168699500Y-123837860D01*
X168699500Y-124162139D01*
X168731284Y-124484857D01*
X168731287Y-124484874D01*
X168794545Y-124802902D01*
X168794548Y-124802913D01*
X168888686Y-125113247D01*
X169012786Y-125412849D01*
X169012788Y-125412854D01*
X169165646Y-125698830D01*
X169165657Y-125698848D01*
X169345811Y-125968467D01*
X169345821Y-125968481D01*
X169551546Y-126219158D01*
X169780841Y-126448453D01*
X169780846Y-126448457D01*
X169780847Y-126448458D01*
X170031524Y-126654183D01*
X170301158Y-126834347D01*
X170301167Y-126834352D01*
X170301169Y-126834353D01*
X170587145Y-126987211D01*
X170587147Y-126987211D01*
X170587153Y-126987215D01*
X170886754Y-127111314D01*
X171197077Y-127205449D01*
X171197083Y-127205450D01*
X171197086Y-127205451D01*
X171197097Y-127205454D01*
X171440569Y-127253883D01*
X171502480Y-127286268D01*
X171537054Y-127346983D01*
X171533315Y-127416753D01*
X171492449Y-127473425D01*
X171427431Y-127499006D01*
X171416378Y-127499500D01*
X132412022Y-127499500D01*
X132344983Y-127479815D01*
X132299228Y-127427011D01*
X132289284Y-127357853D01*
X132318309Y-127294297D01*
X132377087Y-127256523D01*
X132387831Y-127253883D01*
X132631302Y-127205454D01*
X132631313Y-127205451D01*
X132631313Y-127205450D01*
X132631323Y-127205449D01*
X132941646Y-127111314D01*
X133241247Y-126987215D01*
X133527242Y-126834347D01*
X133796876Y-126654183D01*
X134047553Y-126448458D01*
X134276858Y-126219153D01*
X134482583Y-125968476D01*
X134662747Y-125698842D01*
X134815615Y-125412847D01*
X134939714Y-125113246D01*
X135033849Y-124802923D01*
X135033851Y-124802913D01*
X135033854Y-124802902D01*
X135076601Y-124587993D01*
X135097114Y-124484868D01*
X135128900Y-124162143D01*
X135128900Y-123837857D01*
X135097114Y-123515132D01*
X135073522Y-123396528D01*
X135033854Y-123197097D01*
X135033851Y-123197086D01*
X135033850Y-123197083D01*
X135033849Y-123197077D01*
X134939714Y-122886754D01*
X134815615Y-122587153D01*
X134662747Y-122301158D01*
X134482583Y-122031524D01*
X134276858Y-121780847D01*
X134276857Y-121780846D01*
X134276853Y-121780841D01*
X134047558Y-121551546D01*
X133796881Y-121345821D01*
X133796880Y-121345820D01*
X133796876Y-121345817D01*
X133527242Y-121165653D01*
X133527237Y-121165650D01*
X133527230Y-121165646D01*
X133241254Y-121012788D01*
X133241249Y-121012786D01*
X132941647Y-120888686D01*
X132631313Y-120794548D01*
X132631302Y-120794545D01*
X132313274Y-120731287D01*
X132313257Y-120731284D01*
X132069212Y-120707248D01*
X131990543Y-120699500D01*
X131666257Y-120699500D01*
X131593499Y-120706666D01*
X131343542Y-120731284D01*
X131343525Y-120731287D01*
X131025497Y-120794545D01*
X131025486Y-120794548D01*
X130715152Y-120888686D01*
X130415550Y-121012786D01*
X130415545Y-121012788D01*
X130129569Y-121165646D01*
X130129551Y-121165657D01*
X129859932Y-121345811D01*
X129859918Y-121345821D01*
X129609241Y-121551546D01*
X129379946Y-121780841D01*
X129174221Y-122031518D01*
X129174211Y-122031532D01*
X128994057Y-122301151D01*
X128994046Y-122301169D01*
X128841188Y-122587145D01*
X128841186Y-122587150D01*
X128717086Y-122886752D01*
X128622948Y-123197086D01*
X128622945Y-123197097D01*
X128574544Y-123440433D01*
X128542159Y-123502344D01*
X128481444Y-123536918D01*
X128411674Y-123533179D01*
X128355002Y-123492313D01*
X128329421Y-123427295D01*
X128328927Y-123416242D01*
X128328927Y-111734135D01*
X132099500Y-111734135D01*
X132099500Y-113629870D01*
X132099501Y-113629876D01*
X132105908Y-113689483D01*
X132156202Y-113824328D01*
X132156206Y-113824335D01*
X132242452Y-113939544D01*
X132242453Y-113939544D01*
X132242454Y-113939546D01*
X132261841Y-113954059D01*
X132264292Y-113955894D01*
X132306163Y-114011828D01*
X132311146Y-114081520D01*
X132300465Y-114111455D01*
X132202567Y-114303589D01*
X132134473Y-114513164D01*
X132100000Y-114730818D01*
X132100000Y-114951181D01*
X132134473Y-115168835D01*
X132202567Y-115378410D01*
X132302611Y-115574756D01*
X132348932Y-115638513D01*
X133057861Y-114929584D01*
X133080667Y-115014694D01*
X133139910Y-115117306D01*
X133223694Y-115201090D01*
X133326306Y-115260333D01*
X133411414Y-115283137D01*
X133027962Y-115666589D01*
X132978603Y-115696838D01*
X132962395Y-115702104D01*
X132765974Y-115802187D01*
X132587641Y-115931752D01*
X132587636Y-115931756D01*
X132431756Y-116087636D01*
X132431752Y-116087641D01*
X132302187Y-116265974D01*
X132202104Y-116462393D01*
X132202103Y-116462396D01*
X132133985Y-116672047D01*
X132099500Y-116889778D01*
X132099500Y-117110221D01*
X132133985Y-117327952D01*
X132202103Y-117537603D01*
X132202104Y-117537606D01*
X132302187Y-117734025D01*
X132431752Y-117912358D01*
X132431756Y-117912363D01*
X132511212Y-117991819D01*
X132544697Y-118053142D01*
X132539713Y-118122834D01*
X132511212Y-118167181D01*
X132431756Y-118246636D01*
X132431756Y-118246637D01*
X132302187Y-118424974D01*
X132202104Y-118621393D01*
X132202103Y-118621396D01*
X132133985Y-118831047D01*
X132099500Y-119048778D01*
X132099500Y-119269221D01*
X132133985Y-119486952D01*
X132202103Y-119696603D01*
X132202104Y-119696606D01*
X132302187Y-119893025D01*
X132431752Y-120071358D01*
X132431756Y-120071363D01*
X132587636Y-120227243D01*
X132587641Y-120227247D01*
X132743192Y-120340260D01*
X132765978Y-120356815D01*
X132894375Y-120422237D01*
X132962393Y-120456895D01*
X132962396Y-120456896D01*
X133067221Y-120490955D01*
X133172049Y-120525015D01*
X133389778Y-120559500D01*
X133389779Y-120559500D01*
X133610221Y-120559500D01*
X133610222Y-120559500D01*
X133827951Y-120525015D01*
X134037606Y-120456895D01*
X134234022Y-120356815D01*
X134412365Y-120227242D01*
X134568242Y-120071365D01*
X134697815Y-119893022D01*
X134797895Y-119696606D01*
X134866015Y-119486951D01*
X134900500Y-119269222D01*
X134900500Y-119048778D01*
X134866015Y-118831049D01*
X134797895Y-118621394D01*
X134797895Y-118621393D01*
X134763237Y-118553375D01*
X134697815Y-118424978D01*
X134652917Y-118363181D01*
X134568244Y-118246637D01*
X134488788Y-118167181D01*
X134455303Y-118105858D01*
X134460287Y-118036166D01*
X134488788Y-117991819D01*
X134568242Y-117912365D01*
X134697815Y-117734022D01*
X134797895Y-117537606D01*
X134866015Y-117327951D01*
X134900500Y-117110222D01*
X134900500Y-116889778D01*
X134866015Y-116672049D01*
X134813457Y-116510289D01*
X134797896Y-116462396D01*
X134797895Y-116462393D01*
X134755491Y-116379172D01*
X134697815Y-116265978D01*
X134656702Y-116209390D01*
X134568247Y-116087641D01*
X134568243Y-116087636D01*
X134412363Y-115931756D01*
X134412358Y-115931752D01*
X134234025Y-115802187D01*
X134234024Y-115802186D01*
X134234022Y-115802185D01*
X134037606Y-115702105D01*
X134037605Y-115702104D01*
X134037604Y-115702104D01*
X134021394Y-115696837D01*
X133972035Y-115666588D01*
X133588585Y-115283137D01*
X133673694Y-115260333D01*
X133776306Y-115201090D01*
X133860090Y-115117306D01*
X133919333Y-115014694D01*
X133942137Y-114929585D01*
X134651066Y-115638514D01*
X134651066Y-115638513D01*
X134697386Y-115574760D01*
X134797432Y-115378410D01*
X134865526Y-115168835D01*
X134900000Y-114951181D01*
X134900000Y-114730818D01*
X134865526Y-114513164D01*
X134797432Y-114303589D01*
X134699534Y-114111454D01*
X134686638Y-114042785D01*
X134712914Y-113978044D01*
X134735703Y-113955897D01*
X134757546Y-113939546D01*
X134843796Y-113824331D01*
X134894091Y-113689483D01*
X134900500Y-113629873D01*
X134900499Y-111734128D01*
X134894091Y-111674517D01*
X134857340Y-111575983D01*
X134843797Y-111539671D01*
X134843793Y-111539664D01*
X134757547Y-111424455D01*
X134757544Y-111424452D01*
X134642335Y-111338206D01*
X134642328Y-111338202D01*
X134507482Y-111287908D01*
X134507483Y-111287908D01*
X134447883Y-111281501D01*
X134447881Y-111281500D01*
X134447873Y-111281500D01*
X134447864Y-111281500D01*
X132552129Y-111281500D01*
X132552123Y-111281501D01*
X132492516Y-111287908D01*
X132357671Y-111338202D01*
X132357664Y-111338206D01*
X132242455Y-111424452D01*
X132242452Y-111424455D01*
X132156206Y-111539664D01*
X132156202Y-111539671D01*
X132105908Y-111674517D01*
X132099568Y-111733491D01*
X132099501Y-111734123D01*
X132099500Y-111734135D01*
X128328927Y-111734135D01*
X128328927Y-84083757D01*
X128348612Y-84016718D01*
X128401416Y-83970963D01*
X128470574Y-83961019D01*
X128534130Y-83990044D01*
X128571904Y-84048822D01*
X128574544Y-84059566D01*
X128622945Y-84302902D01*
X128622948Y-84302913D01*
X128717086Y-84613247D01*
X128782016Y-84770000D01*
X128830403Y-84886818D01*
X128841186Y-84912849D01*
X128841188Y-84912854D01*
X128994046Y-85198830D01*
X128994050Y-85198837D01*
X128994053Y-85198842D01*
X129083324Y-85332446D01*
X129174211Y-85468467D01*
X129174221Y-85468481D01*
X129379946Y-85719158D01*
X129609241Y-85948453D01*
X129609246Y-85948457D01*
X129609247Y-85948458D01*
X129859924Y-86154183D01*
X130129558Y-86334347D01*
X130129567Y-86334352D01*
X130129569Y-86334353D01*
X130415545Y-86487211D01*
X130415547Y-86487211D01*
X130415553Y-86487215D01*
X130715154Y-86611314D01*
X131025477Y-86705449D01*
X131025483Y-86705450D01*
X131025486Y-86705451D01*
X131025497Y-86705454D01*
X131224928Y-86745122D01*
X131343532Y-86768714D01*
X131666257Y-86800500D01*
X131666260Y-86800500D01*
X131990540Y-86800500D01*
X131990543Y-86800500D01*
X132313268Y-86768714D01*
X132470695Y-86737399D01*
X132631302Y-86705454D01*
X132631313Y-86705451D01*
X132631313Y-86705450D01*
X132631323Y-86705449D01*
X132941646Y-86611314D01*
X133241247Y-86487215D01*
X133527242Y-86334347D01*
X133796876Y-86154183D01*
X134047553Y-85948458D01*
X134276858Y-85719153D01*
X134482583Y-85468476D01*
X134662747Y-85198842D01*
X134815615Y-84912847D01*
X134939714Y-84613246D01*
X135033849Y-84302923D01*
X135033851Y-84302913D01*
X135033854Y-84302902D01*
X135068064Y-84130911D01*
X135097114Y-83984868D01*
X135128900Y-83662143D01*
X135128900Y-83337857D01*
X135097114Y-83015132D01*
X135052766Y-82792179D01*
X135033854Y-82697097D01*
X135033851Y-82697086D01*
X135033850Y-82697083D01*
X135033849Y-82697077D01*
X134939714Y-82386754D01*
X134815615Y-82087153D01*
X134662747Y-81801158D01*
X134482583Y-81531524D01*
X134276858Y-81280847D01*
X134276857Y-81280846D01*
X134276853Y-81280841D01*
X134047558Y-81051546D01*
X133796881Y-80845821D01*
X133796880Y-80845820D01*
X133796876Y-80845817D01*
X133527242Y-80665653D01*
X133527237Y-80665650D01*
X133527230Y-80665646D01*
X133241254Y-80512788D01*
X133241249Y-80512786D01*
X132941647Y-80388686D01*
X132631313Y-80294548D01*
X132631302Y-80294545D01*
X132387831Y-80246117D01*
X132325920Y-80213732D01*
X132291346Y-80153017D01*
X132295085Y-80083247D01*
X132335951Y-80026575D01*
X132400969Y-80000994D01*
X132412022Y-80000500D01*
X171416378Y-80000500D01*
X171483417Y-80020185D01*
G37*
%TD.AperFunction*%
%TA.AperFunction,Conductor*%
G36*
X156305703Y-101155384D02*
G01*
X156312181Y-101161416D01*
X159165425Y-104014660D01*
X159198910Y-104075983D01*
X159199361Y-104078149D01*
X159230261Y-104233491D01*
X159230264Y-104233501D01*
X159290602Y-104379172D01*
X159290609Y-104379185D01*
X159378210Y-104510288D01*
X159378213Y-104510292D01*
X159489707Y-104621786D01*
X159489711Y-104621789D01*
X159620814Y-104709390D01*
X159620827Y-104709397D01*
X159758695Y-104766503D01*
X159766503Y-104769737D01*
X159921153Y-104800499D01*
X159921156Y-104800500D01*
X159921158Y-104800500D01*
X160078844Y-104800500D01*
X160078845Y-104800499D01*
X160233497Y-104769737D01*
X160377320Y-104710164D01*
X160379172Y-104709397D01*
X160379172Y-104709396D01*
X160379179Y-104709394D01*
X160510289Y-104621789D01*
X160621789Y-104510289D01*
X160709394Y-104379179D01*
X160712340Y-104372068D01*
X160731748Y-104325212D01*
X160769737Y-104233497D01*
X160800500Y-104078842D01*
X160800500Y-103949097D01*
X160820185Y-103882058D01*
X160872989Y-103836303D01*
X160942147Y-103826359D01*
X161005703Y-103855384D01*
X161012171Y-103861407D01*
X162711284Y-105560520D01*
X162848215Y-105639577D01*
X163000943Y-105680501D01*
X163000946Y-105680501D01*
X163166654Y-105680501D01*
X163166670Y-105680500D01*
X167674281Y-105680500D01*
X167741320Y-105700185D01*
X167784765Y-105748205D01*
X167804947Y-105787814D01*
X167804948Y-105787815D01*
X167929890Y-105959786D01*
X168080213Y-106110109D01*
X168252179Y-106235048D01*
X168252181Y-106235049D01*
X168252184Y-106235051D01*
X168441588Y-106331557D01*
X168643757Y-106397246D01*
X168853713Y-106430500D01*
X168853714Y-106430500D01*
X169000901Y-106430500D01*
X169067940Y-106450185D01*
X169113695Y-106502989D01*
X169123639Y-106572147D01*
X169094614Y-106635703D01*
X169088582Y-106642181D01*
X167627584Y-108103181D01*
X167566261Y-108136666D01*
X167539903Y-108139500D01*
X159895235Y-108139500D01*
X159828196Y-108119815D01*
X159784750Y-108071794D01*
X159757545Y-108018400D01*
X159630164Y-107843075D01*
X159476925Y-107689836D01*
X159301600Y-107562455D01*
X159188214Y-107504682D01*
X159108505Y-107464068D01*
X158902404Y-107397102D01*
X158741867Y-107371675D01*
X158688356Y-107363200D01*
X158471644Y-107363200D01*
X158400295Y-107374500D01*
X158257597Y-107397102D01*
X158257594Y-107397102D01*
X158051494Y-107464068D01*
X157858399Y-107562455D01*
X157683072Y-107689838D01*
X157529838Y-107843072D01*
X157529838Y-107843073D01*
X157529836Y-107843075D01*
X157458198Y-107941675D01*
X157410318Y-108007577D01*
X157354988Y-108050242D01*
X157285374Y-108056221D01*
X157223579Y-108023615D01*
X157209682Y-108007577D01*
X157186837Y-107976134D01*
X157090164Y-107843075D01*
X156936925Y-107689836D01*
X156761600Y-107562455D01*
X156648214Y-107504682D01*
X156568505Y-107464068D01*
X156362404Y-107397102D01*
X156201867Y-107371675D01*
X156148356Y-107363200D01*
X155931644Y-107363200D01*
X155860295Y-107374500D01*
X155717597Y-107397102D01*
X155717594Y-107397102D01*
X155511492Y-107464069D01*
X155511491Y-107464069D01*
X155457094Y-107491786D01*
X155388425Y-107504682D01*
X155323685Y-107478405D01*
X155283428Y-107421298D01*
X155276800Y-107381301D01*
X155276800Y-107297245D01*
X155276800Y-107297243D01*
X155240244Y-107160814D01*
X155241907Y-107090967D01*
X155281069Y-107033104D01*
X155298007Y-107021342D01*
X155312549Y-107012947D01*
X155312551Y-107012947D01*
X155368709Y-106980524D01*
X155368708Y-106980524D01*
X155368716Y-106980520D01*
X155480520Y-106868716D01*
X155480520Y-106868714D01*
X155490724Y-106858511D01*
X155490727Y-106858506D01*
X157514662Y-104834572D01*
X157575983Y-104801089D01*
X157578150Y-104800638D01*
X157636085Y-104789113D01*
X157733497Y-104769737D01*
X157877320Y-104710164D01*
X157879172Y-104709397D01*
X157879172Y-104709396D01*
X157879179Y-104709394D01*
X158010289Y-104621789D01*
X158121789Y-104510289D01*
X158209394Y-104379179D01*
X158212340Y-104372068D01*
X158231748Y-104325212D01*
X158269737Y-104233497D01*
X158300500Y-104078842D01*
X158300500Y-103921158D01*
X158300500Y-103921155D01*
X158300499Y-103921153D01*
X158287979Y-103858210D01*
X158269737Y-103766503D01*
X158243596Y-103703393D01*
X158209397Y-103620827D01*
X158209390Y-103620814D01*
X158121789Y-103489711D01*
X158121786Y-103489707D01*
X158010292Y-103378213D01*
X158010288Y-103378210D01*
X157879185Y-103290609D01*
X157879172Y-103290602D01*
X157733501Y-103230264D01*
X157733489Y-103230261D01*
X157578845Y-103199500D01*
X157578842Y-103199500D01*
X157421158Y-103199500D01*
X157421155Y-103199500D01*
X157266510Y-103230261D01*
X157266498Y-103230264D01*
X157120827Y-103290602D01*
X157120814Y-103290609D01*
X156989711Y-103378210D01*
X156989707Y-103378213D01*
X156878213Y-103489707D01*
X156878210Y-103489711D01*
X156790609Y-103620814D01*
X156790602Y-103620827D01*
X156730264Y-103766498D01*
X156730261Y-103766508D01*
X156699361Y-103921850D01*
X156666976Y-103983761D01*
X156665425Y-103985339D01*
X156312181Y-104338583D01*
X156250858Y-104372068D01*
X156181166Y-104367084D01*
X156125233Y-104325212D01*
X156100816Y-104259748D01*
X156100500Y-104250902D01*
X156100500Y-101249097D01*
X156120185Y-101182058D01*
X156172989Y-101136303D01*
X156242147Y-101126359D01*
X156305703Y-101155384D01*
G37*
%TD.AperFunction*%
%TA.AperFunction,Conductor*%
G36*
X167686148Y-96120185D02*
G01*
X167731903Y-96172989D01*
X167741847Y-96242147D01*
X167718375Y-96298812D01*
X167666647Y-96367910D01*
X167666645Y-96367913D01*
X167616403Y-96502620D01*
X167616401Y-96502627D01*
X167610000Y-96562155D01*
X167610000Y-97210000D01*
X168526988Y-97210000D01*
X168494075Y-97267007D01*
X168460000Y-97394174D01*
X168460000Y-97525826D01*
X168494075Y-97652993D01*
X168526988Y-97710000D01*
X167610000Y-97710000D01*
X167610000Y-98357844D01*
X167616401Y-98417372D01*
X167616403Y-98417379D01*
X167666645Y-98552086D01*
X167666647Y-98552089D01*
X167715997Y-98618011D01*
X167740415Y-98683475D01*
X167725564Y-98751748D01*
X167704412Y-98780004D01*
X165731286Y-100753132D01*
X165619481Y-100864936D01*
X165619479Y-100864939D01*
X165610904Y-100879792D01*
X165581769Y-100930256D01*
X165540423Y-101001869D01*
X165499499Y-101154597D01*
X165499499Y-101154599D01*
X165499499Y-101322700D01*
X165499500Y-101322713D01*
X165499500Y-102317059D01*
X165479815Y-102384098D01*
X165463181Y-102404740D01*
X165378213Y-102489707D01*
X165378210Y-102489711D01*
X165290609Y-102620814D01*
X165290602Y-102620827D01*
X165230264Y-102766498D01*
X165230261Y-102766510D01*
X165199500Y-102921153D01*
X165199500Y-103078846D01*
X165230261Y-103233489D01*
X165230264Y-103233501D01*
X165290602Y-103379172D01*
X165290609Y-103379185D01*
X165378210Y-103510288D01*
X165378213Y-103510292D01*
X165489707Y-103621786D01*
X165489711Y-103621789D01*
X165535520Y-103652398D01*
X165580325Y-103706010D01*
X165589032Y-103775335D01*
X165558878Y-103838363D01*
X165499435Y-103875082D01*
X165466629Y-103879500D01*
X164579766Y-103879500D01*
X164512727Y-103859815D01*
X164510875Y-103858602D01*
X164379185Y-103770609D01*
X164379172Y-103770602D01*
X164233501Y-103710264D01*
X164233489Y-103710261D01*
X164078845Y-103679500D01*
X164078842Y-103679500D01*
X163921158Y-103679500D01*
X163921155Y-103679500D01*
X163766510Y-103710261D01*
X163766498Y-103710264D01*
X163620827Y-103770602D01*
X163620814Y-103770609D01*
X163489711Y-103858210D01*
X163489707Y-103858213D01*
X163378213Y-103969707D01*
X163378210Y-103969711D01*
X163290609Y-104100814D01*
X163290604Y-104100824D01*
X163261879Y-104170173D01*
X163218038Y-104224576D01*
X163151743Y-104246641D01*
X163084044Y-104229362D01*
X163059637Y-104210401D01*
X160314641Y-101465405D01*
X160281156Y-101404082D01*
X160286140Y-101334390D01*
X160328012Y-101278457D01*
X160354870Y-101263162D01*
X160379179Y-101253094D01*
X160510289Y-101165489D01*
X160621789Y-101053989D01*
X160709394Y-100922879D01*
X160769737Y-100777197D01*
X160800500Y-100622542D01*
X160800500Y-100464858D01*
X160800500Y-100464855D01*
X160800499Y-100464853D01*
X160789824Y-100411185D01*
X160769737Y-100310203D01*
X160751137Y-100265298D01*
X160709397Y-100164527D01*
X160709390Y-100164514D01*
X160621398Y-100032825D01*
X160600520Y-99966147D01*
X160600500Y-99963934D01*
X160600500Y-97297955D01*
X160620185Y-97230916D01*
X160672989Y-97185161D01*
X160700303Y-97176339D01*
X160733497Y-97169737D01*
X160879179Y-97109394D01*
X161010289Y-97021789D01*
X161121789Y-96910289D01*
X161209394Y-96779179D01*
X161269737Y-96633497D01*
X161300500Y-96478842D01*
X161300500Y-96321158D01*
X161300500Y-96321155D01*
X161300499Y-96321153D01*
X161286086Y-96248691D01*
X161292313Y-96179100D01*
X161335176Y-96123922D01*
X161401066Y-96100678D01*
X161407703Y-96100500D01*
X167619109Y-96100500D01*
X167686148Y-96120185D01*
G37*
%TD.AperFunction*%
%TA.AperFunction,Conductor*%
G36*
X153063600Y-98120185D02*
G01*
X153109355Y-98172989D01*
X153119299Y-98242147D01*
X153090274Y-98305703D01*
X153065452Y-98327602D01*
X152989711Y-98378210D01*
X152989707Y-98378213D01*
X152878213Y-98489707D01*
X152878210Y-98489711D01*
X152790609Y-98620814D01*
X152790602Y-98620827D01*
X152730264Y-98766498D01*
X152730261Y-98766510D01*
X152699500Y-98921153D01*
X152699500Y-99078846D01*
X152730261Y-99233489D01*
X152730264Y-99233501D01*
X152790602Y-99379172D01*
X152790609Y-99379185D01*
X152878210Y-99510288D01*
X152878213Y-99510292D01*
X152989706Y-99621785D01*
X152989709Y-99621787D01*
X152989711Y-99621789D01*
X152995207Y-99625461D01*
X153040012Y-99679072D01*
X153048721Y-99748397D01*
X153018567Y-99811425D01*
X152975762Y-99841719D01*
X152975833Y-99841858D01*
X152974882Y-99842342D01*
X152973785Y-99843119D01*
X152971499Y-99844066D01*
X152778399Y-99942455D01*
X152603072Y-100069838D01*
X152449838Y-100223072D01*
X152449838Y-100223073D01*
X152449836Y-100223075D01*
X152386534Y-100310203D01*
X152324818Y-100395147D01*
X152269488Y-100437812D01*
X152199874Y-100443791D01*
X152138079Y-100411185D01*
X152103722Y-100350346D01*
X152100500Y-100322261D01*
X152100500Y-98679765D01*
X152120185Y-98612726D01*
X152121398Y-98610874D01*
X152209390Y-98479185D01*
X152209390Y-98479184D01*
X152209394Y-98479179D01*
X152269737Y-98333497D01*
X152287908Y-98242147D01*
X152296231Y-98200308D01*
X152328616Y-98138397D01*
X152389332Y-98103823D01*
X152417848Y-98100500D01*
X152996561Y-98100500D01*
X153063600Y-98120185D01*
G37*
%TD.AperFunction*%
%TA.AperFunction,Conductor*%
G36*
X161715702Y-83605383D02*
G01*
X161722180Y-83611415D01*
X174363181Y-96252416D01*
X174396666Y-96313739D01*
X174399500Y-96340097D01*
X174399500Y-97018871D01*
X174379815Y-97085910D01*
X174327011Y-97131665D01*
X174257853Y-97141609D01*
X174194297Y-97112584D01*
X174187819Y-97106552D01*
X163909622Y-86828355D01*
X163909620Y-86828352D01*
X163790749Y-86709481D01*
X163790748Y-86709480D01*
X163703936Y-86659360D01*
X163703936Y-86659359D01*
X163703932Y-86659358D01*
X163653817Y-86630423D01*
X163501089Y-86589499D01*
X163342975Y-86589499D01*
X163335379Y-86589499D01*
X163335363Y-86589500D01*
X161571602Y-86589500D01*
X161504563Y-86569815D01*
X161458808Y-86517011D01*
X161448864Y-86447853D01*
X161453671Y-86427182D01*
X161476757Y-86356130D01*
X161476757Y-86356127D01*
X161510000Y-86146246D01*
X161510000Y-85933753D01*
X161476757Y-85723872D01*
X161476757Y-85723869D01*
X161411095Y-85521782D01*
X161314624Y-85332449D01*
X161275270Y-85278282D01*
X161275269Y-85278282D01*
X160642962Y-85910589D01*
X160625925Y-85847007D01*
X160560099Y-85732993D01*
X160467007Y-85639901D01*
X160352993Y-85574075D01*
X160289409Y-85557037D01*
X160959627Y-84886818D01*
X161020950Y-84853333D01*
X161047307Y-84850499D01*
X161057872Y-84850499D01*
X161117483Y-84844091D01*
X161252331Y-84793796D01*
X161367546Y-84707546D01*
X161453796Y-84592331D01*
X161504091Y-84457483D01*
X161510500Y-84397873D01*
X161510499Y-83699094D01*
X161530183Y-83632057D01*
X161582987Y-83586302D01*
X161652146Y-83576358D01*
X161715702Y-83605383D01*
G37*
%TD.AperFunction*%
%TA.AperFunction,Conductor*%
G36*
X163188974Y-87810185D02*
G01*
X163209616Y-87826819D01*
X168940648Y-93557851D01*
X168974133Y-93619174D01*
X168969149Y-93688866D01*
X168927277Y-93744799D01*
X168861813Y-93769216D01*
X168805515Y-93760093D01*
X168733501Y-93730264D01*
X168733489Y-93730261D01*
X168578845Y-93699500D01*
X168578842Y-93699500D01*
X168421158Y-93699500D01*
X168421155Y-93699500D01*
X168266511Y-93730260D01*
X168266502Y-93730263D01*
X168210814Y-93753329D01*
X168141345Y-93760796D01*
X168078866Y-93729520D01*
X168075683Y-93726448D01*
X165334574Y-90985339D01*
X165301089Y-90924016D01*
X165300638Y-90921849D01*
X165269738Y-90766510D01*
X165269737Y-90766503D01*
X165213728Y-90631284D01*
X165209397Y-90620827D01*
X165209390Y-90620814D01*
X165121789Y-90489711D01*
X165121786Y-90489707D01*
X165010292Y-90378213D01*
X165010288Y-90378210D01*
X164879185Y-90290609D01*
X164879172Y-90290602D01*
X164733501Y-90230264D01*
X164733489Y-90230261D01*
X164578845Y-90199500D01*
X164578842Y-90199500D01*
X164421158Y-90199500D01*
X164421155Y-90199500D01*
X164266510Y-90230261D01*
X164266498Y-90230264D01*
X164120827Y-90290602D01*
X164120814Y-90290609D01*
X163989711Y-90378210D01*
X163989707Y-90378213D01*
X163878213Y-90489707D01*
X163878210Y-90489711D01*
X163790609Y-90620814D01*
X163790602Y-90620827D01*
X163730264Y-90766498D01*
X163730261Y-90766510D01*
X163699500Y-90921153D01*
X163699500Y-91078846D01*
X163730261Y-91233489D01*
X163730264Y-91233501D01*
X163790602Y-91379172D01*
X163790609Y-91379185D01*
X163878210Y-91510288D01*
X163878213Y-91510292D01*
X163989707Y-91621786D01*
X163989711Y-91621789D01*
X164120814Y-91709390D01*
X164120827Y-91709397D01*
X164215799Y-91748735D01*
X164266503Y-91769737D01*
X164331147Y-91782595D01*
X164421849Y-91800638D01*
X164483760Y-91833023D01*
X164485339Y-91834574D01*
X167338584Y-94687819D01*
X167372069Y-94749142D01*
X167367085Y-94818834D01*
X167325213Y-94874767D01*
X167259749Y-94899184D01*
X167250903Y-94899500D01*
X162503439Y-94899500D01*
X162436400Y-94879815D01*
X162390645Y-94827011D01*
X162380701Y-94757853D01*
X162409726Y-94694297D01*
X162434548Y-94672398D01*
X162491864Y-94634100D01*
X162510289Y-94621789D01*
X162621789Y-94510289D01*
X162709394Y-94379179D01*
X162769737Y-94233497D01*
X162800500Y-94078842D01*
X162800500Y-93921158D01*
X162800500Y-93921155D01*
X162800499Y-93921153D01*
X162791957Y-93878211D01*
X162769737Y-93766503D01*
X162760747Y-93744799D01*
X162709397Y-93620827D01*
X162709390Y-93620814D01*
X162621398Y-93489125D01*
X162600520Y-93422447D01*
X162600500Y-93420234D01*
X162600500Y-91589060D01*
X162600501Y-91589047D01*
X162600501Y-91420944D01*
X162600501Y-91420943D01*
X162559577Y-91268216D01*
X162559573Y-91268209D01*
X162480524Y-91131290D01*
X162480518Y-91131282D01*
X159834573Y-88485337D01*
X159801088Y-88424014D01*
X159800637Y-88421847D01*
X159769738Y-88266510D01*
X159769737Y-88266503D01*
X159769735Y-88266498D01*
X159709397Y-88120827D01*
X159709390Y-88120814D01*
X159618405Y-87984646D01*
X159620431Y-87983291D01*
X159597311Y-87928858D01*
X159609101Y-87859990D01*
X159656252Y-87808429D01*
X159720477Y-87790500D01*
X163121935Y-87790500D01*
X163188974Y-87810185D01*
G37*
%TD.AperFunction*%
%TA.AperFunction,Conductor*%
G36*
X158346562Y-87810185D02*
G01*
X158392317Y-87862989D01*
X158402261Y-87932147D01*
X158379689Y-87983372D01*
X158381595Y-87984646D01*
X158290609Y-88120814D01*
X158290602Y-88120827D01*
X158230264Y-88266498D01*
X158230261Y-88266510D01*
X158199500Y-88421153D01*
X158199500Y-88578846D01*
X158230261Y-88733489D01*
X158230264Y-88733501D01*
X158290602Y-88879172D01*
X158290609Y-88879185D01*
X158378210Y-89010288D01*
X158378213Y-89010292D01*
X158489707Y-89121786D01*
X158489711Y-89121789D01*
X158620814Y-89209390D01*
X158620827Y-89209397D01*
X158766498Y-89269735D01*
X158766503Y-89269737D01*
X158831147Y-89282595D01*
X158921849Y-89300638D01*
X158983760Y-89333023D01*
X158985339Y-89334574D01*
X159943458Y-90292693D01*
X159976943Y-90354016D01*
X159971959Y-90423708D01*
X159930087Y-90479641D01*
X159864623Y-90504058D01*
X159796350Y-90489206D01*
X159793778Y-90487762D01*
X159761904Y-90469360D01*
X159761904Y-90469359D01*
X159761900Y-90469358D01*
X159711785Y-90440423D01*
X159559057Y-90399499D01*
X159400943Y-90399499D01*
X159393347Y-90399499D01*
X159393331Y-90399500D01*
X153746888Y-90399500D01*
X153679849Y-90379815D01*
X153659207Y-90363181D01*
X152108207Y-88812181D01*
X152074722Y-88750858D01*
X152079706Y-88681166D01*
X152121578Y-88625233D01*
X152187042Y-88600816D01*
X152195888Y-88600500D01*
X152602044Y-88600500D01*
X152669083Y-88620185D01*
X152714838Y-88672989D01*
X152723661Y-88700309D01*
X152730261Y-88733489D01*
X152730264Y-88733501D01*
X152790602Y-88879172D01*
X152790609Y-88879185D01*
X152878210Y-89010288D01*
X152878213Y-89010292D01*
X152989707Y-89121786D01*
X152989711Y-89121789D01*
X153120814Y-89209390D01*
X153120827Y-89209397D01*
X153266498Y-89269735D01*
X153266503Y-89269737D01*
X153421153Y-89300499D01*
X153421156Y-89300500D01*
X153421158Y-89300500D01*
X153578844Y-89300500D01*
X153578845Y-89300499D01*
X153733497Y-89269737D01*
X153879179Y-89209394D01*
X154010289Y-89121789D01*
X154121789Y-89010289D01*
X154209394Y-88879179D01*
X154269737Y-88733497D01*
X154300500Y-88578842D01*
X154300500Y-88421158D01*
X154300500Y-88421155D01*
X154300499Y-88421153D01*
X154269738Y-88266510D01*
X154269737Y-88266503D01*
X154269735Y-88266498D01*
X154209397Y-88120827D01*
X154209390Y-88120814D01*
X154118405Y-87984646D01*
X154120431Y-87983291D01*
X154097311Y-87928858D01*
X154109101Y-87859990D01*
X154156252Y-87808429D01*
X154220477Y-87790500D01*
X158279523Y-87790500D01*
X158346562Y-87810185D01*
G37*
%TD.AperFunction*%
%TA.AperFunction,Conductor*%
G36*
X153655270Y-84261717D02*
G01*
X153655270Y-84261716D01*
X153694622Y-84207555D01*
X153699232Y-84198507D01*
X153747205Y-84147709D01*
X153815025Y-84130912D01*
X153881161Y-84153447D01*
X153920204Y-84198504D01*
X153924949Y-84207817D01*
X154049890Y-84379786D01*
X154200213Y-84530109D01*
X154372179Y-84655048D01*
X154372181Y-84655049D01*
X154372184Y-84655051D01*
X154381493Y-84659794D01*
X154432290Y-84707766D01*
X154449087Y-84775587D01*
X154426552Y-84841722D01*
X154381505Y-84880760D01*
X154372446Y-84885376D01*
X154372440Y-84885380D01*
X154318282Y-84924727D01*
X154318282Y-84924728D01*
X154950591Y-85557037D01*
X154887007Y-85574075D01*
X154772993Y-85639901D01*
X154679901Y-85732993D01*
X154614075Y-85847007D01*
X154597037Y-85910591D01*
X153964728Y-85278282D01*
X153964727Y-85278282D01*
X153925380Y-85332440D01*
X153925376Y-85332446D01*
X153920760Y-85341505D01*
X153872781Y-85392297D01*
X153804959Y-85409087D01*
X153738826Y-85386543D01*
X153699794Y-85341493D01*
X153695051Y-85332184D01*
X153695049Y-85332181D01*
X153695048Y-85332179D01*
X153570109Y-85160213D01*
X153419786Y-85009890D01*
X153247817Y-84884949D01*
X153238504Y-84880204D01*
X153187707Y-84832230D01*
X153170912Y-84764409D01*
X153193449Y-84698274D01*
X153238507Y-84659232D01*
X153247555Y-84654622D01*
X153301716Y-84615270D01*
X153301717Y-84615270D01*
X152669408Y-83982962D01*
X152732993Y-83965925D01*
X152847007Y-83900099D01*
X152940099Y-83807007D01*
X153005925Y-83692993D01*
X153022962Y-83629409D01*
X153655270Y-84261717D01*
G37*
%TD.AperFunction*%
%TA.AperFunction,Conductor*%
G36*
X158773181Y-84299628D02*
G01*
X158806666Y-84360951D01*
X158809500Y-84387300D01*
X158809500Y-84397865D01*
X158809501Y-84397876D01*
X158815908Y-84457483D01*
X158866202Y-84592328D01*
X158866206Y-84592335D01*
X158952452Y-84707544D01*
X158952455Y-84707547D01*
X159067664Y-84793793D01*
X159067671Y-84793797D01*
X159112618Y-84810561D01*
X159202517Y-84844091D01*
X159262127Y-84850500D01*
X159272685Y-84850499D01*
X159339723Y-84870179D01*
X159360372Y-84886818D01*
X160030591Y-85557037D01*
X159967007Y-85574075D01*
X159852993Y-85639901D01*
X159759901Y-85732993D01*
X159694075Y-85847007D01*
X159677037Y-85910591D01*
X159044728Y-85278282D01*
X159044727Y-85278282D01*
X159005380Y-85332440D01*
X159005376Y-85332446D01*
X159000760Y-85341505D01*
X158952781Y-85392297D01*
X158884959Y-85409087D01*
X158818826Y-85386543D01*
X158779794Y-85341493D01*
X158775051Y-85332184D01*
X158775049Y-85332181D01*
X158775048Y-85332179D01*
X158650109Y-85160213D01*
X158499786Y-85009890D01*
X158327817Y-84884949D01*
X158318504Y-84880204D01*
X158267707Y-84832230D01*
X158250912Y-84764409D01*
X158273449Y-84698274D01*
X158318507Y-84659232D01*
X158327555Y-84654622D01*
X158381716Y-84615270D01*
X158381717Y-84615270D01*
X157749408Y-83982962D01*
X157812993Y-83965925D01*
X157927007Y-83900099D01*
X158020099Y-83807007D01*
X158085925Y-83692993D01*
X158102962Y-83629409D01*
X158773181Y-84299628D01*
G37*
%TD.AperFunction*%
%TA.AperFunction,Conductor*%
G36*
X157154075Y-83692993D02*
G01*
X157219901Y-83807007D01*
X157312993Y-83900099D01*
X157427007Y-83965925D01*
X157490590Y-83982962D01*
X156858282Y-84615269D01*
X156858282Y-84615270D01*
X156912452Y-84654626D01*
X156912451Y-84654626D01*
X156921495Y-84659234D01*
X156972292Y-84707208D01*
X156989087Y-84775029D01*
X156966550Y-84841164D01*
X156921499Y-84880202D01*
X156912182Y-84884949D01*
X156740213Y-85009890D01*
X156589890Y-85160213D01*
X156464949Y-85332182D01*
X156460202Y-85341499D01*
X156412227Y-85392293D01*
X156344405Y-85409087D01*
X156278271Y-85386548D01*
X156239234Y-85341495D01*
X156234626Y-85332452D01*
X156195270Y-85278282D01*
X156195269Y-85278282D01*
X155562962Y-85910589D01*
X155545925Y-85847007D01*
X155480099Y-85732993D01*
X155387007Y-85639901D01*
X155272993Y-85574075D01*
X155209409Y-85557037D01*
X155841716Y-84924728D01*
X155787547Y-84885373D01*
X155787547Y-84885372D01*
X155778500Y-84880763D01*
X155727706Y-84832788D01*
X155710912Y-84764966D01*
X155733451Y-84698832D01*
X155778508Y-84659793D01*
X155787816Y-84655051D01*
X155874147Y-84592328D01*
X155959786Y-84530109D01*
X155959788Y-84530106D01*
X155959792Y-84530104D01*
X156110104Y-84379792D01*
X156110106Y-84379788D01*
X156110109Y-84379786D01*
X156195890Y-84261717D01*
X156235051Y-84207816D01*
X156239793Y-84198508D01*
X156287763Y-84147711D01*
X156355583Y-84130911D01*
X156421719Y-84153445D01*
X156460763Y-84198500D01*
X156465373Y-84207547D01*
X156504728Y-84261716D01*
X157137036Y-83629407D01*
X157154075Y-83692993D01*
G37*
%TD.AperFunction*%
%TA.AperFunction,Conductor*%
G36*
X152074075Y-83692993D02*
G01*
X152139901Y-83807007D01*
X152232993Y-83900099D01*
X152347007Y-83965925D01*
X152410590Y-83982962D01*
X151778282Y-84615269D01*
X151778282Y-84615270D01*
X151832452Y-84654626D01*
X151832451Y-84654626D01*
X151841495Y-84659234D01*
X151892292Y-84707208D01*
X151909087Y-84775029D01*
X151886550Y-84841164D01*
X151841499Y-84880202D01*
X151832182Y-84884949D01*
X151660213Y-85009890D01*
X151509890Y-85160213D01*
X151384949Y-85332182D01*
X151380484Y-85340946D01*
X151332509Y-85391742D01*
X151264688Y-85408536D01*
X151198553Y-85385998D01*
X151159516Y-85340946D01*
X151155050Y-85332182D01*
X151030109Y-85160213D01*
X150879786Y-85009890D01*
X150707820Y-84884951D01*
X150699600Y-84880763D01*
X150699054Y-84880485D01*
X150648259Y-84832512D01*
X150631463Y-84764692D01*
X150653999Y-84698556D01*
X150699054Y-84659515D01*
X150707816Y-84655051D01*
X150794138Y-84592335D01*
X150879786Y-84530109D01*
X150879788Y-84530106D01*
X150879792Y-84530104D01*
X151030104Y-84379792D01*
X151030106Y-84379788D01*
X151030109Y-84379786D01*
X151115890Y-84261717D01*
X151155051Y-84207816D01*
X151159793Y-84198508D01*
X151207763Y-84147711D01*
X151275583Y-84130911D01*
X151341719Y-84153445D01*
X151380763Y-84198500D01*
X151385373Y-84207547D01*
X151424728Y-84261716D01*
X152057036Y-83629407D01*
X152074075Y-83692993D01*
G37*
%TD.AperFunction*%
%TD*%
M02*
