%TF.GenerationSoftware,KiCad,Pcbnew,10.0.5*%
%TF.CreationDate,2026-09-07T15:44:27+01:00*%
%TF.ProjectId,deltavr_controller,64656c74-6176-4725-9f63-6f6e74726f6c,rev?*%
%TF.SameCoordinates,Original*%
%TF.FileFunction,Soldermask,Top*%
%TF.FilePolarity,Negative*%
%FSLAX46Y46*%
G04 Gerber Fmt 4.6, Leading zero omitted, Abs format (unit mm)*
G04 Created by KiCad (PCBNEW 10.0.5) date 2026-09-07 15:44:27*
%MOMM*%
%LPD*%
G01*
G04 APERTURE LIST*
G04 Aperture macros list*
%AMRoundRect*
0 Rectangle with rounded corners*
0 $1 Rounding radius*
0 $2 $3 $4 $5 $6 $7 $8 $9 X,Y pos of 4 corners*
0 Add a 4 corners polygon primitive as box body*
4,1,4,$2,$3,$4,$5,$6,$7,$8,$9,$2,$3,0*
0 Add four circle primitives for the rounded corners*
1,1,$1+$1,$2,$3*
1,1,$1+$1,$4,$5*
1,1,$1+$1,$6,$7*
1,1,$1+$1,$8,$9*
0 Add four rect primitives between the rounded corners*
20,1,$1+$1,$2,$3,$4,$5,0*
20,1,$1+$1,$4,$5,$6,$7,0*
20,1,$1+$1,$6,$7,$8,$9,0*
20,1,$1+$1,$8,$9,$2,$3,0*%
%AMFreePoly0*
4,1,9,3.862500,-0.866500,0.737500,-0.866500,0.737500,-0.450000,-0.737500,-0.450000,-0.737500,0.450000,0.737500,0.450000,0.737500,0.866500,3.862500,0.866500,3.862500,-0.866500,3.862500,-0.866500,$1*%
G04 Aperture macros list end*
%ADD10C,2.750000*%
%ADD11C,2.250000*%
%ADD12C,2.450000*%
%ADD13RoundRect,0.237500X0.237500X-0.300000X0.237500X0.300000X-0.237500X0.300000X-0.237500X-0.300000X0*%
%ADD14RoundRect,0.237500X-0.300000X-0.237500X0.300000X-0.237500X0.300000X0.237500X-0.300000X0.237500X0*%
%ADD15RoundRect,0.237500X0.300000X0.237500X-0.300000X0.237500X-0.300000X-0.237500X0.300000X-0.237500X0*%
%ADD16RoundRect,0.237500X-0.237500X0.300000X-0.237500X-0.300000X0.237500X-0.300000X0.237500X0.300000X0*%
%ADD17R,1.700000X1.700000*%
%ADD18C,1.700000*%
%ADD19RoundRect,0.225000X-0.225000X0.425000X-0.225000X-0.425000X0.225000X-0.425000X0.225000X0.425000X0*%
%ADD20FreePoly0,270.000000*%
%ADD21R,1.800000X1.800000*%
%ADD22C,1.800000*%
%ADD23C,2.000000*%
%ADD24C,4.400000*%
%ADD25RoundRect,0.237500X-0.250000X-0.237500X0.250000X-0.237500X0.250000X0.237500X-0.250000X0.237500X0*%
%ADD26RoundRect,0.075000X-0.075000X0.650000X-0.075000X-0.650000X0.075000X-0.650000X0.075000X0.650000X0*%
%ADD27RoundRect,0.237500X-0.237500X0.250000X-0.237500X-0.250000X0.237500X-0.250000X0.237500X0.250000X0*%
%ADD28R,1.905000X2.000000*%
%ADD29O,1.905000X2.000000*%
%ADD30RoundRect,0.237500X0.250000X0.237500X-0.250000X0.237500X-0.250000X-0.237500X0.250000X-0.237500X0*%
%ADD31RoundRect,0.237500X0.237500X-0.250000X0.237500X0.250000X-0.237500X0.250000X-0.237500X-0.250000X0*%
%ADD32C,1.752600*%
%ADD33R,0.354800X0.633400*%
%ADD34R,0.633400X0.354800*%
%ADD35C,1.143000*%
%ADD36RoundRect,0.225000X0.225000X-0.425000X0.225000X0.425000X-0.225000X0.425000X-0.225000X-0.425000X0*%
%ADD37FreePoly0,90.000000*%
G04 APERTURE END LIST*
D10*
%TO.C,REF\u002A\u002A1*%
X160664097Y-94457310D03*
X170664097Y-94457310D03*
X160664097Y-81807310D03*
X170664097Y-81807310D03*
D11*
X156934097Y-85632310D03*
X168164097Y-79402310D03*
X156934097Y-88132310D03*
X165664097Y-79402310D03*
X156934097Y-90632310D03*
X163164097Y-79402310D03*
D12*
X171414097Y-91382310D03*
X171414097Y-84882310D03*
X175914097Y-91382310D03*
X175914097Y-84882310D03*
%TD*%
D13*
%TO.C,C15*%
X152664097Y-87319810D03*
X152664097Y-85594810D03*
%TD*%
D14*
%TO.C,C14*%
X166439097Y-74957310D03*
X168164097Y-74957310D03*
%TD*%
D13*
%TO.C,C19*%
X118500000Y-76348976D03*
X118500000Y-74623976D03*
%TD*%
D15*
%TO.C,C1*%
X116225000Y-76500000D03*
X114500000Y-76500000D03*
%TD*%
D16*
%TO.C,C8*%
X122000000Y-74623976D03*
X122000000Y-76348976D03*
%TD*%
D17*
%TO.C,J3*%
X145894097Y-76146476D03*
D18*
X145894097Y-73606476D03*
%TD*%
D19*
%TO.C,U8*%
X158000000Y-61050000D03*
D20*
X156500000Y-61137500D03*
D19*
X155000000Y-61050000D03*
%TD*%
D17*
%TO.C,J2*%
X125540000Y-109500000D03*
D18*
X123000000Y-109500000D03*
%TD*%
D21*
%TO.C,D2*%
X118894097Y-69381476D03*
D22*
X118894097Y-66841476D03*
%TD*%
D23*
%TO.C,SW1*%
X160664097Y-101319810D03*
X167164097Y-101319810D03*
X160664097Y-105819810D03*
X167164097Y-105819810D03*
%TD*%
D24*
%TO.C,M2*%
X176500000Y-79000000D03*
%TD*%
D15*
%TO.C,C7*%
X168164097Y-70819810D03*
X166439097Y-70819810D03*
%TD*%
D21*
%TO.C,D1*%
X173934097Y-73319810D03*
D22*
X171394097Y-73319810D03*
%TD*%
D13*
%TO.C,C4*%
X152664097Y-90682310D03*
X152664097Y-88957310D03*
%TD*%
D25*
%TO.C,R1*%
X156751597Y-73419810D03*
X158576597Y-73419810D03*
%TD*%
D21*
%TO.C,D4*%
X155971267Y-56500000D03*
D22*
X158511267Y-56500000D03*
%TD*%
D17*
%TO.C,U1*%
X141380000Y-55500000D03*
D18*
X141380000Y-52960000D03*
X143920000Y-55500000D03*
X143920000Y-52960000D03*
X146460000Y-55500000D03*
X146460000Y-52960000D03*
X149000000Y-55500000D03*
X149000000Y-52960000D03*
%TD*%
D15*
%TO.C,C16*%
X164664097Y-70819810D03*
X162939097Y-70819810D03*
%TD*%
D26*
%TO.C,U10*%
X154664097Y-73669810D03*
X154164097Y-73669810D03*
X153664097Y-73669810D03*
X153164097Y-73669810D03*
X152664097Y-73669810D03*
X152664097Y-77969810D03*
X153164097Y-77969810D03*
X153664097Y-77969810D03*
X154164097Y-77969810D03*
X154664097Y-77969810D03*
%TD*%
D27*
%TO.C,R9*%
X161471267Y-57175000D03*
X161471267Y-59000000D03*
%TD*%
D14*
%TO.C,C5*%
X162801597Y-74957310D03*
X164526597Y-74957310D03*
%TD*%
D24*
%TO.C,M2*%
X124000000Y-61500000D03*
%TD*%
D28*
%TO.C,Q1*%
X145971267Y-59000000D03*
D29*
X143431267Y-59000000D03*
X140891267Y-59000000D03*
%TD*%
D23*
%TO.C,SW3*%
X121000000Y-105500000D03*
X121000000Y-99000000D03*
X125500000Y-105500000D03*
X125500000Y-99000000D03*
%TD*%
D21*
%TO.C,D3*%
X133631267Y-56000000D03*
D22*
X136171267Y-56000000D03*
%TD*%
D30*
%TO.C,R15*%
X151383767Y-60500000D03*
X149558767Y-60500000D03*
%TD*%
D23*
%TO.C,SW2*%
X151664097Y-103819810D03*
X151664097Y-97319810D03*
X156164097Y-103819810D03*
X156164097Y-97319810D03*
%TD*%
D24*
%TO.C,M2*%
X171500000Y-103000000D03*
%TD*%
D31*
%TO.C,R7*%
X123394097Y-69018976D03*
X123394097Y-67193976D03*
%TD*%
D13*
%TO.C,C18*%
X120314097Y-76348976D03*
X120314097Y-74623976D03*
%TD*%
D15*
%TO.C,C13*%
X158526597Y-78219810D03*
X156801597Y-78219810D03*
%TD*%
%TO.C,C17*%
X168124097Y-67819810D03*
X166399097Y-67819810D03*
%TD*%
D32*
%TO.C,U2*%
X114194097Y-94226476D03*
X116734097Y-94226476D03*
X119274097Y-94226476D03*
X121814097Y-94226476D03*
X124354097Y-94226476D03*
X126894097Y-94226476D03*
X129434097Y-94226476D03*
X131974097Y-94226476D03*
X134514097Y-94226476D03*
X137054097Y-94226476D03*
X139594097Y-94226476D03*
X142134097Y-94226476D03*
X142134097Y-78986476D03*
X139594097Y-78986476D03*
X137054097Y-78986476D03*
X134514097Y-78986476D03*
X131974097Y-78986476D03*
X129434097Y-78986476D03*
X126894097Y-78986476D03*
X124354097Y-78986476D03*
X121814097Y-78986476D03*
X119274097Y-78986476D03*
X116734097Y-78986476D03*
X114194097Y-78986476D03*
X137054097Y-91686476D03*
X137054097Y-89146476D03*
X137054097Y-86606476D03*
%TD*%
D30*
%TO.C,R14*%
X151383767Y-59000000D03*
X149558767Y-59000000D03*
%TD*%
D24*
%TO.C,M2*%
X165000000Y-60500000D03*
%TD*%
D17*
%TO.C,J1*%
X145894097Y-68646476D03*
D18*
X145894097Y-66106476D03*
X143354097Y-68646476D03*
X143354097Y-66106476D03*
X140814097Y-68646476D03*
X140814097Y-66106476D03*
X138274097Y-68646476D03*
X138274097Y-66106476D03*
X135734097Y-68646476D03*
X135734097Y-66106476D03*
X133194097Y-68646476D03*
X133194097Y-66106476D03*
X130654097Y-68646476D03*
X130654097Y-66106476D03*
%TD*%
D24*
%TO.C,M2*%
X116500000Y-99500000D03*
%TD*%
D14*
%TO.C,C11*%
X136944097Y-72606476D03*
X138669097Y-72606476D03*
%TD*%
D15*
%TO.C,C6*%
X164624097Y-67819810D03*
X162899097Y-67819810D03*
%TD*%
D14*
%TO.C,C12*%
X136944097Y-76606476D03*
X138669097Y-76606476D03*
%TD*%
%TO.C,C2*%
X145164097Y-82132311D03*
X146889097Y-82132311D03*
%TD*%
D15*
%TO.C,C3*%
X146953697Y-91132311D03*
X145228697Y-91132311D03*
%TD*%
D25*
%TO.C,R2*%
X156751597Y-75719810D03*
X158576597Y-75719810D03*
%TD*%
D14*
%TO.C,C9*%
X140669097Y-72606476D03*
X142394097Y-72606476D03*
%TD*%
D33*
%TO.C,U5*%
X146914098Y-85451210D03*
X146414097Y-85451210D03*
X145914097Y-85451210D03*
X145414096Y-85451210D03*
D34*
X145236997Y-86132311D03*
X145236997Y-86632310D03*
X145236997Y-87132309D03*
D33*
X145414096Y-87813410D03*
X145914097Y-87813410D03*
X146414097Y-87813410D03*
X146914098Y-87813410D03*
D34*
X147091197Y-87132309D03*
X147091197Y-86632310D03*
X147091197Y-86132311D03*
%TD*%
D24*
%TO.C,M2*%
X145500000Y-112000000D03*
%TD*%
D30*
%TO.C,R8*%
X135500000Y-60000000D03*
X133675000Y-60000000D03*
%TD*%
D14*
%TO.C,C10*%
X140531597Y-76606476D03*
X142256597Y-76606476D03*
%TD*%
D35*
%TO.C,U3*%
X165636497Y-65819810D03*
X166906497Y-65819810D03*
X168176497Y-65819810D03*
%TD*%
D30*
%TO.C,R6*%
X172006597Y-68819810D03*
X170181597Y-68819810D03*
%TD*%
D35*
%TO.C,U4*%
X160801597Y-68359810D03*
X160801597Y-67089810D03*
X160801597Y-65819810D03*
%TD*%
D36*
%TO.C,U9*%
X127500000Y-59950000D03*
D37*
X129000000Y-59862500D03*
D36*
X130500000Y-59950000D03*
%TD*%
M02*
