M48
; DRILL file KiCad 10.0.5 date 2026-09-07T15:44:44
; FORMAT={-:-/ absolute / metric / decimal}
; #@! TF.CreationDate,2026-09-07T15:44:44+01:00
; #@! TF.GenerationSoftware,Kicad,Pcbnew,10.0.5
; #@! TF.FileFunction,MixedPlating,1,2
FMAT,2
METRIC
; #@! TA.AperFunction,Plated,PTH,ViaDrill
T1C0.300
; #@! TA.AperFunction,Plated,PTH,ComponentDrill
T2C0.635
; #@! TA.AperFunction,Plated,PTH,ComponentDrill
T3C0.900
; #@! TA.AperFunction,Plated,PTH,ComponentDrill
T4C1.000
; #@! TA.AperFunction,Plated,PTH,ComponentDrill
T5C1.050
; #@! TA.AperFunction,Plated,PTH,ComponentDrill
T6C1.092
; #@! TA.AperFunction,Plated,PTH,ComponentDrill
T7C1.100
; #@! TA.AperFunction,Plated,PTH,ComponentDrill
T8C1.250
; #@! TA.AperFunction,Plated,PTH,ComponentDrill
T9C1.550
; #@! TA.AperFunction,Plated,PTH,ComponentDrill
T10C2.200
%
G90
G05
T1
X125.0Y-58.0
X125.5Y-70.5
X125.5Y-84.0
X125.5Y-96.5
X126.0Y-69.0
X127.0Y-64.5
X127.5Y-57.0
X128.0Y-70.5
X128.0Y-72.523
X128.5Y-61.5
X128.52Y-64.0
X129.434Y-78.986
X129.434Y-94.226
X129.5Y-64.5
X129.5Y-80.5
X130.072Y-81.428
X130.5Y-62.5
X130.5Y-83.826
X130.5Y-88.5
X131.0Y-70.1
X131.851Y-85.351
X132.0Y-60.0
X132.0Y-80.5
X132.0Y-97.02
X133.0Y-86.5
X134.0Y-65.02
X134.0Y-70.62
X134.0Y-82.0
X134.328Y-84.346
X134.5Y-61.0
X134.509Y-82.509
X135.0Y-70.5
X135.0Y-74.5
X135.48Y-67.402
X135.5Y-72.5
X135.5Y-75.5
X136.0Y-57.5
X136.0Y-71.5
X136.0Y-83.5
X136.424Y-69.98
X136.944Y-73.46
X137.0Y-68.0
X137.765Y-63.02
X137.98Y-57.5
X138.0Y-53.0
X138.0Y-64.52
X138.0Y-70.5
X138.5Y-63.02
X138.5Y-73.98
X138.5Y-75.02
X138.95Y-67.97
X139.02Y-59.0
X139.5Y-64.0
X139.5Y-66.5
X139.5Y-73.5
X139.5Y-75.5
X140.0Y-83.0
X140.0Y-86.5
X140.479Y-67.422
X140.5Y-69.98
X141.0Y-78.0
X141.0Y-88.46
X141.5Y-64.5
X141.5Y-74.5
X141.5Y-83.0
X142.104Y-67.396
X142.5Y-84.0
X142.5Y-88.0
X142.5Y-90.5
X142.882Y-80.882
X143.0Y-82.5
X143.0Y-87.0
X143.48Y-85.491
X144.0Y-61.52
X144.0Y-75.0
X144.0Y-86.0
X144.0Y-88.0
X144.173Y-79.563
X144.669Y-71.843
X144.709Y-89.5
X145.0Y-57.0
X145.0Y-84.0
X145.001Y-74.5
X145.5Y-95.5
X145.892Y-70.5
X146.0Y-88.98
X147.0Y-89.5
X147.018Y-72.482
X147.41Y-59.5
X147.5Y-75.5
X147.5Y-79.0
X148.0Y-63.5
X148.0Y-90.0
X148.362Y-79.597
X148.5Y-87.83
X149.0Y-64.0
X149.0Y-81.0
X149.5Y-58.0
X149.5Y-61.52
X149.5Y-79.0
X149.5Y-80.0
X149.5Y-84.0
X149.5Y-85.5
X149.5Y-87.0
X149.5Y-90.0
X149.508Y-84.728
X150.0Y-65.5
X150.0Y-88.0
X150.489Y-91.132
X150.5Y-56.0
X150.5Y-63.5
X151.5Y-66.98
X151.5Y-75.98
X152.48Y-61.52
X152.489Y-79.48
X153.0Y-57.5
X153.0Y-83.0
X153.48Y-76.5
X153.52Y-58.02
X154.0Y-54.0
X154.0Y-56.5
X154.0Y-66.98
X154.0Y-80.0
X154.0Y-89.5
X154.5Y-82.0
X154.5Y-87.612
X154.5Y-91.5
X155.0Y-59.0
X155.0Y-72.0
X155.0Y-76.0
X155.0Y-79.5
X156.0Y-74.0
X157.0Y-66.5
X157.5Y-81.0
X158.0Y-70.5
X159.0Y-66.5
X159.0Y-68.0
X160.0Y-59.0
X160.0Y-72.5
X163.5Y-66.5
X163.5Y-69.0
X164.5Y-69.5
X165.5Y-72.0
X165.879Y-69.043
X166.5Y-76.5
X168.0Y-69.5
X171.414Y-91.382
X172.5Y-98.0
X173.5Y-96.5
X173.509Y-99.009
X174.5Y-99.0
X175.5Y-96.5
X175.5Y-99.0
X175.914Y-84.882
X176.5Y-98.0
T2
X160.802Y-65.82
X160.802Y-67.09
X160.802Y-68.36
X165.636Y-65.82
X166.906Y-65.82
X168.176Y-65.82
T3
X118.894Y-66.841
X118.894Y-69.381
X133.631Y-56.0
X136.171Y-56.0
X155.971Y-56.5
X158.511Y-56.5
X171.394Y-73.32
X173.934Y-73.32
T4
X123.0Y-109.5
X125.54Y-109.5
X130.654Y-66.106
X130.654Y-68.646
X133.194Y-66.106
X133.194Y-68.646
X135.734Y-66.106
X135.734Y-68.646
X138.274Y-66.106
X138.274Y-68.646
X140.814Y-66.106
X140.814Y-68.646
X141.38Y-52.96
X141.38Y-55.5
X143.354Y-66.106
X143.354Y-68.646
X143.92Y-52.96
X143.92Y-55.5
X145.894Y-66.106
X145.894Y-68.646
X145.894Y-73.606
X145.894Y-76.146
X146.46Y-52.96
X146.46Y-55.5
X149.0Y-52.96
X149.0Y-55.5
T5
X156.934Y-85.632
X156.934Y-88.132
X156.934Y-90.632
X163.164Y-79.402
X165.664Y-79.402
X168.164Y-79.402
T6
X114.194Y-78.986
X114.194Y-94.226
X116.734Y-78.986
X116.734Y-94.226
X119.274Y-78.986
X119.274Y-94.226
X121.814Y-78.986
X121.814Y-94.226
X124.354Y-78.986
X124.354Y-94.226
X126.894Y-78.986
X126.894Y-94.226
X129.434Y-78.986
X129.434Y-94.226
X131.974Y-78.986
X131.974Y-94.226
X134.514Y-78.986
X134.514Y-94.226
X137.054Y-78.986
X137.054Y-86.606
X137.054Y-89.146
X137.054Y-91.686
X137.054Y-94.226
X139.594Y-78.986
X139.594Y-94.226
X142.134Y-78.986
X142.134Y-94.226
T7
X121.0Y-99.0
X121.0Y-105.5
X125.5Y-99.0
X125.5Y-105.5
X140.891Y-59.0
X143.431Y-59.0
X145.971Y-59.0
X151.664Y-97.32
X151.664Y-103.82
X156.164Y-97.32
X156.164Y-103.82
X160.664Y-101.32
X160.664Y-105.82
X167.164Y-101.32
X167.164Y-105.82
T8
X171.414Y-84.882
X171.414Y-91.382
X175.914Y-84.882
X175.914Y-91.382
T9
X160.664Y-81.807
X160.664Y-94.457
X170.664Y-81.807
X170.664Y-94.457
T10
X116.5Y-99.5
X124.0Y-61.5
X145.5Y-112.0
X165.0Y-60.5
X171.5Y-103.0
X176.5Y-79.0
M30
