%TF.GenerationSoftware,KiCad,Pcbnew,10.0.5*%
%TF.CreationDate,2026-09-07T15:44:27+01:00*%
%TF.ProjectId,deltavr_controller,64656c74-6176-4725-9f63-6f6e74726f6c,rev?*%
%TF.SameCoordinates,Original*%
%TF.FileFunction,Soldermask,Bot*%
%TF.FilePolarity,Negative*%
%FSLAX46Y46*%
G04 Gerber Fmt 4.6, Leading zero omitted, Abs format (unit mm)*
G04 Created by KiCad (PCBNEW 10.0.5) date 2026-09-07 15:44:27*
%MOMM*%
%LPD*%
G01*
G04 APERTURE LIST*
%ADD10C,2.750000*%
%ADD11C,2.250000*%
%ADD12C,2.450000*%
%ADD13R,1.700000X1.700000*%
%ADD14C,1.700000*%
%ADD15R,1.800000X1.800000*%
%ADD16C,1.800000*%
%ADD17C,2.000000*%
%ADD18C,4.400000*%
%ADD19R,1.905000X2.000000*%
%ADD20O,1.905000X2.000000*%
%ADD21C,1.752600*%
%ADD22C,1.143000*%
G04 APERTURE END LIST*
D10*
%TO.C,REF\u002A\u002A1*%
X160664097Y-94457310D03*
X170664097Y-94457310D03*
X160664097Y-81807310D03*
X170664097Y-81807310D03*
D11*
X156934097Y-85632310D03*
X168164097Y-79402310D03*
X156934097Y-88132310D03*
X165664097Y-79402310D03*
X156934097Y-90632310D03*
X163164097Y-79402310D03*
D12*
X171414097Y-91382310D03*
X171414097Y-84882310D03*
X175914097Y-91382310D03*
X175914097Y-84882310D03*
%TD*%
D13*
%TO.C,J3*%
X145894097Y-76146476D03*
D14*
X145894097Y-73606476D03*
%TD*%
D13*
%TO.C,J2*%
X125540000Y-109500000D03*
D14*
X123000000Y-109500000D03*
%TD*%
D15*
%TO.C,D2*%
X118894097Y-69381476D03*
D16*
X118894097Y-66841476D03*
%TD*%
D17*
%TO.C,SW1*%
X160664097Y-101319810D03*
X167164097Y-101319810D03*
X160664097Y-105819810D03*
X167164097Y-105819810D03*
%TD*%
D18*
%TO.C,M2*%
X176500000Y-79000000D03*
%TD*%
D15*
%TO.C,D1*%
X173934097Y-73319810D03*
D16*
X171394097Y-73319810D03*
%TD*%
D15*
%TO.C,D4*%
X155971267Y-56500000D03*
D16*
X158511267Y-56500000D03*
%TD*%
D13*
%TO.C,U1*%
X141380000Y-55500000D03*
D14*
X141380000Y-52960000D03*
X143920000Y-55500000D03*
X143920000Y-52960000D03*
X146460000Y-55500000D03*
X146460000Y-52960000D03*
X149000000Y-55500000D03*
X149000000Y-52960000D03*
%TD*%
D18*
%TO.C,M2*%
X124000000Y-61500000D03*
%TD*%
D19*
%TO.C,Q1*%
X145971267Y-59000000D03*
D20*
X143431267Y-59000000D03*
X140891267Y-59000000D03*
%TD*%
D17*
%TO.C,SW3*%
X121000000Y-105500000D03*
X121000000Y-99000000D03*
X125500000Y-105500000D03*
X125500000Y-99000000D03*
%TD*%
D15*
%TO.C,D3*%
X133631267Y-56000000D03*
D16*
X136171267Y-56000000D03*
%TD*%
D17*
%TO.C,SW2*%
X151664097Y-103819810D03*
X151664097Y-97319810D03*
X156164097Y-103819810D03*
X156164097Y-97319810D03*
%TD*%
D18*
%TO.C,M2*%
X171500000Y-103000000D03*
%TD*%
D21*
%TO.C,U2*%
X114194097Y-94226476D03*
X116734097Y-94226476D03*
X119274097Y-94226476D03*
X121814097Y-94226476D03*
X124354097Y-94226476D03*
X126894097Y-94226476D03*
X129434097Y-94226476D03*
X131974097Y-94226476D03*
X134514097Y-94226476D03*
X137054097Y-94226476D03*
X139594097Y-94226476D03*
X142134097Y-94226476D03*
X142134097Y-78986476D03*
X139594097Y-78986476D03*
X137054097Y-78986476D03*
X134514097Y-78986476D03*
X131974097Y-78986476D03*
X129434097Y-78986476D03*
X126894097Y-78986476D03*
X124354097Y-78986476D03*
X121814097Y-78986476D03*
X119274097Y-78986476D03*
X116734097Y-78986476D03*
X114194097Y-78986476D03*
X137054097Y-91686476D03*
X137054097Y-89146476D03*
X137054097Y-86606476D03*
%TD*%
D18*
%TO.C,M2*%
X165000000Y-60500000D03*
%TD*%
D13*
%TO.C,J1*%
X145894097Y-68646476D03*
D14*
X145894097Y-66106476D03*
X143354097Y-68646476D03*
X143354097Y-66106476D03*
X140814097Y-68646476D03*
X140814097Y-66106476D03*
X138274097Y-68646476D03*
X138274097Y-66106476D03*
X135734097Y-68646476D03*
X135734097Y-66106476D03*
X133194097Y-68646476D03*
X133194097Y-66106476D03*
X130654097Y-68646476D03*
X130654097Y-66106476D03*
%TD*%
D18*
%TO.C,M2*%
X116500000Y-99500000D03*
%TD*%
%TO.C,M2*%
X145500000Y-112000000D03*
%TD*%
D22*
%TO.C,U3*%
X165636497Y-65819810D03*
X166906497Y-65819810D03*
X168176497Y-65819810D03*
%TD*%
%TO.C,U4*%
X160801597Y-68359810D03*
X160801597Y-67089810D03*
X160801597Y-65819810D03*
%TD*%
M02*
